<svg xmlns="http://www.w3.org/2000/svg" xmlns:xlink="http://www.w3.org/1999/xlink" viewBox="0 0 1920 250"><defs><style>.a{fill:#f4f4f4;}.b{clip-path:url(#a);}</style><clipPath id="a"><rect class="a" width="1920" height="250" transform="translate(0 422)"/></clipPath></defs><g class="b" transform="translate(1920 672) rotate(180)"><path class="a" d="M0,0H1920V992.9s-48.25-6.12-92.189-20.16c-31.979-10.219-51.472-28.261-99.8-33.368-51.15-5.405-96.586,28.231-168,16.874-39.637-6.3-91.668-66.634-136.17-71.493-42.31-4.62-105.443,10-150.719,6.488-39.5-3.068-89.789-31.09-131.344-32.411-37.8-1.2-71.553,49.735-157.177,57.838s-134.382-37.386-185.319-25.427C756.3,901.334,708,1013.023,610.971,1016.4s-145.415-47.207-248.707-60.152-86.062,53.483-227.682,90.975S0,1085.8,0,1085.8Z" transform="translate(0.055 -413.715)"/></g></svg>