<svg xmlns="http://www.w3.org/2000/svg" viewBox="-1467 720.4 228.4 88.6"><path d="M-1240.2 801.5c0-13-1-26.3-1.5-39.4-.3-12.5.2-24.9.4-37.4a2.1 2.1 0 0 0-.6-1.7 2.4 2.4 0 0 0-2.3-.6c-3.6.2-7.6-.2-11-.2-4.7 0-9.4 0-14 .3-8.6.5-17.2.6-25.7.6-18.9 0-37.7-.4-56.6-.4-19.3 0-38.7.5-58 .4-9.2 0-18 .2-27.3 1.1-9 .6-18.3 2.3-27.6 2.5-1.5 0-1.2 1.1-1.2 2v1.2c0 13.8 1.5 27.2 2.5 41 .6 6.5.8 13 1.4 19.6l.8 9.8c.1 2 0 3.7 1 5.5a1.1 1.1 0 0 0 1.1.6 1.1 1.1 0 0 0 1.2.5c14.8.5 29.6-1 44.4.3 7.6.6 15.5.1 23.2.1h23.6c30.1 0 60.3-1.2 90.3-1 4.3 0 8.6.2 13 0 8-.3 7.2-1.2 11.6-1 3.2.2 6.2-.6 9.4-.8a2.8 2.8 0 0 0 2-.8 2.4 2.4 0 0 0-.1-2.2zm-15.8 1.6c-9.8 1.1-19.5.6-29.4.5-8.9 0-17.7.6-26.7.6h-29.6c-20 .2-39.9.4-60 .4-9.3 0-18.5-.4-27.8-.4-9.2 0-18.3.3-27.5 0a1.5 1.5 0 0 0-.9-1c-.5-2-.3-5-.5-7l-.7-9.2c-.4-6.2-.6-12.6-1.2-18.9-1.1-12.8-2.3-25.4-2.3-38.4a.7.7 0 0 0-.1-.5c9-.3 17.6-1.8 26.2-2.6 9.2-.8 18.1-1 27.3-1 20 0 39.8-.4 60-.5 19 0 38 .4 57.1.4 9 0 17.8-.5 26.8-.8a107.5 107.5 0 0 1 14 0l7 .6a1120.8 1120.8 0 0 0 1.5 77 8.6 8.6 0 0 0-1.6 0c-4 .3-7.8.3-11.6.8z"/><path d="M-1404.4 809c-2.9 0-5.9 0-8.8-.3-8.4-.7-17-.5-25.5-.4-6 .1-12.5.3-18.8 0a2.8 2.8 0 0 1-1.8-.6 2.8 2.8 0 0 1-1.8-1.4 11.3 11.3 0 0 1-1-5.2v-.9l-.5-4.6-.4-5-.6-8.6c-.2-3.7-.4-7.5-.8-11.2l-.8-9.3a365 365 0 0 1-1.8-31.8v-1.6a3.3 3.3 0 0 1 .6-2.4 2.8 2.8 0 0 1 2-.8c5.4 0 11-.8 16.3-1.4 3.7-.4 7.5-.9 11.2-1 10.2-1 20-1.2 27.4-1.2 10.5.1 21.2 0 31.6-.2a2288.7 2288.7 0 0 1 83 .2c7.6 0 16.5 0 25.5-.6 4.8-.3 9.4-.3 14.2-.3l4.2.1c2.2.1 4.5.2 6.5.1a4.3 4.3 0 0 1 3.5 1 3.6 3.6 0 0 1 1.1 3c0 3.3 0 6.7-.2 10.1-.2 9-.4 18-.2 27.1l.6 15.1c.4 8 .8 16 .8 24a4.2 4.2 0 0 1 0 3.1v.2l-.3.2a4.5 4.5 0 0 1-3 1.4l-3.5.4a24.7 24.7 0 0 1-6 .4 12.4 12.4 0 0 0-4.2.3 64.4 64.4 0 0 1-7.3.7c-2.9.1-5.9.1-8.7 0h-4.3c-16.2 0-32.8.2-48.8.5-13.6.2-27.7.5-41.5.5h-23.6l-7.2.1a54.7 54.7 0 0 1-7.1.3zm-54.3-4.4l.1.3h.2v-.2zm29.3-1.9l14 .2 13.8.2c20 0 40.1-.2 59.6-.4h30c4.2 0 8.4-.2 12.5-.3a224.3 224.3 0 0 1 19.5-.2c8.2.1 16 .3 23.9-.6l6.7-.5 4.8-.3h.2a1075.2 1075.2 0 0 1-1.5-74c-1.5-.3-3.3-.4-5.5-.6a104.4 104.4 0 0 0-13.7 0l-7.8.3c-6.2.3-12.7.5-19 .5-9.6 0-19.3 0-28.7-.2s-19-.2-28.6-.2l-22.5.2c-12.2.1-24.9.3-37.3.2-7.3 0-17 .1-27 1.1l-9 1c-5.2.6-10.5 1.3-15.8 1.6 0 10.6 1 21.3 1.8 31.6l.5 5.8.7 11.2.5 7.7.7 9.2a21 21 0 0 1 .1 2.6l.2 3.6.5.5a336.5 336.5 0 0 0 26.5-.2zm188-.2zm-1.2-26.4l.8 19.2-.7-18a4.9 4.9 0 0 0 0-1.2zm-2.2-52.3a.9.9 0 0 1 .5.1l1.3.2v1.3l-.1 16.4.2-7 .2-10.2a.6.6 0 0 0-.2-.6 1 1 0 0 0-1-.2h-.9z"/><path d="M-1440.2 781.8a31 31 0 0 1-.3-4.3c.1-1.5 3-1.4 4.5-1.6 1 0 1.7.1 1.7 1.6v1.3c0 2.7 1.5 5 3.8 5 3.6 0 4-1.9 4-6.8h-.2v-2c0-2.8-.4-4.4-2.6-4.4h-.5c-1.5 0-2.9-.4-4.4-.4h-.5c-4.7 0-5.6-5-6.5-8.6a31.4 31.4 0 0 1-.5-6c0-1.5.3-2.9.2-4.5v-.4c0-5.8 4.6-7.8 10-7.8h2.2c5 0 8.8 2 8.8 8.7v.3l.2 3.6c0 1.1-.3 1.6-2 1.6h-1.4l-2.3.1h-.2a1 1 0 0 1-.7-.9c0-1 .4-2 .4-3 0-2.4-1.6-4-4.7-4-4.4 0-3.7 11.1-3.7 11.4 0 3 3 3 5 3.1l1.8-.2c5.7 0 6.8 3 7.6 6.5a18.2 18.2 0 0 1 .5 4 14.8 14.8 0 0 1 0 2.1v3.3c0 5.2-1 9.5-8.3 11a1.7 1.7 0 0 1-.7 0c-5 0-10.7-1.8-11.2-8.7zm23.4-.6v-26.8l-.2-2.4c0-2 .2-3.9.3-5.8.1-2.2 1.7-1.5 5.2-2.4a.9.9 0 0 1 .5 0c.5 0 .7.5.7 1v4.8c0 4-.3 8-.4 11.7 0 .5 0 1.2.6 1 5.2 0 6.4-4 6.4-7.7v-2.2c0-2.6.5-5.2.5-7.8v-.5c0-1.5 2.3-.8 4.3-1.3h.7c1.8 0 1.8 6.8 1.8 8.3a23 23 0 0 1-4.5 14.5v.4c0 .3 2.2 1.6 3 3a20 20 0 0 1 1.5 9.3 95 95 0 0 1-.7 9.2c-.2.7-.5 1.2-1.2 1.2-3.4 0-5 .6-5-2.8-.6-5.9 0-16.8-6-16.8-.6 0-.8.3-.8.8l.2 3.2V787c0 1.1-.4 1.6-1.4 1.6h-.4c-1.2 0-2.5.5-3.8.5-1.6 0-1.3-7.8-1.3-7.9zm107.2 6.2V780h-.2v-28c0-2.7-.5-6.8 1.7-6.8 1.2 0 2.5-.4 3.6-.4 1.7 0 1.2 4 1.2 6l-.2 4v19.7c0 2.6-.2 5.4 0 8.1 0 1.7.4 3.4.4 5.1 0 .6-.5.7-1 .7h-1.6c-1.8 0-3.8 0-3.9-1zm-10.4-4v-4.8l.2-8.4c0-.9-.4-1-1.2-1-1.7 0-5.7-.5-5.7.7 0 2.5-.3 5-.2 7.4l.2 5.8c0 1.6-.3 2.2-1.4 2.2h-.4c-1.1 0-2.1.3-3.2.3h-.1a1 1 0 0 1-1-1v-.2c-.4-5-.4-10.2-.4-14.9v-3.2c0-6.5.7-14 .7-17.6 0-1.9-.3-5.9 1.1-5.9h1.2l3.2.2h.3c.6 0 1 .2 1 1-.2 4.6-.7 9.4-.7 14 .1 1.8-.5 4.3 1.2 4.3 2.4 0 5.9.1 5.9-1.3v-4.5l-.1-2.7.2-8.7v-1.6c0-.6.2-.7 1-.7h1.4a21 21 0 0 0 2.5 0c.7 0 1.4 0 1.4 1a8.6 8.6 0 0 0 0 1.6v4.8c0 2.1-.3 4.3-.3 6.5l.1 6.8c0 6-.5 11.2-.5 16.7v3.4c0 1.3.4 3.6-1 4a15.7 15.7 0 0 1-4.3.8c-1.2 0-1-4.8-1-5zm-34.8-6.2v-1.4c0-2.9-.5-6-.5-8.8 0-2.6.5-6.3.5-8.5v-.9l.2-7.3V749c0-3 1-7.7 5.4-8h4.7a8.6 8.6 0 0 1 8.6 8.6v6.3c-.2.8-.5 1-1.4 1a10.9 10.9 0 0 0-1.8 0h-1.8c-.8-.2-1-.5-1.2-1.7v-1.3c0-3-.5-6.2-3.6-6.2-4.4.3-3.8 4-3.8 7.3l.2 9c0 3.4-.4 7-.5 10.2 0 3.3-.7 8.1 3 8.1 3 0 4.6-.6 4.6-4.2l-.2-3.3c0-1.2 3.7-1.3 5.4-1.3.8 0 1 1 1 2.6 0 4.4 0 12.2-10 12.2-6.5 0-8.8-3.7-8.8-11zm63.7 10.8h-.7c-1.3 0-2.8-.5-4.3-.5-4.4 0-3.9 0-4-3.9v-2c0-1.6 1.6-4.7 2.5-6.7 2.2-5.2 4.2-10.7 6.5-15.9a53.1 53.1 0 0 0 3.4-10.2v-.4c0-.5-.4-.7-1-.7h-2c-2.8 0-5.9.5-8.6.7-1.6 0-1-3-1-4.6 0-2.9 5.8-2.8 7.8-2.8l7 .2h2.6c2.1 0 2.2 5.8 2.2 6.2 0 1.5-2.4 5.4-2.6 6.3-1.3 4-3.2 7.2-4 11.2-1.5 5.5-3.6 11.3-4.9 15.8v.4c0 .8 1.8.5 2.6.5l4-.2c2 0 4.5-.4 4.5 1.8s.4 4.6-1.4 4.6h-1l-4.5.3h-3zm18.3-.4l-3.3.1c-2 0-2-13-2-14.3v-3.6l.1-2.3-.2-6v-7.4c0-3.7.3-7 .3-10.6 0-1.6-.2-2.6 7-2.6a55.4 55.4 0 0 1 5.7.7c2 .2 1.4 3 1.4 4.8 0 1-.4 1.3-1 1.3l-5.7-.3c-1.7 0-.8 7-1 7v6.1c0 .7.3.8.8.8l5.4-.3c1.6 0 1.5 2.5 1.5 4 0 1.7.1 2.8-1.3 2.8l-5.4.2c-1.5 0-1 2.7-1 4.4.2 2.6-.6 9.1 1 9.1 2.1 0 4.2-.9 6.1-.9 1 0 1.4.2 1.4 1.3 0 1.5.4 3 .1 4.3 0 1.4-2.5 1.4-4 1.4l-1.4-.2c-1 0-2 .3-2.9.3h-1.6zm-115.4 0l-3.3.1c-2 0-2-13-2-14.3v-3.6l.1-2.3-.2-6v-7.4c0-3.7.3-7 .3-10.6 0-1.6-.2-2.6 7-2.6a55.4 55.4 0 0 1 5.7.7c1.8.2 1.3 3 1.3 4.8 0 1-.4 1.3-1 1.3l-5.7-.3c-1.7 0-.8 7-1.1 7v6.1c0 .7.5.8.9.8l5.4-.3c1.6 0 1.5 2.5 1.5 4 0 1.7 0 2.8-1.4 2.8l-5.4.2c-1.5 0-1 2.7-1 4.4.2 2.6-.6 9.1 1 9.1 2 0 4.2-.9 6.1-.9 1 0 1.4.2 1.3 1.3 0 1.5.4 3 .4 4.3s-2.5 1.4-4.1 1.4l-1.3-.2c-1 0-2 .3-2.9.3h-1.6zm18-4.9c0-2.9.4-5.7.4-8.5V760l.2-10.7c0-1 .2-2-1-2-1.6 0-3.2.3-4.7.3-.6 0-.9-.4-.9-1v-.4l-.3-3.6c0-1.3 5.2-1.3 7-1.3l2.1.1h3c3 0 6.8-.7 6.8 1.8 0 1.2.3 2.4.2 3.5v.2a.8.8 0 0 1-.8.8c-1.4 0-3.5-.5-5.3-.5-1 0-.8 1.3-.8 2.3 0 4.5.4 9 .4 13.4v2.2l.2 7.2v2.4c0 4 .3 6.8.5 10.8 0 .6 0 1.4-.9 1.4h-.6l-4.3.3c-1.4 0-1.2-2.8-1.2-4.5zm63.4-40.2a5.7 5.7 0 0 1-1.3 0l-.5-.3a2 2 0 0 1-.9-.9 3.4 3.4 0 0 1-.3-2 3.5 3.5 0 0 1 .8-2.2c.6-.6 1.5-.6 2.6-.6a4 4 0 0 1 1.5.3 1.6 1.6 0 0 1 .7.4c.4.4.4.8.5 1.6a10.9 10.9 0 0 1 0 1.8 2.1 2.1 0 0 1-.6 1.3 1.6 1.6 0 0 1-.7.4 1.9 1.9 0 0 0-.7.2h-1z"/></svg>