<svg xmlns="http://www.w3.org/2000/svg" viewBox="-2110.1 -478.3 650.9 563.9">
  <g>
    <path d="M-1788.5-420.3c169.3-24 309 87 278.9 217.2s-76 162.8-278.9 217.2-261-95.5-278.9-217.2 109.6-193.2 279-217.2z" opacity=".1"/>
    <path d="M-1825.4 82.3l.2-3.6c0-15.2-1.3-43.9-13.5-43.9-6 0-8.4-.1-8.4 8.3 0 9.8.5 19.9 1.3 29.5.1.5.1.9.3 1.2 0 4.3-10.7 4.7-14 4.7-5.7 0-6-12.8-6-22.8l.1-31.3a5.3 5.3 0 0 1-.1-1.1l.3-29.8c-.2-1.3-.2-2.7-.2-4 0-6 .5-12 .5-18.2v-1.8c0-6.9-.5-19 4.1-19a22.2 22.2 0 0 0 3 0c5.4 0 10.6-.7 15.9-.7 9.2 0 23.8 2.2 27.6 7 7.6 9.3 6.5 24.5 6.5 36.3 0 13.5-4 27.6-8.4 30.8-.8.7-2.4 2-2.4 2.7 0 1.5 9 3.7 10.7 8.8a67.6 67.6 0 0 1 2.8 22c0 10.8 2 27.8-4.8 27.8-3.9 0-7.8.4-11.7.4-2.8 0-3.8-1.1-3.8-3.3zm-23.2-96.5c.4 10.5.5 20.8 1 31.2 0 2 .8 2.6 2.7 2.6 7.3-.5 19-2.3 19.3-11l.3-14.1c-2.4-8.6 3.3-27.4-11-27.8l-5-.1c-5.5 0-7.3 1.8-7.3 19.2zm-87 72c-.6-7.9-.7-15.6-.8-23.6v-1.8l-.1-3.1c0-11.6.2-23.8 1.4-35.3l.2-6-.1-3.6c0-10.5.5-20.9 1-31.5 1-7.3 19-5.5 21.8-5.5 19 0 35.7 4.7 37.1 17.4.6 5.2 1 10.4 1.2 15.6l-.2 2c0 7 .2 14.1.5 21.3v20.2c0 8.2-.7 16.3-1.2 24.5 0 21.2-10.7 32.1-34.5 32.1h-2.4c-4.5 0-9 .6-13.6.6-9.6 0-9-2.5-10.3-23.3zm19-63.3c0 8 .5 15.3.5 23.3 0 2.4-.3 4.8-.3 7.4 0 2.8.7 5.8.9 8.6.2 8.7.3 17.4.9 26.1 0 2.2.7 2.6 2.8 2.6 6.1 0 15-2.2 16.9-9.1a95 95 0 0 0 2.5-22.3v-5.4c0-11 1.3-22.6 1.3-33.6 0-3.4-.5-6.6-.4-9.8V-20c0-5.2-.9-13.5-6.2-14.2l-8.1-.8c-11.5.7-10.8 0-10.8 29.5zm122 82.7c-.2-3.5-.9-7-.9-10.3a20.4 20.4 0 0 0 .1-2.8l-.2-7.7.2-9.2c0-2.7-.5-5.5-.5-8.2l.2-4.5c0-24.3-1.7-48.3-1.7-72.1l.1-5.8-.2-4.9c0-4 10.7-4.8 16.2-4.8 3.2 0 6.4.6 9.6.6l8-.1h3.3c4.7 0 4 8.6 4 14.2s-4.8 4.3-8.5 4.3c-.9 0-1.7 0-3-.2-5.2 0-9.8-2-9.8 6.1 0 1.8.4 3.6.4 5.4 0 4.9-1.2 10.1-1.2 15 0 1.5.8 2.3 2 2.3 2.8 0 5.6-.5 8.4-.5 9.6 0 11.5-1.3 11.5 15 0 8.1-22.6 1.9-22.6 8.3 0 4.8.5 9.7.5 14.4v8.4c0 6.6 2 12.8 2 19.3.7 4 10.1 3.2 13 3.2 7.1 0 9.8-.8 9.8 9.5 0 3.5 0 6.6-2.5 6.9-1.6 0-2.7-.4-4.1-.4-3.5 0-7 .9-10.5.9a11.2 11.2 0 0 1-2-.1c-5 0-9.7 1-14.5 1h-2c-3 0-4.9-.3-5-3.2zm196 1.6c-2.7 0-4.6-.5-4.6-4.8-.7-11.4-1.3-23.3-1.3-34.5 0-5 .4-10 .4-15 0-2.7-.3-5.4-.3-8.3V9c0-6.7.2-22.2-2.3-24.7-3.4 5.2-4.2 16-5.5 20.1-2.7 9.1-3.6 29.5-10 30.1-7.1.8-14.3.5-21.3.5-2.3-.5-3.1-11.6-4.3-17.4a213.8 213.8 0 0 0-11.4-40 5.4 5.4 0 0 0-.9-1c-.9 1.9-.7 3.9-.7 6 0 6.5.7 13.8.7 20 0 12.2-1 24.5-1 36.7 0 2.9.4 5.8.4 8.8 0 3.4-.4 7-.4 10.5 0 3.8.3 7.7.5 11.4 0 2.4-.3 4.7-3.5 4.7-4.4 0-8.1 1.8-12.5 1.8-4 0-3-8.2-3-12.3 0-9.3 1.4-18.4 1.4-27.8v-2.8l.1-7c0-7-1-12.7-1-19.2V5.7c0-7.6-.7-16.3-.7-24.5 0-14-1.8-29 8-30.2a139.5 139.5 0 0 1 14.6-1c5.6 0 6.8-.6 9.7 11a363.1 363.1 0 0 0 13 38.9 3 3 0 0 0 1.6 1.8c2.6-1.3 3.4-15 4.3-18.1 2.9-10.1 3.9-20.7 6.2-31.1.4-1.8 1-2.7 2.5-2.7 5 .3 10.4.7 14.8.7 3.6 0 7.4-.6 11-.6 6.1 0 7 27.7 7.5 31.1 1.8 12.5 1.8 26.3 1.8 39.3 0 11.6-.5 23-.5 34.3 0 6 .4 12.2.4 18.3 0 3.4-.3 7.5-4.1 7.5-3 0-6.2-1.6-9.6-1.6zm-146.3-4a382 382 0 0 1-.8-28.3l-1.1-40.5c0-13 .9-25.6 1.6-38.3 1.6-15.6 7.3-20.3 20.4-20.3 7.5 0 19.2.5 23.7 4 4.3 3.5 9.7 6.6 11.2 12.2 2.6 9.6 2.3 20 2.3 30.8 0 5-.6 10.8-.6 16.3l.1 5.3c0 16.9.6 34.8-.9 51.2 0 1.8-.6 4.7-2.8 4.7-7 0-17 2-17-3.4l.1-7c0-7 1.3-17.9-3.7-17.9l-12.8.2-1.3-.2c-2.4.3-2.3 2-2.3 5a132 132 0 0 0 2.6 26.3v1c0 4-9 3.6-13.7 4-3.5 0-5-.2-5-5zm16.4-78.7V1c0 7.3-.4 14.7-.4 22.5 0 1.2.4 2.6 1.8 2.6 3 0 6-.8 9-.8h1c9.2 0 9.6 2.2 9.6-20.6-.6-2-.2-6.8-.2-10.2 0-8.4-.6-27-5.6-28.6a21 21 0 0 0-6.3-1.1c-9.5 0-9 16.6-9 31.4zm-290.9-15.6c-.1-1.9-.3-3.7-.2-5.6v-2.1c0-2.8-.2-1-4-3.4-1.7-1-1.5-4.6-1.5-6.6l.1-2.6v-4.3c0-1.3.3-2.6.4-4l-.1-4.3c0-.7.1-1.1.7-1.1h3.5c.7 0 .8.2.8.8a21 21 0 0 0-.1 2.8v.7c0 3.4-.3 6.3-.3 9.4v4c0 1.9 1.9 2.2 3.2 2.2 2 0 2.5-1 2.5-2.7v-8.2a8 8 0 0 1 0-.8c0-2.7-.5-5.5-.5-8 0-1.1 2.7-.8 4-.8 1.2 0 1.4 5.4 1.7 6.8a30 30 0 0 1 .1 4.9v2.2c0 3.5-.7 9.4-3.9 10.3-.8.2-2 .3-2 1.1l.2 8.7c0 1.5-.4 1.6-2.2 1.6h-.6c-.8 0-1.7-.1-1.8-1zm57 0l.2-1c0-3.9-.4-11.3-3.5-11.3-1.6 0-2.2 0-2.2 2.2 0 2.5.1 5.1.3 7.6l.1.3c0 1.1-2.7 1.2-3.6 1.2-1.5 0-1.5-3.3-1.5-5.9v-8a1.4 1.4 0 0 1 0-.3v-8.7l.1-4.7v-.5c0-1.8-.1-4.9 1-4.9a5.9 5.9 0 0 0 .8 0l4.1-.2c2.4 0 6.2.6 7.2 1.8 1.9 2.4 1.6 6.4 1.6 9.4 0 3.5-1 7.1-2.1 8-.2.1-.7.4-.7.6 0 .4 2.4 1 2.8 2.3a17.5 17.5 0 0 1 .7 5.7c0 2.8.6 7.2-1.2 7.2h-3c-.7 0-1-.3-1-.8zm-5.9-24.9c.1 2.7.1 5.4.3 8 0 .6.2.7.7.7 1.9-.1 4.9-.6 5-2.8v-3.6c-.6-2.3.9-7.1-2.8-7.2h-1.3c-1.4 0-1.9.4-1.9 4.9zm-21.6 10.4l.1-2.3v-3.6l.2-7-.1-2a14.5 14.5 0 0 1 .1-1.8V-53c0-.5.2-.6.9-.6h1.5a10.8 10.8 0 0 0 1.4 0c1.2 0 .9 3 1 3.9a67.9 67.9 0 0 1 .2 7.9v3.8l-.2 5.9c0 3.4-.6 7.7 2.5 7.7 2.4 0 2.8-1.8 2.8-5.4 0-2.2-.3-4.4-.3-6.3v-.8l-.1-3.5.1-2.3v-5.9c0-1.5-.4-4.9.7-4.9l2 .2h.6c1.8 0 1.4 2.3 1.5 4l.2 7.4v13.6c0 2-.2 4.5-1 5.8-1.4 2.2-3.2 3.5-7.4 3.5-5.3 0-6.7-2.8-6.7-15zm-17 2.4a27.9 27.9 0 0 1-.5-3.6l.2-6-.1-3.5c0-4.5-.3-9.7 6.4-9.7h.1l3-.2c5.4 0 5.4 5.4 5.8 13.8l-.1 6.2.2 6.1c0 3 .3 6.5-2.5 7.7a12.5 12.5 0 0 1-5.8 1.4c-5.4 0-6-3.5-6.7-12.2zm4.6-13.8l-.1 2a58 58 0 0 0 .3 8.3v.2l-.2 1.8c0 3.2-.7 8.3 2.2 8.3 2.5 0 3.4-1.2 3.4-3.7l-.1-5.2a705 705 0 0 0-.5-12.4c-.1-1.6-.4-4-2-4-3.7 0-2.7 2.3-3 4.6zm254.2-38.3c-.2-2.7-.5-5.6-.5-8.4.2-2.9 5.7-2.7 8.8-3.2 1.8 0 3.3.3 3.3 3.3 0 .8-.3 1.7-.3 2.6 0 5.2 3 9.8 7.7 9.8 7.1 0 7.7-3.7 7.7-13.3h-.2v-4c0-5.6-.8-8.8-5-8.8h-1c-3 0-5.8-.7-8.7-.7h-1c-9.2 0-11-9.9-12.8-17-1-2.6-1-9.8-1-12 0-2.8.4-5.6.4-8.5v-.7c0-11.5 9.2-15.4 19.7-15.4h4.6c9.7 0 17.4 3.7 17.4 17.1v.6l.3 7c0 2.2-.6 3.2-4 3.2h-7.2a1.5 1.5 0 0 1-1.6-1.6c0-1.9.7-4 .7-5.9 0-4.8-3.2-8-9.3-8-8.7 0-7.4 22-7.4 22.6 0 5.9 6 5.8 9.9 6 1.4 0 3-.4 3.6-.4 11.2 0 13.4 5.8 15 13a39 39 0 0 1 .8 7.8v3.8l.2 6.5c0 10.4-2.2 19-16.5 21.6a6.5 6.5 0 0 1-1.3.2c-10 0-21.2-3.6-22.3-17.2zm71.8-3.3c-.4-4.3-.8-13.7-8-13.7-4.5 0-2.6 11.9-2.9 11.9v6.9c0 2.2.5 6.3-2 6.5-3.3.3-6.8 1-10.2 1-1.5 0-2-.6-2-2.4.2-9.8.5-19.6.5-29.5 0-12.7-1.2-25.6-1.2-38.2v-4.1c0-2.2-.9-4-.9-6 0-4.6 0-7 9.3-7 3 0 4 .3 4.2 2.4.6 9.8 2.1 19.6 2 29.1v14.2c0 1.5.2 2.1 1.2 2.1 5.9 0 10-4.4 10-10.2 0-3.5-.4-7-.4-10.4l.2-5.4c0-4.5.2-10.7-1-15a22.6 22.6 0 0 1-.4-5c0-3 .5-3.4 5-3.4 2.8 0 8.4-.3 8.6 2.4.3 5 .8 10.6.8 16.2v1.5c0 4.8.5 9.6.5 14.4 0 9.2-.2 15.7-6.8 22.3a.3.3 0 0 0 0 .3c0 .3.3.6.8.9 7.4 4 8 11.4 8 20.7 0 7.1.7 15.4-4.5 15.4h-.6c-2.8 0-5.4.8-8.2.8s-1.5-13-2-18.7zm67.7 3.8c-.2-2.6-.4-5.3-.4-8.1 0-1.8.4-3.7.4-5.5l-.1-4.8v-16.3c0-3.7.3-7.3.3-11 0-5.6.7-19.2-1.6-19.2l-9.5.3c-2.5 0-2.2-3.4-2.2-6.8 0-4.7 2.5-5.9 7.7-5.9 1.5 0 2.9.3 4.3.3l3.1-.3c2 0 4 .7 6 .7 5 0 10-.4 14.8-.4 3.4 0 3 7.8 3 10.6 0 1-.6 1.7-1.9 1.7l-4.6-.2-2.7-.1c-2.4 0-5-.5-5 2.3 0 4.7.7 10 .7 15.3v2.3l.1 8.8v2.6l.2 12.1-.2 9.1c.1 2.4.6 5 .6 7.3l-.2 2.5.2 6.8c0 3.2 1 9-1.8 9.7-2.5.2-5.2.8-7.5.8-5.2 0-3.7-10.3-3.7-14.6zm-44.9 10.8c-.1-2.4-.6-4.8-.6-7.1a13.7 13.7 0 0 0 .1-2l-.2-5.3.2-6.4c0-1.9-.4-3.8-.4-5.7l.1-3.1c0-17-1.1-33.7-1.1-50.2v-4l-.1-3.4c0-2.8 7.5-3.4 11.3-3.4 2.2 0 4.4.5 6.7.5l5.5-.1h2.3c3.3 0 2.8 6 2.8 9.8s-3.3 3-6 3l-2-.1c-3.6 0-6.8-1.4-6.8 4.3l.2 3.7c0 3.4-.8 7-.8 10.4 0 1 .6 1.6 1.5 1.6l5.7-.3c6.7 0 8-1 8 10.5 0 5.6-15.7 1.2-15.7 5.7 0 3.3.4 6.7.4 10v5.8c0 4.6 1.4 9 1.4 13.5.4 2.8 7 2.2 9 2.2 5 0 6.8-.6 6.8 6.6 0 2.5 0 4.6-1.8 4.8-1 0-1.8-.3-2.8-.3-2.4 0-4.8.6-7.3.6a7.3 7.3 0 0 1-1.4 0c-3.4 0-6.7.6-10 .6h-1.5c-2 0-3.3-.1-3.5-2.2zm75.1-27a19.5 19.5 0 0 0 .1-2.4v-4.6c0-1.6.2-3.3.1-4.9-.2-8.2-.7-15.6-.7-23.3 0-9.5-1.4-28.6 16.2-28.6 4.4 0 8.5.8 12.7 1.6 2.5 0 7.8 3.7 9 5.6 3.2 5.1 3 15.4 3 20.5 0 4.8-6 4.2-10.3 4.2-2.4-.2-2.1-1.8-2.1-4.5a17.4 17.4 0 0 0 0-2.2c0-6.1.2-12.6-7.1-12.6-8.1 0-7.2 4-7.6 14.1l-.2 13.5c0 3.5 1.3 7.3 1.3 11.1 0 6-.6 12-.6 17.9 0 4.4.4 10.6 5.7 10.8 4.5 0 8.8-1.3 8.8-7 0-3.1-1.5-6.7-1.5-10.1 0-2 1.8-2.3 5.2-2.3 2.8 0 7.1-.3 7.5 2.8a81.7 81.7 0 0 1 .7 10.5c0 8-3.7 17.2-12.4 17.8-2.1 0-4.4.7-6.7.7h-1c-12 0-20-.3-20-28.6zm73.1 26l-.5-15v-4.3c0-3.5.7-6.5-3.7-6.5-4.5.2-10.5-.4-10.5 3l.1 1.7v2.5c0 3 .6 6.2.6 9.2s.7 6.3-2.4 6.8c-2.8.4-6.2 2-9 2s-2-9.8-2-11.2c0-4.8.5-9.4.5-14.2l-.1-7.5.1-4.3V-130c0-6.5-1.4-25.4 2.2-26.6a16.2 16.2 0 0 1 5-.7c2.4 0 4.6 0 4.6 2s.5 4.3.5 6.4l-.3 4.9.2 27.3v3a10.5 10.5 0 0 0 0 1.7 1.7 1.7 0 0 0 1.4.6c2 0 4-.6 6-.6h.4c3.7 0 6.1-.7 6.1-3l-.2-6.2.2-4.6v-2c0-3.5.6-7 .6-10.7l.1-18.3v-.5c0-3.4 5.8-2.8 10-2.8 4.4 0 3.4 23.3 3.5 24.3 0 13.3-.1 26.8-1 39.1v6.2l-.2 6.9v4.8c0 6.5.5 6.8-9.7 8-1.8 0-2-.3-2.5-2.7zm-361 .1l.2-2.2c0-9.7-.8-27.8-8.6-27.8-3.7 0-5.3-.1-5.3 5.2 0 6.2.4 12.6.9 18.7l.1.8c0 2.6-6.7 2.9-8.8 2.9-3.7 0-3.8-8.1-3.8-14.4V-110a3.4 3.4 0 0 1 0-.7l.1-18.9v-2.5c0-3.8.3-7.6.3-11.5v-1.1c0-4.4-.3-12.1 2.6-12.1a15.2 15.2 0 0 0 1.8 0c3.4 0 6.8-.4 10-.4 6 0 15.1 1.4 17.6 4.4 4.8 5.9 4.1 15.5 4.1 23 0 8.6-2.6 17.5-5.3 19.5-.5.4-1.6 1.2-1.6 1.7 0 1 5.8 2.3 6.8 5.6a42.9 42.9 0 0 1 1.8 13.8c0 6.9 1.3 17.7-3 17.7l-7.4.2c-1.8 0-2.5-.7-2.5-2zm-14.6-61c.2 6.6.3 13.2.6 19.7 0 1.2.5 1.6 1.7 1.6 4.6-.3 12-1.4 12.3-7l.1-8.8c-1.5-5.5 2.1-17.4-7-17.6l-3.1-.1c-3.5 0-4.6 1.1-4.6 12.1zm-132.2 47.5a81 81 0 0 1-.5-7.7c.2-2.6 5.2-2.4 8-2.8 1.6 0 3 .2 3 2.9l-.2 2.4c0 4.7 2.7 9 7 9 6.4 0 7-3.5 7-12.2h-.2V-99c0-5-.7-8-4.6-8h-1c-2.6 0-5.2-.6-7.8-.6h-.8c-8.5 0-10.2-9-11.8-15.4-.8-2.4-1-9-1-11 0-2.6.5-5 .5-7.7v-.7c0-10.4 8.4-14 18-14h4c9 0 16 3.4 16 15.6v.5l.3 6.5c0 2-.6 2.8-3.7 2.8h-2.4l-4.1.1a1.4 1.4 0 0 1-1.6-1.5c0-1.7.7-3.7.7-5.4 0-4.4-3-7.3-8.5-7.3-7.9 0-6.7 20-6.7 20.6 0 5.3 5.5 5.3 9 5.5 1.3 0 2.8-.4 3.3-.4 10.2 0 12.2 5.3 13.6 11.8a36 36 0 0 1 .8 7l-.1 3.6.2 5.9c0 9.5-2 17.2-15 19.7a6.2 6.2 0 0 1-1.2.1c-9 0-19.2-3.2-20.2-15.6zm175.1.5c-.2-2.5-.3-4.9-.3-7.5 0-1.6.3-3.3.3-5V-118l.2-10c0-5 .6-17.5-1.5-17.5-2.7 0-5.7.4-8.6.4-2.2 0-2-3.2-2-6.3 0-4.3 2.3-5.3 7-5.3l4 .2 2.8-.2c1.8 0 3.6.6 5.5.6 4.4 0 9-.4 13.3-.4 3.1 0 2.8 7.2 2.8 9.7 0 1-.6 1.5-1.7 1.5l-4.2-.1-2.4-.1c-2.2 0-4.7-.5-4.7 2 0 4.4.7 9.2.7 14v2.1l.1 8v2.4l.2 11-.2 8.3c.1 2.1.5 4.5.5 6.6l-.1 2.3.1 6.1c0 3 1 8.3-1.6 8.9-2.3.2-4.7.8-6.8.8-4.8 0-3.4-9.4-3.4-13.3zm-123.2 0c-.2-2.5-.3-4.9-.3-7.5 0-1.6.3-3.3.3-5V-118l.2-10c0-5 .6-17.5-1.5-17.5-2.7 0-5.7.4-8.6.4-2.2 0-2-3.2-2-6.3 0-4.3 2.3-5.3 7-5.3l4 .2 2.8-.2c1.8 0 3.6.6 5.5.6 4.4 0 9-.4 13.3-.4 3.1 0 2.8 7.2 2.8 9.7 0 1-.6 1.5-1.7 1.5l-4.2-.1-2.4-.1c-2.2 0-4.7-.5-4.7 2 0 4.4.7 9.2.7 14v2.1l.1 8v2.4l.2 11-.2 8.3c.1 2.1.5 4.5.5 6.6l-.1 2.3.1 6.1c0 3 1 8.3-1.6 8.9-2.3.2-4.7.8-6.8.8-4.8 0-3.4-9.4-3.4-13.3zm28.4 8.3a29995.5 29995.5 0 0 1-1.2-43.6c0-8.1.5-16.2 1-24.2 1-9.9 4.6-12.9 12.9-12.9 4.8 0 12.1.4 15 2.6 2.7 2.2 6.1 4.2 7 7.7 1.7 6.1 1.5 12.7 1.5 19.5 0 3.2-.4 6.9-.4 10.3l.1 3.4c0 10.6.4 22-.5 32.4 0 1-.4 3-1.8 3-4.5 0-10.8 1.2-10.8-2.2v-4.4c0-4.5.9-11.3-2.3-11.3h-8.9c-1.5.1-1.4 1.2-1.4 3.1A83.5 83.5 0 0 0-1921-78v.7c0 2.5-5.7 2.2-8.7 2.5-2.2 0-3.1-.1-3.1-3.2zm10.3-49.8v3l-.2 14.3c0 .7.2 1.6 1.1 1.6 2 0 3.8-.5 5.7-.5h.6c5.9 0 6.1 1.4 6.1-13-.3-1.3 0-4.3 0-6.5 0-5.3-.5-17-3.6-18a13.3 13.3 0 0 0-4-.8c-6 0-5.7 10.5-5.7 20zm127.9 6.8l-.2-3.8.2-2.5v-14.8c0-2.6.4-8.9-.7-8.9l-4.3.2c-1.2 0-1-1.6-1-3.2 0-2.1 1.1-2.7 3.5-2.7l2 .2 1.4-.2c1 0 1.9.4 2.8.4l6.8-.2c1.5 0 1.4 3.6 1.4 4.9 0 .4-.3.7-.9.7h-3.3c-1.2 0-2.4-.3-2.4 1 0 2.1.3 4.6.3 7v1l.1 4.1v1.2l.1 5.6-.1 4.2.3 3.4-.1 1.1v3.1c0 1.5.6 4.2-.7 4.5-1.2.1-2.4.4-3.5.4-2.4 0-1.7-4.8-1.7-6.7zm14.2-8.4a34.2 34.2 0 0 1-.6-4.6l.2-7.4v-4.3c0-5.6-.5-12.1 7.9-12.1h.1l3.6-.2c6.8 0 6.9 6.7 7.3 17.2v7.7l.1 7.5c0 3.8.4 8-3 9.6a15.5 15.5 0 0 1-7.3 1.7c-6.7 0-7.3-4.3-8.3-15.1zm5.8-17.3l-.2 2.7a71.8 71.8 0 0 0 .4 10.3v.2c0 .7-.3 1.4-.3 2.2 0 4-.8 10.4 2.8 10.4 3 0 4.3-1.6 4.3-4.7l-.2-6.5a954 954 0 0 0-.6-15.4c-.2-2-.5-5-2.5-5-4.6 0-3.4 3-3.8 5.8zm-275.9 15.9c-.2-2.3-.2-4.5-.2-6.9v-1.4c0-3.3 0-6.9.3-10.2l.1-1.7v-1l.3-9.2c.2-2 5.5-1.5 6.3-1.5 5.4 0 10.3 1.3 10.7 5a45 45 0 0 1 .3 4.5v.6l.1 6.1v5.9l-.3 7c0 6.2-3 9.3-10 9.3h-.7l-3.9.2c-2.8 0-2.6-.7-3-6.7zm5.5-18.3l.2 6.7-.1 2.1.2 2.5.3 7.6c0 .6.2.7.8.7 1.8 0 4.4-.6 4.9-2.6a27.6 27.6 0 0 0 .7-6.5v-1.5c0-3.2.4-6.6.4-9.7 0-1-.2-2-.1-2.8v-.7c0-1.5-.3-4-1.8-4.1l-2.4-.2c-3.3.1-3 0-3 8.5zm-20.3 14.5c-1.4-5-2.3-9.8-3.4-14.9a3.2 3.2 0 0 0-.6-1.4 13 13 0 0 0-.3 4.4l-.2 2.7c0 5.1.6 11 .8 15.4 0 2.2.5 3.4-4.4 3.4-1.1 0-1-5.1-1-5.6 0-5.5-.2-11.6-.4-17v-7.4c0-1.7 0-3.6-.2-5.4 0-1.3 4-1.3 4.9-1.3 1 0 1.8.6 2.5.6 1.2 0 1.9 3.8 2.4 5.8a129 129 0 0 0 4.6 13.8c.4.8 1 5.2 1.8 5.2a10 10 0 0 0 .2-2.1c0-6.8-.3-13.6-.6-20 0-.7-.3-1.5-.3-2 0-1.6 3.7-1.2 4.5-1.2 1.7 0 1.5 6.7 1.5 8l.3 8.7-.1 3v6c0 3-.3 6-.3 8.9-.2 2.2 0 2.3-3.8 2.3-1.4 0-3 .5-4.1.5-1.4 0-3.1-8.1-3.8-10.4zm-28.5 8.7c-.2-2.7-.2-5.5-.2-8.2l-.3-11.7c0-3.7.2-7.4.4-11 .5-4.6 2.1-6 6-6 2.1 0 5.5.2 6.8 1.2 1.2 1 2.8 2 3.2 3.5a35 35 0 0 1 .7 9l-.2 4.7v1.5c0 4.9.2 10-.2 14.8 0 .5-.2 1.4-.8 1.4-2 0-5 .5-5-1v-2c0-2 .5-5.2-1-5.2h-4.1c-.7 0-.6.6-.6 1.4a38.3 38.3 0 0 0 .7 7.6v.3c0 1.1-2.6 1-4 1.1-1 0-1.4 0-1.4-1.4zm4.7-22.7v7.8c0 .4 0 .8.5.8l2.5-.3h.3c2.7 0 2.8.7 2.8-6a18.8 18.8 0 0 1 0-2.9c0-2.4-.2-7.7-1.7-8.2a6.2 6.2 0 0 0-1.8-.3c-2.7 0-2.6 4.8-2.6 9zm64.8-30.5l.2-2.8c0-12-1-34.6-10.7-34.6-4.6 0-6.5-.1-6.5 6.5a300.4 300.4 0 0 0 1.2 24.3c0 3.3-8.4 3.6-11 3.6-4.6 0-4.8-10.1-4.8-18l.1-24.6a4 4 0 0 1 0-1l.1-23.5v-3l.3-14.4v-1.4c0-5.5-.4-15.1 3.3-15.1a17.3 17.3 0 0 0 2.3.1c4.2 0 8.4-.6 12.5-.6 7.3 0 18.8 1.7 21.8 5.5 6 7.3 5.2 19.3 5.2 28.6 0 10.7-3.3 21.9-6.7 24.4-.6.5-2 1.5-2 2 0 1.3 7.3 3 8.6 7 1.9 6 2.2 11.4 2.2 17.3 0 8.6 1.6 22-3.9 22-3 0-6.1.4-9.1.4-2.3 0-3-1-3-2.7zm-18.2-76.1c.3 8.3.4 16.4.8 24.6 0 1.5.6 2 2 2 5.8-.4 15.1-1.8 15.3-8.6l.2-11.2c-1.9-6.7 2.7-21.6-8.7-21.9h-4c-4.2 0-5.7 1.3-5.7 15zm142.2 59.9c-.2-3-.4-6-.4-9.3 0-2 .4-4.2.4-6.2l-.1-5.4v-18.6c0-4.2.3-8.3.3-12.4 0-6.4.8-21.9-1.9-21.9-3.4 0-7.1.4-10.7.4-2.8 0-2.5-3.9-2.5-7.7 0-5.4 2.8-6.7 8.8-6.7 1.6 0 3.2.3 4.9.3 1.2 0 2.4-.3 3.5-.3 2.3 0 4.5.8 6.9.8 5.5 0 11.2-.5 16.6-.5 3.9 0 3.5 8.9 3.5 12 0 1.2-.8 2-2.2 2l-5.2-.3h-3c-2.8 0-5.8-.7-5.8 2.6 0 5.3.8 11.4.8 17.3v2.7l.2 9.9v3l.2 13.7c0 3.5-.3 6.8-.3 10.3.2 2.8.7 5.7.7 8.3l-.2 2.9.2 7.6c0 3.7 1.2 10.3-2 11-2.8.3-5.9 1-8.5 1-6 0-4.2-11.7-4.2-16.5zm347.8-29.2l.2-6.8v-10.8q0-10.6.5-21.1l-.2-6.2a44.2 44.2 0 0 1 .3-5.1l-.2-7c0-1.6 1-2 2.9-2 1.6 0 3.2.4 4.7.4a31.5 31.5 0 0 0 4-.5c3.8 0 2.7 9 3 11.9 1.2 7 .6 15.9.8 23.7l-.2 8.3.2 3.1c0 6-.7 12-.7 17.6 0 10.4-1.9 23.3 7.5 23.3 7.2 0 8.3-5.6 8.3-16.1 0-6.7-.8-13.3-.8-19l.1-2.3c0-3.7-.5-7.2-.5-10.7 0-2.2.3-4.5.3-6.8l-.2-4.8c0-2.8.4-5.6.4-8.3l-.2-4.6c0-4.5-1-14.6 2.2-14.6 1.4 0 4 .6 6.1.6h1.6c5.5 0 4.2 6.9 4.4 11.6.3 7.5.8 15 .8 22.3l-.1 3.5.2 5.8c0 3.9-.3 7.7-.3 11.4l.2 7.8c0 3.6-.4 7.5-.3 11v1.3c0 6-.3 13.6-2.5 17.6-4.4 6.7-10 10.3-22.6 10.3-15.6 0-19.9-8.3-19.9-44.8zm-278.2 28.4c-.2-3-.4-6-.4-9.2 0-2 .4-4.1.4-6.1l-.1-5.4v-18.4l.3-12.3c0-6.3.8-21.6-1.8-21.6-3.4 0-7.1.4-10.6.4-2.8 0-2.5-4-2.5-7.7 0-5.3 2.8-6.6 8.7-6.6l4.8.3c1.2 0 2.4-.3 3.5-.3 2.3 0 4.5.8 6.8.8 5.5 0 11-.5 16.5-.5 3.8 0 3.4 8.8 3.4 11.9 0 1.2-.7 1.9-2.1 1.9l-5.2-.2-3-.1c-2.7 0-5.7-.6-5.7 2.6 0 5.3.8 11.3.8 17.2v2.6l.2 9.8-.1 3c0 4.5.3 9 .3 13.6 0 3.4-.3 6.7-.3 10.2.2 2.7.7 5.6.7 8.2l-.2 2.8.2 7.6c0 3.6 1.2 10.2-2 10.9-2.8.3-5.8 1-8.4 1-6 0-4.2-11.6-4.2-16.4zm-122.4-12.5c-3.8-13.7-6.4-26.7-9.5-40.8a8.9 8.9 0 0 0-1.4-3.9c-1.5 3.8-1 9.6-1 12.2 0 2.2-.4 4.8-.4 7.2 0 14.1 1.7 29.9 2.1 42.1 0 6.2 1.4 9.4-11.9 9.4-3.1-.2-2.8-14-2.8-15.3 0-15.2-.5-31.8-1.2-46.6v-3.2l-.1-8.7.3-8.1c0-4.7-.3-9.8-.5-14.7 0-3.8 11-3.7 13.2-3.7 2.8 0 5 1.6 7 1.6 3.2 0 5 10.3 6.5 15.8a350.7 350.7 0 0 0 12.6 37.7c1 2.4 2.6 14.3 4.8 14.3a27.4 27.4 0 0 0 .5-5.8c0-18.4-.8-37.2-1.7-54.8 0-1.7-.6-3.8-.6-5.3 0-4.4 9.9-3 12.1-3 4.7 0 4.2 18 4.2 21.5.3 8 .8 15.9.8 23.8 0 2.8-.3 5.5-.3 8.3 0 5.7.3 11.2.3 16.5 0 8.1-1.2 16-1.2 24.2-.5 6 .3 6.1-10.2 6.1-4 0-8.4 1.4-11.4 1.4-3.7 0-8.4-22-10.2-28.2zm-152.8-10.4v-1.8l.1-8.4c0-2.6-.3-5.1-.3-7.7l.1-9v-3.6c0-9 .6-18 .8-26.7l-.2-4.9c0-2.8 9.4-4.4 15-4.4h5.8l6.6-.1c20.8 0 17.6 29 17.6 36.3 0 11.7-1.6 28.3-14.2 30.3l-6.8.2h-1c-3 .3-7.7-.4-8 2.8 0 10 .9 20.2 1.2 30.2 0 5.4-9.2 5-11.7 5.3-3.9 0-4.6-31.4-5-38.5zm17.2-13.2c7.6 0 14.1-1.3 14.1-10.3 0-9.5.7-29-7.1-29a50.1 50.1 0 0 0-7 .8c-4.2.6-3.2 5.7-3.2 10.2h-.2c.6 10.4-.4 28.3 3.4 28.3zm600.8 35.2c-.2-3-.4-6-.4-9.1 0-2 .4-4 .4-6l-.1-5.4v-18.2c0-4 .3-8.1.3-12.2 0-6.2.8-21.4-1.8-21.4-3.4 0-7 .4-10.5.4-2.8 0-2.5-3.8-2.5-7.6 0-5.2 2.8-6.5 8.6-6.5l4.8.3c1.2 0 2.4-.3 3.5-.3 2.2 0 4.4.8 6.7.8 5.4 0 11-.5 16.3-.5 3.8 0 3.4 8.7 3.4 11.8 0 1.1-.7 1.8-2 1.8l-5.2-.2h-3c-2.7 0-5.6-.7-5.6 2.5 0 5.3.8 11.2.8 17v2.6l.2 9.7-.1 3c0 4.4.3 8.9.3 13.4 0 3.4-.3 6.7-.3 10.1.2 2.7.6 5.6.6 8.2l-.2 2.7.2 7.6c0 3.5 1.2 10-2 10.8-2.7.3-5.7 1-8.2 1-5.9 0-4.2-11.6-4.2-16.3zm-115.7-20.3c-.4-3.8-1.5-7.1-1.4-11 0-6 .5-12 .5-18 0-3.5-.1-6.8-.3-10.3 0-13.5-1-29.2 19.2-29.2h.4c2.9 0 5.8-.5 8.7-.5 16.4 0 16.5 16.2 17.6 41.5l-.3 18.6c0 6 .5 12.2.5 18.2 0 9 1 19.4-7.3 23.2a37.6 37.6 0 0 1-17.5 4c-16.3 0-17.9-10.4-20.1-36.5zm13.8-41.6c-.2 2.2-.4 4.2-.4 6.4 0 8-.2 17 1 24.8v.6c0 1.8-.7 3.4-.7 5.3 0 9.5-2 25 6.8 25 7.4 0 10.3-3.7 10.3-11.2 0-5.2-.3-10.4-.4-15.6-.3-12.5-1-25-1.5-37.3-.4-4.8-1.1-12-6-12-11 0-8.3 7-9 14zm-412.4 64.8v-5.8c0-3.5.8-7.3.8-10.8 0-1.7-.3-3.5-.3-5.3 0-3.4.6-6.8.6-10.1l-.2-5.7c0-6.3.3-12.4.3-18.7 0-5.2-.8-10.5-.8-15.6 0-6.6-1.2-14.2 4.9-14.2h7c3.2 0 2.8 4.5 2.8 7.6l-.2 2.4c0 2.5.4 5.2.4 7.7l-.3 9.3v8.2c0 3.5-.6 7-.4 10.5 0 13.1.6 26.1 1.8 38 .3 3.3.2 6.7.2 10 0 5.4-8 5-10.7 5.2a23 23 0 0 1-2.6.1c-3.6-.2-3.3-8.6-3.3-12.8zm259.5 10c-.2-2.6-.7-5.3-.7-8a16.6 16.6 0 0 0 0-2.1l-.1-6 .2-7.2c0-2.1-.4-4.3-.4-6.4v-3.5c0-19-1.2-37.8-1.2-56.4v-4.5l-.1-3.8c0-3.1 8.4-3.8 12.7-3.8 2.5 0 5 .5 7.5.5l6.2-.1h2.6c3.7 0 3 6.7 3 11s-3.6 3.5-6.5 3.5l-2.4-.2c-4 0-7.6-1.6-7.6 4.8l.3 4.2c0 3.8-1 7.9-1 11.7 0 1.2.7 1.8 1.7 1.8 2 0 4.3-.4 6.5-.4 7.5 0 9-1 9 11.8 0 6.3-17.7 1.4-17.7 6.4 0 3.8.4 7.6.4 11.3v6.5c0 5.2 1.6 10 1.6 15 .5 3.3 7.9 2.6 10 2.6 5.7 0 7.8-.6 7.8 7.4 0 2.8 0 5.2-2 5.4-1.2 0-2.1-.3-3.2-.3-2.7 0-5.4.7-8.2.7a8.7 8.7 0 0 1-1.6-.1c-3.8 0-7.5.8-11.3.8h-1.6c-2.3 0-3.8-.2-4-2.5zm100.8 1.4c-2.1 0-3.6-.4-3.6-3.8-.5-9-1-18.2-1-27l.3-11.7-.2-6.4v-5.7c0-5.3 0-17.4-1.8-19.3-2.7 4-3.3 12.5-4.3 15.7-2.1 7-2.8 23-8 23.5a154.6 154.6 0 0 1-16.5.4c-1.8-.4-2.4-9.1-3.3-13.6a167.3 167.3 0 0 0-9-31.3 4.4 4.4 0 0 0-.6-.8 11 11 0 0 0-.6 4.8c0 5 .6 10.7.6 15.5 0 9.6-.8 19.2-.8 28.7l.3 6.9-.3 8.2c0 3 .2 6 .4 8.9 0 1.9-.3 3.7-2.8 3.7-3.4 0-6.3 1.4-9.7 1.4-3.2 0-2.4-6.4-2.4-9.6 0-7.3 1-14.4 1-21.7v-2.2l.2-5.5c0-5.4-.8-10-.8-15v-1.2c0-6-.5-12.8-.5-19.2 0-11-1.4-22.7 6.2-23.6a109.7 109.7 0 0 1 11.4-.8c4.4 0 5.3-.4 7.6 8.7a282.7 282.7 0 0 0 10.2 30.3 2.3 2.3 0 0 0 1.2 1.4c2-1 2.7-11.7 3.4-14.1 2.2-8 3-16.2 4.8-24.3.3-1.4.8-2.1 2-2.1 3.8.2 8 .5 11.5.5 2.8 0 5.8-.4 8.6-.4 4.8 0 5.5 21.6 5.9 24.3 1.4 9.7 1.4 20.5 1.4 30.7 0 9-.4 17.9-.4 26.8 0 4.7.3 9.5.3 14.3 0 2.6-.2 5.8-3.2 5.8-2.4 0-4.8-1.2-7.5-1.2zm-124.4-2.5l-.6-16.8v-4.8c0-4 .8-7.3-4.1-7.3-5.1.2-11.8-.5-11.8 3.3v4.8c0 3.4.7 6.9.7 10.3s.8 7-2.7 7.6c-3.1.5-7 2.2-10 2.2s-2.4-11-2.4-12.5c0-5.4.7-10.6.7-16l-.2-8.4.2-4.8-.1-4v-17.2c0-7.4-1.5-28.6 2.5-30a18 18 0 0 1 5.6-.7c2.7 0 5.2-.1 5.2 2.3s.6 4.8.6 7c0 1.9-.4 3.8-.4 5.6l.3 30.7-.1 3.4a11.7 11.7 0 0 0 0 1.9 2 2 0 0 0 1.6.6c2.2 0 4.5-.6 6.7-.6h.5c4.2 0 6.9-.8 6.9-3.5l-.2-7 .2-5v-2.3c0-4 .7-8 .7-12v-21.1c0-4 6.6-3.2 11.3-3.2 5 0 3.8 26.2 3.9 27.3 0 15-.1 30.2-1 44l-.1 3.5v3.5l-.2 7.8v5.4c0 7.3.5 7.6-11 8.9-2 0-2.2-.3-2.7-3zm240.3-115c0-2 .3-2 2.1-2.8a1.3 1.3 0 0 0 1-1c0-1.8-3.1 0-3.1-2.6 0-1.4-.3-2.8-.3-4.3 0-.9.2-1.2 1.1-1.2l2.4.2h4.5c1.7 0 1.7 4 1.7 5.9 0 4.6-1.1 9.1-6.8 9.1-2.4 0-2.6-.8-2.6-3.3zm-455.7-2.7c-.2-2.8-.5-5.6-.4-8.3v-3.2c0-4-.3-1.4-6-5-2.4-1.6-2-6.8-2-9.8v-5.6l.2-4-.1-.7c0-1.9.3-3.8.4-5.8v-6.5c0-1 .1-1.6 1-1.6h5.3c.9 0 1 .3 1 1.1a31.2 31.2 0 0 0-.1 4.3v1c0 5-.4 9.3-.4 14v5.9c0 2.8 2.7 3.3 4.8 3.3 3 0 3.7-1.5 3.7-4l-.2-12.1a12 12 0 0 1 0-1.4c0-3.9-.6-8.1-.6-11.9 0-1.5 4-1 6-1 1.7 0 2 8 2.4 10a45 45 0 0 1 .3 7.2v3.4c0 5.2-1.1 13.9-5.8 15.3-1.2.3-3.2.4-3.2 1.6 0 4.3.5 8.8.5 13 0 2.1-.7 2.3-3.3 2.3h-.9c-1.2 0-2.5-.2-2.6-1.5zm99.6-8a65 65 0 0 1-.2-4.4l.2-3V-330l.1-6c0-3 .4-10.6-.9-10.6l-5.2.2c-1.4 0-1.2-1.9-1.2-3.7 0-2.6 1.4-3.3 4.3-3.3l2.3.2 1.7-.2c1.1 0 2.2.4 3.4.4l8-.2c1.9 0 1.7 4.3 1.7 5.8 0 .6-.3 1-1 1l-2.6-.2h-1.4c-1.4 0-2.8-.3-2.8 1.3 0 2.5.4 5.5.4 8.4v7.5l.1 6.7-.1 5 .3 4v5.1c0 1.8.6 5-1 5.3-1.3.2-2.8.5-4 .5-3 0-2.1-5.6-2.1-8zm-65.4-10a42.1 42.1 0 0 1-.7-5.4l.2-9-.1-5c0-6.7-.4-14.5 9.5-14.5h.2l4.3-.2c8.1 0 8.2 8 8.7 20.5l-.1 9.2.2 9c0 4.5.5 9.7-3.6 11.5a18.6 18.6 0 0 1-8.7 2c-8 0-8.8-5.1-10-18zm6.8-20.5l-.2 3.1a85.7 85.7 0 0 0 .5 12.3v.3c0 .9-.3 1.7-.3 2.6 0 4.7-1 12.4 3.3 12.4 3.7 0 5.1-1.8 5.1-5.5l-.2-7.8c-.1-6.2-.4-12.3-.7-18.5-.2-2.3-.6-5.9-3-5.9-5.4 0-4 3.5-4.5 7zm161 29.8v-31.8c0-2.2.2-4.2.3-6.3 0-2.4 1.8-1.6 5.6-2.6a2.5 2.5 0 0 1 .6-.1c.6 0 .8.7.8 1.2l-.1 5.2c0 4.3-.2 8.6-.3 12.7 0 .6 0 1.4.6 1.4 5.7 0 7-4.3 7-8.4v-2.5c0-2.8.5-5.6.5-8.5v-.6c0-1.6 2.5-.8 4.7-1.4a2.4 2.4 0 0 1 .7-.1c2 0 2 7.5 2 9 0 6-1.3 11-5 15.8a.8.8 0 0 0 0 .4c0 .4 2.4 1.8 3.1 3.3 1.7 3.1 1.8 6.7 1.8 10.1a100 100 0 0 1-.8 10c-.2.9-.5 1.4-1.3 1.4-3.8 0-5.6.6-5.6-3-.5-6.5.2-18.3-6.5-18.3-.6 0-.8.3-.8.9l.2 3.5-.1 3.7.1 2.2v9.1c0 1.3-.4 1.8-1.6 1.8h-.4c-1.4 0-2.7.5-4.2.5-1.7-.2-1.3-8.5-1.3-8.6zm-229.2-5.6c-1.9-6.7-3.1-13-4.6-19.8a4.3 4.3 0 0 0-.7-2c-.7 2-.5 4.7-.5 6l-.2 3.5c0 6.8.8 14.5 1 20.4 0 3 .7 4.6-5.7 4.6-1.6-.1-1.4-6.8-1.4-7.5 0-7.3-.3-15.4-.6-22.6v-5.8l.1-3.9-.3-7.1c0-1.8 5.4-1.8 6.5-1.8 1.3 0 2.4.8 3.3.8 1.6 0 2.5 5 3.2 7.6a170.7 170.7 0 0 0 6.1 18.3c.5 1.2 1.3 7 2.4 7a13.3 13.3 0 0 0 .2-2.9c0-8.9-.4-18-.8-26.5 0-.9-.3-1.9-.3-2.6 0-2.1 4.8-1.5 5.9-1.5 2.2 0 2 8.8 2 10.5.1 3.8.4 7.7.4 11.5l-.2 4 .2 8c0 4-.6 7.8-.6 11.8-.3 2.9.1 3-5 3-1.9 0-4 .6-5.5.6-1.8 0-4-10.6-5-13.6zm385.5 8.2v-5.2l.2-9.2c0-1-.5-1.2-1.4-1.2-1.8 0-6.1-.4-6.1 1 0 2.6-.4 5.2-.3 8l.2 6.3c0 1.7-.3 2.4-1.5 2.4h-.5c-1.2 0-2.3.4-3.5.4a1.2 1.2 0 0 1-1.3-1.4c-.4-5.4-.5-11-.5-16.2v-3.5c0-7.2.8-15.4.8-19.2 0-2.1-.4-6.5 1.2-6.5h1.3l3.4.2h.4c.7 0 1 .2 1 1-.2 5.1-.7 10.3-.7 15.3 0 2-.6 4.7 1.3 4.7 2.7 0 6.5.2 6.5-1.4v-7.9l.1-9.5v-1.7c0-.7.3-.8 1.1-.8a14.7 14.7 0 0 0 1.5 0 26.4 26.4 0 0 0 2.8 0c.8 0 1.5 0 1.5 1v7.2l-.1 7.1.1 7.3c0 6.7-.5 12.3-.5 18.3v3.7c0 1.4.5 3.9-1 4.2a22.6 22.6 0 0 1-4.8 1c-1.3 0-1.2-5.2-1.2-5.4zm-50.4 0l-.1-5.2.2-9.2c0-1-.4-1.2-1.3-1.2-1.9 0-6.2-.4-6.2 1 0 2.6-.3 5.2-.2 8l.2 6.3c0 1.7-.3 2.4-1.6 2.4h-.5c-1.2 0-2.3.4-3.5.4a1.2 1.2 0 0 1-1.3-1.4c-.4-5.4-.4-11-.4-16.2l-.1-3.5c0-7.2.8-15.4.8-19.2 0-2.1-.4-6.5 1.2-6.5h1.3l3.5.2h.3c.7 0 1 .2 1 1-.2 5.1-.7 10.3-.7 15.3.1 2-.5 4.7 1.3 4.7 2.7 0 6.5.2 6.5-1.4v-7.9l.1-9.5v-1.7c0-.7.3-.8 1.2-.8a14.5 14.5 0 0 0 1.4 0 26.2 26.2 0 0 0 2.8 0c.8 0 1.6 0 1.6 1l-.1 1.8.1 5.4-.2 7.1.1 7.3c0 6.7-.5 12.3-.5 18.3v3.7c0 1.4.5 3.9-1 4.2a22.5 22.5 0 0 1-4.7 1c-1.4 0-1.2-5.2-1.2-5.4zm-165.2 4.1l-.3-3.9a7.1 7.1 0 0 0 0-1v-6.5l-.2-3.2v-1.7c0-9.3-.6-18.5-.6-27.6v-4.1c0-1.5 4.1-1.9 6.2-1.9l3.7.3h4.3c1.8 0 1.5 3.2 1.5 5.4s-1.8 1.6-3.2 1.6h-1.2c-2 0-3.7-.8-3.7 2.3l.1 2c0 2-.4 4-.4 5.8 0 .6.3.9.8.9l3.2-.2c3.6 0 4.4-.5 4.4 5.7 0 3.1-8.7.7-8.7 3.2l.2 5.5v3.2c0 2.6.8 4.9.8 7.4.2 1.6 3.8 1.2 5 1.2 2.7 0 3.7-.3 3.7 3.7 0 1.3 0 2.5-1 2.6l-1.6-.1c-1.3 0-2.6.3-4 .3a4.1 4.1 0 0 1-.7 0c-2 0-3.7.3-5.6.3h-.8c-1 0-1.8 0-1.9-1.2zm-207.7-.9l-.3-10.8-.4-15.5c0-5 .3-9.8.6-14.7.6-6 2.8-7.8 7.8-7.8 2.9 0 7.4.2 9 1.6 1.7 1.3 3.8 2.5 4.4 4.7 1 3.6.9 7.6.9 11.7l-.3 6.3v2c0 6.5.3 13.3-.3 19.6 0 .7-.2 1.8-1 1.8-2.8 0-6.6.8-6.6-1.3v-2.7c0-2.6.6-6.8-1.3-6.8h-5.4c-1 0-1 .8-1 1.9a50.5 50.5 0 0 0 1 10v.4c0 1.6-3.4 1.4-5.2 1.6-1.3 0-1.9 0-1.9-2zm6.3-30.1v1.8l-.2 8.6c0 .5.2 1 .7 1 1.2 0 2.3-.3 3.5-.3h.3c3.6 0 3.7.9 3.7-7.9a24.8 24.8 0 0 1 0-3.9c0-3.2-.3-10.3-2.2-11a8 8 0 0 0-2.4-.3c-3.6 0-3.4 6.3-3.4 12zm328.6 20v-1.6c0-3.2-.5-6.5-.5-9.5 0-2.9.5-7 .5-9.3v-1l.2-8v-1.5c0-3.3 1-8.4 5.8-8.7l2.7-.1 1.9.1h.2a9.4 9.4 0 0 1 9.6 9.4l-.1 6.9c-.1.9-.5 1.1-1.5 1.1a8.3 8.3 0 0 0-1.9-.1h-2c-.8-.1-1-.5-1-1.6v-1.4c0-3.2-.6-6.7-4-6.7-4.7.2-4 4.2-4 7.9l.2 9.6c0 3.8-.4 7.7-.5 11.2 0 3.6-.8 8.8 3.2 8.8 3.3 0 5-.6 5-4.6l-.3-3.6c0-1.3 4.1-1.4 6-1.4.8 0 .9 1.1.9 2.8 0 4.8 0 13.3-10.8 13.3-7.1 0-9.6-4-9.6-12zm-138.7 10.4l-.3-8.2v-2.4c0-2 .4-3.5-2-3.5-2.5 0-5.8-.3-5.8 1.6v2.3c0 1.7.3 3.4.3 5s.4 3.6-1.3 3.8c-1.5.3-3.4 1-5 1s-1-5.3-1-6c0-2.7.3-5.2.3-7.9l-.1-4v-12.8c0-3.7-.7-14 1.2-14.7a8.8 8.8 0 0 1 2.8-.4c1.3 0 2.5 0 2.5 1.2s.3 2.3.3 3.4l-.2 2.7.2 15v1.7a5.7 5.7 0 0 0 0 1 1 1 0 0 0 .7.3l3.3-.3h.2c2 0 3.4-.4 3.4-1.7v-7.1c0-1.9.4-3.8.4-5.8v-10.4c0-1.9 3.2-1.5 5.5-1.5 2.4 0 1.9 12.8 1.9 13.3 0 7.4 0 14.8-.5 21.6v3.4l-.1 3.8v2.7c0 3.6.2 3.7-5.4 4.4-1 0-1.1-.2-1.3-1.5zm-69.6 1.3c-2.5 0-1.1-1-1.8-5.9l-.2-4.8v-4.6l.1-2.6v-10.7l-.1-4.8c0-4 .4-7.9.4-11.8.2-3.1-.5-4.5 7.4-4.5h.7c1.6 0 3.1-.3 4.6-.3 2.9 0 2.6 3.4 2.6 6 0 .5-.4.8-1 .8h-5.7c-2.5 0-1.9 2-2 6.7v1.7l-.2 8.1c.1 2.2-.2 3.4.9 3.4l3.2-.2c4.4 0 4.7.5 4.7 5.5 0 2-6.8 2.1-6.6 2.1-.8 0-2.2 0-2.2 1 0 4.3.6 8.8.6 13.1 0 1.6-1.3 1.9-2.7 1.9l-2.7-.1zm332.8-.4l-3.5.2c-2.2 0-2.2-14.3-2.2-15.6v-6.4l-.2-6.6v-8.1c0-4 .3-7.7.3-11.5 0-1.8-.2-2.9 7.6-2.9 2.1 0 4.1.6 6.2.7 2 .3 1.5 3.4 1.5 5.3 0 1.1-.5 1.5-1.1 1.5-2-.2-4.4-.4-6.3-.4s-.8 7.6-1.2 7.6v6.7c0 .7.4.8.9.8l5.9-.3c1.7 0 1.6 2.7 1.6 4.2 0 2 0 3.2-1.5 3.2-2 0-3.8.3-5.8.3-1.6 0-1 2.9-1 4.7.2 2.9-.7 10 1 10 2.2 0 4.6-1 6.7-1 1 0 1.5.2 1.5 1.4 0 1.6.4 3 .4 4.7 0 1.5-2.8 1.5-4.5 1.5l-1.4-.2c-1 0-2 .4-3.1.4l-1.8-.2zm-19.4 0l-3.6.2c-2.2 0-2.2-14.3-2.2-15.6v-3.9l.1-2.5-.2-6.6v-8.1l.2-11.5c0-1.8-.2-2.9 7.6-2.9 2.1 0 4.2.6 6.3.7 2 .3 1.4 3.4 1.4 5.3 0 1.1-.4 1.5-1 1.5-2.1-.2-4.4-.4-6.3-.4s-.9 7.6-1.2 7.6v6.7c0 .7.3.8.8.8l6-.3c1.6 0 1.5 2.7 1.5 4.2 0 2 .1 3.2-1.4 3.2-2 0-3.9.3-5.9.3-1.6 0-1 2.9-1 4.7.2 2.9-.6 10 1 10 2.3 0 4.6-1 6.7-1 1 0 1.5.2 1.5 1.4 0 1.6.5 3 .5 4.7 0 1.5-2.8 1.5-4.6 1.5l-1.3-.2c-1.1 0-2.1.4-3.2.4l-1.7-.2zm-141.5 0l-3.6.2c-2.2 0-2.2-14.3-2.2-15.6v-6.4l-.2-6.6v-8.1c0-4 .3-7.7.3-11.5 0-1.8-.2-2.9 7.6-2.9 2.1 0 4.1.6 6.3.7 2 .3 1.4 3.4 1.4 5.3 0 1.1-.4 1.5-1.1 1.5-2-.2-4.3-.4-6.2-.4s-1 7.6-1.3 7.6v6.7c0 .7.4.8 1 .8l5.8-.3c1.7 0 1.6 2.7 1.6 4.2 0 2 .1 3.2-1.4 3.2-2 0-4 .3-5.9.3-1.6 0-1 2.9-1 4.7.2 2.9-.6 10 1 10 2.3 0 4.6-1 6.7-1 1 0 1.5.2 1.5 1.4 0 1.6.5 3 .5 4.7 0 1.5-2.8 1.5-4.6 1.5l-1.3-.2c-1.1 0-2.1.4-3.2.4l-1.7-.2zm204.5-.5h-.2c-6.3 0-7.4-10.4-7.5-11.7l-.2-2.1c0-1.8 5.4-2 6.3-2 1.7.2 1.8 4.7 2.2 6.3a3.7 3.7 0 0 0 3.7 2.6c3 0 3.1-3.7 3.1-5.8v-2c0-2.8.6-6.5-4.4-7-7.8-1.1-10.6-3.7-10.6-10.1v-2.2c.3-5.6-.4-13.8 5-15.6a28.7 28.7 0 0 1 9.1-1.8c5.1 0 8.1 6 8.1 10.4v3c-.1 1.5-.2 2-1.6 2-1.3 0-2.5.7-3.6.7-.5 0-1-.3-1-1.5v-.6c0-3.7-.8-6.8-4.7-6.8-4.2 0-5 3.4-5 8.2 0 4 .8 6.1 4.3 7 6 .3 10.8-.6 11.2 14 0 4.2-.4 11.8-4 13.4a18.2 18.2 0 0 1-8.2 1.8l-2-.2zm-111.9 0h-.2c-6.2 0-7.3-10.4-7.4-11.7l-.2-2.1c0-1.8 5.4-2 6.3-2 1.6.2 1.8 4.7 2.1 6.3a3.7 3.7 0 0 0 3.8 2.6c3 0 3-3.7 3-5.8v-2h.1c0-2.8.6-6.5-4.4-7-7.8-1.1-10.7-3.7-10.7-10.1l.1-1.5v-.7c.3-5.6-.5-13.8 5-15.6a28.7 28.7 0 0 1 9-1.8c5.1 0 8.2 6 8.2 10.4v3c-.2 1.5-.3 2-1.7 2-1.2 0-2.4.7-3.6.7-.5 0-1-.3-1-1.5l.1-.6c0-3.7-.9-6.8-4.8-6.8-4.1 0-5 3.4-5 8.2 0 4 .9 6.1 4.4 7 5.8.3 10.7-.6 11 14 0 4.2-.3 11.8-4 13.4a18.2 18.2 0 0 1-8 1.8l-2-.2zm-141.8 0h-.2c-6.2 0-7.3-10.4-7.4-11.7l-.2-2.1c0-1.8 5.4-2 6.2-2 1.7.2 1.9 4.7 2.2 6.3a3.7 3.7 0 0 0 3.8 2.6c3 0 3-3.7 3-5.8v-2h.1c0-2.8.6-6.5-4.4-7-7.8-1.1-10.7-3.7-10.7-10.1l.1-1.5v-.7c.3-5.6-.5-13.8 5-15.6a28.8 28.8 0 0 1 9-1.8c5.1 0 8.2 6 8.2 10.4v3c-.2 1.5-.3 2-1.7 2-1.2 0-2.4.7-3.6.7-.5 0-1-.3-1-1.5l.1-.6c0-3.7-.9-6.8-4.8-6.8-4.1 0-4.9 3.4-4.9 8.2 0 4 .8 6.1 4.3 7 5.8.3 10.7-.6 11 14 0 4.2-.3 11.8-4 13.4a18.2 18.2 0 0 1-8 1.8l-2-.2zm229.6-4.8c0-3.2.4-6.3.4-9.3v-15.5c0-3.9.3-7.8.3-11.6 0-1.1.1-2.3-1.2-2.3-1.6 0-3.4.4-5 .4-.7 0-1-.4-1-1v-.5l-.3-4c0-1.4 5.6-1.4 7.5-1.4l2.4.1h3.2c3.3 0 7.5-.6 7.5 2 0 1.4.3 2.6.3 3.8a1 1 0 0 1-1 1c-1.5 0-3.8-.5-5.7-.5-1 0-.9 1.5-.9 2.6 0 4.9.4 9.7.4 14.5v2.4l.2 8v2.6c.1 4.4.4 7.4.6 11.8 0 .7-.1 1.5-1 1.5h-.7c-1.5 0-3.1.3-4.7.3s-1.3-3.1-1.3-5zm-161 0c0-3.2.5-6.3.5-9.3v-15.5l.2-11.6c0-1.1.2-2.3-1.1-2.3-1.7 0-3.5.4-5.1.4-.7 0-1-.4-1-1v-.5l-.3-4c0-1.4 5.6-1.4 7.5-1.4l2.5.1h3c3.5 0 7.6-.6 7.6 2 0 1.4.3 2.6.3 3.8a1 1 0 0 1-1 1c-1.4 0-3.7-.5-5.6-.5-1.1 0-1 1.5-1 2.6 0 4.9.5 9.7.5 14.5v2.4l.2 8v2.6c0 4.4.4 7.4.6 11.8 0 .7-.2 1.5-1 1.5h-.8c-1.5 0-3 .3-4.7.3s-1.3-3.1-1.3-5zm-110.4-63.9c-1.9-6.3-3.6-12.5-6.5-18.4-2.3-4.7-3.5-9.7-6-14.3-.1-.4-.4-.8-.9-.8-1 0-4.8 12-5.5 13.9-2.2 6-4 12.1-6 17.8-1.2 2.6-1.2 3.3-4.7 3.3s-7-.3-10.2-.4h-2.7c-4.2 0-3.5-14-3.8-17.9-1.3-24.7-2.6-48.8-2.6-74 0-2.7 3-2.4 5.5-2.4 4.8 0 10-.7 10 4 0 5.3-.3 10.5-.3 15.5l.1 5.6c0 7.5-.8 15-.8 22.6 0 4 .2 8 .5 12 0 4.4-.3 16.2 1.3 16.2 2.4 0 7.2-17.3 7.8-19.6 1.4-5.3 3.2-16.5 6.7-16.5s7-.6 10.5-.6a3.2 3.2 0 0 1 3.5 2.3c3.3 9 7.7 18.2 11.3 26.6l.8 1c2-8.4 1.4-19 1.4-28 0-9.4-.5-18.8-.5-27.8 0-4-1.4-8.8-1.4-12.6 0-2.4 3.5-2.2 6.1-2.2 5.2 0 7.6-.8 7.6 7.3v1.6c0 15.6 2 30.2 3 45.3.2 1.4.3 3 .3 4.6v1l.1 9-.1 7 .2 8.3c0 4 .7 12.4-2 12.8-4.4.5-8.8 1.2-13.2 1.3h-1.9c-3.4 0-6.7-.2-7.6-3.4zm103.8 1.7a4.7 4.7 0 0 1-1 0c-2.4 0-4.7-.5-7-.5h-2.9a17.5 17.5 0 0 0-4.3-.3c-4.5.1-4.2.2-5.8-28 0-3.6-.6-7.2-.6-10.7v-12.7c0-7.1 1-14 1-21.1 0-4.6.4-11.5-.8-14.8a5.7 5.7 0 0 1-.3-1.8c0-1.7.2-4.4 2.6-4.4 3.9 0 11.9-1.1 11.9 1.8.2 5.3.7 10 .7 14.8v11.4c0 7.7-1.3 15.8-1.3 22.9 0 1 .4 2.2.4 3.2 0 1.5-.4 2.8-.4 4.2 0 6.4.6 13 .9 20 0 2.3.5 2.7 2.2 2.7l8.8-.1c3.4 0 2.8 7.2 2.8 11-.2 2-.5 2.8-2.3 2.8-1.5 0-3-.4-4.6-.4zm-69.4-2.7c-4.4 0-2.9-7.3-3.2-11.7-.4-4-.3-8-.3-12l.2-7.6-.1-3.5c0-4 .3-8.2.3-12.4v-28.2c0-2.1.3-4.2.3-6.4 0-2.7-.5-5.5-.5-8.1.2-2.6 4.8-2.4 7.7-2.4 1.7 0 3.2.3 4.8.3l4-.2c4.4 0 11.9 35.7 12.7 38.8a16 16 0 0 0 1.6 4.6 4.8 4.8 0 0 0 .4-2.4 731 731 0 0 1-1.2-39.9c.1-1 .9-1.4 2.2-1.4 6.1 0 12.9-.9 12.9 3.7v6.6c0 17.8-1.4 35.1-1.4 52.8v4.6c0 5.8-.4 11.7-.4 17.5 0 1.2.3 2.5.3 4-.2 1.6-3 1.6-4.7 1.6-1.2 0-2.7-.7-4-.7-1.7 0-3.6.2-5.3.4-3.2 0-7-24.8-7.4-27l-2.9-17.5a.7.7 0 0 0-.1-.4c-2-6.8-2-14.7-5.1-21-.7 0-.6.6-.6 1 .2 6.3.2 12.5.2 18.9l-.1 1v2.1c-.2 5.4-.2 10.9-.2 16.1 0 8.6.7 16.6.7 24.8 0 3.5-3 4-6.2 4h-4.6zm190.6-.8h-1.7c-3.9 0-10.2.1-10.4-3.5-.6-7.8-1.1-15.4-1-23.2.7-4.3.4-9 .7-13.5.6-11.4 1.5-22.7 1.5-34.1l-.1-5.4c0-3.8-.2-14 1.7-14.5a68.3 68.3 0 0 1 17.1-2.1c10.6 0 21.6 3.6 21.6 17.5 0 3.5.3 7 .3 10.6h-.2c-.3 6.2-.8 12.4-.8 18.5l.1 4c0 8.4-1 17-1 26l.2 1.4c0 11.7-6.5 16.4-14.2 17.6a71.1 71.1 0 0 1-10.2.9l-3.6-.2zm0-80.9c-.4 2.9-.4 5.7-.4 8.4 0 3.9.2 7.7.3 11.5 0 12.9-.7 25.2-.7 39.3 0 5.8-.5 8.5 7.2 8.5 6.8 0 7.8-2.7 9-14 1.5-12.7 1-25.8 2-38.6v-3.2c0-7 .5-14.6-8-14.6-3 .2-9.5-.3-9.5 2.7zm-359.8 81h-1.8c-3.8 0-10 0-10.3-3.6-.6-7.8-1.1-15.4-1-23.2.7-4.3.4-9 .7-13.5.6-11.4 1.4-22.7 1.4-34.1v-5.4c0-3.8-.2-14 1.7-14.5a68.2 68.2 0 0 1 17.1-2.1c10.6 0 21.6 3.6 21.6 17.5 0 3.5.3 7 .3 10.6h-.2c-.3 6.2-.8 12.4-.8 18.5v4c0 8.4-.8 17-.8 26v1.4c0 11.7-6.4 16.4-14.1 17.6a71.2 71.2 0 0 1-10.2.9l-3.6-.2zm-.1-81c-.3 2.9-.3 5.7-.3 8.4 0 3.9.2 7.7.3 11.5 0 12.9-.7 25.2-.7 39.3 0 5.8-.5 8.5 7.1 8.5 6.9 0 7.9-2.7 9.1-14 1.5-12.7 1-25.8 1.9-38.6l.2-3.2c0-7 .3-14.6-8.1-14.6-3 .2-9.5-.3-9.5 2.7zm327.7 77c0-1.8.3-3.6.2-5.4-.3-3-.4-6-.4-9v-7.4c0-2.6.3-5.3.3-8 0-2.4-.3-3.3-2-3.3-6 0-13.4-.5-13.4 2.9.3 8.3.4 16.4 1.1 24.6.3 1.6 1.2 3 1.2 4.5 0 3.4-.6 4.3-3.6 4.3-4.5 0-10.6.3-10.6-2.9 0-4.1-.4-8.3-.4-12.3 0-2.4.5-4.8.5-7.2l-.2-7.5.4-21.3-.1-5.7.3-6.7-.2-3.3c0-10.8 0-24.8 15.8-24.8 13.9 0 24.5 5.8 24.5 22.9v31a275.3 275.3 0 0 1-2.5 36.1c-.3 1.6-.9 2.2-2.4 2.2h-3.6c-3 0-4.9-.4-4.9-3.7zm-15.5-56.5l.1 3.5-.2 4.7c0 1.5.8 1.7 2 1.7l7-.3 4.2.1c3.8 0 2.5-5.7 2.7-9 0-2.2.3-4.4.3-6.3-.1-6.8.5-15.5-7-15.5-9.4 0-9.1 7-9.1 21zm-62.7 30.2c0-1.9.5-3.8.5-5.8 0-3.5-.5-7.2-.5-11.1 0-3.3.3-6.6.3-9.8l-.2-7c0-12.5-.6-30 12.5-33a42.8 42.8 0 0 1 9.7-.8c8.6 0 18 1.6 20 13a278.8 278.8 0 0 1 2.6 37.5v4.6c0 11.6.5 29.7-4.5 35.1-5.3 5.8-13.5 6.8-20.3 6.8-16.7 0-20-13-20-29.5zm15-26.7c0 2.3.6 4.6.6 6.9 0 5.3-1.6 11-1.6 16l.2 4.2-.3 4.2c0 5.4 1.1 11.9 6.9 11.9 12.3 0 10.3-9.4 10.6-24.8l-.1-.9c.4-9.3.4-18.6.4-28l-.3-6 .2-2.8c0-5.4-1-11.2-7.5-11.2-10.5 0-9 9.5-9 30.5zm-229 26.7c0-1.9.4-3.8.4-5.8 0-3.5-.5-7.2-.5-11.1 0-3.3.3-6.6.3-9.8l-.2-7c0-12.5-.6-30 12.5-33a42.8 42.8 0 0 1 9.7-.8c8.6 0 18 1.6 20 13a277.9 277.9 0 0 1 2.6 37.5v4.6c0 11.6.6 29.7-4.5 35.1-5.3 5.8-13.5 6.8-20.3 6.8-16.7 0-20-13-20-29.5zm15-26.7c0 2.3.5 4.6.5 6.9 0 5.3-1.6 11-1.6 16l.2 4.2-.3 4.2c0 5.4 1.1 11.9 7 11.9 12.2 0 10.2-9.4 10.5-24.8l-.1-.9c.4-9.3.4-18.6.4-28l-.3-6 .2-2.8c0-5.4-1-11.2-7.5-11.2-10.5 0-9 9.5-9 30.5z" opacity=".1"/>
    <path fill="#fff" d="M-1829.4 77.3l.2-3.6c0-15.2-1.3-43.9-13.5-43.9-6 0-8.4-.1-8.4 8.3 0 9.8.5 19.9 1.3 29.5.1.5.1.9.3 1.2 0 4.3-10.7 4.7-14 4.7-5.7 0-6-12.8-6-22.8l.1-31.3a5.3 5.3 0 0 1-.1-1.1l.3-29.8c-.2-1.3-.2-2.7-.2-4 0-6 .5-12 .5-18.2v-1.8c0-6.9-.5-19 4.1-19a22.2 22.2 0 0 0 3 0c5.4 0 10.6-.7 15.9-.7 9.2 0 23.8 2.2 27.6 7 7.6 9.3 6.5 24.5 6.5 36.3 0 13.5-4 27.6-8.4 30.8-.8.7-2.4 2-2.4 2.7 0 1.5 9 3.7 10.7 8.8a67.6 67.6 0 0 1 2.8 22c0 10.8 2 27.8-4.8 27.8-3.9 0-7.8.4-11.7.4-2.8 0-3.8-1.1-3.8-3.3zm-23.2-96.5c.4 10.5.5 20.8 1 31.2 0 2 .8 2.6 2.7 2.6 7.3-.5 19-2.3 19.3-11l.3-14.1c-2.4-8.6 3.3-27.4-11-27.8l-5-.1c-5.5 0-7.3 1.8-7.3 19.2zm-87 72c-.6-7.9-.7-15.6-.8-23.6v-1.8l-.1-3.1c0-11.6.2-23.8 1.4-35.3 0-2 0-4.1.2-6l-.1-3.6c0-10.5.5-20.9 1-31.5 1-7.3 19-5.5 21.8-5.5 19 0 35.7 4.7 37.1 17.4.6 5.2 1 10.4 1.2 15.6l-.2 2c0 7 .2 14.1.5 21.3v20.2c0 8.2-.7 16.3-1.2 24.5 0 21.2-10.7 32.1-34.5 32.1h-2.4c-4.5 0-9 .6-13.6.6-9.6 0-9-2.5-10.3-23.3zm19-63.3c0 8 .5 15.3.5 23.3 0 2.4-.3 4.8-.3 7.4 0 2.8.7 5.8.9 8.6.2 8.7.3 17.4.9 26.1 0 2.2.7 2.6 2.8 2.6 6.1 0 15-2.2 16.9-9.1a95 95 0 0 0 2.5-22.3l-.1-5.4c0-11 1.4-22.6 1.4-33.6 0-3.4-.5-6.6-.4-9.8V-25c0-5.2-.9-13.5-6.2-14.2l-8.1-.8c-11.5.7-10.8 0-10.8 29.5zm122 82.7c-.2-3.5-.9-7-.9-10.3a20.4 20.4 0 0 0 .1-2.8l-.2-7.7.2-9.2c0-2.7-.5-5.5-.5-8.2l.2-4.5c0-24.3-1.7-48.3-1.7-72.1l.1-5.8-.2-4.9c0-4 10.7-4.8 16.2-4.8 3.2 0 6.4.6 9.6.6l8-.1h3.3c4.7 0 4 8.6 4 14.2s-4.8 4.3-8.5 4.3c-.9 0-1.7 0-3-.2-5.2 0-9.8-2-9.8 6.1 0 1.8.4 3.6.4 5.4 0 4.9-1.2 10.1-1.2 15 0 1.5.8 2.3 2 2.3 2.8 0 5.6-.5 8.4-.5 9.6 0 11.5-1.3 11.5 15 0 8.1-22.6 1.9-22.6 8.3 0 4.8.5 9.7.5 14.4v8.4c0 6.6 2 12.8 2 19.3.7 4 10.1 3.2 13 3.2 7.1 0 9.8-.8 9.8 9.5 0 3.5 0 6.6-2.5 6.9-1.6 0-2.7-.4-4.1-.4-3.5 0-7 .9-10.5.9a11.2 11.2 0 0 1-2-.1c-5 0-9.7 1-14.6 1h-2c-3 0-4.8-.3-5-3.2zm196 1.6c-2.7 0-4.6-.5-4.6-4.8-.7-11.4-1.3-23.3-1.3-34.5 0-5 .4-10 .4-15 0-2.7-.3-5.4-.3-8.3V4c0-6.7.1-22.2-2.3-24.7-3.4 5.2-4.2 16-5.5 20.1-2.7 9.1-3.6 29.5-10 30.1-7.1.8-14.3.5-21.3.5-2.3-.5-3.1-11.6-4.3-17.4a213.8 213.8 0 0 0-11.4-40 5.4 5.4 0 0 0-.9-1c-.9 1.9-.7 3.9-.7 6 0 6.5.7 13.8.7 20 0 12.2-1 24.5-1 36.7 0 2.9.4 5.8.4 8.8 0 3.4-.4 7-.4 10.5 0 3.8.3 7.7.5 11.4 0 2.4-.3 4.7-3.6 4.7-4.3 0-8 1.8-12.4 1.8-4 0-3-8.2-3-12.3 0-9.3 1.4-18.4 1.4-27.8v-2.8l.1-7c0-7-1-12.7-1-19.2V.7c0-7.6-.7-16.3-.7-24.5 0-14-1.8-29 8-30.2a139.5 139.5 0 0 1 14.6-1c5.6 0 6.8-.6 9.7 11a363.1 363.1 0 0 0 13 38.9 3 3 0 0 0 1.6 1.8c2.6-1.3 3.4-15 4.3-18.1 2.9-10.1 3.9-20.7 6.2-31.1.4-1.8 1-2.7 2.5-2.7 5 .3 10.4.7 14.8.7 3.5 0 7.4-.6 11-.6 6.1 0 7 27.7 7.5 31.1 1.8 12.5 1.8 26.3 1.8 39.3 0 11.6-.5 23-.5 34.3 0 6 .4 12.2.4 18.3 0 3.4-.3 7.5-4.1 7.5-3 0-6.2-1.6-9.6-1.6zm-146.3-4a382 382 0 0 1-.8-28.3l-1.1-40.5c0-13 .9-25.6 1.6-38.3 1.6-15.6 7.3-20.3 20.4-20.3 7.5 0 19.2.5 23.7 4 4.3 3.5 9.7 6.6 11.2 12.2 2.6 9.6 2.3 20 2.3 30.8 0 5-.6 10.8-.6 16.3l.1 5.3c0 16.9.6 34.8-.9 51.2 0 1.8-.6 4.7-2.8 4.7-7 0-17 2-17-3.4l.1-7c0-7 1.3-17.9-3.7-17.9l-12.8.2-1.3-.2c-2.4.3-2.3 2-2.3 5a132 132 0 0 0 2.6 26.3v1c0 4-9 3.6-13.7 4-3.5 0-5-.2-5-5zm16.4-78.7V-4c0 7.3-.4 14.7-.4 22.5 0 1.2.4 2.6 1.8 2.6 3 0 6-.8 9-.8h1c9.2 0 9.6 2.2 9.6-20.6-.6-2-.2-6.8-.2-10.2 0-8.4-.6-27-5.6-28.6a21 21 0 0 0-6.3-1.1c-9.5 0-9 16.6-9 31.4zm-290.9-15.6c-.1-1.9-.3-3.7-.2-5.6v-2.1c0-2.8-.2-1-4-3.4-1.7-1-1.5-4.6-1.5-6.6l.1-2.6v-4.3c0-1.3.3-2.6.4-4l-.1-4.3c0-.7.1-1.1.7-1.1h3.5c.7 0 .8.2.8.8a21 21 0 0 0-.1 2.8v.7c0 3.4-.3 6.3-.3 9.4v4c0 1.9 1.9 2.2 3.2 2.2 2 0 2.5-1 2.5-2.7v-8.2a8 8 0 0 1 0-.8c0-2.7-.5-5.5-.5-8 0-1.1 2.7-.8 4-.8 1.2 0 1.4 5.4 1.7 6.8a30 30 0 0 1 .1 4.9v2.2c0 3.5-.7 9.4-3.9 10.3-.8.2-2 .3-2 1.1l.2 8.7c0 1.5-.4 1.6-2.2 1.6h-.6c-.8 0-1.7-.1-1.8-1zm57 0l.2-1c0-3.9-.4-11.3-3.5-11.3-1.6 0-2.2 0-2.2 2.2 0 2.5.1 5.1.3 7.6l.1.3c0 1.1-2.7 1.2-3.6 1.2-1.5 0-1.5-3.3-1.5-5.9v-8a1.4 1.4 0 0 1 0-.3v-8.7l.1-4.7v-.5c0-1.8-.1-4.9 1-4.9a5.9 5.9 0 0 0 .8 0l4.1-.2c2.4 0 6.2.6 7.2 1.8 1.9 2.4 1.6 6.4 1.6 9.4 0 3.5-1 7.1-2.1 8-.2.1-.7.4-.7.6 0 .4 2.4 1 2.8 2.3a17.5 17.5 0 0 1 .7 5.7c0 2.8.6 7.2-1.2 7.2h-3c-.8 0-1-.3-1-.8zm-5.9-24.9c.1 2.7.1 5.4.3 8 0 .6.2.7.7.7 1.9-.1 4.9-.6 5-2.8v-3.6c-.6-2.3.9-7.1-2.8-7.2h-1.3c-1.4 0-1.9.4-1.9 4.9zm-21.6 10.4l.1-2.3v-3.6l.2-7-.1-2a14.5 14.5 0 0 1 .1-1.8V-58c0-.5.2-.6.9-.6h1.5a10.8 10.8 0 0 0 1.4 0c1.2 0 .9 3 1 3.9a67.9 67.9 0 0 1 .2 7.9v3.8l-.2 5.9c0 3.4-.6 7.7 2.5 7.7 2.4 0 2.8-1.8 2.8-5.4 0-2.2-.3-4.4-.3-6.3v-.8l-.1-3.5.1-2.3v-5.9c0-1.5-.4-4.9.7-4.9l2 .2h.6c1.8 0 1.4 2.3 1.5 4l.2 7.4v13.6c0 2-.2 4.5-1 5.8-1.4 2.2-3.2 3.5-7.4 3.5-5.3 0-6.7-2.8-6.7-15zm-17 2.4a27.9 27.9 0 0 1-.5-3.6l.2-6-.1-3.5c0-4.5-.3-9.7 6.4-9.7h.1l3-.2c5.4 0 5.4 5.4 5.8 13.8l-.1 6.2.1 6.1c0 3 .4 6.5-2.4 7.7a12.5 12.5 0 0 1-5.8 1.4c-5.4 0-6-3.5-6.7-12.2zm4.6-13.8l-.1 2a58 58 0 0 0 .3 8.3v.2l-.2 1.8c0 3.2-.7 8.3 2.2 8.3 2.5 0 3.4-1.2 3.4-3.7l-.1-5.2a705 705 0 0 0-.5-12.4c-.1-1.6-.4-4-2-4-3.7 0-2.8 2.3-3 4.6zm254.2-38.3c-.2-2.7-.5-5.6-.5-8.4.2-2.9 5.7-2.7 8.8-3.2 1.8 0 3.3.3 3.3 3.3 0 .8-.3 1.7-.3 2.6 0 5.2 3 9.8 7.7 9.8 7.1 0 7.7-3.7 7.7-13.3h-.2v-4c0-5.6-.8-8.8-5-8.8h-1.1c-2.8 0-5.7-.7-8.6-.7h-1c-9.2 0-11-9.9-12.8-17-1-2.6-1-9.8-1-12 0-2.8.4-5.6.4-8.5v-.7c0-11.5 9.2-15.4 19.7-15.4h4.6c9.7 0 17.4 3.7 17.4 17.1v.6l.3 7c0 2.2-.6 3.2-4 3.2h-7.2a1.5 1.5 0 0 1-1.7-1.6c0-1.9.8-4 .8-5.9 0-4.8-3.2-8-9.3-8-8.7 0-7.4 22-7.4 22.6 0 5.9 6 5.8 9.9 6 1.4 0 3-.4 3.6-.4 11.2 0 13.4 5.8 15 13a39 39 0 0 1 .8 7.8v3.8l.2 6.5c0 10.4-2.3 19-16.5 21.6a6.5 6.5 0 0 1-1.3.2c-10 0-21.2-3.6-22.3-17.2zm71.8-3.3c-.4-4.3-.8-13.7-8-13.7-4.5 0-2.6 11.9-3 11.9l.2 6.9c0 2.2.4 6.3-2 6.5-3.4.3-7 1-10.3 1-1.5 0-2-.6-2-2.4.2-9.8.5-19.6.5-29.5 0-12.7-1.2-25.6-1.2-38.2v-4.1c0-2.2-.9-4-.9-6 0-4.6 0-7 9.3-7 3 0 4 .3 4.2 2.4.6 9.8 2.1 19.6 2 29.1v14.2c0 1.5.2 2.1 1.2 2.1 5.9 0 10-4.4 10-10.2 0-3.5-.4-7-.4-10.4l.2-5.4c0-4.5.2-10.7-1-15a22.6 22.6 0 0 1-.4-5c0-3 .5-3.4 5-3.4 2.8 0 8.4-.3 8.6 2.4.3 5 .8 10.6.8 16.2v1.5c0 4.8.5 9.6.5 14.4 0 9.2-.2 15.7-6.8 22.3a.3.3 0 0 0 0 .3c0 .3.3.6.8.9 7.4 4 8 11.4 8 20.7 0 7.1.7 15.4-4.5 15.4h-.6c-2.8 0-5.4.8-8.2.8s-1.5-13-2-18.7zm67.7 3.8c-.2-2.6-.4-5.3-.4-8.1 0-1.8.4-3.7.4-5.5l-.1-4.8v-16.3c0-3.7.3-7.3.3-11 0-5.6.7-19.2-1.6-19.2l-9.5.3c-2.5 0-2.2-3.4-2.2-6.8 0-4.7 2.5-5.9 7.7-5.9 1.5 0 2.9.3 4.3.3l3.1-.3c2 0 4 .7 6 .7 5 0 10-.4 14.8-.4 3.3 0 3 7.8 3 10.6 0 1-.6 1.7-1.9 1.7l-4.6-.2-2.7-.1c-2.4 0-5-.5-5 2.3 0 4.7.7 10 .7 15.3v2.3l.1 8.8v2.6l.2 12.1-.2 9.1c.1 2.4.6 5 .6 7.3l-.2 2.5.2 6.8c0 3.2 1 9-1.8 9.7-2.5.2-5.2.8-7.5.8-5.2 0-3.7-10.3-3.7-14.6zm-44.9 10.8c-.2-2.4-.6-4.8-.6-7.1a13.7 13.7 0 0 0 .1-2l-.2-5.3.2-6.4c0-1.9-.4-3.8-.4-5.7l.1-3.1c0-17-1.1-33.7-1.1-50.2v-4l-.1-3.4c0-2.8 7.5-3.4 11.3-3.4 2.2 0 4.4.5 6.7.5l5.5-.1h2.3c3.3 0 2.7 6 2.7 9.8s-3.2 3-5.8 3l-2.2-.1c-3.5 0-6.7-1.4-6.7 4.3l.2 3.7c0 3.4-.8 7-.8 10.4 0 1 .6 1.6 1.5 1.6l5.7-.3c6.7 0 8-1 8 10.5 0 5.6-15.7 1.2-15.7 5.7 0 3.3.4 6.7.4 10v5.8c0 4.6 1.4 9 1.4 13.5.4 2.8 7 2.2 9 2.2 5 0 6.8-.6 6.8 6.6 0 2.5 0 4.6-1.8 4.8-1 0-1.8-.3-2.8-.3-2.4 0-4.8.6-7.3.6a7.3 7.3 0 0 1-1.4 0c-3.4 0-6.7.6-10 .6h-1.5c-2 0-3.3-.1-3.5-2.2zm75.1-27a19.5 19.5 0 0 0 .1-2.4v-4.6c0-1.6.2-3.3.1-4.9-.2-8.2-.7-15.6-.7-23.3 0-9.5-1.4-28.6 16.2-28.6 4.4 0 8.5.8 12.7 1.6 2.5 0 7.8 3.7 9 5.6 3.2 5.1 3 15.4 3 20.5 0 4.8-6.1 4.2-10.3 4.2-2.4-.2-2.1-1.8-2.1-4.5a17.4 17.4 0 0 0 0-2.2c0-6.1.2-12.6-7.1-12.6-8.1 0-7.2 4-7.6 14.1l-.2 13.5c0 3.5 1.3 7.3 1.3 11.1 0 6-.7 12-.7 17.9 0 4.4.5 10.6 5.8 10.8 4.5 0 8.8-1.3 8.8-7 0-3.1-1.5-6.7-1.5-10.1 0-2 1.8-2.3 5.2-2.3 2.8 0 7.1-.3 7.5 2.8a81.7 81.7 0 0 1 .7 10.5c0 8-3.7 17.2-12.4 17.8-2.1 0-4.4.7-6.8.7h-.8c-12 0-20.2-.3-20.2-28.6zm73.1 26l-.5-15v-4.3c0-3.5.7-6.5-3.7-6.5-4.5.2-10.5-.4-10.5 3l.1 1.7v2.5c0 3 .5 6.2.5 9.2s.8 6.3-2.4 6.8c-2.7.4-6 2-8.9 2s-2-9.8-2-11.2c0-4.8.5-9.4.5-14.2l-.1-7.5.1-4.3V-135c0-6.5-1.4-25.4 2.2-26.6a16.2 16.2 0 0 1 5-.7c2.4 0 4.6 0 4.6 2s.5 4.3.5 6.4l-.3 4.9.2 27.3v3a10.5 10.5 0 0 0 0 1.7 1.7 1.7 0 0 0 1.4.6c2 0 4-.6 6-.6h.4c3.7 0 6.1-.7 6.1-3l-.2-6.2.2-4.6v-2c0-3.5.6-7 .6-10.7l.1-18.3v-.5c0-3.4 5.8-2.8 10-2.8 4.4 0 3.4 23.3 3.5 24.3 0 13.3-.1 26.8-1 39.1v6.2l-.2 6.9v4.8c0 6.5.4 6.8-9.7 8-1.8 0-2-.3-2.5-2.7zm-361 .1l.2-2.2c0-9.7-.8-27.8-8.6-27.8-3.7 0-5.3-.1-5.3 5.2 0 6.2.4 12.6.8 18.7l.2.8c0 2.6-6.7 2.9-8.8 2.9-3.7 0-3.8-8.1-3.8-14.4V-115a3.4 3.4 0 0 1 0-.7l.1-18.9v-2.5c0-3.8.3-7.6.3-11.5v-1.1c0-4.4-.3-12.1 2.6-12.1a15.2 15.2 0 0 0 1.8 0c3.4 0 6.8-.4 10-.4 6 0 15.1 1.4 17.6 4.4 4.8 5.9 4.1 15.5 4.1 23 0 8.6-2.6 17.5-5.3 19.5-.5.4-1.6 1.2-1.6 1.7 0 1 5.8 2.3 6.8 5.6a42.9 42.9 0 0 1 1.8 13.8c0 6.9 1.3 17.7-3 17.7l-7.4.2c-1.8 0-2.5-.7-2.5-2zm-14.6-61c.2 6.6.3 13.2.6 19.7 0 1.2.5 1.6 1.7 1.6 4.6-.3 12-1.4 12.2-7l.2-8.8c-1.5-5.5 2.1-17.4-7-17.6l-3.1-.1c-3.5 0-4.6 1.1-4.6 12.1zm-132.2 47.5a81 81 0 0 1-.5-7.7c.2-2.6 5.2-2.4 8-2.8 1.6 0 3 .2 3 2.9l-.2 2.4c0 4.7 2.7 9 7 9 6.4 0 7-3.5 7-12.2h-.2v-3.7c0-5-.7-8-4.6-8h-1c-2.6 0-5.2-.6-7.8-.6h-.8c-8.5 0-10.2-9-11.8-15.4-.8-2.4-1-9-1-11 0-2.6.5-5 .5-7.7v-.7c0-10.4 8.4-14 18-14h4c9 0 16 3.4 16 15.6v.5l.3 6.5c0 2-.6 2.8-3.7 2.8h-2.4l-4.1.1a1.4 1.4 0 0 1-1.6-1.5c0-1.7.7-3.7.7-5.4 0-4.4-3-7.3-8.5-7.3-7.9 0-6.7 20-6.7 20.6 0 5.3 5.5 5.3 9 5.5 1.3 0 2.8-.4 3.3-.4 10.2 0 12.2 5.3 13.6 11.8a36 36 0 0 1 .8 7l-.1 3.6.2 5.9c0 9.5-2 17.2-15 19.7a6.2 6.2 0 0 1-1.2.1c-9 0-19.3-3.2-20.2-15.6zm175.1.5c-.2-2.5-.3-4.9-.3-7.5 0-1.6.3-3.3.3-5V-123l.2-10c0-5 .6-17.5-1.5-17.5-2.8 0-5.7.4-8.6.4-2.2 0-2-3.2-2-6.3 0-4.3 2.3-5.3 7-5.3l4 .2 2.8-.2c1.8 0 3.6.6 5.5.6 4.4 0 9-.4 13.3-.4 3.1 0 2.8 7.2 2.8 9.7 0 1-.6 1.5-1.7 1.5l-4.2-.1-2.5-.1c-2.1 0-4.6-.5-4.6 2 0 4.4.7 9.2.7 14v2.1l.1 8v2.4l.2 11-.2 8.3c.1 2.1.5 4.5.5 6.6l-.1 2.3.1 6.1c0 3 1 8.3-1.6 8.9-2.3.2-4.7.8-6.8.8-4.8 0-3.4-9.4-3.4-13.3zm-123.2 0c-.2-2.5-.3-4.9-.3-7.5 0-1.6.3-3.3.3-5V-123l.2-10c0-5 .6-17.5-1.5-17.5-2.8 0-5.7.4-8.6.4-2.2 0-2-3.2-2-6.3 0-4.3 2.3-5.3 7-5.3l4 .2 2.8-.2c1.8 0 3.6.6 5.5.6 4.4 0 9-.4 13.3-.4 3.1 0 2.8 7.2 2.8 9.7 0 1-.6 1.5-1.7 1.5l-4.2-.1-2.5-.1c-2.1 0-4.6-.5-4.6 2 0 4.4.7 9.2.7 14v2.1l.1 8v2.4l.2 11-.2 8.3c.1 2.1.5 4.5.5 6.6l-.1 2.3.1 6.1c0 3 1 8.3-1.6 8.9-2.3.2-4.7.8-6.8.8-4.8 0-3.4-9.4-3.4-13.3zm28.4 8.3a29995.5 29995.5 0 0 1-1.2-43.6c0-8.1.5-16.2 1-24.2 1-9.9 4.6-12.9 12.9-12.9 4.7 0 12.1.4 15 2.6 2.7 2.2 6.1 4.2 7 7.7 1.7 6.1 1.5 12.7 1.5 19.5 0 3.2-.4 6.9-.4 10.3l.1 3.4c0 10.6.4 22-.5 32.4 0 1-.4 3-1.8 3-4.5 0-10.8 1.2-10.8-2.2v-4.4c0-4.5.9-11.3-2.3-11.3h-8.9c-1.5.1-1.4 1.2-1.4 3.1A83.5 83.5 0 0 0-1925-83v.7c0 2.5-5.7 2.2-8.7 2.5-2.2 0-3.1-.1-3.1-3.2zm10.3-49.8v3l-.2 14.3c0 .7.2 1.6 1.1 1.6 2 0 3.8-.5 5.7-.5h.6c5.9 0 6.1 1.4 6.1-13-.3-1.3 0-4.3 0-6.5 0-5.3-.5-17-3.6-18a13.3 13.3 0 0 0-4-.8c-6 0-5.7 10.5-5.7 20zm127.9 6.8l-.2-3.8.2-2.5v-14.8c0-2.6.4-8.9-.7-8.9l-4.3.2c-1.2 0-1-1.6-1-3.2 0-2.1 1.1-2.7 3.5-2.7l2 .2 1.4-.2c1 0 1.9.4 2.8.4l6.8-.2c1.5 0 1.4 3.6 1.4 4.9 0 .4-.3.7-.9.7h-3.3c-1.2 0-2.4-.3-2.4 1 0 2.1.3 4.6.3 7v1l.1 4.1v1.2l.1 5.6-.1 4.2.3 3.4-.1 1.1v3.1c0 1.5.6 4.2-.8 4.5-1.1.1-2.3.4-3.4.4-2.4 0-1.7-4.8-1.7-6.7zm14.2-8.4a34.2 34.2 0 0 1-.6-4.6l.2-7.4v-4.3c0-5.6-.5-12.1 7.9-12.1h.1l3.6-.2c6.8 0 6.9 6.7 7.3 17.2v7.7l.1 7.5c0 3.8.4 8-3 9.6a15.5 15.5 0 0 1-7.3 1.7c-6.7 0-7.3-4.3-8.3-15.1zm5.7-17.3l-.1 2.7a71.8 71.8 0 0 0 .4 10.3v.2c0 .7-.3 1.4-.3 2.2 0 4-.9 10.4 2.8 10.4 3 0 4.3-1.6 4.3-4.7l-.2-6.5a954 954 0 0 0-.6-15.4c-.2-2-.5-5-2.5-5-4.6 0-3.4 3-3.8 5.8zm-275.8 15.9c-.2-2.3-.2-4.5-.2-6.9v-1.4c0-3.3 0-6.9.3-10.2l.1-1.7v-1l.3-9.2c.2-2 5.5-1.5 6.3-1.5 5.4 0 10.3 1.3 10.7 5a45 45 0 0 1 .3 4.5v.6l.1 6.1v5.9l-.3 7c0 6.2-3.1 9.3-10 9.3h-.7l-4 .2c-2.7 0-2.5-.7-3-6.7zm5.5-18.3l.2 6.7-.1 2.1.2 2.5.3 7.6c0 .6.2.7.8.7 1.8 0 4.3-.6 4.9-2.6a27.6 27.6 0 0 0 .7-6.5v-1.5c0-3.2.4-6.6.4-9.7 0-1-.2-2-.1-2.8v-.7c0-1.5-.3-4-1.9-4.1l-2.3-.2c-3.3.1-3 0-3 8.5zm-20.3 14.5c-1.4-5-2.3-9.8-3.4-14.9a3.2 3.2 0 0 0-.6-1.4 13 13 0 0 0-.3 4.4l-.2 2.7c0 5.1.6 11 .8 15.4 0 2.2.5 3.4-4.4 3.4-1.1 0-1-5.1-1-5.6 0-5.5-.2-11.6-.4-17v-7.4c0-1.7 0-3.6-.2-5.4 0-1.3 4-1.3 4.9-1.3 1 0 1.8.6 2.5.6 1.2 0 1.9 3.8 2.4 5.8a129 129 0 0 0 4.6 13.8c.4.8 1 5.2 1.8 5.2a10 10 0 0 0 .2-2.1c0-6.8-.3-13.6-.6-20 0-.7-.3-1.5-.3-2 0-1.6 3.7-1.2 4.5-1.2 1.7 0 1.5 6.7 1.5 8l.3 8.7-.1 3v6c0 3-.3 6-.3 8.9-.2 2.2 0 2.3-3.8 2.3-1.4 0-3 .5-4.1.5-1.4 0-3.1-8.1-3.8-10.4zm-28.5 8.7c-.2-2.7-.2-5.5-.2-8.2l-.3-11.7c0-3.7.2-7.4.4-11 .5-4.6 2.1-6 6-6 2.1 0 5.5.2 6.8 1.2 1.2 1 2.8 2 3.2 3.5a35 35 0 0 1 .7 9l-.2 4.7v1.5c0 4.9.2 10-.2 14.8 0 .5-.2 1.4-.8 1.4-2 0-5 .5-5-1v-2c0-2 .4-5.2-1-5.2h-4.1c-.7 0-.6.6-.6 1.4a38.3 38.3 0 0 0 .7 7.6v.3c0 1.1-2.6 1-4 1.1-1 0-1.4 0-1.4-1.4zm4.7-22.7v7.8c0 .4 0 .8.5.8l2.5-.3h.3c2.7 0 2.8.7 2.8-6a18.8 18.8 0 0 1 0-2.9c0-2.4-.2-7.7-1.7-8.2a6.2 6.2 0 0 0-1.8-.3c-2.7 0-2.6 4.8-2.6 9zm64.8-30.5l.2-2.8c0-12-1-34.6-10.7-34.6-4.6 0-6.5-.1-6.5 6.5a300.4 300.4 0 0 0 1.2 24.3c0 3.3-8.4 3.6-11 3.6-4.6 0-4.8-10.1-4.8-18l.1-24.6a4 4 0 0 1 0-1l.1-23.5v-3l.3-14.4v-1.4c0-5.5-.4-15.1 3.3-15.1a17.3 17.3 0 0 0 2.3.1c4.2 0 8.4-.6 12.5-.6 7.3 0 18.8 1.7 21.8 5.5 6 7.3 5.2 19.3 5.2 28.6 0 10.7-3.3 21.9-6.7 24.4-.6.5-2 1.5-2 2 0 1.3 7.2 3 8.6 7 1.9 6 2.2 11.4 2.2 17.3 0 8.6 1.6 22-3.9 22-3 0-6.1.4-9.1.4-2.3 0-3-1-3-2.7zm-18.3-76.1c.3 8.3.4 16.4.9 24.6 0 1.5.6 2 2 2 5.8-.4 15.1-1.8 15.3-8.6l.2-11.2c-1.9-6.7 2.7-21.6-8.7-21.9h-4c-4.2 0-5.7 1.3-5.7 15zm142.3 59.9c-.2-3-.4-6-.4-9.3 0-2 .4-4.2.4-6.2l-.1-5.4v-18.6c0-4.2.3-8.3.3-12.4 0-6.4.8-21.9-1.9-21.9-3.4 0-7.1.4-10.7.4-2.8 0-2.5-3.9-2.5-7.7 0-5.4 2.8-6.7 8.8-6.7 1.6 0 3.2.3 4.9.3 1.2 0 2.4-.3 3.5-.3 2.3 0 4.5.8 6.9.8 5.5 0 11.2-.5 16.6-.5 3.9 0 3.5 8.9 3.5 12 0 1.2-.8 2-2.2 2l-5.2-.3h-3c-2.8 0-5.8-.7-5.8 2.6 0 5.3.8 11.4.8 17.3v2.7l.2 9.9-.1 3c.1 4.5.3 9 .3 13.7 0 3.5-.3 6.8-.3 10.3.2 2.8.7 5.7.7 8.3l-.2 2.9.2 7.6c0 3.7 1.2 10.3-2 11-2.8.3-5.9 1-8.5 1-6 0-4.2-11.7-4.2-16.5zm347.8-29.2l.2-6.8v-10.8q0-10.6.5-21.1l-.2-6.2a44.2 44.2 0 0 1 .3-5.1l-.2-7c0-1.6 1-2 2.9-2 1.6 0 3.2.4 4.7.4a31.5 31.5 0 0 0 4-.5c3.8 0 2.7 9 3 11.9 1.2 7 .6 15.9.8 23.7l-.2 8.3.2 3.1c0 6-.7 12-.7 17.6 0 10.4-1.9 23.3 7.5 23.3 7.2 0 8.3-5.6 8.3-16.1 0-6.7-.8-13.3-.8-19l.1-2.3c0-3.7-.5-7.2-.5-10.7 0-2.2.3-4.5.3-6.8l-.2-4.8c0-2.8.4-5.6.4-8.3l-.2-4.6c0-4.5-1-14.6 2.2-14.6 1.4 0 4 .6 6.1.6h1.6c5.5 0 4.2 6.9 4.4 11.6.3 7.5.8 15 .8 22.3l-.1 3.5.2 5.8c0 3.9-.3 7.7-.3 11.4l.2 7.8c0 3.6-.4 7.5-.3 11v1.3c0 6-.3 13.6-2.5 17.6-4.4 6.7-10 10.3-22.6 10.3-15.6 0-19.9-8.3-19.9-44.8zm-278.2 28.4c-.2-3-.4-6-.4-9.2 0-2 .4-4.1.4-6.1l-.1-5.4v-18.4l.3-12.3c0-6.3.8-21.6-1.8-21.6-3.4 0-7.1.4-10.6.4-2.8 0-2.5-4-2.5-7.7 0-5.3 2.8-6.6 8.7-6.6l4.8.3c1.2 0 2.4-.3 3.5-.3 2.3 0 4.5.8 6.8.8 5.5 0 11-.5 16.5-.5 3.8 0 3.4 8.8 3.4 11.9 0 1.2-.7 1.9-2.1 1.9l-5.2-.2-3-.1c-2.7 0-5.7-.6-5.7 2.6 0 5.3.8 11.3.8 17.2v2.6l.2 9.8-.1 3c0 4.5.3 9 .3 13.6 0 3.4-.3 6.7-.3 10.2.2 2.7.7 5.6.7 8.2l-.2 2.8.2 7.6c0 3.6 1.2 10.2-2 10.9-2.8.3-5.8 1-8.4 1-6 0-4.2-11.6-4.2-16.4zm-122.4-12.5c-3.8-13.7-6.4-26.7-9.5-40.8a8.9 8.9 0 0 0-1.4-3.9c-1.5 3.8-1 9.6-1 12.2 0 2.2-.4 4.8-.4 7.2 0 14.1 1.7 29.9 2.1 42.1 0 6.2 1.4 9.4-11.9 9.4-3.1-.2-2.8-14-2.8-15.3 0-15.2-.5-31.8-1.2-46.6v-3.2l-.1-8.7.3-8.1c0-4.7-.3-9.8-.5-14.7 0-3.8 11-3.7 13.2-3.7 2.8 0 5 1.6 7 1.6 3.2 0 5 10.3 6.5 15.8a350.7 350.7 0 0 0 12.6 37.7c1 2.4 2.6 14.3 4.8 14.3a27.4 27.4 0 0 0 .5-5.8c0-18.4-.8-37.2-1.7-54.8 0-1.7-.6-3.8-.6-5.3 0-4.4 9.9-3 12.1-3 4.7 0 4.2 18 4.2 21.5.3 8 .8 15.9.8 23.8 0 2.8-.3 5.5-.3 8.3 0 5.7.3 11.2.3 16.5 0 8.1-1.2 16-1.2 24.2-.6 6 .3 6.1-10.2 6.1-4 0-8.4 1.4-11.4 1.4-3.7 0-8.4-22-10.2-28.2zm-152.8-10.4v-1.8l.1-8.4c0-2.6-.3-5.1-.3-7.7l.1-9v-3.6c0-9 .6-18 .8-26.7l-.2-4.9c0-2.8 9.4-4.4 15-4.4h5.8l6.6-.1c20.8 0 17.6 29 17.6 36.3 0 11.7-1.6 28.3-14.2 30.3l-6.8.2h-1c-3 .3-7.7-.4-8 2.8 0 10 .9 20.2 1.2 30.2 0 5.4-9.2 5-11.7 5.3-3.9 0-4.6-31.4-5-38.5zm17.2-13.2c7.6 0 14.1-1.3 14.1-10.3 0-9.5.7-29-7.1-29a50.1 50.1 0 0 0-7 .8c-4.3.6-3.2 5.7-3.2 10.2h-.2c.6 10.4-.4 28.3 3.4 28.3zM-1492-202c-.2-3-.4-6-.4-9.1 0-2 .4-4 .4-6l-.1-5.4v-18.2c0-4 .3-8.1.3-12.2 0-6.2.8-21.4-1.8-21.4-3.4 0-7 .4-10.5.4-2.8 0-2.5-3.8-2.5-7.6 0-5.2 2.8-6.5 8.6-6.5l4.8.3c1.2 0 2.4-.3 3.5-.3 2.2 0 4.4.8 6.7.8 5.4 0 11-.5 16.3-.5 3.8 0 3.4 8.7 3.4 11.8 0 1.1-.7 1.8-2 1.8l-5.2-.2h-3c-2.7 0-5.6-.7-5.6 2.5 0 5.3.8 11.2.8 17v2.6l.2 9.7-.1 3c0 4.4.3 8.9.3 13.4 0 3.4-.3 6.7-.3 10.1.2 2.7.6 5.6.6 8.2l-.2 2.7.2 7.6c0 3.5 1.2 10-2 10.8-2.7.3-5.7 1-8.2 1-5.9 0-4.2-11.6-4.2-16.3zm-115.7-20.3c-.4-3.8-1.5-7.1-1.4-11 0-6 .5-12 .5-18 0-3.5-.1-6.8-.3-10.3 0-13.5-1-29.2 19.2-29.2h.4c2.8 0 5.8-.5 8.7-.5 16.4 0 16.5 16.2 17.6 41.5l-.3 18.6c0 6 .5 12.2.5 18.2 0 9 1 19.4-7.3 23.2a37.6 37.6 0 0 1-17.5 4c-16.3 0-17.9-10.4-20.1-36.5zm13.8-41.6c-.2 2.2-.4 4.2-.4 6.4 0 8-.2 17 1 24.8v.6c0 1.8-.7 3.4-.7 5.3 0 9.5-2 25 6.8 25 7.4 0 10.3-3.7 10.3-11.2 0-5.2-.3-10.4-.4-15.6-.3-12.5-1-25-1.5-37.3-.4-4.8-1.1-12-6-12-11 0-8.3 7-9 14zm-412.4 64.8v-5.8c0-3.5.8-7.3.8-10.8 0-1.7-.3-3.5-.3-5.3 0-3.4.6-6.8.6-10.1l-.2-5.7c0-6.3.3-12.4.3-18.7 0-5.2-.9-10.5-.9-15.6 0-6.6-1-14.2 5-14.2h7c3.2 0 2.8 4.5 2.8 7.6l-.2 2.4c0 2.5.4 5.2.4 7.7l-.3 9.3v8.2c0 3.5-.6 7-.4 10.5 0 13.1.6 26.1 1.8 38 .3 3.3.2 6.7.2 10 0 5.4-8 5-10.7 5.2a23 23 0 0 1-2.6.1c-3.6-.2-3.3-8.6-3.3-12.8zm259.5 10c-.2-2.6-.7-5.3-.7-8a16.6 16.6 0 0 0 0-2.1l-.1-6 .2-7.2c0-2.1-.4-4.3-.4-6.4v-3.5c0-19-1.2-37.8-1.2-56.4v-4.5l-.1-3.8c0-3.1 8.4-3.8 12.7-3.8 2.5 0 5 .5 7.5.5l6.2-.1h2.6c3.7 0 3 6.7 3 11s-3.6 3.5-6.5 3.5l-2.4-.2c-4 0-7.6-1.6-7.6 4.8l.3 4.2c0 3.8-1 7.9-1 11.7 0 1.2.7 1.8 1.7 1.8 2 0 4.3-.4 6.5-.4 7.5 0 9-1 9 11.8 0 6.3-17.7 1.4-17.7 6.4 0 3.8.4 7.6.4 11.3v6.5c0 5.2 1.6 10 1.6 15 .5 3.3 7.9 2.6 10 2.6 5.7 0 7.8-.6 7.8 7.4 0 2.8 0 5.2-2 5.4-1.2 0-2.1-.3-3.2-.3-2.7 0-5.4.7-8.2.7a8.7 8.7 0 0 1-1.6-.1c-3.8 0-7.5.8-11.3.8h-1.6c-2.3 0-3.8-.2-4-2.5zm100.8 1.4c-2.1 0-3.6-.4-3.6-3.8-.5-9-1-18.2-1-27l.3-11.7-.2-6.4v-5.7c0-5.3 0-17.4-1.8-19.3-2.7 4-3.3 12.5-4.3 15.7-2.1 7-2.8 23-8 23.5a154.6 154.6 0 0 1-16.5.4c-1.8-.4-2.4-9.1-3.3-13.6a167.3 167.3 0 0 0-9-31.3 4.4 4.4 0 0 0-.6-.8 11 11 0 0 0-.6 4.8c0 5 .6 10.7.6 15.5 0 9.6-.8 19.2-.8 28.7l.3 6.9-.3 8.2c0 3 .2 6 .4 8.9 0 1.9-.3 3.7-2.8 3.7-3.4 0-6.3 1.4-9.7 1.4-3.2 0-2.4-6.4-2.4-9.6 0-7.3 1-14.4 1-21.7v-2.2l.2-5.5c0-5.4-.8-10-.8-15v-1.2c0-6-.5-12.8-.5-19.2 0-11-1.4-22.7 6.2-23.6a109.7 109.7 0 0 1 11.4-.8c4.4 0 5.3-.4 7.6 8.7a282.7 282.7 0 0 0 10.2 30.3 2.3 2.3 0 0 0 1.2 1.4c2-1 2.7-11.7 3.4-14.1 2.2-8 3-16.2 4.8-24.3.3-1.4.8-2.1 2-2.1 3.8.2 8 .5 11.5.5 2.8 0 5.8-.4 8.6-.4 4.8 0 5.5 21.6 5.9 24.3 1.4 9.7 1.4 20.5 1.4 30.7 0 9-.4 17.9-.4 26.8 0 4.7.3 9.5.3 14.3 0 2.6-.2 5.8-3.2 5.8-2.4 0-4.8-1.2-7.5-1.2zm-124.4-2.5l-.6-16.8v-4.8c0-4 .8-7.3-4.1-7.3-5.1.2-11.8-.5-11.8 3.3v4.8c0 3.4.7 6.9.7 10.3s.8 7-2.7 7.6c-3.1.5-7 2.2-10 2.2s-2.4-11-2.4-12.5c0-5.4.7-10.6.7-16l-.2-8.4.2-4.8-.1-4v-17.2c0-7.4-1.5-28.6 2.5-30a18 18 0 0 1 5.6-.7c2.7 0 5.2-.1 5.2 2.3s.6 4.8.6 7c0 1.9-.4 3.8-.4 5.6l.3 30.7-.1 3.4a11.7 11.7 0 0 0 0 1.9 2 2 0 0 0 1.6.6c2.2 0 4.5-.6 6.7-.6h.5c4.2 0 6.9-.8 6.9-3.5l-.2-7 .2-5v-2.3c0-4 .7-8 .7-12v-21.1c0-4 6.6-3.2 11.3-3.2 5 0 3.8 26.2 3.9 27.3 0 15-.1 30.2-1 44l-.1 3.5v3.5l-.2 7.8v5.4c0 7.3.5 7.6-11 8.9-2 0-2.2-.3-2.7-3zm240.3-115c0-2 .3-2 2.1-2.8a1.3 1.3 0 0 0 1-1c0-1.8-3.1 0-3.1-2.6 0-1.4-.3-2.8-.3-4.3 0-.9.2-1.2 1.1-1.2l2.4.2h4.5c1.7 0 1.7 4 1.7 5.9 0 4.6-1.1 9.1-6.8 9.1-2.4 0-2.6-.8-2.6-3.3zm-455.7-2.7c-.2-2.8-.5-5.6-.4-8.3v-3.2c0-4-.3-1.4-6-5-2.4-1.6-2.1-6.8-2.1-9.8l.2-3.9-.1-1.7.1-4v-.7c0-1.9.3-3.8.4-5.8v-6.5c0-1 .1-1.6 1-1.6h5.3c.9 0 1 .3 1 1.1a31.2 31.2 0 0 0-.1 4.3v1c0 5-.5 9.3-.5 14l.1 2.5v3.4c0 2.8 2.7 3.3 4.8 3.3 3 0 3.7-1.5 3.7-4l-.2-12.1a12 12 0 0 1 0-1.4c0-3.9-.6-8.1-.6-11.9 0-1.5 4-1 6-1 1.7 0 2 8 2.4 10a45 45 0 0 1 .3 7.2v3.4c0 5.2-1.1 13.9-5.8 15.3-1.2.3-3.2.4-3.2 1.6 0 4.3.5 8.8.5 13 0 2.1-.7 2.3-3.3 2.3h-.9c-1.2 0-2.5-.2-2.6-1.5zm99.6-8a65 65 0 0 1-.2-4.4l.2-3V-341c0-3 .5-10.6-.8-10.6l-5.2.2c-1.4 0-1.2-1.9-1.2-3.7 0-2.6 1.4-3.3 4.3-3.3l2.3.2 1.7-.2c1.1 0 2.2.4 3.4.4l8-.2c1.9 0 1.7 4.3 1.7 5.8 0 .6-.3 1-1 1l-2.6-.2h-1.4c-1.4 0-2.8-.3-2.8 1.3 0 2.5.4 5.5.4 8.4v7.5l.1 6.7-.1 5 .3 4v5.1c0 1.8.6 5-1 5.3-1.3.2-2.8.5-4 .5-3 0-2.1-5.6-2.1-8zm-65.4-10a42.1 42.1 0 0 1-.7-5.4l.2-9-.1-5c0-6.7-.4-14.5 9.5-14.5h.2l4.3-.2c8.1 0 8.2 8 8.7 20.5l-.1 9.2.2 9c0 4.5.5 9.7-3.6 11.5a18.6 18.6 0 0 1-8.7 2c-8 0-8.8-5.1-10-18zm6.8-20.5l-.2 3.1a85.7 85.7 0 0 0 .5 12.3v.3c0 .9-.3 1.7-.3 2.6 0 4.7-1 12.4 3.3 12.4 3.7 0 5.1-1.8 5.1-5.5l-.2-7.8c-.1-6.2-.4-12.3-.7-18.5-.2-2.3-.6-5.9-3-5.9-5.4 0-4 3.5-4.5 7zm161 29.8v-31.8c0-2.2.2-4.2.3-6.3 0-2.4 1.8-1.6 5.6-2.6a2.5 2.5 0 0 1 .6-.1c.6 0 .8.7.8 1.2l-.1 5.2c0 4.3-.2 8.6-.3 12.7 0 .6 0 1.4.6 1.4 5.7 0 7-4.3 7-8.4v-2.5c0-2.8.5-5.6.5-8.5v-.6c0-1.6 2.5-.8 4.7-1.4a2.4 2.4 0 0 1 .7-.1c2 0 2 7.5 2 9 0 6-1.3 11-5 15.8a.8.8 0 0 0 0 .4c0 .4 2.4 1.8 3.1 3.3 1.7 3.1 1.8 6.7 1.8 10.1a100 100 0 0 1-.8 10c-.2.9-.5 1.4-1.3 1.4-3.8 0-5.6.6-5.6-3-.5-6.5.2-18.3-6.5-18.3-.6 0-.8.3-.8.9l.2 3.5-.1 3.7.1 2.2v9.1c0 1.3-.4 1.8-1.6 1.8h-.4c-1.4 0-2.7.5-4.2.5-1.7-.2-1.3-8.5-1.3-8.6zm-229.2-5.6c-1.9-6.7-3.2-13-4.6-19.8a4.3 4.3 0 0 0-.7-2c-.7 2-.5 4.7-.5 6l-.2 3.5c0 6.8.8 14.5 1 20.4 0 3 .7 4.6-5.7 4.6-1.6-.1-1.4-6.8-1.4-7.5 0-7.3-.3-15.4-.6-22.6v-9.7c0-2.3 0-4.7-.2-7.1 0-1.8 5.4-1.8 6.5-1.8 1.3 0 2.4.8 3.3.8 1.6 0 2.5 5 3.2 7.6a170.7 170.7 0 0 0 6.1 18.3c.5 1.2 1.3 7 2.4 7a13.3 13.3 0 0 0 .2-2.9c0-8.9-.4-18-.8-26.5 0-.9-.3-1.9-.3-2.6 0-2.1 4.8-1.5 5.9-1.5 2.2 0 2 8.8 2 10.5.1 3.8.4 7.7.4 11.5l-.2 4 .2 8c0 4-.6 7.8-.6 11.8-.3 2.9.1 3-5 3-1.9 0-4 .6-5.5.6-1.8 0-4-10.6-5-13.6zm385.5 8.2v-5.2l.2-9.2c0-1-.5-1.2-1.4-1.2-1.8 0-6.1-.4-6.1 1 0 2.6-.4 5.2-.3 8l.2 6.3c0 1.7-.3 2.4-1.5 2.4h-.5c-1.2 0-2.3.4-3.5.4a1.2 1.2 0 0 1-1.3-1.4c-.4-5.4-.5-11-.5-16.2v-3.5c0-7.2.8-15.4.8-19.2 0-2.1-.4-6.5 1.2-6.5h1.3l3.4.2h.4c.7 0 1 .2 1 1-.2 5.1-.7 10.3-.7 15.3 0 2-.6 4.7 1.3 4.7 2.7 0 6.5.2 6.5-1.4v-7.9l.1-9.5v-1.7c0-.7.3-.8 1.1-.8a14.7 14.7 0 0 0 1.5 0 26.4 26.4 0 0 0 2.8 0c.8 0 1.5 0 1.5 1v7.2l-.1 7.1.1 7.3c0 6.7-.5 12.3-.5 18.3v3.7c0 1.4.5 3.9-1 4.2a22.6 22.6 0 0 1-4.8 1c-1.3 0-1.2-5.2-1.2-5.4zm-50.4 0l-.1-5.2.2-9.2c0-1-.4-1.2-1.3-1.2-1.9 0-6.2-.4-6.2 1 0 2.6-.3 5.2-.2 8l.2 6.3c0 1.7-.3 2.4-1.6 2.4h-.5c-1.2 0-2.3.4-3.5.4a1.2 1.2 0 0 1-1.3-1.4c-.4-5.4-.5-11-.5-16.2v-3.5c0-7.2.8-15.4.8-19.2 0-2.1-.4-6.5 1.2-6.5h1.3l3.5.2h.3c.7 0 1 .2 1 1-.2 5.1-.7 10.3-.7 15.3.1 2-.5 4.7 1.3 4.7 2.7 0 6.5.2 6.5-1.4v-7.9l.1-9.5v-1.7c0-.7.3-.8 1.2-.8a14.5 14.5 0 0 0 1.4 0 26.2 26.2 0 0 0 2.8 0c.8 0 1.5 0 1.5 1v7.2l-.1 7.1.1 7.3c0 6.7-.5 12.3-.5 18.3v3.7c0 1.4.5 3.9-1 4.2a22.5 22.5 0 0 1-4.7 1c-1.4 0-1.2-5.2-1.2-5.4zm-165.2 4.1l-.3-3.9a7.1 7.1 0 0 0 0-1v-6.5l-.2-3.2v-1.7c0-9.3-.6-18.5-.6-27.6v-4.1c0-1.5 4.1-1.9 6.2-1.9l3.7.3h4.3c1.8 0 1.5 3.2 1.5 5.4s-1.8 1.6-3.2 1.6h-1.2c-2 0-3.7-.8-3.7 2.3l.1 2c0 2-.4 4-.4 5.8 0 .6.3.9.8.9l3.2-.2c3.6 0 4.4-.5 4.4 5.7 0 3.1-8.7.7-8.7 3.2l.2 5.5v3.2c0 2.6.8 4.9.8 7.4.2 1.6 3.8 1.2 5 1.2 2.7 0 3.7-.3 3.7 3.7 0 1.3 0 2.5-1 2.6l-1.6-.1c-1.3 0-2.6.3-4 .3a4.1 4.1 0 0 1-.8 0c-1.8 0-3.6.3-5.5.3h-.8c-1 0-1.8 0-1.9-1.2zm-207.7-.9l-.3-10.8-.4-15.5c0-5 .3-9.8.6-14.7.6-6 2.8-7.8 7.8-7.8 2.9 0 7.4.2 9 1.6 1.7 1.3 3.8 2.5 4.4 4.7 1 3.6.9 7.6.9 11.7l-.3 6.3v2c0 6.5.3 13.3-.3 19.6 0 .7-.2 1.8-1 1.8-2.8 0-6.6.8-6.6-1.3v-2.7c0-2.6.6-6.8-1.3-6.8h-5.4c-1 0-1 .8-1 1.9a50.5 50.5 0 0 0 1 10v.4c0 1.6-3.4 1.4-5.2 1.6-1.3 0-1.9 0-1.9-2zm6.3-30.1v1.8l-.2 8.6c0 .5.2 1 .7 1 1.2 0 2.3-.3 3.4-.3h.4c3.6 0 3.7.9 3.7-7.9a24.8 24.8 0 0 1 0-3.9c0-3.2-.3-10.3-2.2-11a8 8 0 0 0-2.4-.3c-3.6 0-3.4 6.3-3.4 12zm328.6 20v-1.6c0-3.2-.5-6.5-.5-9.5 0-2.9.5-7 .5-9.3v-1l.2-8v-1.5c0-3.3 1-8.4 5.8-8.7l2.7-.1 1.9.1h.2a9.4 9.4 0 0 1 9.6 9.4l-.1 6.9c-.1.9-.5 1.1-1.5 1.1a8.3 8.3 0 0 0-1.9-.1h-2c-.8-.1-1-.5-1-1.6v-1.4c0-3.2-.6-6.7-4-6.7-4.7.2-4 4.2-4 7.9l.2 9.6c0 3.8-.4 7.7-.5 11.2 0 3.6-.8 8.8 3.2 8.8 3.3 0 5-.6 5-4.6l-.3-3.6c0-1.3 4.1-1.4 6-1.4.8 0 .9 1.1.9 2.8 0 4.8 0 13.3-10.8 13.3-7.1 0-9.6-4-9.6-12zm-138.8 10.4l-.2-8.2v-2.4c0-2 .3-3.5-2-3.5-2.5 0-5.8-.3-5.8 1.6v2.3c0 1.7.3 3.4.3 5s.4 3.6-1.3 3.8c-1.5.3-3.4 1-5 1s-1-5.3-1-6c0-2.7.3-5.2.3-7.9l-.1-4v-12.8c0-3.7-.7-14 1.2-14.7a8.8 8.8 0 0 1 2.8-.4c1.3 0 2.5 0 2.5 1.2s.3 2.3.3 3.4l-.2 2.7.2 15v1.7a5.7 5.7 0 0 0 0 1 1 1 0 0 0 .7.3l3.3-.3h.2c2 0 3.4-.4 3.4-1.7v-7.1c0-1.9.3-3.8.3-5.8l.1-10.1v-.3c0-1.9 3.2-1.5 5.5-1.5 2.4 0 1.8 12.8 1.9 13.3 0 7.4 0 14.8-.5 21.6v3.4l-.1 3.8v2.7c0 3.6.2 3.7-5.4 4.4-1 0-1.1-.2-1.3-1.5zm-69.5 1.3c-2.5 0-1.1-1-1.8-5.9l-.2-4.8v-4.6l.1-2.6v-10.7l-.1-4.8c0-4 .4-7.9.4-11.8.2-3.1-.5-4.5 7.4-4.5h.7c1.6 0 3.1-.3 4.6-.3 2.9 0 2.6 3.4 2.6 6 0 .5-.4.8-1 .8h-5.7c-2.5 0-1.9 2-2 6.7v1.7l-.2 8.1c.1 2.2-.2 3.4.9 3.4l3.2-.2c4.4 0 4.7.5 4.7 5.5 0 2-6.8 2.1-6.6 2.1-.8 0-2.2 0-2.2 1 0 4.3.6 8.8.6 13.1 0 1.6-1.3 1.9-2.7 1.9l-2.7-.1zm332.8-.4l-3.5.2c-2.2 0-2.2-14.3-2.2-15.6v-6.4l-.2-6.6v-8.1c0-4 .3-7.7.3-11.5 0-1.8-.2-2.9 7.6-2.9 2.1 0 4.1.6 6.2.7 2 .3 1.5 3.4 1.5 5.3 0 1.1-.5 1.5-1.1 1.5-2-.2-4.4-.4-6.3-.4s-.8 7.6-1.2 7.6v6.7c0 .7.4.8.9.8l5.9-.3c1.7 0 1.6 2.7 1.6 4.2 0 2 0 3.2-1.5 3.2-2 0-3.9.3-5.8.3-1.6 0-1 2.9-1 4.7.2 2.9-.7 10 1 10 2.2 0 4.6-1 6.7-1 1 0 1.5.2 1.5 1.4 0 1.6.4 3 .4 4.7 0 1.5-2.8 1.5-4.5 1.5l-1.4-.2c-1 0-2 .4-3.1.4l-1.8-.2zm-19.4 0l-3.6.2c-2.2 0-2.2-14.3-2.2-15.6v-3.9l.1-2.5-.2-6.6v-8.1l.2-11.5c0-1.8-.2-2.9 7.6-2.9 2.1 0 4.2.6 6.3.7 2 .3 1.4 3.4 1.4 5.3 0 1.1-.4 1.5-1.1 1.5-2-.2-4.3-.4-6.2-.4s-.9 7.6-1.2 7.6v6.7c0 .7.3.8.8.8l6-.3c1.6 0 1.5 2.7 1.5 4.2 0 2 .1 3.2-1.4 3.2-2 0-3.9.3-5.9.3-1.6 0-1 2.9-1 4.7.2 2.9-.6 10 1 10 2.3 0 4.6-1 6.7-1 1 0 1.5.2 1.5 1.4 0 1.6.5 3 .5 4.7 0 1.5-2.8 1.5-4.6 1.5l-1.3-.2c-1.1 0-2.1.4-3.2.4l-1.7-.2zm-141.5 0l-3.6.2c-2.2 0-2.2-14.3-2.2-15.6v-6.4l-.2-6.6v-8.1c0-4 .3-7.7.3-11.5 0-1.8-.2-2.9 7.6-2.9 2.1 0 4.1.6 6.3.7 2 .3 1.4 3.4 1.4 5.3 0 1.1-.4 1.5-1.1 1.5-2-.2-4.3-.4-6.2-.4s-1 7.6-1.3 7.6v6.7c0 .7.4.8 1 .8l5.8-.3c1.7 0 1.6 2.7 1.6 4.2 0 2 .1 3.2-1.4 3.2-2 0-4 .3-5.9.3-1.6 0-1 2.9-1 4.7.2 2.9-.6 10 1 10 2.3 0 4.6-1 6.7-1 1 0 1.5.2 1.5 1.4 0 1.6.4 3 .4 4.7 0 1.5-2.7 1.5-4.5 1.5l-1.3-.2c-1.1 0-2.1.4-3.2.4l-1.7-.2zm204.5-.5h-.2c-6.3 0-7.4-10.4-7.5-11.7l-.2-2.1c0-1.8 5.4-2 6.3-2 1.7.2 1.8 4.7 2.2 6.3a3.7 3.7 0 0 0 3.7 2.6c3 0 3.1-3.7 3.1-5.8v-2c0-2.8.6-6.5-4.4-7-7.8-1.1-10.6-3.7-10.6-10.1v-2.2c.3-5.6-.4-13.8 5-15.6a28.7 28.7 0 0 1 9.1-1.8c5.1 0 8.1 6 8.1 10.4v3c-.1 1.5-.2 2-1.6 2-1.3 0-2.5.7-3.6.7-.5 0-1-.3-1-1.5v-.6c0-3.7-.8-6.8-4.7-6.8-4.2 0-5 3.4-5 8.2 0 4 .8 6.1 4.3 7 5.9.3 10.8-.6 11.1 14 0 4.2-.3 11.8-4 13.4a18.2 18.2 0 0 1-8 1.8l-2.1-.2zm-111.9 0h-.2c-6.2 0-7.3-10.4-7.4-11.7l-.2-2.1c0-1.8 5.4-2 6.3-2 1.6.2 1.8 4.7 2.1 6.3a3.7 3.7 0 0 0 3.8 2.6c3 0 3-3.7 3-5.8v-2h.1c0-2.8.6-6.5-4.4-7-7.8-1.1-10.7-3.7-10.7-10.1l.1-1.5v-.7c.3-5.6-.5-13.8 5-15.6a28.7 28.7 0 0 1 9-1.8c5.1 0 8.2 6 8.2 10.4v3c-.2 1.5-.3 2-1.7 2-1.2 0-2.4.7-3.6.7-.5 0-1-.3-1-1.5l.1-.6c0-3.7-.9-6.8-4.8-6.8-4.1 0-5 3.4-5 8.2 0 4 .9 6.1 4.4 7 5.8.3 10.7-.6 11 14 0 4.2-.3 11.8-4 13.4a18.2 18.2 0 0 1-8 1.8l-2-.2zm-141.8 0h-.2c-6.3 0-7.3-10.4-7.4-11.7l-.2-2.1c0-1.8 5.4-2 6.2-2 1.7.2 1.9 4.7 2.2 6.3a3.7 3.7 0 0 0 3.8 2.6c3 0 3-3.7 3-5.8v-2h.1c0-2.8.6-6.5-4.4-7-7.8-1.1-10.7-3.7-10.7-10.1l.1-1.5v-.7c.3-5.6-.5-13.8 5-15.6a28.8 28.8 0 0 1 9-1.8c5.1 0 8.2 6 8.2 10.4v3c-.2 1.5-.3 2-1.7 2-1.2 0-2.4.7-3.6.7-.5 0-1-.3-1-1.5v-.6c0-3.7-.8-6.8-4.7-6.8-4.1 0-5 3.4-5 8.2 0 4 .9 6.1 4.4 7 5.8.3 10.7-.6 11 14 0 4.2-.3 11.8-4 13.4a18.2 18.2 0 0 1-8 1.8l-2-.2zm229.6-4.8c0-3.2.4-6.3.4-9.3v-15.5c0-3.9.3-7.8.3-11.6 0-1.1.1-2.3-1.2-2.3-1.6 0-3.4.4-5 .4-.7 0-1-.4-1-1v-.5l-.3-4c0-1.4 5.6-1.4 7.5-1.4l2.4.1h3.2c3.3 0 7.5-.6 7.5 2 0 1.4.3 2.6.3 3.8a1 1 0 0 1-1 1c-1.5 0-3.8-.5-5.7-.5-1 0-.9 1.5-.9 2.6 0 4.9.4 9.7.4 14.5v2.4l.2 8v2.6c.1 4.4.4 7.4.6 11.8 0 .7-.1 1.5-1 1.5h-.7c-1.5 0-3.1.3-4.7.3s-1.3-3.1-1.3-5zm-161 0c0-3.2.5-6.3.5-9.3v-15.5l.2-11.6c0-1.1.2-2.3-1.1-2.3-1.7 0-3.5.4-5.1.4-.7 0-1-.4-1-1v-.5l-.3-4c0-1.4 5.6-1.4 7.5-1.4l2.5.1h3c3.5 0 7.6-.6 7.6 2 0 1.4.3 2.6.3 3.8a1 1 0 0 1-1 1c-1.4 0-3.7-.5-5.6-.5-1.1 0-1 1.5-1 2.6 0 4.9.5 9.7.5 14.5v2.4l.2 8v2.6c0 4.4.4 7.4.6 11.8 0 .7-.2 1.5-1 1.5h-.8c-1.5 0-3 .3-4.7.3s-1.3-3.1-1.3-5zm-110.4-63.9c-1.9-6.3-3.6-12.5-6.5-18.4-2.3-4.7-3.5-9.7-6-14.3-.1-.4-.4-.8-.9-.8-1 0-4.8 12-5.5 13.9-2.2 6-4 12.1-6 17.8-1.2 2.6-1.2 3.3-4.7 3.3s-7-.3-10.2-.4h-2.7c-4.2 0-3.5-14-3.8-17.9-1.3-24.7-2.6-48.8-2.6-74 0-2.7 3-2.4 5.5-2.4 4.8 0 10-.7 10 4 0 5.3-.3 10.5-.3 15.5l.1 5.6c0 7.5-.8 15-.8 22.6 0 4 .2 8 .5 12 0 4.4-.3 16.2 1.3 16.2 2.4 0 7.2-17.3 7.8-19.6 1.4-5.3 3.2-16.5 6.7-16.5s7-.6 10.5-.6a3.2 3.2 0 0 1 3.5 2.3c3.3 9 7.7 18.2 11.3 26.6l.8 1c2-8.4 1.4-19 1.4-28 0-9.4-.5-18.8-.5-27.8 0-4-1.4-8.8-1.4-12.6 0-2.4 3.5-2.2 6.1-2.2 5.2 0 7.6-.8 7.6 7.3v1.6c0 15.6 2 30.2 3 45.3.2 1.4.3 3 .3 4.6v1l.1 9-.1 7 .2 8.3c0 4 .7 12.4-2 12.8-4.4.5-8.8 1.2-13.2 1.3h-1.9c-3.4 0-6.7-.2-7.6-3.4zm103.8 1.7a4.7 4.7 0 0 1-1 0c-2.5 0-4.7-.5-7-.5h-2.9a17.5 17.5 0 0 0-4.3-.3c-4.5.1-4.2.2-5.8-28 0-3.6-.6-7.2-.6-10.7v-12.7c0-7.1 1-14 1-21.1 0-4.6.4-11.5-.8-14.8a5.7 5.7 0 0 1-.3-1.8c0-1.7.2-4.4 2.6-4.4 3.9 0 11.9-1.1 11.9 1.8.2 5.3.7 10 .7 14.8v11.4c0 7.7-1.3 15.8-1.3 22.9 0 1 .4 2.2.4 3.2 0 1.5-.4 2.8-.4 4.2 0 6.4.6 13 .9 20 0 2.3.5 2.7 2.2 2.7l8.8-.1c3.4 0 2.8 7.2 2.8 11-.2 2-.5 2.8-2.3 2.8-1.5 0-3-.4-4.6-.4zm-69.4-2.7c-4.4 0-2.9-7.3-3.2-11.7-.4-4-.3-8-.3-12l.2-7.6-.1-3.5c0-4 .3-8.2.3-12.4v-28.2c0-2.1.3-4.2.3-6.4 0-2.7-.5-5.5-.5-8.1.2-2.6 4.8-2.4 7.7-2.4 1.7 0 3.2.3 4.8.3l4-.2c4.4 0 11.9 35.7 12.7 38.8a16 16 0 0 0 1.6 4.6 4.8 4.8 0 0 0 .4-2.4 731 731 0 0 1-1.2-39.9c.1-1 .9-1.4 2.2-1.4 6.1 0 12.9-.9 12.9 3.7v6.6c0 17.8-1.4 35.1-1.4 52.8v4.6c0 5.8-.4 11.7-.4 17.5 0 1.2.3 2.5.3 4-.2 1.6-3 1.6-4.7 1.6-1.2 0-2.7-.7-4-.7-1.7 0-3.6.2-5.3.4-3.2 0-7-24.8-7.4-27l-3-17.5a.7.7 0 0 0 0-.4c-2-6.8-2-14.7-5.2-21-.6 0-.5.6-.5 1 .2 6.3.2 12.5.2 18.9l-.1 1v2.1c-.2 5.4-.2 10.9-.2 16.1 0 8.6.7 16.6.7 24.8 0 3.5-3 4-6.2 4h-4.6zm190.6-.8h-1.7c-4 0-10.2.1-10.4-3.5-.6-7.8-1.1-15.4-1-23.2.7-4.3.4-9 .7-13.5.6-11.4 1.5-22.7 1.5-34.1l-.1-5.4c0-3.8-.2-14 1.7-14.5a68.3 68.3 0 0 1 17.1-2.1c10.6 0 21.6 3.6 21.6 17.5 0 3.5.3 7 .3 10.6h-.2c-.3 6.2-.8 12.4-.8 18.5l.1 4c0 8.4-1 17-1 26l.2 1.4c0 11.7-6.5 16.4-14.2 17.6a71.1 71.1 0 0 1-10.2.9l-3.6-.2zm0-80.9c-.4 2.9-.4 5.7-.4 8.4 0 3.9.2 7.7.3 11.5 0 12.9-.7 25.2-.7 39.3 0 5.8-.5 8.5 7.2 8.5 6.8 0 7.8-2.7 9-14 1.5-12.7 1-25.8 1.9-38.6l.2-3.2c0-7 .4-14.6-8.1-14.6-3 .2-9.5-.3-9.5 2.7zm-359.8 81h-1.8c-3.8 0-10 0-10.3-3.6-.6-7.8-1.1-15.4-1-23.2.7-4.3.4-9 .7-13.5.6-11.4 1.4-22.7 1.4-34.1v-5.4c0-3.8-.2-14 1.7-14.5a68.2 68.2 0 0 1 17.1-2.1c10.6 0 21.6 3.6 21.6 17.5 0 3.5.3 7 .3 10.6h-.2c-.3 6.2-.8 12.4-.8 18.5v4c0 8.4-.8 17-.8 26v1.4c0 11.7-6.4 16.4-14.1 17.6a71.2 71.2 0 0 1-10.2.9l-3.6-.2zm-.1-81c-.3 2.9-.3 5.7-.3 8.4 0 3.9.2 7.7.3 11.5 0 12.9-.7 25.2-.7 39.3 0 5.8-.5 8.5 7.1 8.5 6.9 0 7.9-2.7 9.1-14 1.5-12.7 1-25.8 1.9-38.6l.2-3.2c0-7 .3-14.6-8.1-14.6-3 .2-9.5-.3-9.5 2.7zm327.7 77c0-1.8.3-3.6.2-5.4-.3-3-.4-6-.4-9v-7.4c0-2.6.3-5.3.3-8 0-2.4-.3-3.3-2-3.3-6 0-13.4-.5-13.4 2.9.3 8.3.4 16.4 1.1 24.6.3 1.6 1.2 3 1.2 4.5 0 3.4-.6 4.3-3.6 4.3-4.5 0-10.6.3-10.6-2.9 0-4.1-.4-8.3-.4-12.3 0-2.4.5-4.8.5-7.2l-.2-7.5c.2-7 .2-14.2.3-21.3v-5.7l.3-6.7-.2-3.3c0-10.8 0-24.8 15.8-24.8 13.9 0 24.5 5.8 24.5 22.9v31a275.3 275.3 0 0 1-2.5 36.1c-.3 1.6-.9 2.2-2.4 2.2h-3.6c-3 0-4.9-.4-4.9-3.7zM-1666-441l.1 3.5-.2 4.7c0 1.5.8 1.7 2 1.7l7-.3 4.2.1c3.8 0 2.5-5.7 2.7-9 0-2.2.3-4.4.3-6.3-.1-6.8.5-15.5-7-15.5-9.4 0-9.1 7-9.1 21zm-62.7 30.2c0-1.9.5-3.8.5-5.8 0-3.5-.5-7.2-.5-11.1 0-3.3.3-6.6.3-9.8l-.2-7c0-12.5-.7-30 12.5-33a42.8 42.8 0 0 1 9.7-.8c8.6 0 18 1.6 20 13a278.8 278.8 0 0 1 2.6 37.5v4.6c0 11.6.5 29.7-4.5 35.1-5.3 5.8-13.5 6.8-20.3 6.8-16.7 0-20-13-20-29.5zm15-26.7c0 2.3.6 4.6.6 6.9 0 5.3-1.6 11-1.6 16l.2 4.2-.3 4.2c0 5.4 1 11.9 6.9 11.9 12.3 0 10.3-9.4 10.6-24.8l-.1-.9c.4-9.3.4-18.6.4-28l-.3-6 .2-2.8c0-5.4-1-11.2-7.5-11.2-10.5 0-9.1 9.5-9.1 30.5zm-229 26.7c0-1.9.4-3.8.4-5.8 0-3.5-.5-7.2-.5-11.1 0-3.3.3-6.6.3-9.8l-.2-7c0-12.5-.6-30 12.5-33a42.8 42.8 0 0 1 9.7-.8c8.6 0 18 1.6 20 13a277.9 277.9 0 0 1 2.6 37.5v4.6c0 11.6.6 29.7-4.5 35.1-5.3 5.8-13.5 6.8-20.3 6.8-16.7 0-20-13-20-29.5zm15-26.7c0 2.3.5 4.6.5 6.9 0 5.3-1.6 11-1.6 16l.2 4.2-.3 4.2c0 5.4 1.1 11.9 7 11.9 12.2 0 10.2-9.4 10.5-24.8l-.1-.9c.4-9.3.4-18.6.4-28l-.3-6 .2-2.8c0-5.4-1-11.2-7.5-11.2-10.5 0-9 9.5-9 30.5z"/>
  </g>
</svg>
