<svg xmlns="http://www.w3.org/2000/svg" viewBox="-2069 -5518.1 563.5 523.1">
  <g>
    <path d="M-1788.5-5494.3c169.3-24 309 87 278.9 217.2s-76 162.8-278.9 217.2-261-95.5-278.9-217.2 109.6-193.2 279-217.2z" opacity=".1"/>
    <g>
      <g opacity=".2">
        <path d="M-1932.4-5258.8a68.7 68.7 0 0 0-.3-11c-.6-3.1-1.2-15.3-3.8-15.3-3 0-9-.8-9 1.6 0 5.7 1 12.2 1 18.1a18.2 18.2 0 0 0-.1 2l.2 18.6c0 3.9-1.1 6.1-5.6 6.1-3.1 0-7.4-.8-7.4-5l.2-5.2-.2-4c0-7 .7-13.6.7-21.2v-1.5a47.3 47.3 0 0 1 .3-6.5c0-1.3-.3-1.9-1.7-1.9l-8 .1c-1.4 0-1.7 1-1.7 2.6l.2 9.8c-.2 3-.7 6-.7 9v1l-.2 6 .1 2.7-.2 5.9c0 4.6-.5 12.6 3.2 14.9 8.7 5.5 9.1 1.5 9.1 7.7v4.8c0 4.2.3 8.5.6 12.7.2 2.5 3.2 2.2 5.3 2.2 4 0 5.1-.2 5.1-3.6 0-6.3-.7-13-.7-19.6 0-2 3-2 4.8-2.6 7.2-2 8.8-15.3 8.8-23.3zm38.6 3.8c-.8-19-.8-31.3-13.2-31.3-2.2 0-4.4.4-6.6.4h-.3c-15.2 0-14.5 11.9-14.5 22l.2 7.8c0 4.5-.4 9.1-.4 13.6 0 3 .8 5.4 1 8.3 1.8 19.7 3 27.5 15.3 27.5a28.3 28.3 0 0 0 13.2-3c6.3-2.8 5.5-10.7 5.5-17.5 0-4.5-.4-9.2-.4-13.7l.2-14zm-10.8 16l.3 11.8c0 5.7-2.1 8.5-7.7 8.5-6.7 0-5.1-11.8-5.1-19 0-1.4.5-2.5.5-3.9v-.4c-.9-6-.7-12.7-.7-18.8l.3-4.8c.6-5.2-1.5-10.6 6.8-10.6 3.7 0 4.2 5.5 4.5 9 .5 9.4 1 18.8 1.2 28.2zm15.9-7.2v1.4l-.2 5.2c0 27.5 3.2 33.8 15 33.8 9.5 0 13.7-2.8 17-7.8 1.7-3 2-8.8 2-13.3v-1c-.1-2.6.2-5.5.2-8.2l-.2-6c0-2.8.3-5.6.3-8.5l-.2-4.4v-2.7c0-5.5-.3-11.2-.5-16.8-.2-3.6.8-8.8-3.3-8.8h-1.2c-1.6 0-3.6-.4-4.6-.4-2.5 0-1.7 7.6-1.7 11l.2 3.5-.3 6.2.1 3.7-.2 5c0 2.8.4 5.4.4 8.2l-.1 1.7c0 4.3.6 9.3.6 14.3 0 8-.8 12.2-6.3 12.2-7 0-5.7-9.7-5.7-17.6 0-4.2.6-8.8.6-13.3l-.2-2.3.2-6.2c-.2-6 .3-12.7-.6-18-.3-2 .6-9-2.3-9a24.4 24.4 0 0 1-3 .4l-3.6-.2c-1.5 0-2.1.2-2.1 1.5l.1 5.2a33 33 0 0 0-.2 4l.1 4.5q-.4 8-.4 16v6.7zm38.8 5a3 3 0 0 0 .1.6v18.2c0 5.8 0 13.3 3.4 13.3 2 0 8.2-.2 8.2-2.7 0-.2 0-.4-.2-.7-.4-5.6-.7-11.5-.7-17.2 0-5 1.4-4.9 4.9-4.9 7.1 0 7.9 16.8 7.9 25.7l-.2 2c0 1.3.6 2 2.3 2l6.8-.2c4 0 2.8-10 2.8-16.3a39.6 39.6 0 0 0-1.6-12.8c-1-3-6.3-4.3-6.3-5.2 0-.4 1-1.2 1.4-1.5 2.5-1.9 5-10.1 5-18 0-6.9.5-15.8-3.9-21.3-2.2-2.7-10.7-4-16.1-4-3 0-6.1.5-9.3.5a13.2 13.2 0 0 1-1.7-.1c-2.7 0-2.4 7-2.4 11.1v1c0 3.7-.3 7.2-.3 10.7v19.7zm23.5-17l-.1 8.3c-.2 5.1-7 6.1-11.3 6.4-1.2 0-1.6-.3-1.6-1.5-.3-6-.4-12-.6-18.2 0-12.8 1.6-11.1 7.2-11.1 8.3.2 5 11.2 6.4 16.2zm-85.8-145.1h.3c0 15.2-1 21.1-12.2 21.1-7.4 0-12.2-7.3-12.2-15.5 0-1.4.5-2.8.5-4.2 0-4.7-2.4-5-5.3-5-4.9.6-13.6.3-14 4.8 0 4.6.5 9 1 13.4 1.6 21.6 19.4 27.2 35.2 27.2a10.9 10.9 0 0 0 2.1-.2c22.6-4.3 26-17.8 26-34.3l-.3-10.3.1-6a62 62 0 0 0-1.4-12.5c-2.4-11.2-6-20.4-23.7-20.4-.8 0-3.4.7-5.6.7-6.2-.4-15.7-.3-15.7-9.6 0-1-2.1-35.8 11.7-35.8 9.6 0 14.7 5 14.7 12.7 0 3-1.2 6.3-1.2 9.3a2.4 2.4 0 0 0 2.7 2.7l7.2-.3 4.3.1c5.3 0 6.3-1.5 6.3-4.9 0-3.7-.6-7.6-.6-11.3v-.8c0-21.3-12-27.2-27.6-27.2h-7.2c-16.6 0-31.2 6.2-31.2 24.4v1c0 4.7-.8 9.1-.8 13.5 0 3.6.3 15 1.7 19.2 2.8 11.2 5.8 26.9 20.4 26.9h1.4c4.7 0 9.2 1.1 13.7 1.1h1.7c6.8 0 8 5 8 13.8zm79-87.4l7.3.2c2 0 3-1 3-2.6 0-4.4.6-16.8-4.8-16.8-7.6 0-15.5.7-23.3.7-3.2 0-6.3-1.2-9.5-1.2-1.6 0-3.3.5-5 .5-2.2 0-4.5-.5-6.7-.5-8.4 0-12.3 1.9-12.3 9.4 0 5.3-.4 10.8 3.5 10.8 5 0 10.2-.6 15-.6 3.6 0 2.5 21.6 2.5 30.5 0 5.8-.4 11.6-.4 17.3l.1 6.8-.1 19.2.1 7.6c0 2.8-.6 5.8-.6 8.6 0 4.5.3 8.7.6 13 0 6.7-2.4 23.1 6 23.1 3.6 0 7.8-1 11.8-1.4 4.5-1 2.8-10.3 2.8-15.4 0-3.5-.3-7-.3-10.7 0-1.3.3-2.5.3-4 0-3.6-.7-7.7-1-11.5 0-5 .4-9.6.4-14.4 0-6.5-.2-12.8-.4-19.2l.2-4.2-.3-13.8v-3.7c0-8.3-1.2-16.8-1.2-24.2 0-4.5 4.3-3.7 8-3.7l4.3.2zm18 86.1c0 10.4 0 20.9.8 31.3 0 5.4 1.7 5.5 5.5 5.5 5.2-.4 15 0 15-4.4v-1.1a145.7 145.7 0 0 1-2.8-28.9c0-3.2-.1-5.2 2.6-5.5l1.4.1 14-.1c5.6 0 4.2 12 4.2 19.7l-.2 7.7c0 5.9 11 3.8 18.8 3.8 2.4 0 3-3.3 3-5.3 1.8-18 1-37.7 1-56.4v-5.7c0-6.1.6-12.4.6-18 0-12 .3-23.4-2.5-34-1.7-6.1-7.6-9.5-12.4-13.3-5-4-17.8-4.5-26.1-4.5-14.4 0-20.7 5.2-22.4 22.4-.9 14-1.9 27.9-1.9 42.1l1.3 44.6zm42-46.1c0 25.1-.5 22.7-10.6 22.7h-1.2c-3.2 0-6.5.8-9.8.8-1.6 0-2-1.5-2-2.8 0-8.6.4-16.8.4-24.8v-5.2c0-16.4-.6-34.7 9.9-34.7a23 23 0 0 1 6.9 1.3c5.5 1.8 6.2 22.2 6.2 31.4 0 3.8-.4 9 .1 11.3zm30.5 20.6a5.8 5.8 0 0 0 .2 1.3c-.2 11.4-.2 23-.2 34.4 0 11 .3 25 6.7 25 3.6 0 15.3-.4 15.3-5l-.3-1.4c-.8-10.6-1.4-21.7-1.4-32.5 0-9.3 2.7-9.1 9.2-9.1 13.5 0 15 31.6 15 48.3l-.3 4c0 2.4 1 3.6 4.2 3.6 4.2 0 8.6-.4 12.8-.4 7.6 0 5.4-18.7 5.4-30.7a74 74 0 0 0-3.1-24.1c-1.9-5.7-11.9-8-11.9-9.8 0-.8 1.9-2.2 2.7-3 4.8-3.4 9.3-19 9.3-33.9 0-13 1.2-29.7-7.2-40-4.2-5.3-20.3-7.7-30.4-7.7-5.8 0-11.6.9-17.5.9a25 25 0 0 1-3.3-.1c-5 0-4.5 13.3-4.5 21v2c0 6.7-.5 13.3-.5 20l.1 4.3-.3 32.9zm44.3-31.7l-.3 15.5c-.3 9.6-13.2 11.5-21.3 12-2 0-3-.6-3-2.7-.5-11.4-.6-22.9-1-34.4 0-24.1 3-21 13.5-21 15.8.4 9.4 21.1 12.1 30.6zm79.7-29l7.3.3c2 0 3-1 3-2.6 0-4.4.5-16.8-4.8-16.8-7.6 0-15.5.7-23.3.7-3.2 0-6.3-1.1-9.6-1.1-1.5 0-3.2.4-5 .4-2.2 0-4.4-.4-6.7-.4-8.3 0-12.3 1.8-12.3 9.3 0 5.3-.4 10.8 3.6 10.8 5 0 10.1-.5 15-.5 3.6 0 2.5 21.5 2.5 30.4 0 5.8-.5 11.6-.5 17.4l.2 6.7-.2 19.2.2 7.6c0 2.8-.6 5.8-.6 8.6 0 4.5.3 8.8.6 13 0 6.7-2.4 23.1 5.9 23.1 3.7 0 7.9-1 11.8-1.4 4.6-1 2.9-10.3 2.9-15.4 0-3.5-.3-7-.3-10.7 0-1.3.3-2.5.3-4 0-3.6-.7-7.7-1-11.5 0-5 .4-9.6.4-14.4 0-6.5-.3-12.8-.4-19.2l.1-4.2-.3-13.8v-3.7c0-8.3-1.1-16.8-1.1-24.2 0-4.5 4.2-3.7 8-3.7l4.3.2zm-403.6 151.2v-1.4l-.1-4v-1.2l-.2-7.4c0-.6-.1-1.3.4-1.3l3 .2a.5.5 0 0 0 .4-.5l-.1-2c0-1.3-2.1-1-3.9-1h-2.8c-1 0-3.8 0-3.8.7l.1 2v.3c0 .3.2.5.5.5l2.6-.2c.7 0 .6.6.6 1.2l-.2 5.9v7.8l-.2 4.7c0 1 0 2.6.7 2.6l2.4-.2h.4c.4 0 .5-.4.5-.8-.1-2.2-.3-3.8-.3-6zm17-5.7a75.7 75.7 0 0 0-.7-10.2c-.6-3.1-3.1-3.5-5.5-3.5a11.6 11.6 0 0 0-2.6.2c-3.6.8-3.4 5.6-3.4 9v4.5l.1 3-.1 1.6c0 4.5 1 8 5.4 8 1.9 0 4.1-.2 5.6-1.8 1.3-1.5 1.2-6.4 1.2-9.6zm-8.4 5.9v-2.3c0-1.4.4-3 .4-4.4l-.1-1.9c0-5.7-.4-8.2 2.4-8.2 1.8 0 2 1.5 2 3v10.3c0 4.1.5 6.7-2.9 6.7-1.5 0-1.8-1.8-1.8-3.2zm28.2 3.1c.1-5.4-.3-7.5 4-7.5 3.8 0 3.7 3.5 3.7 6.7a9 9 0 0 1 0 1.1c0 1.5-.1 2.3 1.1 2.4 2.2 0 5.5.4 5.5-2.2 0-2.7 0-8.1-1.6-10.8-.7-1-3.5-3-4.8-3a36 36 0 0 0-6.7-.8c-9.3 0-8.5 10-8.5 15l.3 12.4v5a10.6 10.6 0 0 1 0 1.3c0 15.3 4.4 15 11 15l3.6-.3c4.6-.3 6.5-5.2 6.5-9.4a43.4 43.4 0 0 0-.3-5.5c-.2-1.7-2.5-1.5-4-1.5-1.8 0-2.7.1-2.7 1.2 0 1.8.7 3.7.7 5.3 0 3-2.2 3.7-4.6 3.7-2.8 0-3-3.3-3-5.7 0-3.1.3-6.2.3-9.4 0-2-.7-4-.7-5.9l.2-7.1zm38.8 5.5c-.5-12-.6-19.7-8.4-19.7l-4 .2h-.3c-9.5 0-9.1 7.5-9.1 13.9l.1 4.8-.2 8.6a39.6 39.6 0 0 0 .7 5.2c1 12.4 1.8 17.3 9.5 17.3a17.8 17.8 0 0 0 8.3-1.9c4-1.8 3.5-6.7 3.5-11l-.2-8.6v-8.8zm-6.8 10l.2 7.4c0 3.6-1.4 5.3-5 5.3-4 0-3.1-7.3-3.1-11.8 0-1 .3-1.7.3-2.5v-.3a82 82 0 0 1-.4-11.8l.1-3c.4-3.3-.9-6.7 4.3-6.7 2.4 0 2.7 3.4 2.9 5.7l.7 17.7zm30.4 4.3c-1 0-1.8-5.6-2.3-6.7a163 163 0 0 1-5.8-17.5c-.7-2.6-1.5-7.4-3-7.4-1 0-2-.7-3.3-.7-1 0-6.1 0-6.1 1.7l.2 6.9-.1 3.7v5.6c.3 6.9.6 14.6.6 21.6 0 .6-.2 7 1.3 7.2 6.1 0 5.5-1.5 5.5-4.4-.2-5.7-1-13-1-19.6l.2-3.3c0-1.3-.2-4 .5-5.7a4.1 4.1 0 0 1 .7 1.8c1.4 6.5 2.6 12.6 4.4 19 .8 2.9 3 13.1 4.7 13.1 1.4 0 3.5-.7 5.3-.7 4.9 0 4.5 0 4.7-2.8 0-3.8.6-7.5.6-11.3l-.1-7.7.1-3.8c0-3.7-.2-7.4-.4-11 0-1.7.3-10.1-1.9-10.1-1 0-5.6-.6-5.6 1.4l.2 2.5c.5 8.2.8 17 .8 25.5a12.8 12.8 0 0 1-.2 2.7zm22.8 5.1c-.8 0-.8-4.5-1-6-1.2-9.7-2.2-18.7-4.7-27.8v-.1c-.5-1.2-3.4-1.2-5.2-1.2-1.8 0-2.4.6-2.4 1.3a3.2 3.2 0 0 0 .1.6 125.7 125.7 0 0 0 2.5 14c1.7 6.2 2.3 13 3.8 19.2.1.6 1.6 10.7 3.8 10.7l2.5-.2h4.2c2.6 0 2.6-3 2.8-5.5 1-5.5 1.4-11 2.3-16.5a113 113 0 0 0 1.2-13.6c.1-3.5.5-7 .5-10.8 0-1.3-1-1.4-2.7-1.4l-2.5.2a2.7 2.7 0 0 1-.6 0c-.8 0-1.3.3-1.3 1.3-.3 2.3-.4 4.8-.6 7.2a192 192 0 0 1-2.7 28.6zm24-32l1 .1c1.4 0 3.1.5 3.1-1.6s.3-5.2-1.4-5.2h-4.2l-3.5-.2c-2 0-6 .3-6 1.8l.2 1.8v2c0 8.8.5 17.7.5 26.6v1.6l.2 3-.1 3.4v2.8a7.6 7.6 0 0 1 0 1c0 1.3.2 2.6.3 3.8.1 1.4 1.1 1.2 2.6 1.2 1.8 0 3.6-.4 5.3-.4a4 4 0 0 0 .8 0l3.8-.2 1.5.1c1-.1 1-1.2 1-2.5 0-3.8-1-3.5-3.6-3.5-1 0-4.5.3-4.8-1.2 0-2.4-.7-4.6-.7-7v-3.1l-.2-5.4c0-2.3 8.3 0 8.3-3 0-6-.7-5.5-4.2-5.5l-3 .2c-.6 0-.8-.3-.8-.9 0-1.8.4-3.7.4-5.5l-.2-2c0-3 1.7-2.2 3.6-2.2zm7.7 21.2a2 2 0 0 0 0 .4v11.4c0 3.7.1 8.4 2.2 8.4 1.3 0 5.2-.1 5.2-1.7l-.1-.5a128 128 0 0 1-.5-10.8c0-3 .9-3 3-3 4.6 0 5 10.5 5 16.1v1.3c0 .8.3 1.2 1.3 1.2l4.3-.1c2.6 0 1.8-6.3 1.8-10.2a24.9 24.9 0 0 0-1-8c-.6-2-4-2.8-4-3.3 0-.3.6-.8 1-1 1.5-1.2 3-6.4 3-11.3 0-4.4.4-10-2.4-13.4-1.4-1.7-6.8-2.5-10.1-2.5-2 0-3.9.3-5.9.3a8.3 8.3 0 0 1-1 0c-1.7 0-1.5 4.4-1.5 7v.6l-.2 6.6v12.5zm14.8-10.6l-.1 5.1c-.1 3.2-4.4 3.9-7.1 4-.7 0-1-.1-1-.9l-.4-11.4c0-8 1-7 4.5-7 5.3.1 3.2 7 4 10.2zm26.5-9.7l2.5.1c.6 0 1-.3 1-.9 0-1.4.2-5.6-1.6-5.6l-7.8.3c-1 0-2.1-.4-3.2-.4l-1.6.1h-2.3c-2.8 0-4 .5-4 3 0 1.8-.2 3.6 1.1 3.6l5-.2c1.2 0 .8 7.2.8 10.2l-.1 5.8v11.2l-.2 2.8.2 4.3c0 2.3-.8 7.8 2 7.8 1.2 0 2.6-.4 4-.5 1.5-.3.9-3.4.9-5.1l-.1-3.6v-1.3l-.2-3.9.1-4.8-.1-6.4v-7.2c0-2.8-.5-5.6-.5-8 0-1.6 1.5-1.3 2.7-1.3h1.4zm235.3 141.1a33.7 33.7 0 0 1-8.7-1.1 23.4 23.4 0 0 1-8.1-4c-5.5-4-8.5-10.7-9.1-19.5-.3-3.5-.6-7.9-.6-12.1 0-1.5 1-2.5 2.7-3.2a22.6 22.6 0 0 1 5.2-1c.9 0 1.7-.1 2.4-.3a3.9 3.9 0 0 1 2.7.7c.7.7 1.1 2 1.1 4a15.9 15.9 0 0 1-.2 1.8 15.9 15.9 0 0 0-.1 2 19.2 19.2 0 0 0 2.4 9.7 9.7 9.7 0 0 0 2.8 3 6.5 6.5 0 0 0 3.7 1.2c4.1 0 6.4-1.3 7.7-4.4 1.1-2.9 1.4-7.4 1.4-14.7h-.2v-5.7c0-4.6-.4-7.4-1.1-9.2a4.7 4.7 0 0 0-4.9-3.3h-1.2a33.4 33.4 0 0 1-5-.5 34.2 34.2 0 0 0-5.1-.5h-1c-4.6 0-8-2.5-10.5-7.5-2.1-4.4-3.3-10-4.2-15l-.4-1.8a99 99 0 0 1-1.2-17.3c0-2 .1-3.9.3-5.9s.3-4 .3-6.2v-1c0-7.7 2.3-13.5 6.9-17.2a20.2 20.2 0 0 1 7.3-3.7 31.9 31.9 0 0 1 8.7-1.2h5.3a25.8 25.8 0 0 1 8 1.2 15.8 15.8 0 0 1 6.5 3.9 18.7 18.7 0 0 1 4.3 7.5 40 40 0 0 1 1.6 12v.8l.2 5 .2 5.2c0 3-.7 4.4-4.7 4.4a25 25 0 0 1-3-.1l-2.7.1-2.7.1a1.8 1.8 0 0 1-1.4-.6 2.8 2.8 0 0 1-.5-1.8 30.3 30.3 0 0 1 .4-4.2 30.3 30.3 0 0 0 .4-4.2 12.1 12.1 0 0 0-2.8-8.3 9 9 0 0 0-3.4-2.3 12.6 12.6 0 0 0-4.6-.8 4.8 4.8 0 0 0-3.6 1.6 15.6 15.6 0 0 0-3.3 6.8 56.9 56.9 0 0 0-1.5 9.5 121.7 121.7 0 0 0-.3 14v.4c0 3.5 1.2 5.8 3.6 7.1 2.1 1.1 4.7 1.3 7 1.5h1a14.5 14.5 0 0 0 3-.4 7.1 7.1 0 0 1 1.1-.2 19.5 19.5 0 0 1 8 1.5 12.3 12.3 0 0 1 5 4 30 30 0 0 1 4.5 13 67.1 67.1 0 0 1 1 11.2 97.2 97.2 0 0 1 0 5.5 94 94 0 0 0 .3 9.3 70 70 0 0 1-.7 10.5 29.8 29.8 0 0 1-2.7 9 19.3 19.3 0 0 1-5.9 7 26.4 26.4 0 0 1-10 4.4 6.6 6.6 0 0 1-1.5.3zm-173-4.5c-7.2 0-7.3-2.2-8.2-19.4 0-1.2 0-2.4-.2-3.8-.4-8-.5-15.9-.6-23.5v-4.9a442.6 442.6 0 0 1 1.2-38.1v-3a41.8 41.8 0 0 0 0-3.6c0-10.2.4-20.1.8-30.6v-.7c.2-2.2 1.7-3.7 4.4-4.6a25.5 25.5 0 0 1 8-1h4l1.3.1a46 46 0 0 1 20.4 4 19 19 0 0 1 6.7 5.3 15.4 15.4 0 0 1 3 8 193.8 193.8 0 0 1 .8 17.6c0 8 .2 14.7.4 21.2v20c0 6.2-.3 12.3-.7 18.2l-.3 6.2a52.4 52.4 0 0 1-1.7 14 26 26 0 0 1-5 10 21.2 21.2 0 0 1-8.7 6 35.3 35.3 0 0 1-12.6 2h-2a47 47 0 0 0-5.3.3l-5.6.3zm15.9-115.5h-.7c-8.1.6-8.1.6-8 24.1v5.2l.1 11.6a398 398 0 0 1 0 15.2v3.8a40.2 40.2 0 0 0 .3 4.6l.4 3.9.1 6.5.6 19.5a2.9 2.9 0 0 0 .5 2 2.4 2.4 0 0 0 1.8.5 18 18 0 0 0 8.2-2 11.4 11.4 0 0 0 3.4-2.7 10 10 0 0 0 2-4.3 114.7 114.7 0 0 0 2.2-22.2 90.4 90.4 0 0 0-.1-5.3c0-5.5.3-11.2.5-16.8s.6-11.2.6-16.7c0-1.5 0-3-.2-4.4 0-1.8-.2-3.5-.1-5.3v-2.3c0-5-.7-13.5-5-14.1l-3-.4h-.2l-3.4-.4zm39 114.8c-2.3 0-3.9-.3-4-3.2l-.4-4c-.2-2-.4-4.2-.4-6.2a25.1 25.1 0 0 0 .1-2.8v-3.9l-.2-3.8.1-4.6.1-4.5c0-1.4 0-2.8-.2-4.1s-.2-2.8-.2-4v-2.4l.1-2.1c0-12.2-.3-24.5-.6-36.3-.4-11.7-.7-23.8-.7-35.6v-8.1l-.1-2.4a3 3 0 0 1 1.4-2.5 10.7 10.7 0 0 1 3.5-1.4 36.1 36.1 0 0 1 8.3-1 32.3 32.3 0 0 1 3.9.3 32.3 32.3 0 0 0 3.9.4l3.1-.1h6a2.1 2.1 0 0 1 1.6.6c.8.8 1.3 2.3 1.5 4.7a64.7 64.7 0 0 1 .2 6.7v2c0 4-2 4.5-4 4.5h-1.5l-1.4-.1a11.5 11.5 0 0 1-1.5-.1l-1-.2h-2.1a21 21 0 0 0-1.8-.2 3.3 3.3 0 0 0-2.9 1.2c-.7 1-1.1 2.6-1.1 5.2 0 .8 0 1.8.2 2.6s.1 1.8.1 2.7c0 2.4-.2 5-.5 7.5s-.4 5-.4 7.4c0 1.5.6 2.3 1.6 2.3a30 30 0 0 0 3.3-.3 31 31 0 0 1 3.5-.2h2.8a10 10 0 0 1 3.3.3 3.4 3.4 0 0 1 2 1.9c.9 1.9 1.2 5.4 1.2 12.8a3.6 3.6 0 0 1-.8 2.5 5.1 5.1 0 0 1-2.3 1.4 27.8 27.8 0 0 1-6.8.9c-4.4.2-8.4.4-8.4 3.4 0 2.4 0 4.9.2 7.3l.2 7v8.3a74.3 74.3 0 0 0 .8 9.7 73.2 73.2 0 0 1 .8 9.6 3.3 3.3 0 0 0 2.6 2.7 15 15 0 0 0 4.7.5 54.7 54.7 0 0 0 3.2 0h2.2c1.9 0 3.5 0 4.5 1.3s1.3 3.7 1.3 8c0 3.6 0 6.7-2 7a9.5 9.5 0 0 1-1.8-.3 8.7 8.7 0 0 0-1.6-.1 27.2 27.2 0 0 0-4.2.4 28 28 0 0 1-4.3.4 7.3 7.3 0 0 1-1.7 0 45.5 45.5 0 0 0-5.8.4 45.5 45.5 0 0 1-5.9.5h-1.7zm40.3-.6c-1.4 0-2.4 0-3-.6-.7-.7-1-2-1-4.3-.6-10-.6-20-.6-28.3l-.3-12-.7-28.2c0-11.3.6-22.6 1.2-33.5l.2-4.6a48 48 0 0 1 1.6-9.7 16.8 16.8 0 0 1 3.1-6.3 11 11 0 0 1 5-3.3 20.7 20.7 0 0 1 6.8-1 68.3 68.3 0 0 1 10.6.7c4.1.7 7 1.8 8.6 3.4l2 1.8c3 2.8 6.1 5.7 7.2 10.3 1.9 8.8 1.9 18 1.8 27.9v2.7c0 2.5 0 5-.2 7.8l-.3 8.5v2.6l.1 2.6v11.5c.2 13.2.3 26.8-.7 39.4a9.3 9.3 0 0 1-.5 3c-.4 1.1-1 1.7-1.8 1.7l-3.7.2-4 .2a10 10 0 0 1-4.3-.7 3.1 3.1 0 0 1-1.8-3.1v-3.4l.1-3.5v-3.7c.2-5.4.3-11.6-1.6-13.5a2 2 0 0 0-1.4-.6 281 281 0 0 0-10.4.1 3.2 3.2 0 0 1-.5 0 3.2 3.2 0 0 0-.5-.1c-2 .2-2 1.9-2 4.5v.5a160.7 160.7 0 0 0 2.2 26v1c0 1.5-1 2.5-3 3.1a28.3 28.3 0 0 1-6 .8l-2.2.1zm16.6-114.6a4.5 4.5 0 0 0-3.3 1.4c-4 4-4 16.1-4 27.8v6.9c0 3.5 0 7-.2 10.8l-.1 11.6c0 .6 0 2.5 1.4 2.5a23.9 23.9 0 0 0 3.7-.4 23.1 23.1 0 0 1 3.6-.3h3.9a4.7 4.7 0 0 0 2.6-.5 4 4 0 0 0 1.5-2.6c.6-2.7.6-7.7.6-17.4a40.3 40.3 0 0 1-.1-7v-3.2c0-3.6 0-10.6-.7-16.7-.8-7-2-11-3.8-11.7a14.5 14.5 0 0 0-5.1-1.2zm-140.8 114.2a2.5 2.5 0 0 1-2-1.6 13.3 13.3 0 0 1-1-3.8 73.5 73.5 0 0 1-.4-9.5v-8.5c0-2.2.2-4.6.4-6.9.2-2.2.4-4.6.4-6.7l-.2-3.3a41 41 0 0 1 .2-9.8l.3-6.4-.1-3.6-.1-3.5.1-11.8.2-11.8c0-3.3-.2-6.7-.4-10-.2-3.2-.4-6.5-.4-9.7v-3.4c-.1-2.2-.2-4.4 0-6.4a2.1 2.1 0 0 1 .4 0 4.7 4.7 0 0 1 1.9.5 7.1 7.1 0 0 0 3 .8h.8l2.2.1a12.3 12.3 0 0 0 3.2-.3 5 5 0 0 1 1.3-.2 8 8 0 0 1 1.7.2h.4l.2.1v.3a15.2 15.2 0 0 1 0 1.5 15.2 15.2 0 0 0-.2 1.6l.2 4.8.2 4.8a149.6 149.6 0 0 1-.3 11.8v5.2l.1 5-.2 6a62.5 62.5 0 0 0-.3 7.3c0 16.7.7 33.3 1.9 48 .2 3.3.2 6.7.2 10v2.5a5.8 5.8 0 0 1-1 3.6 6.1 6.1 0 0 1-2.7 1.9 18.8 18.8 0 0 1-6.2 1l-1.1.1a20 20 0 0 1-2.7.1zm-178.4 39.1c0-6-1.1-5.9-6-5.9-2.3 0-2.2 1.3-2.2 2.8l.1 6.6v16.2c0 3.2.4 6.4.4 9.7l-.1 4 .2 3.2-.2 2.9.1 1.8v1.2a59 59 0 0 0 1 10.8c.3 1.7 8 1.5 11 1.5 1.1 0 7.9-.3 7.9-2.2 0-.4-.1-6.7-2.2-6.7-2.5.1-5 .7-7.7.7-.6 0-1-.3-1.1-.8 0-5.7-1-11.6-1-17.4l.1-1.3v-12.7l-.3-8.1.2-3.6-.2-2.7zm42 16.8c-.6-15.2-.7-25-10.6-25l-5.2.3h-.3c-12 0-11.5 9.5-11.5 17.6l.2 6.2-.3 10.8c0 2.4.6 4.3.8 6.7 1.4 15.7 2.3 21.9 12 21.9a22.6 22.6 0 0 0 10.6-2.4c5-2.3 4.4-8.5 4.4-14 0-3.6-.3-7.3-.3-11l.2-11.1zm-8.6 12.7l.2 9.4c0 4.6-1.7 6.8-6.2 6.8-5.3 0-4-9.4-4-15 0-1.2.4-2.2.4-3.2v-.4c-.7-4.7-.6-10.1-.6-15l.2-3.8c.5-4.1-1.2-8.4 5.5-8.4 3 0 3.4 4.3 3.6 7.2l1 22.4zm28.5 12c-1-.2-1-5.7-1.3-7.5-1.6-12.5-2.8-23.9-6-35.4v-.1c-.6-1.6-4.3-1.6-6.5-1.6-2.3 0-3 .8-3 1.7a4.1 4.1 0 0 0 0 .8 159.2 159.2 0 0 0 3.2 17.7c2.1 7.9 3 16.4 4.8 24.3.2.8 2 13.6 4.9 13.6l3-.3h5.4c3.3 0 3.3-3.8 3.6-7 1.3-6.8 1.8-13.8 2.9-20.8a143.2 143.2 0 0 0 1.5-17.2c.1-4.5.7-9 .7-13.7-.1-1.7-1.3-1.8-3.4-1.8l-3.2.2a3.4 3.4 0 0 1-.8 0c-1 0-1.6.4-1.6 1.7-.4 3-.6 6.1-.8 9.1a243.3 243.3 0 0 1-3.4 36.3zm30.3-40.6l1.4.1c1.7 0 4 .6 4-2s.3-6.6-2-6.6h-5.2c-1.5 0-3-.3-4.4-.3-2.6 0-7.6.5-7.6 2.3l.1 2.3v2.6c0 11.1.7 22.3.7 33.6v2.1l.2 3.8-.1 4.3.1 3.6a9.7 9.7 0 0 1 0 1.3c0 1.5.3 3.2.4 4.8 0 1.6 1.3 1.4 3.2 1.4 2.3 0 4.5-.4 6.8-.4a5.1 5.1 0 0 0 1 0c1.6 0 3.2-.4 4.8-.4l2 .2c1.1-.1 1.1-1.6 1.1-3.2 0-4.8-1.2-4.4-4.6-4.4-1.3 0-5.7.4-6-1.5 0-3-1-6-1-9v-3.9l-.2-6.7c0-3 10.6 0 10.6-3.8 0-7.6-1-7-5.4-7l-3.9.2c-.6 0-1-.4-1-1 0-2.3.6-4.8.6-7l-.2-2.5c0-3.9 2.2-2.9 4.6-2.9zm18-.9c0-6-1.1-5.9-6-5.9-2.3 0-2.2 1.3-2.2 2.8.2 2.2.2 4.4.2 6.6v16.2c0 3.2.3 6.4.3 9.7l-.1 4 .2 3.2-.1 2.9v3a59 59 0 0 0 1 10.8c.3 1.7 8 1.5 11 1.5 1.1 0 8-.3 8-2.2 0-.4-.2-6.7-2.2-6.7-2.5.1-5.2.7-7.8.7-.6 0-1-.3-1.1-.8 0-5.7-.9-11.6-.9-17.4v-14l-.3-8.1.2-3.6-.2-2.7zm42.8 13.8a54.8 54.8 0 0 0-.3-8.9c-.5-2.4-1-12.1-3-12.1-2.5 0-7.3-.7-7.3 1.2 0 4.6.8 9.8.8 14.5a14.5 14.5 0 0 0 0 1.6l.2 14.8c0 3-1 4.9-4.5 4.9-2.5 0-5.9-.7-5.9-4l.1-4.2-.1-3.1c0-5.6.5-10.9.5-17v-1.1a37.7 37.7 0 0 1 .3-5.2c0-1-.3-1.5-1.4-1.5h-6.3c-1.1 0-1.4.8-1.4 2l.1 8c0 2.3-.5 4.7-.5 7v1l-.1 4.7v2.1l-.1 4.7c0 3.7-.4 10 2.5 11.9 7 4.4 7.3 1.2 7.3 6.1v3.8c0 3.4.2 6.8.5 10.2 0 2 2.5 1.7 4.2 1.7 3.2 0 4-.2 4-2.8 0-5.1-.5-10.5-.5-15.7 0-1.5 2.4-1.6 3.8-2 5.7-1.7 7-12.2 7-18.6zm41.8 25.2c0 6.4-.3 9-5.1 9-3.1 0-5.1-3.2-5.1-6.6l.2-1.8c0-2-1-2.1-2.2-2.1-2.1.3-5.8.1-6 2 0 2 .2 3.9.4 5.7.7 9.1 8.2 11.5 14.9 11.5a4.6 4.6 0 0 0 .9-.1c9.5-1.8 11-7.5 11-14.5l-.2-4.3v-2.6a26.2 26.2 0 0 0-.5-5.2c-1-4.8-2.5-8.7-10-8.7-.4 0-1.4.3-2.4.3-2.6-.2-6.6-.1-6.6-4 0-.4-.9-15.2 5-15.2 4 0 6.1 2.2 6.1 5.4 0 1.3-.4 2.7-.4 4a1 1 0 0 0 1 1h4.9c2.3 0 2.7-.6 2.7-2l-.3-4.8v-.4c0-9-5-11.5-11.6-11.5h-3c-7 0-13.2 2.6-13.2 10.3v.5c0 2-.4 3.8-.4 5.6 0 1.6.1 6.4.7 8.1 1.2 4.8 2.5 11.4 8.7 11.4h.6c2 0 3.8.5 5.7.5h.8c2.8 0 3.4 2 3.4 5.8zm23 2.7c.1 0-1.1-7.9 1.8-7.9 5 0 5.2 6.3 5.4 9.2.4 3.8-.5 12.5 1.4 12.5s3.6-.5 5.5-.5h.4c3.4 0 3-5.6 3-10.3 0-6.3-.4-11.2-5.4-14-.3 0-.5-.3-.5-.5a.2.2 0 0 1 0-.2c4.4-4.4 4.5-8.8 4.5-15l-.3-9.6v-1c0-3.7-.3-7.5-.6-10.8 0-1.8-3.8-1.6-5.7-1.6-3 0-3.4.3-3.4 2.3a15.3 15.3 0 0 0 .4 3.3c.7 2.9.6 7 .6 10l-.1 3.6.2 7a6.6 6.6 0 0 1-6.7 6.9c-.6 0-.8-.5-.8-1.5v-9.4c.1-6.4-.9-13-1.3-19.5-.1-1.4-.8-1.6-2.8-1.6-6.2 0-6.2 1.6-6.2 4.6 0 1.3.6 2.6.6 4v2.8c0 8.4.8 17 .8 25.6 0 6.6-.2 13.1-.4 19.7 0 1.2.4 1.6 1.4 1.6 2.3 0 4.6-.5 6.8-.7 1.7 0 1.4-2.8 1.4-4.3v-4.7zm34.9-40.8l1.4.1c1.8 0 4 .6 4-2s.3-6.6-1.9-6.6h-5.2l-4.5-.3c-2.6 0-7.6.5-7.6 2.3l.2 2.3-.1 2.6c0 11.1.8 22.3.8 33.6v2.1l.2 3.8-.2 4.3.2 3.6a9.7 9.7 0 0 1-.1 1.3c0 1.5.3 3.2.4 4.8.1 1.6 1.4 1.4 3.3 1.4 2.2 0 4.5-.4 6.7-.4a5.1 5.1 0 0 0 1 0c1.6 0 3.2-.4 4.9-.4l1.9.2c1.1-.1 1.1-1.6 1.1-3.2 0-4.8-1.2-4.4-4.5-4.4-1.3 0-5.8.4-6-1.5 0-3-1-6-1-9v-3.9l-.2-6.7c0-3 10.5 0 10.5-3.8 0-7.6-.9-7-5.4-7l-3.8.2c-.6 0-1-.4-1-1 0-2.3.5-4.8.5-7l-.1-2.5c0-3.9 2.1-2.9 4.5-2.9zm30.5 1.2l3.1.1c.9 0 1.3-.4 1.3-1.1 0-1.9.2-7.1-2-7.1l-9.9.3c-1.3 0-2.6-.5-4-.5l-2 .2-3-.2c-3.5 0-5.1.8-5.1 4 0 2.2-.2 4.5 1.5 4.5l6.3-.2c1.5 0 1 9.1 1 12.9l-.1 7.3v14.1l-.2 3.7.2 5.5c0 2.8-1 9.7 2.5 9.7 1.6 0 3.4-.4 5-.6 2-.4 1.2-4.3 1.2-6.5l-.1-4.5.1-1.7c0-1.5-.3-3.2-.4-4.8l.2-6.1-.2-8.1v-9.2c0-3.5-.5-7-.5-10.2 0-2 1.8-1.6 3.4-1.6h1.7zm16.3 7.8c.2-6.8-.4-9.5 5-9.5 4.9 0 4.8 4.4 4.8 8.5a11.5 11.5 0 0 1 0 1.4c0 1.9-.2 3 1.4 3 2.8 0 6.9.5 6.9-2.8 0-3.4.1-10.3-2-13.7-.9-1.3-4.4-3.7-6-3.7a45.7 45.7 0 0 0-8.6-1.1c-11.7 0-10.8 12.8-10.8 19.1 0 5.2.3 10.2.5 15.6l-.1 3.3v3.1a13.5 13.5 0 0 1 0 1.6c0 19.4 5.7 19.1 14 19.1 1.6 0 3.1-.4 4.5-.4 5.9-.5 8.3-6.6 8.3-12a55 55 0 0 0-.5-7c-.2-2-3.1-1.8-5-1.8-2.2 0-3.4.1-3.4 1.5 0 2.2 1 4.7 1 6.8 0 3.8-3 4.6-5.9 4.6-3.6-.1-3.9-4.2-3.9-7.2 0-4 .5-8 .5-12 0-2.5-.9-5-.9-7.4l.2-9zm30.1 16.3a6.8 6.8 0 0 1 0-1.1v-2l-.1-18.3.2-3.3c0-1.4-.4-2.8-.4-4.2s-1.5-1.4-3-1.4a10.8 10.8 0 0 0-3.4.5c-2.4.8-1.4 13.4-1.4 17.8v12.6l-.2 2.9.2 5c0 3.2-.4 6.3-.4 9.5 0 1-.5 7.4 1.4 7.4s4-1 6-1.3c2-.3 1.5-2.5 1.5-4.5l-.3-6.1v-2.9c0-2.3 4-1.8 7-2 2.9 0 2.5 2 2.5 4.4l-.1 2.8.4 10c.3 1.6.4 1.8 1.6 1.8 6.8-.8 6.5-1 6.5-5.3v-3.2l.1-4.7v-4.2c.6-8.2.7-17.2.7-26.2 0-.6.6-16.2-2.3-16.2-2.8 0-6.7-.4-6.7 1.9v12.6c0 2.4-.5 4.8-.5 7.1v1.4l-.1 3 .1 4.1c0 1.6-1.6 2.1-4 2.1h-.4c-1.3 0-2.7.4-4 .4a1.2 1.2 0 0 1-.9-.4zm36.3-25.3l1.4.1c1.8 0 4 .6 4-2s.3-6.6-1.9-6.6h-5.2l-4.5-.3c-2.6 0-7.6.5-7.6 2.3l.2 2.3-.1 2.6c0 11.1.8 22.3.8 33.6v2.1l.2 3.8-.2 4.3.2 3.6a9.6 9.6 0 0 1-.1 1.3c0 1.5.3 3.2.4 4.8.1 1.6 1.4 1.4 3.3 1.4 2.2 0 4.4-.4 6.7-.4a5.1 5.1 0 0 0 1 0c1.6 0 3.2-.4 4.8-.4l2 .2c1.1-.1 1.1-1.6 1.1-3.2 0-4.8-1.2-4.4-4.5-4.4-1.3 0-5.8.4-6-1.5 0-3-1-6-1-9v-3.9l-.2-6.7c0-3 10.5 0 10.5-3.8 0-7.6-.9-7-5.4-7l-3.8.2c-.6 0-1-.4-1-1 0-2.3.5-4.8.5-7l-.1-2.5c0-3.9 2.1-2.9 4.5-2.9zm29.4 38.1c0 6.4-.3 9-5.1 9-3.1 0-5.1-3.2-5.1-6.6l.1-1.8c0-2-1-2.1-2.2-2.1-2 .3-5.7.1-5.9 2 0 2 .2 3.9.4 5.7.7 9.1 8.2 11.5 14.9 11.5a4.6 4.6 0 0 0 .9-.1c9.5-1.8 11-7.5 11-14.5l-.2-4.3v-2.6a26.2 26.2 0 0 0-.5-5.2c-1-4.8-2.5-8.7-10-8.7-.4 0-1.4.3-2.4.3-2.6-.2-6.6-.1-6.6-4 0-.4-.9-15.2 5-15.2 4 0 6.1 2.2 6.1 5.4 0 1.3-.5 2.7-.5 4a1 1 0 0 0 1.2 1h4.8c2.3 0 2.7-.6 2.7-2l-.3-4.8v-.4c0-9-5-11.5-11.6-11.5h-3c-7 0-13.2 2.6-13.2 10.3v.5c0 2-.4 3.8-.4 5.6 0 1.6.1 6.4.7 8.1 1.2 4.8 2.5 11.4 8.7 11.4h.6c2 0 3.8.5 5.7.5h.8c2.8 0 3.4 2 3.4 5.8zm-416.5 63.1c-1 0-2 0-2.3-.8a22 22 0 0 0-1.9-4.1 14.2 14.2 0 0 1-.7-1.5 12.1 12.1 0 0 0-1-1.7.3.3 0 0 0-.3-.2c-.2 0-.7 1-1.5 3v.1a53.3 53.3 0 0 0-2 4.2c-.2.4-.3.6-1.2.6h-2.4l-.6-.1h-.8c-1 0-1-2.1-1-3.4l-.1-.6v-.4c-.4-5.5-.8-10.7-.8-16.3 0-.5.6-.5 1.3-.5h1.2a4.7 4.7 0 0 1 1.5.1.8.8 0 0 1 .6.8v1.8l-.1 1.7v1.2l-.1 2.6-.1 2.5a22.6 22.6 0 0 0 .1 2.7v.4c0 1 0 2.9.3 3.2a.1.1 0 0 0 .1 0c.3 0 .7-.6 1.3-2l1-2.3.2-.8c.4-1.3.9-3 1.7-3h1.6l1.5-.1a1 1 0 0 1 1 .5 53.6 53.6 0 0 0 3.3 6 1.2 1.2 0 0 1 .1.1l.2.1a18 18 0 0 0 .4-5.2v-4.3l-.2-3a7.6 7.6 0 0 0-.2-1.5 7 7 0 0 1-.2-1.3c0-.5.8-.5 1.5-.5h1a1.7 1.7 0 0 1 1.2.2c.2.2.3.7.3 1.4v.4a60.3 60.3 0 0 0 .6 7l.3 3.1v1.3l.1 1v4.9c.1 1 .1 2.4-.5 2.4h-.7c-1 .2-2.1.3-3.2.3h-.5zm33.5-.7a.4.4 0 0 1-.3-.1 3.9 3.9 0 0 1-.4-2.2v-6.1c0-.4-.2-.5-.6-.5h-1.6c-.8 0-1.8 0-1.8.4l-.1 1.5a16 16 0 0 0 0 1.9 44.6 44.6 0 0 0 0 2.7c0 .8-.1 1-.8 1h-.3a8.7 8.7 0 0 0-1 0 8.5 8.5 0 0 1-.9.1c-.5 0-.7-.2-.7-.5a65.8 65.8 0 0 1-.3-6.9 26 26 0 0 0 0-1.4c0-1.8.1-3.6.3-5.3l.1-2.8v-.5c0-.7 0-1.7.4-2.1a.5.5 0 0 1 .3-.2 8.7 8.7 0 0 0 .7 0h2.1c.4 0 .6.2.6.5a84.3 84.3 0 0 1-.4 6.5 6 6 0 0 1 0 .6 1.7 1.7 0 0 0 .2 1.2.7.7 0 0 0 .5.2h.7c1.4 0 2.9 0 2.9-.6v-8.1c0-.3.2-.3.7-.3h2.3c.4 0 .8 0 .8.4a7 7 0 0 0 0 .8v8.3a66.9 66.9 0 0 1-.3 7.7 28.3 28.3 0 0 0 0 2c.1.5.2 1.3-.5 1.4h-.6a10.9 10.9 0 0 1-2 .4zm-24.3-.1c-1 0-2.3 0-2.4-.5v-3.5a43.4 43.4 0 0 1 0-3.4v-1.3a4.8 4.8 0 0 1 0-.6v-1.8a63.6 63.6 0 0 1 0-4.2v-3.6a1.3 1.3 0 0 1 .6.1 2 2 0 0 0 .8.2 12 12 0 0 0 1.7-.1 1.7 1.7 0 0 1 .4-.1 1.6 1.6 0 0 1 .4 0 35.7 35.7 0 0 0-.1 2.8 3.8 3.8 0 0 1 0 .6v8.8a37 37 0 0 1-.2 3.8 6.5 6.5 0 0 0 .2 1.2 6.2 6.2 0 0 1 .2 1.2c0 .3-.4.4-.7.4h-.4zm7.2-.5a.6.6 0 0 1-.4-.2c-.4-.3-.3-1-.3-1.6v-2.3l.2-1.9v-4.6a6.7 6.7 0 0 0 0-.7v-1.2a49.5 49.5 0 0 1 .1-5 1 1 0 0 0-.1-.8.6.6 0 0 0-.5-.1h-1.4l-1.4.2c-.3 0-.5-.2-.5-.5a.4.4 0 0 0 0-.2v-.8l-.2-.8c0-.4 1.5-.6 4.1-.6h4.8a6.5 6.5 0 0 1 1.7.1c.5.2.7.4.7.8a4.7 4.7 0 0 0 .1.8 4.4 4.4 0 0 1 .1.8c0 .2-.2.4-.5.4l-1.4-.1a17.5 17.5 0 0 0-1.7-.1.5.5 0 0 0-.4 0 1 1 0 0 0-.1.9v3.2l.2 3v2.8l.1 1.6v1.1l.2 3 .1 2c0 .5-.2.7-.5.7h-1.8l-1.3.1zm448.1-144.8a1.2 1.2 0 0 1-1-.4c-.5-.6-.4-1.9-.4-2.8v-2.7a5.5 5.5 0 0 1 0-.7 5.5 5.5 0 0 0 0-.7v-1.3a102 102 0 0 1 0-4.2v-1.4l.1-1.4v-1c0-1.4.1-3.5-.3-4a.3.3 0 0 0-.2 0h-3.3a.7.7 0 0 1-.5-.1 2 2 0 0 1-.3-1.4v-.2a1.2 1.2 0 0 1 .7-1.2 4.7 4.7 0 0 1 2-.3h2.6a8.1 8.1 0 0 1 1 0 8.1 8.1 0 0 0 1.1.2 76.7 76.7 0 0 0 5.1-.2.8.8 0 0 1 .6.3 3.7 3.7 0 0 1 .5 2.3v.2c0 .3-.2.4-.7.4h-3.2c-.5 0-1 0-1 .6v1.8l.2 2.1v.6a55.3 55.3 0 0 1 0 7.2 19.6 19.6 0 0 0 .1 2 8.1 8.1 0 0 1 .1 1.1 2.3 2.3 0 0 1 0 .4 2.1 2.1 0 0 0 0 .3v.9a22.3 22.3 0 0 0 0 1.4c.1.8.2 1.8-.6 2h-1a15 15 0 0 1-1.6.2zm15.8 0c-2.5 0-4-.7-4.8-2s-1.2-3.5-1.5-6.5a9.6 9.6 0 0 0-.2-1 5.6 5.6 0 0 1-.3-1.6l.1-2v-5c0-1.8 0-3.7 1.2-5 1-.9 2.6-1.4 4.8-1.4h2.9c2.3 0 3.7.7 4.5 2.4a20 20 0 0 1 1 6.6v4.9a38.2 38.2 0 0 0 .1 4.8c0 2 0 4-2.3 4.8a15.3 15.3 0 0 1-5.5 1zm.9-21.5c-2.8 0-2.8 1-2.8 2.3a7 7 0 0 1 0 1v.1a10.8 10.8 0 0 0-.2 1.4v.7a25.4 25.4 0 0 0 .3 5v.2a2.2 2.2 0 0 1 0 .6 2.4 2.4 0 0 0-.2.6v1.1c-.1 1.5-.2 3.3.7 4.2a2 2 0 0 0 1.4.5 3.8 3.8 0 0 0 2.5-.6 2.4 2.4 0 0 0 .7-2v-3.6l-.5-8.7c-.2-1-.4-2.8-2-2.8zm-31.1 21c-1 0-2.1-3.3-2.8-5.3l-.4-1c-1-2.7-1.7-5.2-2.5-8l-.4-1.3v-.1a1.5 1.5 0 0 0-.4-.8 5 5 0 0 0-.3 2.4v.4a7.1 7.1 0 0 1 0 .7 7.7 7.7 0 0 0-.2.9c0 2 .2 4 .4 6l.3 3.6v.3a1.5 1.5 0 0 1-.3 1.2c-.4.5-1.4.6-3.4.6-.6 0-.9-1.2-.8-3.4a169.2 169.2 0 0 0-.4-11.4v-6.3l-.1-.9c0-.5 1.4-.8 4-.8a4.8 4.8 0 0 1 1.3.2 3.6 3.6 0 0 0 1 .1c.7 0 1.2 1.6 1.7 2.8l.2.8a65.7 65.7 0 0 0 3.9 8.6 6.7 6.7 0 0 1 .3 1c.3 1 .7 2.3 1.2 2.3a4.6 4.6 0 0 0 .1-1.4c0-4.3-.2-8.7-.5-12.4a5 5 0 0 0 0-.6 3.6 3.6 0 0 1-.2-.6c0-.5.8-.8 2.3-.8h1.5a.7.7 0 0 1 .5.3c.8.8.7 3.5.7 4.5v.2l.1 1.5.2 3.9v1l-.1.9v3.8a27.3 27.3 0 0 1-.1 2.7 27.3 27.3 0 0 0-.2 2.8v.2c-.1 1.1-.1 1.2-3.1 1.2a15.4 15.4 0 0 0-2 .1 12.3 12.3 0 0 1-1.5.2zm-17.3-.1c-1 0-1-1.7-1-2.7v-1.6a8.7 8.7 0 0 1 .1-1.2 8.5 8.5 0 0 0 .1-1.2 5.3 5.3 0 0 0 0-.6 5.6 5.6 0 0 1 0-.6 9.7 9.7 0 0 1 0-1.2 9.7 9.7 0 0 0 .1-1.1v-5.5a17.5 17.5 0 0 0 0-1.9 17.2 17.2 0 0 1-.2-1.8v-.6a7.4 7.4 0 0 1 0-1.4 4.2 4.2 0 0 1 .7.2 3.9 3.9 0 0 0 1 .2 15.2 15.2 0 0 0 2-.2.5.5 0 0 1 .2 0 1.4 1.4 0 0 1 .7.2v.1a1.7 1.7 0 0 1 0 .3 1.7 1.7 0 0 0-.1.3 8.5 8.5 0 0 0 0 .9 8.5 8.5 0 0 1 .1.9v4a9 9 0 0 1-.1 1 6.8 6.8 0 0 0-.1 1.3 65 65 0 0 0 .6 8.7 13.7 13.7 0 0 1 0 1.8v.5c0 1-1.9 1.1-3 1.1h-1.1zM-1920-4995a35.6 35.6 0 0 1-7.6-.8 22.6 22.6 0 0 1-7-2.8 17 17 0 0 1-8-13.9c-.2-2.6-.5-5.6-.5-8.6 0-1 .8-1.7 2.3-2.2a23.7 23.7 0 0 1 4.6-.7l2-.2c1.8 0 3.4.2 3.4 3.2a9.2 9.2 0 0 1-.2 1.4 9.2 9.2 0 0 0-.1 1.4 11.7 11.7 0 0 0 2.1 6.9 7.7 7.7 0 0 0 2.5 2.2 6.6 6.6 0 0 0 3.2.8c7.2 0 7.8-3.7 7.8-13.6h-.1v-4c0-3.3-.3-5.3-1-6.6-.8-1.6-2-2.3-4.2-2.3h-1a35.4 35.4 0 0 1-4.4-.4 36.3 36.3 0 0 0-4.4-.3h-1a9.9 9.9 0 0 1-9-5.4c-1.9-3-2.9-7.1-3.7-10.6l-.4-1.3c-.8-2.6-1-9.7-1-12.3 0-1.4 0-2.7.2-4.1s.3-3 .3-4.5v-.7c0-5.4 2-9.5 6-12.2a19.3 19.3 0 0 1 6.4-2.6 33.7 33.7 0 0 1 7.6-.8h4.6c5.6 0 9.7 1.1 12.6 3.6a13 13 0 0 1 3.7 5.3 23.6 23.6 0 0 1 1.4 8.5v.6l.2 3.6.2 3.6c0 2.1-.6 3.2-4 3.2h-1.4l-1.4-.1h-2.3l-2.3.1a1.6 1.6 0 0 1-1.7-1.7 17.7 17.7 0 0 1 .3-3 17.7 17.7 0 0 0 .4-3 7.7 7.7 0 0 0-2.4-5.8 8.1 8.1 0 0 0-3-1.7 13.1 13.1 0 0 0-4-.6 4.8 4.8 0 0 0-3.6 1.6 12.1 12.1 0 0 0-2.5 5 36.1 36.1 0 0 0-1.2 6.6 71.3 71.3 0 0 0-.2 9.5v.3a5 5 0 0 0 3 5 18 18 0 0 0 6.2 1l.8.1a15.3 15.3 0 0 0 2.6-.3 7.5 7.5 0 0 1 1-.1 20.4 20.4 0 0 1 7 1 10.6 10.6 0 0 1 4.3 2.8 21 21 0 0 1 4 9.3 39.2 39.2 0 0 1 .8 8v3.9a54.5 54.5 0 0 0 .2 6.5 40.7 40.7 0 0 1-.6 7.6 18.4 18.4 0 0 1-2.3 6.4 14.8 14.8 0 0 1-5.1 5 25.8 25.8 0 0 1-8.7 3 7 7 0 0 1-1.4.2zm52.4-1.8a.9.9 0 0 1-.7-.3c-.5-.6-1-2-1.1-4.5-.2-2.2-.2-4.8-.1-7.4 0-2.6 0-5-.2-6.8v-.7a29.5 29.5 0 0 0-1.6-8.3 8.6 8.6 0 0 0-2.4-3.5 6.3 6.3 0 0 0-4.1-1.4 2.1 2.1 0 0 0-1.6.7c-1.9 2-1.5 7.6-1.4 10a5.8 5.8 0 0 1 0 1.3l.1 3.5v4.5c.1 2.3.2 5.5-2 5.6l-4 .5a51.4 51.4 0 0 1-6.4.5c-1.6 0-2.1-.6-2.1-2.4.3-9.8.5-19.9.5-30 0-6.4-.3-13-.5-19.5-.3-6.3-.6-12.9-.6-19.2v-4.3a14.1 14.1 0 0 0-.5-3.1 13 13 0 0 1-.4-3c0-2.2 0-4 1.1-5.2a5.6 5.6 0 0 1 2.8-1.3 25.4 25.4 0 0 1 5.5-.5 7.5 7.5 0 0 1 3.1.4 2.2 2.2 0 0 1 1.1 2c.2 3.7.6 7.3 1 10.8a181.3 181.3 0 0 1 1 18.8v14.4c0 1.6.3 2.2 1.3 2.2a10.5 10.5 0 0 0 4-.8 9.5 9.5 0 0 0 3.3-2.2 10.6 10.6 0 0 0 2.8-7.4l-.2-5.3-.2-5.3.1-2.7.1-2.8v-1.7c0-4.3 0-9.7-.9-13.6a23.3 23.3 0 0 1-.5-5c0-1.4.1-2.3.8-2.8.8-.6 2.2-.7 4.3-.7h1.7a21.3 21.3 0 0 1 4.5.4 4.7 4.7 0 0 1 1.7.7 1.8 1.8 0 0 1 .8 1.4v1.2c.4 4.7.8 10 .8 15.2v1.5c0 2.5.2 5 .3 7.4l.3 7.3c0 5-.1 8.7-1 12.3a21.1 21.1 0 0 1-6 10.4.3.3 0 0 0 0 .3c0 .3.3.6.8.9a13.7 13.7 0 0 1 7 8.5 45 45 0 0 1 1.1 12.5v2.4c.1 5 .2 10.1-2 12.3a3.5 3.5 0 0 1-2.5 1h-.6a28.6 28.6 0 0 0-4.2.4 28.6 28.6 0 0 1-4.1.4zm70.5-.3a3 3 0 0 1-2.3-1c-2-2-1.8-7.4-1.6-11.3l.1-2.5c-.2-2.7-.4-5.4-.4-8.3l.2-2.8.2-2.7v-27.1l.2-5.6v-13.1c-.1-3.5-.5-5.5-1.2-6.2a.7.7 0 0 0-.4-.2c-1.6 0-3.2 0-4.8.2l-4.8.1a1.8 1.8 0 0 1-1.4-.5c-1-1-1-3.2-.9-5.5v-1c0-2.3.6-3.8 2-4.7 1.1-.8 3-1.2 5.9-1.2l2.1.1 2.2.2a13.1 13.1 0 0 0 1.7-.2 12.1 12.1 0 0 1 1.5 0 17.7 17.7 0 0 1 3 .3 17.6 17.6 0 0 0 3.1.3c2.5 0 5 0 7.5-.2l7.4-.2a2 2 0 0 1 1.5.6c1.7 1.7 1.6 6.7 1.6 9.4v.7a1.6 1.6 0 0 1-.5 1.3 2 2 0 0 1-1.4.5l-2.3-.1-2.4-.1h-1.3l-1.4-.1a34 34 0 0 1-2 0 4.6 4.6 0 0 0-2.2.4 2 2 0 0 0-1 2c0 2.3.2 4.7.4 7.3.2 2.7.4 5.4.4 8.2v2.3l.2 8.9v1.4l-.1 1.3v4a277.4 277.4 0 0 1 .1 12.8l-.1 4.7.2 2.8a42.8 42.8 0 0 1 .4 4.6 12.2 12.2 0 0 1-.1 1.4 11.1 11.1 0 0 0 0 1.2v3.5a85 85 0 0 1 .2 5.6 25.8 25.8 0 0 1 0 4.8c-.3 1.7-.9 2.6-2 2.8l-2.7.4a32.5 32.5 0 0 1-4.8.5zm145-.5a2.9 2.9 0 0 1-2.2-1 5.5 5.5 0 0 1-1.2-2.5c-.6-2.1-.7-5.2-.7-9.6 0-2.2 1.4-5.3 2.8-8.3l1.2-3c2.9-7.1 6.6-16.5 9.8-26.2a200.1 200.1 0 0 0 7.1-26.6 9.9 9.9 0 0 0 .1-1.7c0-1.1-1.2-1.2-2.2-1.2a77.2 77.2 0 0 0-7.9.8 67.5 67.5 0 0 1-9 .8c-1.7 0-2-1-2-2.6v-1.2a36.3 36.3 0 0 1 .3-6.4c.4-2.3 1.2-3.6 2.6-3.8l2.8-.5a75.2 75.2 0 0 1 8.2-1c3.6 0 6.8.3 10 .6l5.9.4a4.4 4.4 0 0 1 3.7 2.4 13 13 0 0 1 1 4.5 28.4 28.4 0 0 0 .4 4 7 7 0 0 1 .3 2 27.9 27.9 0 0 1-1.8 7.9c-1 2.9-2.2 5.6-2.7 6.9a47 47 0 0 0-2 6c-.4 1.6-.8 3.2-1.4 4.8l-6 17.4a332 332 0 0 1-7.9 22.5 1.2 1.2 0 0 0 0 .6c0 .6.4 1 1.2 1a28.3 28.3 0 0 0 4.2-.5 30.7 30.7 0 0 1 4.7-.5h2.9a22.9 22.9 0 0 1 6.5.7c2 .6 3 1.8 3 3.6l.2 2.8a30.1 30.1 0 0 1 .1 3.5c0 2-1.5 2.3-4.4 2.3h-1.3l-1.2-.1-2.9.2-3.8.2h-.9a83.7 83.7 0 0 0-6.3.4h-4.2l-3.5.2-3.5.2zm42.8-1.1c-2 0-3.4-.2-3.6-2.3l-.2-2.8a39.2 39.2 0 0 1-.4-4.4 14.5 14.5 0 0 0 .1-2v-2.7a53.9 53.9 0 0 1 0-9.2c0-1 0-2-.2-3l-.2-2.8v-1.7l.1-1.5c0-8.6-.3-17.3-.6-25.7a735 735 0 0 1-.5-25.3v-5.8l-.1-1.7a2 2 0 0 1 1.2-1.7 10.5 10.5 0 0 1 3-1 38.3 38.3 0 0 1 7.2-.7l3.4.2 3.4.2h8a2 2 0 0 1 1.5.6c1.4 1.4 1.3 4.8 1.3 7.9v1.5c0 2.8-1.7 3.1-3.4 3.1h-2.6a12 12 0 0 1-1.3-.1 61 61 0 0 0-4.2-.3 3.2 3.2 0 0 0-2.5.8c-.7.7-1 2-1 3.7a18 18 0 0 0 .1 2 18 18 0 0 1 .2 1.8 47.8 47.8 0 0 1-.4 5.3 47.8 47.8 0 0 0-.5 5.3c0 1 .6 1.6 1.5 1.6l2.9-.2 3-.1h2.4a10.6 10.6 0 0 1 2.9.2 2.8 2.8 0 0 1 1.7 1.3c.8 1.4 1.1 3.8 1.1 9.1 0 1.4-.9 2.3-2.8 2.8a29.3 29.3 0 0 1-5.9.6c-3.7.1-7.3.3-7.3 2.4 0 1.7 0 3.5.2 5.2l.2 5v5.9a43.3 43.3 0 0 0 .7 6.9 42.7 42.7 0 0 1 .7 6.8c.3 1.5 2.3 2.3 6.3 2.3h4.7c1.7 0 3 0 4 1 .7.8 1.1 2.5 1.1 5.6 0 2.5 0 4.7-1.8 4.9a10 10 0 0 1-1.5-.1 9.3 9.3 0 0 0-1.4-.2 28.9 28.9 0 0 0-3.6.3 29.7 29.7 0 0 1-3.8.4 7.8 7.8 0 0 1-1.5-.1 48.3 48.3 0 0 0-5 .3 48.4 48.4 0 0 1-5.2.4h-1.4zm-233.6 0c-2 0-3.4-.2-3.6-2.3 0-1-.1-1.8-.3-2.8a39.2 39.2 0 0 1-.3-4.4 14.7 14.7 0 0 0 0-2v-11.9l-.1-3-.2-2.8v-1.7l.1-1.5c0-8.6-.3-17.3-.6-25.7-.3-8.3-.6-17-.6-25.3v-2l.1-2v-1.8l-.2-1.7a2 2 0 0 1 1.3-1.7 10.5 10.5 0 0 1 3-1 38.3 38.3 0 0 1 7.2-.7l3.4.2 3.4.2h8a2 2 0 0 1 1.5.6c1.4 1.4 1.3 4.8 1.3 7.9v1.5c0 2.8-1.7 3.1-3.5 3.1h-2.5a12 12 0 0 1-1.3-.1l-.9-.1a25.9 25.9 0 0 1-3.4-.2 3.2 3.2 0 0 0-2.5.8c-.6.7-1 2-1 3.7a18 18 0 0 0 .2 2 18 18 0 0 1 .1 1.8 47.7 47.7 0 0 1-.4 5.3 47.7 47.7 0 0 0-.4 5.3c0 1 .5 1.6 1.5 1.6l2.8-.2 3-.1h2.5a10.6 10.6 0 0 1 2.9.2 2.8 2.8 0 0 1 1.7 1.3c.8 1.4 1 3.8 1 9.1 0 1.4-.8 2.3-2.7 2.8a29.3 29.3 0 0 1-6 .6c-3.7.1-7.2.3-7.2 2.4 0 1.7 0 3.5.2 5.2l.1 5v5.9a43.3 43.3 0 0 0 .8 6.9 42.7 42.7 0 0 1 .7 6.8c.2 1.5 2.3 2.3 6.3 2.3h4.6c1.8 0 3.1 0 4 1 .8.8 1.2 2.5 1.2 5.6 0 2.5 0 4.7-1.8 4.9a10 10 0 0 1-1.5-.1 9.3 9.3 0 0 0-1.4-.2 28.9 28.9 0 0 0-3.7.3 29.7 29.7 0 0 1-3.7.4 7.8 7.8 0 0 1-1.5-.1 48.4 48.4 0 0 0-5 .3 48.4 48.4 0 0 1-5.2.4h-1.4zm93.2-.7a44.8 44.8 0 0 1-8.4-.5 11.6 11.6 0 0 1-6.4-3.2 18 18 0 0 1-4.2-8.7 74.5 74.5 0 0 1-1.5-16.7 20.4 20.4 0 0 0 .1-2.3v-6.8a23.3 23.3 0 0 0 .1-2.9c0-2.6-.2-5.1-.3-7.6-.2-5.5-.4-10.7-.4-16v-2.1a73 73 0 0 1 .6-12c.8-5 2.3-8.6 4.8-11a12.8 12.8 0 0 1 4.5-3 18.2 18.2 0 0 1 6.5-1 60 60 0 0 1 11.5 1.3l1.5.3a11.1 11.1 0 0 1 5 2.1 15.7 15.7 0 0 1 4.1 3.5 24 24 0 0 1 2.7 10 98.8 98.8 0 0 1 .4 10.1v.9a3.6 3.6 0 0 1-2.5 3.6 14.9 14.9 0 0 1-5.2.7 100.7 100.7 0 0 1-2.8 0c-1-.1-1.6-.4-2-1.1a7.6 7.6 0 0 1-.2-2.8v-.7a17.5 17.5 0 0 0 .1-2.2v-.2c0-3.1 0-6.3-1-8.7a5.9 5.9 0 0 0-2-2.8 7.3 7.3 0 0 0-4.3-1.1 11.4 11.4 0 0 0-4.3.6 4.2 4.2 0 0 0-2.2 2c-1 1.8-1 4.6-1.1 8.6l-.1 3.1a263.3 263.3 0 0 1-.2 13.7 33.2 33.2 0 0 0 .6 5.4 35.6 35.6 0 0 1 .7 5.9l-.3 9.1-.3 9a21.7 21.7 0 0 0 .9 7.2 6.3 6.3 0 0 0 1.7 2.6 5 5 0 0 0 3.2 1.2 11.4 11.4 0 0 0 6.1-1.4 5.5 5.5 0 0 0 2-2.1 7.7 7.7 0 0 0 .8-3.6 25.2 25.2 0 0 0-.7-4.9 27.2 27.2 0 0 1-.8-5.4 1.8 1.8 0 0 1 1.4-1.9 13.1 13.1 0 0 1 3.9-.3h1.7a12.4 12.4 0 0 1 3.8.4 2.7 2.7 0 0 1 2 2.4 83.3 83.3 0 0 1 .8 10.6 26.6 26.6 0 0 1-.7 6.2 20.6 20.6 0 0 1-2.3 5.7 13.4 13.4 0 0 1-3.9 4.3 11.3 11.3 0 0 1-5.7 2 21.5 21.5 0 0 0-3.3.3 23.2 23.2 0 0 1-3.5.4h-1zm76 0c-3-.1-3-6.7-2.9-10.6v-6.1a45.7 45.7 0 0 1 .3-4.9 44.7 44.7 0 0 0 .3-4.8l-.1-2.3a20 20 0 0 1-.1-2.5l.2-4.5.3-4.5v-2.5l-.2-2.6c0-2.8 0-5.6.2-8.3s0-5.6 0-8.4c0-2.3 0-4.7-.3-7a91 91 0 0 1-.4-9.4 39.7 39.7 0 0 1 .2-5.5.6.6 0 0 1 .2 0 2.2 2.2 0 0 1 .9.3 8.1 8.1 0 0 0 4 1 34.6 34.6 0 0 0 6-1 2.9 2.9 0 0 1 1.1-.1 3.3 3.3 0 0 1 .9.1v1.8a8.8 8.8 0 0 1-.1 1 8.8 8.8 0 0 0-.1 1.1c0 1.1 0 2.3.2 3.4s.1 2.3.1 3.5v4.2a84.8 84.8 0 0 0-.2 7.8v3.6c0 1.4 0 2.8-.2 4.2a36.2 36.2 0 0 0-.2 5.2c0 11.8.6 23.6 1.6 34.1.3 2.3.2 4.8.2 7.1v1.8a3.6 3.6 0 0 1-.9 2.5 5.4 5.4 0 0 1-2.3 1.4 19.8 19.8 0 0 1-5.3.7h-1a21.3 21.3 0 0 1-2.4.1zm-19.7 0c-1.8 0-2-.3-2.5-2.7l-.6-14.2v-3.1l.1-2.2v-1.2c0-1.9 0-3.5-.8-4.5a4 4 0 0 0-3-.9h-2.4c-4 .1-8.3.1-8.3 3v.9l.1.9v2.5c0 1.6.2 3.2.3 4.7l.3 4.6v1.5c.1 2.6.2 5-2.5 5.4a31.2 31.2 0 0 0-3.6 1 21 21 0 0 1-5.4 1 1.2 1.2 0 0 1-.9-.4c-1.6-1.6-1.4-7.8-1.3-10.1v-.8l.3-7.2c.1-2.3.3-4.8.3-7.3v-3.7l-.1-3.9v-2.1l.1-2.2v-24.2c-.3-8.4-.7-21 2.2-22a16.4 16.4 0 0 1 5-.7h.6a9.3 9.3 0 0 1 3 .3 1.7 1.7 0 0 1 1.2 1.8 26.4 26.4 0 0 0 .3 3.2 25.5 25.5 0 0 1 .2 3.2 23.5 23.5 0 0 1-.2 2.5 23.5 23.5 0 0 0-.1 2.4 950.3 950.3 0 0 0 .2 27.8v3.1a10.4 10.4 0 0 0 0 1.7 1.8 1.8 0 0 0 1.4.5 23.3 23.3 0 0 0 3-.2 23.3 23.3 0 0 1 3-.3h.5c4.3 0 6.2-1 6.2-3.2v-3l-.1-3.2v-2.3l.1-2.3v-2.1l.3-5.3c.2-1.8.4-3.7.4-5.5v-19.1c0-2.6 3.2-3 6.6-3h3.6a1.4 1.4 0 0 1 1 .6c2.8 2.8 2.6 17.8 2.5 22.7v1.5c0 12.5 0 27-.9 39.8v6.3l-.2 3.5v9.2c0 3 0 4.5-1.3 5.4s-3.5 1.3-8.6 1.9zm23.4-100.2a9 9 0 0 1 4.5 1.6 6.7 6.7 0 0 1 3.6 6c0 3.4-1 5.6-4.1 6.8a28.8 28.8 0 0 1-5.2.7c-2.8 0-3.5-1.1-5-3.4a7.5 7.5 0 0 1-1.7-4 7 7 0 0 1 3-5.7 8.2 8.2 0 0 1 5-2zm110.6-142.7a3.6 3.6 0 0 1 1.8.7 2.6 2.6 0 0 1 1.4 2.3 2.4 2.4 0 0 1-1.6 2.7 11.3 11.3 0 0 1-2 .3c-1.2 0-1.5-.5-2-1.4a3 3 0 0 1-.7-1.6 2.7 2.7 0 0 1 1.1-2.2 3.2 3.2 0 0 1 2-.8zm-425.2 149.3a3 3 0 0 1 1.5.6 2.3 2.3 0 0 1 1.2 2 2 2 0 0 1-1.4 2.3 9.7 9.7 0 0 1-1.8.2c-1 0-1.2-.4-1.7-1.1a2.5 2.5 0 0 1-.5-1.4 2.3 2.3 0 0 1 1-1.9 2.8 2.8 0 0 1 1.7-.7zm195-257.2c2 0 3.8 1 5.5 2a8.2 8.2 0 0 1 4.4 7.4c0 4.2-1.2 6.9-5 8.4a35.5 35.5 0 0 1-6.4.9c-3.5 0-4.4-1.5-6.2-4.3-1-1.4-2.1-3-2.1-5a8.5 8.5 0 0 1 3.6-7 10.1 10.1 0 0 1 6.2-2.4z"/>
      </g>
      <g>
        <path d="M-1936-5263.2a68.7 68.7 0 0 0-.4-11c-.5-3.1-1.1-15.3-3.7-15.3-3.1 0-9.2-.8-9.2 1.6 0 5.7 1 12.2 1 18.1a18.2 18.2 0 0 0 0 2l.2 18.6c0 3.9-1 6.1-5.6 6.1-3.1 0-7.4-.8-7.4-5l.2-5.2c0-1.4 0-2.6-.2-4 0-7 .7-13.6.7-21.2v-1.5a47.3 47.3 0 0 1 .3-6.5c0-1.3-.3-1.9-1.7-1.9l-8 .1c-1.3 0-1.6 1-1.6 2.6l.1 9.8c-.1 3-.7 6-.7 9l.1 1-.2 6v2.7l-.2 6c0 4.5-.4 12.5 3.2 14.8 8.7 5.5 9.2 1.5 9.2 7.7v4.8c-.1 4.2.3 8.5.6 12.7.1 2.5 3.2 2.2 5.3 2.2 4 0 5-.2 5-3.6 0-6.3-.6-13-.6-19.6 0-2 3-2 4.8-2.6 7.1-2 8.8-15.3 8.8-23.3zm38.5 3.8h.1c-.8-19-.9-31.3-13.3-31.3-2.2 0-4.4.4-6.6.4h-.3c-15.1 0-14.5 11.9-14.5 22l.3 7.8c0 4.5-.4 9.1-.4 13.6 0 3 .7 5.4 1 8.3 1.7 19.7 3 27.5 15.2 27.5a28.3 28.3 0 0 0 13.2-3c6.3-2.8 5.6-10.7 5.6-17.5 0-4.5-.4-9.2-.4-13.7l.1-14zm-10.7 16c0 4 .3 7.9.3 11.8 0 5.7-2.2 8.5-7.8 8.5-6.7 0-5-11.7-5-19 0-1.3.4-2.5.4-3.9v-.4c-.9-6-.7-12.7-.7-18.8l.3-4.8c.6-5.2-1.5-10.6 6.8-10.6 3.7 0 4.3 5.5 4.6 9l1.2 28.2zm15.8-7.2v1.4l-.1 5.2c0 27.5 3.2 33.8 15 33.8 9.5 0 13.7-2.8 17-7.8a32 32 0 0 0 1.9-13.3v-1l.2-8.2-.1-6 .2-8.5-.2-4.4.1-2.6c0-5.6-.4-11.3-.6-16.9-.1-3.5.8-8.8-3.3-8.8h-1.2c-1.5 0-3.6-.4-4.6-.4-2.5 0-1.6 7.6-1.6 11l.1 3.5-.3 6.2.2 3.7c0 1.7-.3 3.4-.3 5 0 2.8.4 5.4.4 8.2v1.7c0 4.3.5 9.3.5 14.3 0 8-.8 12.2-6.3 12.2-7 0-5.6-9.7-5.6-17.5 0-4.3.5-8.9.5-13.3l-.2-2.4.2-6.2c-.2-6 .3-12.7-.5-18-.3-2 .5-9-2.3-9a24.4 24.4 0 0 1-3.1.4l-3.5-.2c-1.5 0-2.2.2-2.2 1.5l.2 5.2a33 33 0 0 0-.3 4l.2 4.6q-.5 8-.5 15.9l.1 6.7zm38.9 5a3 3 0 0 0 0 .6v18.2c0 5.9.1 13.3 3.5 13.3 2 0 8.1-.2 8.1-2.7l-.1-.7c-.5-5.6-.8-11.5-.8-17.2 0-5 1.5-4.9 4.9-4.9 7.2 0 8 16.8 8 25.7l-.2 2c0 1.3.6 2 2.2 2l6.8-.2c4 0 2.8-10 2.8-16.3a39.6 39.6 0 0 0-1.6-12.8c-1-3-6.3-4.2-6.3-5.1 0-.5 1-1.2 1.4-1.6 2.6-1.9 5-10.1 5-18 0-6.9.6-15.8-3.8-21.2-2.3-2.8-10.8-4-16.2-4-3 0-6.1.4-9.2.4a13.2 13.2 0 0 1-1.8-.1c-2.7 0-2.4 7-2.4 11.1v1c0 3.7-.3 7.2-.3 10.7l.1 2.3-.1 17.4zm23.4-16.9l-.1 8.2c-.2 5.1-7 6.1-11.3 6.4-1.1 0-1.6-.3-1.6-1.4l-.6-18.3c0-12.8 1.7-11.1 7.2-11.1 8.4.2 5 11.2 6.4 16.2zm-85.7-145.2h.3c0 15.2-1 21.1-12.3 21.1-7.3 0-12.1-7.3-12.1-15.5 0-1.4.4-2.8.4-4.2 0-4.7-2.4-5-5.2-5-5 .6-13.7.3-14 4.8 0 4.6.4 9 .9 13.4 1.7 21.6 19.4 27.3 35.2 27.3a10.9 10.9 0 0 0 2.1-.3c22.6-4.3 26.1-17.8 26.1-34.3 0-3.4-.4-6.9-.4-10.3l.1-6a62 62 0 0 0-1.4-12.5c-2.4-11.2-5.9-20.4-23.7-20.4-.8 0-3.3.7-5.6.7-6.2-.4-15.7-.3-15.7-9.6 0-1-2-35.8 11.7-35.8 9.6 0 14.7 5 14.7 12.7 0 3-1.1 6.3-1.1 9.3a2.4 2.4 0 0 0 2.7 2.7l7.2-.3 4.2.1c5.3 0 6.3-1.5 6.3-4.9 0-3.7-.5-7.6-.5-11.3v-.8c0-21.3-12.2-27.2-27.7-27.2h-7.2c-16.6 0-31.1 6.2-31.1 24.4v1c0 4.7-.9 9.1-.9 13.5 0 3.7.3 15 1.7 19.2 2.8 11.2 5.8 26.9 20.5 26.9h1.4c4.6 0 9.1 1.1 13.7 1.1h1.7c6.7 0 8 5 8 13.8zm79-87.4l7.3.2c2 0 3-1 3-2.6 0-4.4.5-16.8-4.9-16.8-7.6 0-15.5.7-23.2.7-3.3 0-6.4-1.1-9.6-1.1-1.6 0-3.2.4-5 .4-2.2 0-4.5-.4-6.7-.4-8.3 0-12.3 1.8-12.3 9.3 0 5.3-.4 10.8 3.5 10.8 5 0 10.2-.5 15-.5 3.7 0 2.5 21.5 2.5 30.4 0 5.8-.4 11.6-.4 17.4l.2 6.7-.2 19.2.2 7.6c0 2.8-.6 5.8-.6 8.6 0 4.5.3 8.8.6 13 0 6.7-2.4 23.1 5.9 23.1 3.6 0 7.9-1 11.8-1.4 4.5-1 2.8-10.3 2.8-15.4l-.2-10.7.2-4c0-3.6-.7-7.7-1-11.5 0-5 .5-9.6.5-14.4 0-6.5-.3-12.8-.4-19.2v-4.2c0-4.5 0-9.2-.2-13.8v-3.7c0-8.3-1.1-16.8-1.1-24.2 0-4.5 4.2-3.7 8-3.7l4.2.2zm17.9 86.1c0 10.4.1 20.9.8 31.3 0 5.4 1.7 5.5 5.5 5.5 5.2-.4 15 0 15-4.4v-1a145.7 145.7 0 0 1-2.7-29c0-3.2-.2-5.2 2.5-5.5l1.4.1h14.1c5.5 0 4.1 11.9 4.1 19.6l-.1 7.7c0 5.9 11 3.8 18.7 3.8 2.4 0 3.1-3.3 3.1-5.3 1.7-18 1-37.7 1-56.4l-.1-5.7c0-6 .7-12.4.7-18 0-12 .3-23.3-2.6-34-1.7-6.1-7.6-9.5-12.4-13.3-5-4-17.7-4.5-26-4.5-14.4 0-20.8 5.2-22.5 22.4-.8 14-1.8 28-1.8 42.1l1.3 44.6zm42-46.1c0 25.1-.5 22.7-10.6 22.7h-1.1c-3.3 0-6.5.8-9.9.8-1.6 0-2-1.5-2-2.8 0-8.6.4-16.8.4-24.8v-5.2c0-16.4-.5-34.7 10-34.7a23 23 0 0 1 6.8 1.3c5.5 1.8 6.2 22.3 6.2 31.4 0 3.8-.4 9 .2 11.3zm30.6 20.6a5.8 5.8 0 0 0 .1 1.3l-.1 34.4c0 11 .3 25 6.6 25 3.7 0 15.4-.4 15.4-5-.2-.4-.2-.9-.3-1.4-.9-10.6-1.4-21.7-1.4-32.5 0-9.3 2.7-9.1 9.1-9.1 13.6 0 15 31.6 15 48.3l-.3 4c0 2.4 1.1 3.7 4.2 3.7 4.3 0 8.6-.5 12.9-.5 7.6 0 5.3-18.7 5.3-30.7 0-8.3-.4-15.8-3-24.1-2-5.7-12-8-12-9.7 0-.9 2-2.3 2.8-3 4.8-3.5 9.3-19 9.3-34 0-13 1-29.7-7.2-40-4.3-5.3-20.3-7.6-30.5-7.6-5.8 0-11.5.8-17.5.8a25 25 0 0 1-3.2-.1c-5 0-4.5 13.4-4.5 21v2c0 6.7-.6 13.3-.6 20 0 1.4 0 3 .2 4.3l-.3 32.9zm44.2-31.7l-.2 15.5c-.3 9.6-13.3 11.5-21.3 12.1-2.1 0-3-.7-3-2.8-.6-11.4-.7-22.9-1.1-34.4 0-24.1 3-21 13.5-21 15.8.4 9.5 21.1 12.1 30.6zm79.7-29l7.3.3c2 0 3-1 3-2.6 0-4.4.6-16.8-4.8-16.8-7.6 0-15.5.7-23.3.7-3.2 0-6.3-1.1-9.5-1.1-1.6 0-3.3.4-5 .4-2.2 0-4.5-.4-6.7-.4-8.4 0-12.3 1.8-12.3 9.3 0 5.3-.4 10.8 3.5 10.8 5 0 10.2-.5 15-.5 3.6 0 2.5 21.5 2.5 30.4 0 5.8-.4 11.6-.4 17.4l.1 6.7-.1 19.2.1 7.6c0 2.8-.6 5.8-.6 8.6 0 4.5.3 8.8.6 13 0 6.8-2.4 23.1 6 23.1 3.6 0 7.8-1 11.8-1.4 4.5-1 2.8-10.3 2.8-15.4 0-3.5-.3-7-.3-10.7 0-1.3.3-2.5.3-4 0-3.6-.7-7.7-1-11.5 0-5 .4-9.6.4-14.4 0-6.5-.2-12.8-.4-19.2l.2-4.2-.3-13.8v-3.7c0-8.3-1.2-16.7-1.2-24.2 0-4.5 4.3-3.7 8-3.7l4.3.2zM-2026-5344v-6.6l-.3-7.4c0-.6 0-1.3.5-1.3 1 0 2.1.3 2.9.3a.5.5 0 0 0 .5-.6l-.2-1.9c0-1.4-2.1-1-3.8-1h-1.6l-1.3-.1c-1 0-3.8 0-3.8.8l.2 2v.2c0 .3.1.5.5.5l2.6-.2c.6 0 .5.6.5 1.2l-.1 5.9v7.9l-.2 4.8c0 .9-.1 2.5.7 2.5l2.4-.2h.3c.5 0 .5-.4.5-.8 0-2.2-.2-3.7-.3-6zm17-5.7a75.7 75.7 0 0 0-.7-10.2c-.5-3.1-3-3.5-5.4-3.5a11.6 11.6 0 0 0-2.6.2c-3.6.8-3.4 5.6-3.4 9v9.1c0 4.5.9 8 5.4 8 1.8 0 4-.2 5.5-1.8 1.4-1.5 1.2-6.4 1.2-9.5zm-8.4 5.9v-2.3c0-1.3.5-3 .5-4.4l-.2-1.8c0-5.7-.4-8.3 2.5-8.3 1.7 0 2 1.6 2 3v10.3c-.1 4.2.4 6.7-3 6.7-1.5 0-1.8-1.8-1.8-3.2zm28.2 3.1c.2-5.4-.3-7.5 4-7.5 3.8 0 3.8 3.5 3.8 6.7a9 9 0 0 1 0 1.1c0 1.5-.2 2.3 1 2.4 2.3 0 5.5.4 5.5-2.2 0-2.7.1-8.1-1.6-10.8-.6-1-3.4-3-4.7-3a36 36 0 0 0-6.8-.8c-9.3 0-8.5 10-8.5 15.1 0 4 .2 8 .4 12.3l-.1 2.6v2.4a10.6 10.6 0 0 1 0 1.3c0 15.3 4.5 15 11 15 1.3 0 2.5-.3 3.6-.3 4.6-.3 6.6-5.2 6.6-9.4a43.4 43.4 0 0 0-.4-5.5c-.2-1.7-2.5-1.5-4-1.5-1.7 0-2.7.1-2.7 1.2 0 1.8.8 3.7.8 5.3 0 3-2.3 3.7-4.6 3.7-2.9 0-3-3.3-3-5.7l.2-9.4c0-2-.6-4-.6-5.9l.1-7zm38.8 5.5c-.5-12-.5-19.7-8.3-19.7l-4.2.2h-.1c-9.6 0-9.2 7.5-9.2 13.9l.2 4.9-.3 8.5a39.6 39.6 0 0 0 .7 5.2c1 12.4 1.8 17.3 9.5 17.3a17.8 17.8 0 0 0 8.4-1.9c4-1.7 3.4-6.7 3.4-11l-.2-8.6.1-8.8zm-6.8 10l.2 7.4c0 3.6-1.3 5.4-4.9 5.4-4.2 0-3.2-7.4-3.2-12 0-.8.4-1.6.4-2.4v-.3a82 82 0 0 1-.5-11.8c0-1 0-2 .2-3 .4-3.3-1-6.7 4.3-6.7 2.3 0 2.6 3.4 2.8 5.7l.8 17.7zm30.4 4.3c-1 0-1.7-5.6-2.2-6.7a163 163 0 0 1-5.8-17.5c-.7-2.6-1.6-7.3-3.1-7.3-1 0-2-.8-3.2-.8-1 0-6.2 0-6.2 1.7l.2 6.9-.1 3.7v5.6c.4 6.9.6 14.6.6 21.6 0 .6-.1 7 1.3 7.2 6.2 0 5.6-1.5 5.6-4.4-.2-5.7-1-13-1-19.6l.2-3.3c0-1.3-.3-4 .4-5.7a4.1 4.1 0 0 1 .7 1.8c1.4 6.5 2.6 12.6 4.4 19 .8 2.9 3 13.1 4.8 13.1 1.3 0 3.4-.6 5.2-.6 5 0 4.5-.1 4.8-3 0-3.7.5-7.4.5-11.1l-.1-7.8.1-3.8c0-3.7-.2-7.4-.3-11 0-1.7.2-10.1-2-10.1-1 0-5.6-.6-5.6 1.4l.3 2.5c.4 8.2.8 17 .8 25.5a12.8 12.8 0 0 1-.3 2.7zm22.9 5.1c-.9 0-.9-4.4-1-6-1.3-9.7-2.3-18.7-4.8-27.8v-.1c-.4-1.2-3.4-1.2-5.1-1.2-1.9 0-2.4.6-2.4 1.3a3.2 3.2 0 0 0 0 .6 125.7 125.7 0 0 0 2.6 14c1.6 6.2 2.3 13 3.7 19.2.2.6 1.7 10.7 3.9 10.7l2.4-.2h4.3c2.5 0 2.5-3 2.7-5.5 1-5.5 1.5-11 2.3-16.5a113 113 0 0 0 1.2-13.6c.1-3.5.6-7 .6-10.8-.1-1.3-1-1.4-2.7-1.4l-2.6.2a2.7 2.7 0 0 1-.6 0c-.8 0-1.2.3-1.2 1.3-.3 2.3-.5 4.8-.6 7.2a192 192 0 0 1-2.7 28.6zm23.9-32l1 .1c1.4 0 3.2.5 3.2-1.6s.3-5.2-1.5-5.2h-4.2l-3.4-.2c-2 0-6 .3-6 1.8v3.8c0 8.8.7 17.7.7 26.6v1.6l.1 3-.1 3.4.1 2.8a7.6 7.6 0 0 1 0 1c0 1.3.2 2.6.3 3.8 0 1.4 1 1.2 2.6 1.2 1.8 0 3.5-.4 5.3-.4a4 4 0 0 0 .7 0l3.9-.2 1.5.1c1 0 1-1.2 1-2.5 0-3.8-1-3.5-3.7-3.5-1 0-4.5.3-4.7-1.2 0-2.4-.8-4.6-.8-7v-3.1l-.2-5.4c0-2.3 8.3 0 8.3-3 0-6-.7-5.5-4.2-5.5l-3 .2c-.5 0-.8-.3-.8-.9 0-1.8.4-3.7.4-5.5l-.1-2c0-3 1.7-2.2 3.6-2.2zm7.8 21.2a2 2 0 0 0 0 .4v11.4c0 3.7 0 8.4 2.2 8.4 1.2 0 5-.1 5-1.7v-.4c-.3-3.6-.5-7.3-.5-10.9 0-3 1-3 3-3 4.6 0 5 10.5 5 16.1v1.3c0 .8.3 1.2 1.4 1.2h4.3c2.5 0 1.7-6.3 1.7-10.3a24.9 24.9 0 0 0-1-8c-.6-2-4-2.8-4-3.3 0-.3.7-.8 1-1 1.6-1.2 3-6.4 3-11.3 0-4.4.4-10-2.3-13.4-1.5-1.7-6.8-2.5-10.2-2.5-2 0-3.9.3-5.8.3a8.3 8.3 0 0 1-1.1 0c-1.7 0-1.5 4.4-1.5 7v.6l-.2 6.6v12.5zm14.7-10.6v5.2c-.2 3.2-4.5 3.8-7.2 4-.7 0-1-.2-1-1l-.3-11.4c0-8 1-7 4.5-7 5.2.1 3.1 7 4 10.2zm26.6-9.7l2.4.1c.7 0 1-.3 1-.9 0-1.4.2-5.5-1.6-5.5l-7.7.2c-1.1 0-2.2-.4-3.2-.4l-1.7.2-2.3-.2c-2.7 0-4 .6-4 3.1 0 1.8-.2 3.6 1.1 3.6l5-.2c1.2 0 .9 7.2.9 10.2l-.2 5.8v11.2l-.1 2.8c0 1.5 0 3 .2 4.4 0 2.2-.8 7.7 2 7.7 1.2 0 2.6-.4 3.9-.5 1.5-.3 1-3.4 1-5.1l-.2-3.6.1-1.3-.3-3.9.1-4.8-.1-6.4v-7.2c0-2.8-.4-5.6-.4-8 0-1.6 1.4-1.3 2.7-1.3h1.4zm235.3 141.1a33.7 33.7 0 0 1-8.8-1.1 23.4 23.4 0 0 1-8-4c-5.5-4-8.6-10.7-9.2-19.5-.2-3.5-.6-7.9-.6-12.1 0-1.5 1-2.5 2.7-3.2a22.6 22.6 0 0 1 5.2-1c.9 0 1.7-.1 2.4-.3a3.9 3.9 0 0 1 2.7.8c.8.6 1.1 1.9 1.1 3.8a15.9 15.9 0 0 1-.1 2 15.9 15.9 0 0 0-.2 1.8 19.2 19.2 0 0 0 2.5 9.8 9.7 9.7 0 0 0 2.8 3.1 6.5 6.5 0 0 0 3.7 1.1c4 0 6.4-1.3 7.6-4.3 1.2-3 1.4-7.5 1.4-14.8h-.2v-5.7c0-4.6-.3-7.3-1.1-9.2a4.7 4.7 0 0 0-4.8-3.3h-1.3a33.4 33.4 0 0 1-5-.5 34.2 34.2 0 0 0-5-.5h-1.1c-4.5 0-8-2.4-10.4-7.5-2.2-4.4-3.3-10-4.3-15l-.4-1.8a99 99 0 0 1-1.2-17.3c0-2 .1-3.9.3-5.9s.3-4 .3-6.2v-1c0-7.7 2.3-13.5 6.9-17.2a20.2 20.2 0 0 1 7.3-3.7 31.9 31.9 0 0 1 8.8-1.2h5.3a25.8 25.8 0 0 1 8 1.2 15.8 15.8 0 0 1 6.4 4 18.7 18.7 0 0 1 4.4 7.5 40 40 0 0 1 1.5 12v.7c0 1.6.1 3.4.3 5s.2 3.5.2 5.2c0 3-.7 4.4-4.7 4.4a25 25 0 0 1-3.1-.1l-2.7.1-2.6.1a1.8 1.8 0 0 1-1.5-.6 2.8 2.8 0 0 1-.5-1.8 30.3 30.3 0 0 1 .4-4.2 30.3 30.3 0 0 0 .4-4.2 12.1 12.1 0 0 0-2.7-8.3 9 9 0 0 0-3.4-2.3 12.6 12.6 0 0 0-4.7-.8 4.8 4.8 0 0 0-3.5 1.6 15.6 15.6 0 0 0-3.3 6.8 56.9 56.9 0 0 0-1.5 9.5 121.7 121.7 0 0 0-.3 14v.4c0 3.5 1.2 5.8 3.6 7.1 2 1.1 4.6 1.3 7 1.5h1a14.5 14.5 0 0 0 3-.4 7.1 7.1 0 0 1 1-.2 19.5 19.5 0 0 1 8 1.5 12.3 12.3 0 0 1 5 4c2.5 3.1 3.6 7.5 4.5 13a67.1 67.1 0 0 1 1 11.2 97.2 97.2 0 0 1 0 5.5 94 94 0 0 0 .3 9.3 70 70 0 0 1-.7 10.6 29.8 29.8 0 0 1-2.7 9 19.3 19.3 0 0 1-5.8 7 26.4 26.4 0 0 1-10 4.3 6.6 6.6 0 0 1-1.6.3zm-173-4.5c-7.3 0-7.4-2.2-8.2-19.4l-.2-3.8c-.4-8-.5-15.9-.6-23.5v-3.3l-.1-1.6a442.6 442.6 0 0 1 1.2-38.1l.1-3a41.8 41.8 0 0 0-.1-3.6c0-10.2.4-20 .8-30.6v-.7c.2-2.1 1.7-3.7 4.5-4.6a25.5 25.5 0 0 1 7.9-1h4l1.3.1a46 46 0 0 1 20.4 4 19 19 0 0 1 6.7 5.3 15.4 15.4 0 0 1 3 8 193.8 193.8 0 0 1 .9 17.6c0 8 .1 14.7.4 21.2v20c0 6.2-.4 12.3-.7 18.2l-.4 6.2a52.4 52.4 0 0 1-1.6 14 26 26 0 0 1-5 10 21.2 21.2 0 0 1-8.8 6 35.3 35.3 0 0 1-12.5 2h-2l-5.4.3c-1.8.1-3.7.3-5.6.3zm15.8-115.5h-.7c-8 .6-8 .6-8 24.1v5.2c0 4 0 7.8.2 11.6a398 398 0 0 1 0 15.2l-.1 3.8a40.2 40.2 0 0 0 .3 4.6l.4 3.9.1 6.5.6 19.5a2.9 2.9 0 0 0 .5 2 2.4 2.4 0 0 0 1.8.5 18 18 0 0 0 8.2-2 11.4 11.4 0 0 0 3.5-2.7 10 10 0 0 0 2-4.3 114.7 114.7 0 0 0 2.1-22.2 90.4 90.4 0 0 0-.1-5.3c0-5.5.3-11.2.6-16.8s.5-11.2.5-16.7l-.1-4.4-.2-5.3v-2.3c0-5-.6-13.5-5-14.1l-3-.4h-.1l-3.5-.4zm39 114.8c-2.3 0-3.8-.3-4-3.2 0-1.4-.2-2.7-.3-4-.2-2-.4-4.2-.4-6.2a25.1 25.1 0 0 0 0-2.8v-3.8l-.1-3.9v-4.6l.2-4.5-.2-4.1-.2-4v-4.5c0-12.2-.3-24.5-.6-36.3-.3-11.7-.7-23.8-.7-35.6v-2.8l.1-2.9v-2.4l-.2-2.4a3 3 0 0 1 1.5-2.5 10.7 10.7 0 0 1 3.4-1.4 36.1 36.1 0 0 1 8.3-1 32.3 32.3 0 0 1 4 .3 32.3 32.3 0 0 0 3.8.4l3.2-.1h6a2.1 2.1 0 0 1 1.5.6c.8.8 1.3 2.3 1.6 4.7a64.7 64.7 0 0 1 .1 6.7v2c0 4-1.9 4.5-4 4.5h-1.4l-1.5-.1a11.5 11.5 0 0 1-1.5-.1l-1-.1-2-.2a21 21 0 0 0-1.9 0 3.3 3.3 0 0 0-2.8 1c-.8 1-1.2 2.7-1.2 5.3l.2 2.6.1 2.7c0 2.4-.2 5-.4 7.5s-.5 5-.5 7.4c0 1.5.6 2.3 1.7 2.3a30 30 0 0 0 3.3-.2 31 31 0 0 1 3.4-.3h2.9a10 10 0 0 1 3.2.3 3.4 3.4 0 0 1 2 2c1 1.8 1.3 5.3 1.3 12.7a3.6 3.6 0 0 1-.9 2.5 5.1 5.1 0 0 1-2.3 1.4 27.8 27.8 0 0 1-6.8.9c-4.3.2-8.4.4-8.4 3.4l.2 7.3.2 7v8.3a74.3 74.3 0 0 0 .8 9.7 73.2 73.2 0 0 1 .9 9.6 3.3 3.3 0 0 0 2.6 2.7 15 15 0 0 0 4.6.5 54.7 54.7 0 0 0 3.3 0h2.1c2 0 3.5 0 4.5 1.3s1.4 3.7 1.4 8c0 3.6 0 6.7-2.1 7a9.5 9.5 0 0 1-1.8-.3 8.7 8.7 0 0 0-1.5-.1 27.2 27.2 0 0 0-4.2.4 28 28 0 0 1-4.4.5 7.3 7.3 0 0 1-1.6-.2 45.5 45.5 0 0 0-5.9.5 45.5 45.5 0 0 1-5.9.5h-1.6zm40.4-.6c-1.5 0-2.4 0-3.1-.6-.7-.7-1-2-1-4.3-.5-10-.6-20-.6-28.3l-.3-12-.6-28.2c0-11.3.5-22.6 1-33.5l.3-4.6a48 48 0 0 1 1.6-9.7 16.8 16.8 0 0 1 3.2-6.3 11 11 0 0 1 4.9-3.3 20.7 20.7 0 0 1 6.8-1 68.3 68.3 0 0 1 10.6.7c4.1.7 7 1.8 8.7 3.4l1.9 1.8c3 2.8 6.2 5.7 7.2 10.3 2 8.8 1.9 18 1.9 27.9v2.7l-.3 7.8-.2 8.5v5.2l.1 11.5c.1 13.2.2 26.8-.8 39.4a9.3 9.3 0 0 1-.4 3c-.4 1.2-1 1.7-1.8 1.7l-3.8.2-3.9.2a10 10 0 0 1-4.4-.7 3.1 3.1 0 0 1-1.8-3.1v-3.4l.1-3.5.1-3.7c.1-5.4.3-11.6-1.6-13.5a2 2 0 0 0-1.5-.6 281 281 0 0 0-10.4.1 3.2 3.2 0 0 1-.5 0 3.2 3.2 0 0 0-.5-.1c-1.9.2-1.9 1.9-1.9 4.5v.5a160.7 160.7 0 0 0 2.1 26v1c0 1.5-1 2.5-3 3.1a28.3 28.3 0 0 1-6 .8l-2.1.1zm16.5-114.6a4.5 4.5 0 0 0-3.3 1.4c-4 4-4 16.1-4 27.8v6.9l-.1 10.8-.2 11.6c0 .6.1 2.5 1.5 2.5a23.9 23.9 0 0 0 3.7-.4 23.1 23.1 0 0 1 3.5-.3h4a4.7 4.7 0 0 0 2.6-.5 4 4 0 0 0 1.4-2.6c.6-2.7.7-7.6.7-17.4a40.3 40.3 0 0 1-.2-7v-3.2c0-3.6 0-10.6-.7-16.7-.8-7-2-11-3.8-11.7a14.5 14.5 0 0 0-5.1-1.2zm-140.8 114.3a2.5 2.5 0 0 1-2-1.7 13.3 13.3 0 0 1-1-3.8 73.5 73.5 0 0 1-.3-9.5v-5.7l-.1-2.8c0-2.2.2-4.6.4-6.9.2-2.2.4-4.6.4-6.7l-.1-3.3a41 41 0 0 1 .1-9.8c.2-2.1.3-4.3.3-6.4v-3.5l-.2-3.6.2-11.8.1-11.8c0-3.3-.2-6.7-.4-10-.2-3.2-.4-6.5-.4-9.7v-3.4c0-2.2-.1-4.4 0-6.4a2.1 2.1 0 0 1 .4 0 4.7 4.7 0 0 1 2 .5 7.1 7.1 0 0 0 3 .8h.7l2.3.2a12.3 12.3 0 0 0 3.2-.4 5 5 0 0 1 1.3-.2 8 8 0 0 1 1.7.2h.3l.3.2v.2a15.2 15.2 0 0 1-.1 1.5 15.2 15.2 0 0 0-.1 1.6c0 1.6 0 3.2.2 4.8s.2 3.3.2 4.8a149.6 149.6 0 0 1-.3 11.8v10.2c0 2 0 4-.2 6a62.5 62.5 0 0 0-.2 7.3c0 16.7.6 33.3 1.8 48 .3 3.3.3 6.7.2 10v2.5a5.8 5.8 0 0 1-1 3.6 6.1 6.1 0 0 1-2.6 1.9 18.8 18.8 0 0 1-6.2 1l-1.2.1a20 20 0 0 1-2.7.2zm-178.3 39c0-6-1.2-5.9-6-5.9-2.4 0-2.3 1.3-2.3 2.8.2 2.2.2 4.4.2 6.6v16.2l.3 9.7v4l.1 3.2-.1 2.9v3a59 59 0 0 0 1 10.8c.4 1.7 8 1.5 11 1.5 1.1 0 8-.2 8-2.2 0-.4-.2-6.7-2.2-6.7-2.5.1-5.1.7-7.8.7-.6 0-1-.3-1-.8 0-5.7-1-11.6-1-17.4v-14l-.3-8.1.2-3.6-.2-2.7zm41.9 16.8c-.6-15.2-.7-25-10.5-25-1.8 0-3.6.4-5.3.4h-.2c-12.1 0-11.6 9.4-11.6 17.5.2 2.1.2 4.1.2 6.2l-.3 10.8c0 2.4.6 4.3.8 6.7 1.4 15.7 2.4 21.9 12.1 21.9a22.6 22.6 0 0 0 10.6-2.4c5-2.3 4.4-8.5 4.4-14l-.3-10.9.1-11.2zm-8.6 12.7c0 3.2.3 6.3.3 9.5 0 4.5-1.8 6.7-6.2 6.7-5.3 0-4-9.4-4-15 0-1.2.3-2.2.3-3.2v-.4c-.7-4.7-.6-10.1-.6-15 0-1.3.2-2.4.3-3.8.5-4.1-1.2-8.4 5.4-8.4 3 0 3.4 4.3 3.6 7.2l1 22.4zm28.5 12c-1-.2-1-5.7-1.3-7.5-1.5-12.5-2.8-23.9-6-35.4v-.1c-.5-1.6-4.3-1.6-6.5-1.6-2.3 0-3 .8-3 1.7a4.1 4.1 0 0 0 .1.8 159.2 159.2 0 0 0 3.2 17.7c2 7.9 2.9 16.4 4.7 24.4.2.7 2.1 13.5 5 13.5l3-.3h5.4c3.2 0 3.2-3.8 3.5-7 1.3-6.8 1.8-13.8 3-20.8a143.2 143.2 0 0 0 1.5-17.2c0-4.5.6-9 .6-13.7-.1-1.7-1.2-1.8-3.4-1.8l-3.2.2a3.4 3.4 0 0 1-.8 0c-1 0-1.6.4-1.6 1.7l-.8 9.1a243.3 243.3 0 0 1-3.4 36.3zm30.3-40.6l1.4.1c1.8 0 4 .6 4-2s.3-6.6-1.9-6.6h-5.2l-4.5-.3c-2.6 0-7.6.5-7.6 2.3l.2 2.3-.1 2.7c0 11 .8 22.2.8 33.5v2.1l.2 3.8-.2 4.3.2 3.6a9.7 9.7 0 0 1-.1 1.3c0 1.5.3 3.2.4 4.8.1 1.6 1.4 1.5 3.3 1.5 2.3 0 4.5-.5 6.7-.5a5.1 5.1 0 0 0 1 0c1.6 0 3.2-.4 4.9-.4l1.9.2c1.1-.1 1.1-1.5 1.1-3.2 0-4.8-1.2-4.4-4.5-4.4-1.3 0-5.8.4-6-1.5 0-3-1-6-1-9v-3.9l-.2-6.7c0-3 10.5 0 10.5-3.8 0-7.6-.9-7-5.4-7l-3.8.2c-.6 0-1-.4-1-1 0-2.3.6-4.8.6-7l-.2-2.5c0-3.8 2.1-2.9 4.5-2.9zm18-.9h.1c0-6-1.2-5.9-6-5.9-2.3 0-2.3 1.3-2.3 2.8.2 2.2.2 4.4.2 6.6v16.2c0 3.2.4 6.4.4 9.7l-.2 4 .2 3.2-.1 2.9v3a59 59 0 0 0 1 10.8c.4 1.7 8 1.5 11 1.5 1.2 0 8-.2 8-2.2 0-.4-.2-6.7-2.2-6.7-2.5.1-5.1.7-7.7.7-.7 0-1.1-.3-1.2-.8 0-5.7-.9-11.6-.9-17.4l.1-1.3v-12.7c0-2.7-.4-5.5-.4-8.1l.2-3.6-.2-2.7zm42.8 13.8a54.8 54.8 0 0 0-.3-8.8c-.4-2.5-.9-12.2-3-12.2-2.4 0-7.2-.7-7.2 1.3 0 4.5.8 9.7.8 14.4a14.5 14.5 0 0 0 0 1.6l.1 14.8c0 3.1-.9 4.9-4.5 4.9-2.5 0-5.9-.7-5.9-4l.2-4.2-.2-3.1c0-5.6.6-10.9.6-17v-1.1a37.7 37.7 0 0 1 .2-5.2c0-1-.2-1.5-1.4-1.5h-6.3c-1.1 0-1.3.8-1.3 2v8c0 2.3-.5 4.7-.5 7l.1 1-.2 4.7v6.8c0 3.7-.4 10 2.5 11.9 6.9 4.4 7.2 1.2 7.2 6.1v3.8c0 3.4.3 6.8.5 10.2.1 2 2.6 1.7 4.2 1.7 3.3 0 4-.1 4-2.8 0-5-.4-10.4-.4-15.7 0-1.5 2.3-1.6 3.8-2 5.7-1.7 7-12.2 7-18.6zm41.8 25.2h.1c0 6.4-.4 9-5.2 9-3 0-5-3.2-5-6.6v-1.8c0-2-1-2.1-2.1-2.1-2 .3-5.8.1-6 2 0 2 .3 3.9.4 5.7.8 9.1 8.3 11.5 15 11.5a4.6 4.6 0 0 0 .8-.1c9.6-1.8 11-7.5 11-14.5l-.1-4.3v-2.6a26.2 26.2 0 0 0-.6-5.2c-1-4.8-2.5-8.7-10-8.7-.3 0-1.4.3-2.4.3-2.6-.2-6.6 0-6.6-4 0-.4-.9-15.1 5-15.1 4 0 6.2 2.1 6.2 5.3 0 1.3-.5 2.7-.5 4a1 1 0 0 0 1.1 1h4.8c2.3 0 2.7-.6 2.7-2l-.2-4.8v-.4c0-9-5.1-11.5-11.7-11.5h-3c-7 0-13.2 2.6-13.2 10.3v.5c0 2-.3 3.8-.3 5.7 0 1.5 0 6.3.7 8 1.2 4.8 2.4 11.4 8.6 11.4h.6c2 0 3.9.5 5.8.5h.7c2.9 0 3.4 2 3.4 5.8zm23 2.8c.2 0-1-8 1.9-8 4.9 0 5.1 6.3 5.3 9.2.4 3.8-.4 12.5 1.4 12.5s3.6-.5 5.5-.5h.4c3.5 0 3-5.6 3-10.3 0-6.3-.4-11.2-5.4-14-.3 0-.5-.3-.5-.5a.2.2 0 0 1 0-.2c4.5-4.4 4.6-8.8 4.6-15 0-3.1-.4-6.4-.4-9.6v-1c0-3.7-.3-7.5-.5-10.8-.1-1.8-3.9-1.6-5.7-1.6-3 0-3.4.3-3.4 2.3a15.3 15.3 0 0 0 .3 3.3c.7 2.9.6 7 .6 10v3.7l.1 7a6.6 6.6 0 0 1-6.6 6.8c-.7 0-.9-.4-.9-1.5l.1-9.4c0-6.4-1-13-1.4-19.5 0-1.4-.8-1.6-2.8-1.6-6.2 0-6.2 1.6-6.2 4.6 0 1.3.6 2.6.6 4v2.8c0 8.4.8 17 .8 25.6 0 6.6-.2 13.1-.3 19.7 0 1.2.3 1.6 1.3 1.6 2.3 0 4.6-.5 6.9-.7 1.6 0 1.3-2.8 1.3-4.3v-4.6zm35-40.9l1.4.1c1.7 0 3.9.6 3.9-2s.4-6.6-1.9-6.6h-5.2l-4.5-.3c-2.5 0-7.5.5-7.5 2.3l.1 2.3v2.7c0 11 .7 22.2.7 33.5v2.1l.2 3.8-.1 4.3v3.6a9.7 9.7 0 0 1 0 1.3c0 1.5.3 3.2.4 4.8.2 1.6 1.4 1.5 3.3 1.5 2.3 0 4.5-.5 6.8-.5a5.1 5.1 0 0 0 1 0c1.6 0 3.2-.4 4.8-.4l1.9.2c1.2-.1 1.2-1.5 1.2-3.2 0-4.8-1.3-4.4-4.6-4.4-1.3 0-5.7.4-6-1.5 0-3-1-6-1-9v-3.9l-.2-6.7c0-3 10.5 0 10.5-3.8 0-7.6-.9-7-5.3-7l-3.9.2c-.6 0-1-.4-1-1 0-2.3.6-4.8.6-7l-.2-2.5c0-3.8 2.2-2.9 4.5-2.9zm30.5 1.2l3 .1c1 0 1.3-.4 1.3-1.1 0-1.9.3-7.1-2-7.1-3.2 0-6.5.3-9.8.3-1.4 0-2.7-.5-4-.5l-2.2.2-2.8-.2c-3.5 0-5.2.8-5.2 4 0 2.2-.2 4.5 1.5 4.5l6.3-.2c1.6 0 1 9.1 1 12.9l-.1 7.3v14.2l-.2 3.6c0 1.9.1 3.7.3 5.5 0 2.8-1 9.7 2.5 9.7 1.5 0 3.3-.4 5-.6 1.9-.4 1.2-4.3 1.2-6.5l-.2-4.5.2-1.7c0-1.5-.3-3.2-.5-4.8l.2-6.1-.2-8.1.1-1.8-.1-5.8v-1.6c0-3.5-.5-7-.5-10.2 0-2 1.8-1.6 3.4-1.6l1.8.1zm16.2 7.8c.2-6.8-.4-9.5 5-9.5 5 0 4.9 4.4 4.9 8.5a11.5 11.5 0 0 1-.1 1.4c0 1.9-.2 3 1.4 3 2.8 0 7 .5 7-2.7 0-3.5 0-10.3-2-13.8-1-1.2-4.4-3.7-6.1-3.7a45.7 45.7 0 0 0-8.5-1.1c-11.8 0-10.9 12.8-10.9 19.2 0 5 .3 10 .5 15.6v6.3a13.5 13.5 0 0 1 0 1.6c0 19.4 5.6 19.1 14 19.1 1.5 0 3-.4 4.5-.4 5.8-.4 8.3-6.6 8.3-12a55 55 0 0 0-.5-7c-.3-2-3.2-1.8-5-1.8-2.3 0-3.5.1-3.5 1.5 0 2.2 1 4.7 1 6.8 0 3.8-2.9 4.6-5.9 4.6-3.5-.1-3.8-4.2-3.8-7.2 0-4 .4-8 .4-12 0-2.5-.8-5-.8-7.4l.1-9zm30.2 16.3a6.8 6.8 0 0 1 0-1.1v-2l-.2-18.3.2-3.3-.3-4.2c0-1.4-1.5-1.4-3.1-1.4a10.8 10.8 0 0 0-3.4.5c-2.3.8-1.4 13.4-1.4 17.8v12.6l-.1 2.9.1 5c0 3.2-.4 6.3-.4 9.5 0 1-.4 7.4 1.4 7.4s4.1-1 6-1.3c2-.3 1.6-2.5 1.6-4.5s-.4-4.1-.4-6.1v-2.9c0-2.3 4-1.8 7-2 3 0 2.5 2 2.5 4.4v2.9l.3 10c.3 1.5.5 1.7 1.7 1.7 6.7-.8 6.4-1 6.4-5.3v-3.2l.2-4.7v-4.2c.6-8.2.6-17.2.6-26.2 0-.6.7-16.2-2.3-16.2-2.8 0-6.7-.4-6.7 1.9v12.6c0 2.4-.4 4.8-.4 7.1v1.4l-.2 3 .2 4.1c0 1.6-1.6 2.1-4.2 2.1h-.3c-1.3 0-2.6.4-4 .4a1.2 1.2 0 0 1-.8-.4zm36.2-25.3l1.5.1c1.7 0 3.9.6 3.9-2s.3-6.6-1.9-6.6h-5.2l-4.5-.3c-2.5 0-7.5.5-7.5 2.3l.1 2.3v2.7c0 11 .7 22.2.7 33.5v2.1l.2 3.8-.1 4.3v3.6a9.6 9.6 0 0 1 0 1.3c0 1.5.3 3.2.4 4.8.2 1.6 1.4 1.5 3.3 1.5 2.3 0 4.5-.5 6.8-.5a5.1 5.1 0 0 0 .9 0c1.7 0 3.3-.4 4.9-.4l1.9.2c1.2-.1 1.2-1.5 1.2-3.2 0-4.8-1.3-4.4-4.6-4.4-1.3 0-5.7.4-6-1.5 0-3-1-6-1-9v-3.9l-.2-6.7c0-3 10.5 0 10.5-3.8 0-7.6-.9-7-5.3-7l-3.9.2c-.6 0-1-.4-1-1 0-2.3.6-4.8.6-7l-.2-2.5c0-3.8 2.2-2.9 4.5-2.9zm29.4 38.1h.1c0 6.4-.4 9-5.2 9-3 0-5-3.2-5-6.6v-1.8c0-2-1-2.1-2.1-2.1-2.1.3-5.8.1-6 2 0 2 .3 3.9.4 5.7.8 9.1 8.3 11.5 15 11.5a4.6 4.6 0 0 0 .8-.1c9.5-1.8 11-7.5 11-14.5l-.1-4.3v-2.6a26.2 26.2 0 0 0-.6-5.2c-1-4.8-2.5-8.7-10-8.7-.3 0-1.4.3-2.4.3-2.6-.2-6.6 0-6.6-4 0-.4-.9-15.1 5-15.1 4 0 6.2 2.1 6.2 5.3 0 1.3-.5 2.7-.5 4a1 1 0 0 0 1.1 1h4.8c2.3 0 2.7-.6 2.7-2l-.2-4.8v-.4c0-9-5.1-11.5-11.7-11.5h-3c-7 0-13.2 2.6-13.2 10.3v.5c0 2-.3 3.8-.3 5.6 0 1.6 0 6.4.7 8.1 1.2 4.8 2.4 11.4 8.6 11.4h.6c2 0 3.9.5 5.8.5h.7c2.9 0 3.4 2 3.4 5.8zm-416.5 63.1c-1 0-2 0-2.2-.7v-.2a22 22 0 0 0-2-4 14.2 14.2 0 0 1-.7-1.5 12.1 12.1 0 0 0-1-1.7.3.3 0 0 0-.2-.2c-.2 0-.7 1-1.6 3v.1a53.3 53.3 0 0 0-1.9 4.2c-.3.4-.4.6-1.3.6h-2.3l-.7-.1h-.8c-1 0-1-2.1-1-3.4v-.6l-.1-.4c-.4-5.5-.7-10.7-.7-16.2 0-.6.6-.6 1.2-.6h1.3a4.7 4.7 0 0 1 1.4.1.8.8 0 0 1 .6.8v4.7l-.2 2.6-.1 2.5a22.6 22.6 0 0 0 .2 2.7v.4c0 1 0 2.9.2 3.2a.1.1 0 0 0 .1 0c.3 0 .8-.6 1.3-1.9l1-2.4.3-.8c.3-1.3.8-3 1.7-3h1.5l1.6-.1a1 1 0 0 1 1 .5 53.6 53.6 0 0 0 3.3 6 1.2 1.2 0 0 1 0 .1l.2.1a18 18 0 0 0 .4-5.2v-4.3l-.1-3a7.6 7.6 0 0 0-.2-1.5 7 7 0 0 1-.2-1.3c0-.5.7-.5 1.4-.5h1.1a1.7 1.7 0 0 1 1.1.2c.3.2.4.7.4 1.4v.4a60.3 60.3 0 0 0 .5 7.1l.4 3v5.9l.1.9v.4c0 1 0 2.4-.6 2.4l-.7.1-3.1.2h-.6zm33.5-.7a.4.4 0 0 1-.2-.1 3.9 3.9 0 0 1-.4-2.2v-6.1c0-.4-.2-.5-.7-.5h-1.6c-.7 0-1.8 0-1.8.4v1.5a16 16 0 0 0-.1 2 44.6 44.6 0 0 0 0 2.6c0 .8-.1 1-.7 1h-.3a8.7 8.7 0 0 0-1 0 8.5 8.5 0 0 1-1 .2c-.4 0-.6-.2-.7-.6a65.8 65.8 0 0 1-.2-6.8 26 26 0 0 0 0-1.5c0-1.8 0-3.6.2-5.3l.2-2.8v-.5c0-.7 0-1.7.3-2.1a.5.5 0 0 1 .4-.2 8.7 8.7 0 0 0 .7 0h1l.9.1h.2c.4 0 .5.1.5.5a84.3 84.3 0 0 1-.4 6.4 6 6 0 0 1 0 .6 1.7 1.7 0 0 0 .2 1.2.7.7 0 0 0 .5.2h.8c1.3 0 2.8 0 2.8-.6v-8.1c0-.3.2-.3.7-.3h2.3c.5 0 .9 0 .9.4a7 7 0 0 0 0 .8v3.7l-.1 1.5v3.1a66.9 66.9 0 0 1-.2 7.7 28.3 28.3 0 0 0 0 2c0 .5.1 1.3-.6 1.4l-.5.1a10.9 10.9 0 0 1-2 .3zm-24.2-.1c-1 0-2.3 0-2.4-.5v-3.5h-.1a43.4 43.4 0 0 1 0-3.4v-1.3a4.8 4.8 0 0 1 0-.6v-1.8a63.6 63.6 0 0 1 0-4.2v-3.6a.4.4 0 0 1 .1 0 1.3 1.3 0 0 1 .5.1 2 2 0 0 0 .9.3 12 12 0 0 0 1.6-.2 1.7 1.7 0 0 1 .5 0 1.6 1.6 0 0 1 .3 0 35.7 35.7 0 0 0-.1 2.7 3.8 3.8 0 0 1 0 .6v8.9a37 37 0 0 1-.1 3.7 6.5 6.5 0 0 0 .1 1.2 6.2 6.2 0 0 1 .2 1.2c0 .3-.3.4-.7.4h-.3zm7.1-.5a.6.6 0 0 1-.4-.2c-.3-.3-.3-1-.3-1.6v-.3l.1-2 .1-1.9v-4.6a6.7 6.7 0 0 0 0-.6v-1.3a49.5 49.5 0 0 1 .2-5 1 1 0 0 0-.2-.8.6.6 0 0 0-.4-.1h-1.4l-1.4.2c-.4 0-.6-.2-.6-.5a.4.4 0 0 0 0-.2v-.8l-.1-.8c0-.4 1.4-.6 4-.6h4.9a6.5 6.5 0 0 1 1.7.1c.4.2.7.4.7.8a4.7 4.7 0 0 0 0 .8 4.4 4.4 0 0 1 .2.8c0 .2-.2.4-.6.4l-1.3-.1a17.5 17.5 0 0 0-1.8-.1.5.5 0 0 0-.3.1 1 1 0 0 0-.2.8v.2l.1 3 .1 3v2.8l.1 1.6v1.2l.2 3 .2 2c0 .4-.2.6-.6.6h-1.6l-1.4.1zm448.1-144.9a1.2 1.2 0 0 1-.9-.3c-.6-.6-.5-1.8-.4-2.8v-.6l-.1-2.1a5.5 5.5 0 0 1 0-.7 5.5 5.5 0 0 0 .1-.7v-1.3a102 102 0 0 1 0-4.2v-3.8c.1-1.4.2-3.5-.3-4a.3.3 0 0 0-.2 0h-3.3a.7.7 0 0 1-.5-.1 2 2 0 0 1-.3-1.4v-.2a1.2 1.2 0 0 1 .7-1.2 4.7 4.7 0 0 1 2-.3h2.6a8.1 8.1 0 0 1 1 0 8.1 8.1 0 0 0 1.1.2 76.7 76.7 0 0 0 5.2-.1.8.8 0 0 1 .6.2 3.7 3.7 0 0 1 .4 2.3v.2c0 .3-.2.4-.6.4h-3.3c-.5 0-1 0-1 .6v1.8l.2 2.1v.6a55.3 55.3 0 0 1 0 7.3 19.6 19.6 0 0 0 .1 1.8 8.1 8.1 0 0 1 .2 1.2 2.3 2.3 0 0 1 0 .4 2.1 2.1 0 0 0-.1.3v.9a22.3 22.3 0 0 0 0 1.4c.2.8.2 1.8-.6 2h-1a15 15 0 0 1-1.6.2zm15.8 0c-2.5 0-4-.5-4.8-2s-1.1-3.4-1.5-6.4a9.6 9.6 0 0 0-.2-1 5.6 5.6 0 0 1-.2-1.6v-2l.1-2.2v-2.8c0-1.8 0-3.7 1.2-5 1-.9 2.5-1.4 4.8-1.4h2.8c2.4 0 3.8.7 4.5 2.4a20 20 0 0 1 1 6.6v4.9a38.2 38.2 0 0 0 .1 4.8c0 2 0 4-2.3 4.8a15.3 15.3 0 0 1-5.5 1zm.9-21.4c-2.8 0-2.8 1-2.8 2.3a7 7 0 0 1 0 1v.1a10.8 10.8 0 0 0-.2 1.4v.7a25.4 25.4 0 0 0 .4 5v.2a2.2 2.2 0 0 1-.2.6 2.4 2.4 0 0 0 0 .6l-.1 1.1c0 1.6-.1 3.3.7 4.2a2 2 0 0 0 1.4.5 3.8 3.8 0 0 0 2.5-.6 2.4 2.4 0 0 0 .8-2v-2.2l-.1-1.4-.5-8.7c-.1-1-.3-2.8-2-2.8zm-31 21c-1 0-2.2-3.3-2.9-5.3l-.3-1a80 80 0 0 1-2.5-7.9l-.4-1.4v-.1a1.5 1.5 0 0 0-.5-.8 5 5 0 0 0-.3 2.4v.4a7.1 7.1 0 0 1 0 .7 7.7 7.7 0 0 0-.1.9c0 2 .2 4 .4 6l.2 3.6v.3a1.5 1.5 0 0 1-.2 1.2c-.4.5-1.4.6-3.4.6-.6 0-1-1.2-.9-3.4a169.2 169.2 0 0 0-.3-11.4l-.1-2v-5.2c0-.5 1.3-.8 3.9-.8h.1a4.8 4.8 0 0 1 1.3.2 3.6 3.6 0 0 0 .9.1c.8 0 1.3 1.6 1.7 2.9l.3.7a65.7 65.7 0 0 0 3.8 8.6 6.7 6.7 0 0 1 .4 1c.3 1 .7 2.3 1.1 2.3a4.6 4.6 0 0 0 .2-1.3c0-4.4-.3-8.8-.5-12.5a5 5 0 0 0-.1-.6 3.6 3.6 0 0 1-.1-.6c0-.5.7-.8 2.2-.8h1.5a.7.7 0 0 1 .5.3c.8.8.8 3.5.8 4.5v1.7l.2 3.9v5.7a27.3 27.3 0 0 1-.2 2.7 27.3 27.3 0 0 0-.1 2.8v.2c-.2 1.1-.2 1.2-3.2 1.2a15.4 15.4 0 0 0-2 .2 12.3 12.3 0 0 1-1.5 0zm-17.3-.1c-1 0-1-1.7-1-2.7v-1.6a8.7 8.7 0 0 1 0-1.2 8.5 8.5 0 0 0 .2-1.2 5.3 5.3 0 0 0 0-.6 5.6 5.6 0 0 1-.1-.6 9.7 9.7 0 0 1 0-1.2 9.7 9.7 0 0 0 .2-1.1v-5.5a17.5 17.5 0 0 0-.1-1.9 17.2 17.2 0 0 1-.1-1.8v-.6a7.4 7.4 0 0 1 0-1.4 4.2 4.2 0 0 1 .6.2 3.9 3.9 0 0 0 1 .2 15.2 15.2 0 0 0 2.1-.2.5.5 0 0 1 .1 0 1.4 1.4 0 0 1 .7.2v.2a1.7 1.7 0 0 1 0 .2 1.7 1.7 0 0 0 0 .3 8.5 8.5 0 0 0 0 .9 8.5 8.5 0 0 1 0 .9v4a9 9 0 0 1 0 1 6.8 6.8 0 0 0-.2 1.3 65 65 0 0 0 .6 8.7 13.7 13.7 0 0 1 0 1.8v.5c0 1-1.9 1.1-2.9 1.1h-1.1zm-359.2 218.1a35.6 35.6 0 0 1-7.7-.8 22.6 22.6 0 0 1-7-2.7 17 17 0 0 1-8-14c-.2-2.6-.5-5.6-.5-8.5 0-1 .9-1.8 2.4-2.3a23.7 23.7 0 0 1 4.5-.7l2-.2c1.8 0 3.4.2 3.4 3.2a9.2 9.2 0 0 1-.1 1.4 9.2 9.2 0 0 0-.2 1.4 11.7 11.7 0 0 0 2.2 6.9 7.7 7.7 0 0 0 2.4 2.2 6.6 6.6 0 0 0 3.2.8c7.2 0 7.9-3.7 7.9-13.6h-.2v-4c0-3.3-.3-5.3-1-6.6-.7-1.6-2-2.3-4.1-2.3h-1.1a35.4 35.4 0 0 1-4.4-.3 36.3 36.3 0 0 0-4.4-.4h-.9c-4 0-7-1.8-9-5.4-2-3-3-7-3.8-10.6l-.3-1.3a51.2 51.2 0 0 1-.8-16.4c.2-1.4.2-3 .2-4.5v-.7c0-5.4 2-9.5 6-12.2a19.3 19.3 0 0 1 6.4-2.6 33.7 33.7 0 0 1 7.6-.8h4.6c5.6 0 9.7 1.2 12.6 3.6a13 13 0 0 1 3.8 5.3 23.6 23.6 0 0 1 1.4 8.5v.6l.1 3.6.2 3.6c0 2.1-.6 3.2-4 3.2h-1.4l-1.4-.1h-2.3l-2.3.1a1.6 1.6 0 0 1-1.7-1.7 17.7 17.7 0 0 1 .4-3 17.7 17.7 0 0 0 .3-3 7.7 7.7 0 0 0-2.4-5.8 8.1 8.1 0 0 0-3-1.7 13.1 13.1 0 0 0-4-.6 4.8 4.8 0 0 0-3.5 1.6 12.1 12.1 0 0 0-2.6 5 36.1 36.1 0 0 0-1.2 6.6 71.3 71.3 0 0 0-.2 9.5v.3a5 5 0 0 0 3.1 5 18 18 0 0 0 6 1l1 .1a15.3 15.3 0 0 0 2.6-.3 7.5 7.5 0 0 1 1-.1 20.4 20.4 0 0 1 7 1 10.6 10.6 0 0 1 4.3 2.8c2 2.3 3 5.4 3.9 9.3a39.2 39.2 0 0 1 .9 8v1.9l-.1 2a54.5 54.5 0 0 0 .2 6.5 40.7 40.7 0 0 1-.5 7.6 18.4 18.4 0 0 1-2.4 6.4 14.8 14.8 0 0 1-5 5 25.8 25.8 0 0 1-8.8 3 7 7 0 0 1-1.3.2zm52.3-1.8a.9.9 0 0 1-.6-.3c-.6-.6-1-2-1.2-4.5l-.1-7.4c0-2.6 0-5-.2-6.8v-.7a29.5 29.5 0 0 0-1.6-8.3 8.6 8.6 0 0 0-2.3-3.5 6.3 6.3 0 0 0-4.2-1.4 2.1 2.1 0 0 0-1.6.7c-1.9 2-1.5 7.7-1.3 10a5.8 5.8 0 0 1 0 1.3v3.5l.1 3.5v1c0 2.3.1 5.5-2 5.6l-4 .5a51.4 51.4 0 0 1-6.5.5c-1.5 0-2-.6-2-2.4.2-9.8.5-19.9.5-30 0-6.4-.3-13-.6-19.5-.3-6.3-.6-12.9-.6-19.2v-4.3a14.1 14.1 0 0 0-.5-3.1 13 13 0 0 1-.4-3c0-2.2 0-4 1.2-5.2a5.6 5.6 0 0 1 2.8-1.3 25.4 25.4 0 0 1 5.4-.5 7.5 7.5 0 0 1 3.2.4 2.2 2.2 0 0 1 1 2l1 10.8a181.3 181.3 0 0 1 1.1 18.8v14.4c0 1.6.3 2.2 1.2 2.2a10.5 10.5 0 0 0 4.1-.8 9.5 9.5 0 0 0 3.2-2.2 10.6 10.6 0 0 0 2.8-7.4c0-1.8 0-3.6-.2-5.3l-.1-5.3v-2.7l.1-2.8v-1.7c0-4.3.1-9.7-.9-13.6a23.3 23.3 0 0 1-.5-5c0-1.4.1-2.3.8-2.8.8-.6 2.2-.7 4.4-.7h1.6a21.3 21.3 0 0 1 4.5.4 4.7 4.7 0 0 1 1.8.7 1.8 1.8 0 0 1 .7 1.4l.1 1.2c.4 4.7.8 10 .8 15.2v1.6c0 2.4 0 4.9.2 7.3a89 89 0 0 1-.6 19.6 21.1 21.1 0 0 1-6 10.4.3.3 0 0 0 0 .3c0 .3.3.6.7.9a13.7 13.7 0 0 1 7 8.5 45 45 0 0 1 1.2 12.5v2.4c0 5 .1 10.2-2 12.3a3.5 3.5 0 0 1-2.5 1h-.7a28.6 28.6 0 0 0-4.1.4 28.6 28.6 0 0 1-4.2.4zm70.5-.3a3 3 0 0 1-2.2-1c-2-2-1.8-7.4-1.7-11.3l.1-2.5c-.1-2.7-.3-5.4-.3-8.3 0-1 0-1.9.2-2.8s.1-1.8.1-2.7v-27.1l.2-5.6v-3.5c.1-3 .2-6.5 0-9.6-.1-3.5-.5-5.5-1.1-6.2a.7.7 0 0 0-.5-.2c-1.5 0-3.2 0-4.7.2l-4.9.2a1.8 1.8 0 0 1-1.3-.6c-1-1-1-3.1-1-5.5v-1c0-2.3.7-3.8 2-4.7 1.2-.8 3-1.2 6-1.2.6 0 1.4 0 2 .2s1.5 0 2.2 0a13.1 13.1 0 0 0 1.7 0 12.1 12.1 0 0 1 1.5-.2 17.7 17.7 0 0 1 3 .4 17.6 17.6 0 0 0 3.2.3c2.5 0 5 0 7.5-.2l7.4-.2a2 2 0 0 1 1.4.6c1.7 1.7 1.7 6.7 1.7 9.4v.7a1.6 1.6 0 0 1-.5 1.3 2 2 0 0 1-1.4.5l-2.4-.1-2.3-.1h-1.4l-1.4-.1a34 34 0 0 1-2 0 4.6 4.6 0 0 0-2.2.4 2 2 0 0 0-1 2c0 2.3.3 4.7.4 7.3.2 2.7.4 5.5.4 8.2v2.3l.2 8.9v1.4l-.1 1.3.1 4a277.4 277.4 0 0 1 0 12.8l-.1 4.7c0 1 .2 1.9.3 2.8a42.8 42.8 0 0 1 .3 4.6 12.2 12.2 0 0 1 0 1.4 11.1 11.1 0 0 0-.1 1.2v3.5a85 85 0 0 1 .2 5.6 25.8 25.8 0 0 1 0 4.8c-.2 1.7-.8 2.6-1.9 2.8l-2.8.4a32.5 32.5 0 0 1-4.8.5zm145-.5a2.9 2.9 0 0 1-2.2-1 5.5 5.5 0 0 1-1.2-2.5c-.5-2.1-.6-5.2-.6-9.5 0-2.3 1.4-5.4 2.7-8.4l1.3-3c2.8-7 6.5-16.5 9.7-26.2a200.1 200.1 0 0 0 7.2-26.6 9.9 9.9 0 0 0 0-1.7c0-1.1-1.2-1.2-2.1-1.2a77.2 77.2 0 0 0-8 .8 67.5 67.5 0 0 1-9 .8c-1.7 0-2-1-2-2.6v-1.2a36.3 36.3 0 0 1 .3-6.4c.4-2.3 1.3-3.6 2.6-3.8l2.9-.5a75.2 75.2 0 0 1 8.1-1c3.6 0 6.8.3 10 .6l6 .4a4.4 4.4 0 0 1 3.7 2.4 13 13 0 0 1 .8 4.5 28.4 28.4 0 0 0 .6 4 7 7 0 0 1 .3 2 27.9 27.9 0 0 1-1.9 7.9c-1 2.9-2.1 5.6-2.7 6.9a47 47 0 0 0-2 6c-.4 1.6-.8 3.2-1.4 4.8l-6 17.4a397 397 0 0 1-7.8 22.5 1.2 1.2 0 0 0-.1.6c0 .6.4 1 1.2 1a28.3 28.3 0 0 0 4.3-.5 30.7 30.7 0 0 1 4.6-.5h3a22.9 22.9 0 0 1 6.4.7c2 .7 3 1.8 3 3.6l.2 2.8a30.1 30.1 0 0 1 .2 3.5c-.1 2-1.5 2.3-4.5 2.3h-1.2l-1.3-.1-2.8.2-3.9.2h-.8a83.7 83.7 0 0 0-6.3.4h-4.3l-3.5.2-3.5.2zm42.8-1.1c-2 0-3.4-.2-3.5-2.3l-.3-2.8a39.2 39.2 0 0 1-.3-4.4 14.5 14.5 0 0 0 0-2v-2.7a53.9 53.9 0 0 1 0-9.2l-.1-3-.2-2.8v-3.2c0-8.6-.2-17.3-.5-25.7a735 735 0 0 1-.6-25.3v-5.7l-.1-1.8a2 2 0 0 1 1.2-1.7 10.5 10.5 0 0 1 3-1 38.3 38.3 0 0 1 7.3-.7l3.4.2 3.4.2h7.9a2 2 0 0 1 1.6.6c1.3 1.4 1.3 4.8 1.2 7.9v1.5c0 2.8-1.6 3.2-3.4 3.2h-1.3l-1.2-.1a12 12 0 0 1-1.4-.1 61 61 0 0 0-4.2-.3 3.2 3.2 0 0 0-2.5.8c-.7.7-1 2-1 3.7a18 18 0 0 0 .2 2 18 18 0 0 1 .1 1.8 47.8 47.8 0 0 1-.4 5.3 47.8 47.8 0 0 0-.4 5.3c0 1 .5 1.6 1.4 1.6l2.9-.2 3-.1h2.4a10.6 10.6 0 0 1 3 .2 2.8 2.8 0 0 1 1.7 1.3c.7 1.4 1 3.8 1 9.1 0 1.4-.9 2.3-2.7 2.8a29.3 29.3 0 0 1-6 .6c-3.7.1-7.3.3-7.3 2.4l.2 5.2.2 5v6a43.3 43.3 0 0 0 .7 6.8 42.7 42.7 0 0 1 .7 6.8c.3 1.5 2.4 2.3 6.4 2.3h4.6c1.7 0 3.1 0 4 1 .8.8 1.1 2.5 1.1 5.6 0 2.5 0 4.7-1.8 4.9a10 10 0 0 1-1.5-.1 9.3 9.3 0 0 0-1.4-.2 28.9 28.9 0 0 0-3.6.3 29.7 29.7 0 0 1-3.8.4 7.8 7.8 0 0 1-1.4-.1 48.3 48.3 0 0 0-5.1.3 48.4 48.4 0 0 1-5.1.4h-1.5zm-233.6 0c-2 0-3.4-.2-3.5-2.3l-.3-2.8a39.2 39.2 0 0 1-.4-4.4 14.7 14.7 0 0 0 .1-2v-2.7l-.2-2.7.1-3.3.1-3.2c0-1 0-2-.2-3s-.1-1.9-.1-2.8v-3.2c0-8.6-.2-17.3-.5-25.7-.3-8.3-.6-17-.6-25.3v-5.8l-.1-1.7a2 2 0 0 1 1.2-1.7 10.5 10.5 0 0 1 3-1 38.3 38.3 0 0 1 7.3-.7l3.4.2 3.4.2h7.9a2 2 0 0 1 1.5.6c1.4 1.4 1.4 4.8 1.3 7.9v1.5c0 2.8-1.6 3.1-3.4 3.1h-2.6a12 12 0 0 1-1.3-.1l-.8-.1a25.9 25.9 0 0 1-3.4-.2 3.2 3.2 0 0 0-2.5.8c-.7.7-1 2-1 3.7a18 18 0 0 0 .1 2 18 18 0 0 1 .2 1.8 47.7 47.7 0 0 1-.4 5.3 47.7 47.7 0 0 0-.4 5.3c0 1 .5 1.6 1.4 1.6l2.9-.2 3-.1h2.4a10.6 10.6 0 0 1 2.9.2 2.8 2.8 0 0 1 1.7 1.3c.8 1.4 1.1 3.8 1.1 9.1 0 1.4-.9 2.3-2.7 2.8a29.3 29.3 0 0 1-6 .6c-3.7.1-7.3.3-7.3 2.4l.2 5.2.2 5v6a43.3 43.3 0 0 0 .7 6.8 42.7 42.7 0 0 1 .7 6.8c.3 1.5 2.3 2.3 6.3 2.3h4.7c1.7 0 3 0 4 1 .8.8 1.1 2.5 1.1 5.6 0 2.5 0 4.7-1.8 4.9a10 10 0 0 1-1.5-.1 9.3 9.3 0 0 0-1.4-.2 28.9 28.9 0 0 0-3.6.3 29.7 29.7 0 0 1-3.8.4 7.8 7.8 0 0 1-1.4-.1 48.4 48.4 0 0 0-5.1.3 48.4 48.4 0 0 1-5.2.4h-1.4zm93.2-.6a44.8 44.8 0 0 1-8.3-.5 11.6 11.6 0 0 1-6.5-3.3 18 18 0 0 1-4.1-8.7 74.5 74.5 0 0 1-1.5-16.7 20.4 20.4 0 0 0 0-2.3v-6.8a23.3 23.3 0 0 0 .2-2.9l-.3-7.6a291 291 0 0 1-.5-16v-2.1a73 73 0 0 1 .6-12c.8-5 2.4-8.6 4.8-11a12.8 12.8 0 0 1 4.6-3 18.2 18.2 0 0 1 6.5-1 60 60 0 0 1 11.4 1.4l1.5.2a11.1 11.1 0 0 1 5 2.1 15.7 15.7 0 0 1 4.1 3.5 24 24 0 0 1 2.7 10 98.8 98.8 0 0 1 .4 10.1v.8a3.6 3.6 0 0 1-2.4 3.6 14.9 14.9 0 0 1-5.3.7 100.7 100.7 0 0 1-2.8 0c-1-.1-1.6-.4-1.9-1.1a7.6 7.6 0 0 1-.2-2.8v-.7a17.5 17.5 0 0 0 0-2.2v-.2c0-3 0-6.3-.9-8.6a5.9 5.9 0 0 0-2.1-3 7.3 7.3 0 0 0-4.3-1 11.4 11.4 0 0 0-4.2.6 4.2 4.2 0 0 0-2.3 2c-1 1.8-1 4.6-1 8.6l-.2 3.1h.1a263.3 263.3 0 0 1-.2 13.7 33.2 33.2 0 0 0 .6 5.4 35.6 35.6 0 0 1 .6 5.9c0 3-.1 6.2-.3 9.1l-.3 9a21.7 21.7 0 0 0 .9 7.2 6.3 6.3 0 0 0 1.8 2.7 5 5 0 0 0 3.2 1.1 11.4 11.4 0 0 0 6-1.4 5.5 5.5 0 0 0 2-2.1 7.7 7.7 0 0 0 .8-3.5 25.2 25.2 0 0 0-.7-5 27.2 27.2 0 0 1-.7-5.4 1.8 1.8 0 0 1 1.3-1.9 13.1 13.1 0 0 1 4-.3h1.7a12.4 12.4 0 0 1 3.7.4 2.7 2.7 0 0 1 2.1 2.4 83.3 83.3 0 0 1 .7 10.7 26.6 26.6 0 0 1-.7 6 20.6 20.6 0 0 1-2.2 5.8 13.4 13.4 0 0 1-4 4.3 11.3 11.3 0 0 1-5.6 2 21.5 21.5 0 0 0-3.3.3 23.2 23.2 0 0 1-3.6.4h-.9zm76 0c-3-.2-2.9-6.8-2.9-10.7v-6.1a45.7 45.7 0 0 1 .3-4.9 44.7 44.7 0 0 0 .4-4.8l-.2-2.3a20 20 0 0 1-.1-2.4l.3-4.6c.2-1.6.2-3 .2-4.5v-2.5l-.1-2.6.1-8.3.1-8.4-.3-7a91 91 0 0 1-.4-9.4 39.7 39.7 0 0 1 0-5.5.2.2 0 0 0 .2 0 .6.6 0 0 1 .2 0 2.2 2.2 0 0 1 .8.3 8.1 8.1 0 0 0 4 1 34.6 34.6 0 0 0 6.1-1 2.9 2.9 0 0 1 1-.1 3.3 3.3 0 0 1 1 .1v1.8a8.8 8.8 0 0 1-.2 1.1 8.8 8.8 0 0 0 0 1.1l.1 3.4.2 3.5-.1 4.2a84.8 84.8 0 0 0-.1 7.8v3.6l-.2 4.2a36.2 36.2 0 0 0-.2 5.2c0 11.8.5 23.6 1.6 34.1.2 2.3.2 4.8.2 7.1v1.8a3.6 3.6 0 0 1-1 2.5 5.4 5.4 0 0 1-2.2 1.4 19.8 19.8 0 0 1-5.4.7h-1a21.3 21.3 0 0 1-2.4.2zm-19.7-.1c-1.8 0-2-.3-2.5-2.7l-.5-14.2v-6.5c.1-1.9.1-3.5-.8-4.5a4 4 0 0 0-3-.9h-2.4c-4 .1-8.2.1-8.2 3v4.3c0 1.6.2 3.2.3 4.7l.3 4.6v1.5c.1 2.6.2 5-2.4 5.4a31.2 31.2 0 0 0-3.6 1 21 21 0 0 1-5.5 1 1.2 1.2 0 0 1-.8-.4c-1.6-1.6-1.4-7.8-1.4-10.1v-.8c0-2.4.2-4.9.4-7.2a84.9 84.9 0 0 0 .2-11v-32.4c-.3-8.3-.7-21 2.3-22a16.4 16.4 0 0 1 5-.7h.6a9.3 9.3 0 0 1 2.9.3 1.7 1.7 0 0 1 1.2 1.8 26.4 26.4 0 0 0 .3 3.2 25.5 25.5 0 0 1 .3 3.2 23.5 23.5 0 0 1-.2 2.5 23.5 23.5 0 0 0-.2 2.5 950.3 950.3 0 0 0 .3 27.7v1.5l-.1 1.6a10.4 10.4 0 0 0 0 1.7 1.8 1.8 0 0 0 1.4.5 23.3 23.3 0 0 0 3-.2 23.3 23.3 0 0 1 3-.3h.5c4.3 0 6.3-1 6.3-3.2l-.1-3-.1-3.2v-2.3l.2-2.3v-2l.3-5.4.3-5.5v-9.4l.1-9.3v-.4c0-2.6 3.1-3 6.6-3h3.5a1.4 1.4 0 0 1 1 .6c2.9 2.9 2.6 17.8 2.6 22.7v1.5c0 12.5-.1 27-1 39.8v6.3l-.1 3.5-.1 3.5v5.7c0 3 0 4.5-1.2 5.4s-3.6 1.3-8.7 1.9zm23.5-100.2a9 9 0 0 1 4.5 1.6 6.7 6.7 0 0 1 3.5 6c0 3.4-1 5.6-4 6.8a28.8 28.8 0 0 1-5.2.7c-2.8 0-3.6-1.1-5-3.4a7.5 7.5 0 0 1-1.8-4 7 7 0 0 1 3-5.7 8.2 8.2 0 0 1 5-2zm110.6-142.7a3.6 3.6 0 0 1 1.7.7 2.6 2.6 0 0 1 1.4 2.3 2.4 2.4 0 0 1-1.6 2.7 11.3 11.3 0 0 1-2 .3c-1.1 0-1.4-.5-2-1.4a3 3 0 0 1-.7-1.6 2.7 2.7 0 0 1 1.2-2.2 3.2 3.2 0 0 1 2-.8zm-425.3 149.3a3 3 0 0 1 1.5.6 2.3 2.3 0 0 1 1.2 2 2 2 0 0 1-1.4 2.3 9.7 9.7 0 0 1-1.7.2c-1 0-1.2-.4-1.7-1.1a2.5 2.5 0 0 1-.6-1.4 2.3 2.3 0 0 1 1-1.9 2.8 2.8 0 0 1 1.7-.7zm195.1-257.2c2 0 3.8 1 5.5 2a8.2 8.2 0 0 1 4.3 7.4c0 4.2-1.1 6.9-5 8.4a35.5 35.5 0 0 1-6.4.9c-3.4 0-4.3-1.5-6.2-4.3-1-1.4-2-3-2-5a8.5 8.5 0 0 1 3.6-7 10.1 10.1 0 0 1 6.2-2.4z" fill="#fff"/>
      </g>
    </g>
  </g>
</svg>
