<svg xmlns="http://www.w3.org/2000/svg" xmlns:xlink="http://www.w3.org/1999/xlink" viewBox="1170.499 -4944.5 252.362 219.899"><defs><style>.a,.b{fill:none;}.b{stroke:#000;}.c{opacity:0.5;}.d{clip-path:url(#a);}</style><clipPath id="a"><rect class="a" width="85.56" height="153.992"/></clipPath></defs><g transform="translate(113 -5507)"><g transform="translate(1198.999 563)"><path class="b" d="M14.968,218.9a14.045,14.045,0,0,1-2.8-.28,13.862,13.862,0,0,1-9.986-8.149,13.676,13.676,0,0,1-.808-2.591A13.827,13.827,0,0,1,1.1,205.1V73.245H.548A.547.547,0,0,1,0,72.7V60.4a.547.547,0,0,1,.548-.545H1.1V55.938H.548A.547.547,0,0,1,0,55.392v-12.3a.548.548,0,0,1,.548-.546H1.1V32.937H.548A.547.547,0,0,1,0,32.391V26.47a.547.547,0,0,1,.548-.546H1.1V13.8a13.83,13.83,0,0,1,.282-2.782A13.7,13.7,0,0,1,3.466,6.085,13.866,13.866,0,0,1,12.172.28a14.047,14.047,0,0,1,2.8-.28H95.533a14.048,14.048,0,0,1,2.8.28,13.864,13.864,0,0,1,9.986,8.149,13.676,13.676,0,0,1,.808,2.591A13.83,13.83,0,0,1,109.4,13.8V41.267h.41a.548.548,0,0,1,.548.546v12.3a.548.548,0,0,1-.548.546h-.41V205.1a13.827,13.827,0,0,1-.282,2.782,13.7,13.7,0,0,1-2.087,4.936,13.875,13.875,0,0,1-11.5,6.085Z" transform="translate(0 0)"/><path class="b" d="M1.144,0h94.8a1.142,1.142,0,0,1,1.144,1.139V170.007a1.142,1.142,0,0,1-1.144,1.139H1.144A1.142,1.142,0,0,1,0,170.007V1.139A1.142,1.142,0,0,1,1.144,0Z" transform="translate(6.728 24.007)"/><path class="b" d="M1.739,0A1.731,1.731,0,1,1,0,1.731,1.735,1.735,0,0,1,1.739,0Z" transform="translate(38.541 11.252)"/><path class="b" d="M7.515,0A7.515,7.515,0,1,1,0,7.515,7.515,7.515,0,0,1,7.515,0Z" transform="translate(47.748 199.241)"/><path class="b" d="M.8,0H13.847a.8.8,0,1,1,0,1.594H.8A.8.8,0,1,1,.8,0Z" transform="translate(47.926 12.123)"/><path class="b" d="M1.144,0A1.139,1.139,0,1,1,0,1.139,1.142,1.142,0,0,1,1.144,0Z" transform="translate(54.106 5.746)"/><g class="c" transform="translate(15.078 36.036)"><g class="d" transform="translate(-2 -2)"><g transform="translate(-664 -239)"><circle cx="0.5" cy="0.5" r="0.5" transform="translate(664 239)"/></g><g transform="translate(-658 -239)"><circle cx="0.5" cy="0.5" r="0.5" transform="translate(664 239)"/></g><g transform="translate(-652 -239)"><circle cx="0.5" cy="0.5" r="0.5" transform="translate(664 239)"/></g><g transform="translate(-646 -239)"><circle cx="0.5" cy="0.5" r="0.5" transform="translate(664 239)"/></g><g transform="translate(-640 -239)"><circle cx="0.5" cy="0.5" r="0.5" transform="translate(664 239)"/></g><g transform="translate(-634 -239)"><circle cx="0.5" cy="0.5" r="0.5" transform="translate(664 239)"/></g><g transform="translate(-628 -239)"><circle cx="0.5" cy="0.5" r="0.5" transform="translate(664 239)"/></g><g transform="translate(-622 -239)"><circle cx="0.5" cy="0.5" r="0.5" transform="translate(664 239)"/></g><g transform="translate(-616 -239)"><circle cx="0.5" cy="0.5" r="0.5" transform="translate(664 239)"/></g><g transform="translate(-610 -239)"><circle cx="0.5" cy="0.5" r="0.5" transform="translate(664 239)"/></g><g transform="translate(-604 -239)"><circle cx="0.5" cy="0.5" r="0.5" transform="translate(664 239)"/></g><g transform="translate(-598 -239)"><circle cx="0.5" cy="0.5" r="0.5" transform="translate(664 239)"/></g><g transform="translate(-592 -239)"><circle cx="0.5" cy="0.5" r="0.5" transform="translate(664 239)"/></g><g transform="translate(-586 -239)"><circle cx="0.5" cy="0.5" r="0.5" transform="translate(664 239)"/></g><g transform="translate(-580 -239)"><circle cx="0.5" cy="0.5" r="0.5" transform="translate(664 239)"/></g><g transform="translate(-664 -233)"><circle cx="0.5" cy="0.5" r="0.5" transform="translate(664 239)"/></g><g transform="translate(-658 -233)"><circle cx="0.5" cy="0.5" r="0.5" transform="translate(664 239)"/></g><g transform="translate(-652 -233)"><circle cx="0.5" cy="0.5" r="0.5" transform="translate(664 239)"/></g><g transform="translate(-646 -233)"><circle cx="0.5" cy="0.5" r="0.5" transform="translate(664 239)"/></g><g transform="translate(-640 -233)"><circle cx="0.5" cy="0.5" r="0.5" transform="translate(664 239)"/></g><g transform="translate(-634 -233)"><circle cx="0.5" cy="0.5" r="0.5" transform="translate(664 239)"/></g><g transform="translate(-628 -233)"><circle cx="0.5" cy="0.5" r="0.5" transform="translate(664 239)"/></g><g transform="translate(-622 -233)"><circle cx="0.5" cy="0.5" r="0.5" transform="translate(664 239)"/></g><g transform="translate(-616 -233)"><circle cx="0.5" cy="0.5" r="0.5" transform="translate(664 239)"/></g><g transform="translate(-610 -233)"><circle cx="0.5" cy="0.5" r="0.5" transform="translate(664 239)"/></g><g transform="translate(-604 -233)"><circle cx="0.5" cy="0.5" r="0.5" transform="translate(664 239)"/></g><g transform="translate(-598 -233)"><circle cx="0.5" cy="0.5" r="0.5" transform="translate(664 239)"/></g><g transform="translate(-592 -233)"><circle cx="0.5" cy="0.5" r="0.5" transform="translate(664 239)"/></g><g transform="translate(-586 -233)"><circle cx="0.5" cy="0.5" r="0.5" transform="translate(664 239)"/></g><g transform="translate(-580 -233)"><circle cx="0.5" cy="0.5" r="0.5" transform="translate(664 239)"/></g><g transform="translate(-664 -227)"><circle cx="0.5" cy="0.5" r="0.5" transform="translate(664 239)"/></g><g transform="translate(-658 -227)"><circle cx="0.5" cy="0.5" r="0.5" transform="translate(664 239)"/></g><g transform="translate(-652 -227)"><circle cx="0.5" cy="0.5" r="0.5" transform="translate(664 239)"/></g><g transform="translate(-646 -227)"><circle cx="0.5" cy="0.5" r="0.5" transform="translate(664 239)"/></g><g transform="translate(-640 -227)"><circle cx="0.5" cy="0.5" r="0.5" transform="translate(664 239)"/></g><g transform="translate(-634 -227)"><circle cx="0.5" cy="0.5" r="0.5" transform="translate(664 239)"/></g><g transform="translate(-628 -227)"><circle cx="0.5" cy="0.5" r="0.5" transform="translate(664 239)"/></g><g transform="translate(-622 -227)"><circle cx="0.5" cy="0.5" r="0.5" transform="translate(664 239)"/></g><g transform="translate(-616 -227)"><circle cx="0.5" cy="0.5" r="0.5" transform="translate(664 239)"/></g><g transform="translate(-610 -227)"><circle cx="0.5" cy="0.5" r="0.5" transform="translate(664 239)"/></g><g transform="translate(-604 -227)"><circle cx="0.5" cy="0.5" r="0.5" transform="translate(664 239)"/></g><g transform="translate(-598 -227)"><circle cx="0.5" cy="0.5" r="0.5" transform="translate(664 239)"/></g><g transform="translate(-592 -227)"><circle cx="0.5" cy="0.5" r="0.5" transform="translate(664 239)"/></g><g transform="translate(-586 -227)"><circle cx="0.5" cy="0.5" r="0.5" transform="translate(664 239)"/></g><g transform="translate(-580 -227)"><circle cx="0.5" cy="0.5" r="0.5" transform="translate(664 239)"/></g><g transform="translate(-664 -221)"><circle cx="0.5" cy="0.5" r="0.5" transform="translate(664 239)"/></g><g transform="translate(-658 -221)"><circle cx="0.5" cy="0.5" r="0.5" transform="translate(664 239)"/></g><g transform="translate(-652 -221)"><circle cx="0.5" cy="0.5" r="0.5" transform="translate(664 239)"/></g><g transform="translate(-646 -221)"><circle cx="0.5" cy="0.5" r="0.5" transform="translate(664 239)"/></g><g transform="translate(-640 -221)"><circle cx="0.5" cy="0.5" r="0.5" transform="translate(664 239)"/></g><g transform="translate(-634 -221)"><circle cx="0.5" cy="0.5" r="0.5" transform="translate(664 239)"/></g><g transform="translate(-628 -221)"><circle cx="0.5" cy="0.5" r="0.5" transform="translate(664 239)"/></g><g transform="translate(-622 -221)"><circle cx="0.5" cy="0.5" r="0.5" transform="translate(664 239)"/></g><g transform="translate(-616 -221)"><circle cx="0.5" cy="0.5" r="0.5" transform="translate(664 239)"/></g><g transform="translate(-610 -221)"><circle cx="0.5" cy="0.5" r="0.5" transform="translate(664 239)"/></g><g transform="translate(-604 -221)"><circle cx="0.5" cy="0.5" r="0.5" transform="translate(664 239)"/></g><g transform="translate(-598 -221)"><circle cx="0.5" cy="0.5" r="0.5" transform="translate(664 239)"/></g><g transform="translate(-592 -221)"><circle cx="0.5" cy="0.5" r="0.5" transform="translate(664 239)"/></g><g transform="translate(-586 -221)"><circle cx="0.5" cy="0.5" r="0.5" transform="translate(664 239)"/></g><g transform="translate(-580 -221)"><circle cx="0.5" cy="0.5" r="0.5" transform="translate(664 239)"/></g><g transform="translate(-664 -215)"><circle cx="0.5" cy="0.5" r="0.5" transform="translate(664 239)"/></g><g transform="translate(-658 -215)"><circle cx="0.5" cy="0.5" r="0.5" transform="translate(664 239)"/></g><g transform="translate(-652 -215)"><circle cx="0.5" cy="0.5" r="0.5" transform="translate(664 239)"/></g><g transform="translate(-646 -215)"><circle cx="0.5" cy="0.5" r="0.5" transform="translate(664 239)"/></g><g transform="translate(-640 -215)"><circle cx="0.5" cy="0.5" r="0.5" transform="translate(664 239)"/></g><g transform="translate(-634 -215)"><circle cx="0.5" cy="0.5" r="0.5" transform="translate(664 239)"/></g><g transform="translate(-628 -215)"><circle cx="0.5" cy="0.5" r="0.5" transform="translate(664 239)"/></g><g transform="translate(-622 -215)"><circle cx="0.5" cy="0.5" r="0.5" transform="translate(664 239)"/></g><g transform="translate(-616 -215)"><circle cx="0.5" cy="0.5" r="0.5" transform="translate(664 239)"/></g><g transform="translate(-610 -215)"><circle cx="0.5" cy="0.5" r="0.5" transform="translate(664 239)"/></g><g transform="translate(-604 -215)"><circle cx="0.5" cy="0.5" r="0.5" transform="translate(664 239)"/></g><g transform="translate(-598 -215)"><circle cx="0.5" cy="0.5" r="0.5" transform="translate(664 239)"/></g><g transform="translate(-592 -215)"><circle cx="0.5" cy="0.5" r="0.5" transform="translate(664 239)"/></g><g transform="translate(-586 -215)"><circle cx="0.5" cy="0.5" r="0.5" transform="translate(664 239)"/></g><g transform="translate(-580 -215)"><circle cx="0.5" cy="0.5" r="0.5" transform="translate(664 239)"/></g><g transform="translate(-664 -209)"><circle cx="0.5" cy="0.5" r="0.5" transform="translate(664 239)"/></g><g transform="translate(-658 -209)"><circle cx="0.5" cy="0.5" r="0.5" transform="translate(664 239)"/></g><g transform="translate(-652 -209)"><circle cx="0.5" cy="0.5" r="0.5" transform="translate(664 239)"/></g><g transform="translate(-646 -209)"><circle cx="0.5" cy="0.5" r="0.5" transform="translate(664 239)"/></g><g transform="translate(-640 -209)"><circle cx="0.5" cy="0.5" r="0.5" transform="translate(664 239)"/></g><g transform="translate(-634 -209)"><circle cx="0.5" cy="0.5" r="0.5" transform="translate(664 239)"/></g><g transform="translate(-628 -209)"><circle cx="0.5" cy="0.5" r="0.5" transform="translate(664 239)"/></g><g transform="translate(-622 -209)"><circle cx="0.5" cy="0.5" r="0.5" transform="translate(664 239)"/></g><g transform="translate(-616 -209)"><circle cx="0.5" cy="0.5" r="0.5" transform="translate(664 239)"/></g><g transform="translate(-610 -209)"><circle cx="0.5" cy="0.5" r="0.5" transform="translate(664 239)"/></g><g transform="translate(-604 -209)"><circle cx="0.5" cy="0.5" r="0.5" transform="translate(664 239)"/></g><g transform="translate(-598 -209)"><circle cx="0.5" cy="0.5" r="0.5" transform="translate(664 239)"/></g><g transform="translate(-592 -209)"><circle cx="0.5" cy="0.5" r="0.5" transform="translate(664 239)"/></g><g transform="translate(-586 -209)"><circle cx="0.5" cy="0.5" r="0.5" transform="translate(664 239)"/></g><g transform="translate(-580 -209)"><circle cx="0.5" cy="0.5" r="0.5" transform="translate(664 239)"/></g><g transform="translate(-664 -203)"><circle cx="0.5" cy="0.5" r="0.5" transform="translate(664 239)"/></g><g transform="translate(-658 -203)"><circle cx="0.5" cy="0.5" r="0.5" transform="translate(664 239)"/></g><g transform="translate(-652 -203)"><circle cx="0.5" cy="0.5" r="0.5" transform="translate(664 239)"/></g><g transform="translate(-646 -203)"><circle cx="0.5" cy="0.5" r="0.5" transform="translate(664 239)"/></g><g transform="translate(-640 -203)"><circle cx="0.5" cy="0.5" r="0.5" transform="translate(664 239)"/></g><g transform="translate(-634 -203)"><circle cx="0.5" cy="0.5" r="0.5" transform="translate(664 239)"/></g><g transform="translate(-628 -203)"><circle cx="0.5" cy="0.5" r="0.5" transform="translate(664 239)"/></g><g transform="translate(-622 -203)"><circle cx="0.5" cy="0.5" r="0.5" transform="translate(664 239)"/></g><g transform="translate(-616 -203)"><circle cx="0.5" cy="0.5" r="0.5" transform="translate(664 239)"/></g><g transform="translate(-610 -203)"><circle cx="0.5" cy="0.5" r="0.5" transform="translate(664 239)"/></g><g transform="translate(-604 -203)"><circle cx="0.5" cy="0.5" r="0.5" transform="translate(664 239)"/></g><g transform="translate(-598 -203)"><circle cx="0.5" cy="0.5" r="0.5" transform="translate(664 239)"/></g><g transform="translate(-592 -203)"><circle cx="0.5" cy="0.5" r="0.5" transform="translate(664 239)"/></g><g transform="translate(-586 -203)"><circle cx="0.5" cy="0.5" r="0.5" transform="translate(664 239)"/></g><g transform="translate(-580 -203)"><circle cx="0.5" cy="0.5" r="0.5" transform="translate(664 239)"/></g><g transform="translate(-664 -197)"><circle cx="0.5" cy="0.5" r="0.5" transform="translate(664 239)"/></g><g transform="translate(-658 -197)"><circle cx="0.5" cy="0.5" r="0.5" transform="translate(664 239)"/></g><g transform="translate(-652 -197)"><circle cx="0.5" cy="0.5" r="0.5" transform="translate(664 239)"/></g><g transform="translate(-646 -197)"><circle cx="0.5" cy="0.5" r="0.5" transform="translate(664 239)"/></g><g transform="translate(-640 -197)"><circle cx="0.5" cy="0.5" r="0.5" transform="translate(664 239)"/></g><g transform="translate(-634 -197)"><circle cx="0.5" cy="0.5" r="0.5" transform="translate(664 239)"/></g><g transform="translate(-628 -197)"><circle cx="0.5" cy="0.5" r="0.5" transform="translate(664 239)"/></g><g transform="translate(-622 -197)"><circle cx="0.5" cy="0.5" r="0.5" transform="translate(664 239)"/></g><g transform="translate(-616 -197)"><circle cx="0.5" cy="0.5" r="0.5" transform="translate(664 239)"/></g><g transform="translate(-610 -197)"><circle cx="0.5" cy="0.5" r="0.5" transform="translate(664 239)"/></g><g transform="translate(-604 -197)"><circle cx="0.5" cy="0.5" r="0.5" transform="translate(664 239)"/></g><g transform="translate(-598 -197)"><circle cx="0.5" cy="0.5" r="0.5" transform="translate(664 239)"/></g><g transform="translate(-592 -197)"><circle cx="0.5" cy="0.5" r="0.5" transform="translate(664 239)"/></g><g transform="translate(-586 -197)"><circle cx="0.5" cy="0.5" r="0.5" transform="translate(664 239)"/></g><g transform="translate(-580 -197)"><circle cx="0.5" cy="0.5" r="0.5" transform="translate(664 239)"/></g><g transform="translate(-664 -191)"><circle cx="0.5" cy="0.5" r="0.5" transform="translate(664 239)"/></g><g transform="translate(-658 -191)"><circle cx="0.5" cy="0.5" r="0.5" transform="translate(664 239)"/></g><g transform="translate(-652 -191)"><circle cx="0.5" cy="0.5" r="0.5" transform="translate(664 239)"/></g><g transform="translate(-646 -191)"><circle cx="0.5" cy="0.5" r="0.5" transform="translate(664 239)"/></g><g transform="translate(-640 -191)"><circle cx="0.5" cy="0.5" r="0.5" transform="translate(664 239)"/></g><g transform="translate(-634 -191)"><circle cx="0.5" cy="0.5" r="0.5" transform="translate(664 239)"/></g><g transform="translate(-628 -191)"><circle cx="0.5" cy="0.5" r="0.5" transform="translate(664 239)"/></g><g transform="translate(-622 -191)"><circle cx="0.5" cy="0.5" r="0.5" transform="translate(664 239)"/></g><g transform="translate(-616 -191)"><circle cx="0.5" cy="0.5" r="0.5" transform="translate(664 239)"/></g><g transform="translate(-610 -191)"><circle cx="0.5" cy="0.5" r="0.5" transform="translate(664 239)"/></g><g transform="translate(-604 -191)"><circle cx="0.5" cy="0.5" r="0.5" transform="translate(664 239)"/></g><g transform="translate(-598 -191)"><circle cx="0.5" cy="0.5" r="0.5" transform="translate(664 239)"/></g><g transform="translate(-592 -191)"><circle cx="0.5" cy="0.5" r="0.5" transform="translate(664 239)"/></g><g transform="translate(-586 -191)"><circle cx="0.5" cy="0.5" r="0.5" transform="translate(664 239)"/></g><g transform="translate(-580 -191)"><circle cx="0.5" cy="0.5" r="0.5" transform="translate(664 239)"/></g><g transform="translate(-664 -185)"><circle cx="0.5" cy="0.5" r="0.5" transform="translate(664 239)"/></g><g transform="translate(-658 -185)"><circle cx="0.5" cy="0.5" r="0.5" transform="translate(664 239)"/></g><g transform="translate(-652 -185)"><circle cx="0.5" cy="0.5" r="0.5" transform="translate(664 239)"/></g><g transform="translate(-646 -185)"><circle cx="0.5" cy="0.5" r="0.5" transform="translate(664 239)"/></g><g transform="translate(-640 -185)"><circle cx="0.5" cy="0.5" r="0.5" transform="translate(664 239)"/></g><g transform="translate(-634 -185)"><circle cx="0.5" cy="0.5" r="0.5" transform="translate(664 239)"/></g><g transform="translate(-628 -185)"><circle cx="0.5" cy="0.5" r="0.5" transform="translate(664 239)"/></g><g transform="translate(-622 -185)"><circle cx="0.5" cy="0.5" r="0.5" transform="translate(664 239)"/></g><g transform="translate(-616 -185)"><circle cx="0.5" cy="0.5" r="0.5" transform="translate(664 239)"/></g><g transform="translate(-610 -185)"><circle cx="0.5" cy="0.5" r="0.5" transform="translate(664 239)"/></g><g transform="translate(-604 -185)"><circle cx="0.5" cy="0.5" r="0.5" transform="translate(664 239)"/></g><g transform="translate(-598 -185)"><circle cx="0.5" cy="0.5" r="0.5" transform="translate(664 239)"/></g><g transform="translate(-592 -185)"><circle cx="0.5" cy="0.5" r="0.5" transform="translate(664 239)"/></g><g transform="translate(-586 -185)"><circle cx="0.5" cy="0.5" r="0.5" transform="translate(664 239)"/></g><g transform="translate(-580 -185)"><circle cx="0.5" cy="0.5" r="0.5" transform="translate(664 239)"/></g><g transform="translate(-664 -179)"><circle cx="0.5" cy="0.5" r="0.5" transform="translate(664 239)"/></g><g transform="translate(-658 -179)"><circle cx="0.5" cy="0.5" r="0.5" transform="translate(664 239)"/></g><g transform="translate(-652 -179)"><circle cx="0.5" cy="0.5" r="0.5" transform="translate(664 239)"/></g><g transform="translate(-646 -179)"><circle cx="0.5" cy="0.5" r="0.5" transform="translate(664 239)"/></g><g transform="translate(-640 -179)"><circle cx="0.5" cy="0.5" r="0.5" transform="translate(664 239)"/></g><g transform="translate(-634 -179)"><circle cx="0.5" cy="0.5" r="0.5" transform="translate(664 239)"/></g><g transform="translate(-628 -179)"><circle cx="0.5" cy="0.5" r="0.5" transform="translate(664 239)"/></g><g transform="translate(-622 -179)"><circle cx="0.5" cy="0.5" r="0.5" transform="translate(664 239)"/></g><g transform="translate(-616 -179)"><circle cx="0.5" cy="0.5" r="0.5" transform="translate(664 239)"/></g><g transform="translate(-610 -179)"><circle cx="0.5" cy="0.5" r="0.5" transform="translate(664 239)"/></g><g transform="translate(-604 -179)"><circle cx="0.5" cy="0.5" r="0.5" transform="translate(664 239)"/></g><g transform="translate(-598 -179)"><circle cx="0.5" cy="0.5" r="0.5" transform="translate(664 239)"/></g><g transform="translate(-592 -179)"><circle cx="0.5" cy="0.5" r="0.5" transform="translate(664 239)"/></g><g transform="translate(-586 -179)"><circle cx="0.5" cy="0.5" r="0.5" transform="translate(664 239)"/></g><g transform="translate(-580 -179)"><circle cx="0.5" cy="0.5" r="0.5" transform="translate(664 239)"/></g><g transform="translate(-664 -173)"><circle cx="0.5" cy="0.5" r="0.5" transform="translate(664 239)"/></g><g transform="translate(-658 -173)"><circle cx="0.5" cy="0.5" r="0.5" transform="translate(664 239)"/></g><g transform="translate(-652 -173)"><circle cx="0.5" cy="0.5" r="0.5" transform="translate(664 239)"/></g><g transform="translate(-646 -173)"><circle cx="0.5" cy="0.5" r="0.5" transform="translate(664 239)"/></g><g transform="translate(-640 -173)"><circle cx="0.5" cy="0.5" r="0.5" transform="translate(664 239)"/></g><g transform="translate(-634 -173)"><circle cx="0.5" cy="0.5" r="0.5" transform="translate(664 239)"/></g><g transform="translate(-628 -173)"><circle cx="0.5" cy="0.5" r="0.5" transform="translate(664 239)"/></g><g transform="translate(-622 -173)"><circle cx="0.5" cy="0.5" r="0.5" transform="translate(664 239)"/></g><g transform="translate(-616 -173)"><circle cx="0.5" cy="0.5" r="0.5" transform="translate(664 239)"/></g><g transform="translate(-610 -173)"><circle cx="0.5" cy="0.5" r="0.5" transform="translate(664 239)"/></g><g transform="translate(-604 -173)"><circle cx="0.5" cy="0.5" r="0.5" transform="translate(664 239)"/></g><g transform="translate(-598 -173)"><circle cx="0.5" cy="0.5" r="0.5" transform="translate(664 239)"/></g><g transform="translate(-592 -173)"><circle cx="0.5" cy="0.5" r="0.5" transform="translate(664 239)"/></g><g transform="translate(-586 -173)"><circle cx="0.5" cy="0.5" r="0.5" transform="translate(664 239)"/></g><g transform="translate(-580 -173)"><circle cx="0.5" cy="0.5" r="0.5" transform="translate(664 239)"/></g><g transform="translate(-664 -167)"><circle cx="0.5" cy="0.5" r="0.5" transform="translate(664 239)"/></g><g transform="translate(-658 -167)"><circle cx="0.5" cy="0.5" r="0.5" transform="translate(664 239)"/></g><g transform="translate(-652 -167)"><circle cx="0.5" cy="0.5" r="0.5" transform="translate(664 239)"/></g><g transform="translate(-646 -167)"><circle cx="0.5" cy="0.5" r="0.5" transform="translate(664 239)"/></g><g transform="translate(-640 -167)"><circle cx="0.5" cy="0.5" r="0.5" transform="translate(664 239)"/></g><g transform="translate(-634 -167)"><circle cx="0.5" cy="0.5" r="0.5" transform="translate(664 239)"/></g><g transform="translate(-628 -167)"><circle cx="0.5" cy="0.5" r="0.5" transform="translate(664 239)"/></g><g transform="translate(-622 -167)"><circle cx="0.5" cy="0.5" r="0.5" transform="translate(664 239)"/></g><g transform="translate(-616 -167)"><circle cx="0.5" cy="0.5" r="0.5" transform="translate(664 239)"/></g><g transform="translate(-610 -167)"><circle cx="0.5" cy="0.5" r="0.5" transform="translate(664 239)"/></g><g transform="translate(-604 -167)"><circle cx="0.5" cy="0.5" r="0.5" transform="translate(664 239)"/></g><g transform="translate(-598 -167)"><circle cx="0.5" cy="0.5" r="0.5" transform="translate(664 239)"/></g><g transform="translate(-592 -167)"><circle cx="0.5" cy="0.5" r="0.5" transform="translate(664 239)"/></g><g transform="translate(-586 -167)"><circle cx="0.5" cy="0.5" r="0.5" transform="translate(664 239)"/></g><g transform="translate(-580 -167)"><circle cx="0.5" cy="0.5" r="0.5" transform="translate(664 239)"/></g><g transform="translate(-664 -161)"><circle cx="0.5" cy="0.5" r="0.5" transform="translate(664 239)"/></g><g transform="translate(-658 -161)"><circle cx="0.5" cy="0.5" r="0.5" transform="translate(664 239)"/></g><g transform="translate(-652 -161)"><circle cx="0.5" cy="0.5" r="0.5" transform="translate(664 239)"/></g><g transform="translate(-646 -161)"><circle cx="0.5" cy="0.5" r="0.5" transform="translate(664 239)"/></g><g transform="translate(-640 -161)"><circle cx="0.5" cy="0.5" r="0.5" transform="translate(664 239)"/></g><g transform="translate(-634 -161)"><circle cx="0.5" cy="0.5" r="0.5" transform="translate(664 239)"/></g><g transform="translate(-628 -161)"><circle cx="0.5" cy="0.5" r="0.5" transform="translate(664 239)"/></g><g transform="translate(-622 -161)"><circle cx="0.5" cy="0.5" r="0.5" transform="translate(664 239)"/></g><g transform="translate(-616 -161)"><circle cx="0.5" cy="0.5" r="0.5" transform="translate(664 239)"/></g><g transform="translate(-610 -161)"><circle cx="0.5" cy="0.5" r="0.5" transform="translate(664 239)"/></g><g transform="translate(-604 -161)"><circle cx="0.5" cy="0.5" r="0.5" transform="translate(664 239)"/></g><g transform="translate(-598 -161)"><circle cx="0.5" cy="0.5" r="0.5" transform="translate(664 239)"/></g><g transform="translate(-592 -161)"><circle cx="0.5" cy="0.5" r="0.5" transform="translate(664 239)"/></g><g transform="translate(-586 -161)"><circle cx="0.5" cy="0.5" r="0.5" transform="translate(664 239)"/></g><g transform="translate(-580 -161)"><circle cx="0.5" cy="0.5" r="0.5" transform="translate(664 239)"/></g><g transform="translate(-664 -155)"><circle cx="0.5" cy="0.5" r="0.5" transform="translate(664 239)"/></g><g transform="translate(-658 -155)"><circle cx="0.5" cy="0.5" r="0.5" transform="translate(664 239)"/></g><g transform="translate(-652 -155)"><circle cx="0.5" cy="0.5" r="0.5" transform="translate(664 239)"/></g><g transform="translate(-646 -155)"><circle cx="0.5" cy="0.5" r="0.5" transform="translate(664 239)"/></g><g transform="translate(-640 -155)"><circle cx="0.5" cy="0.5" r="0.5" transform="translate(664 239)"/></g><g transform="translate(-634 -155)"><circle cx="0.5" cy="0.5" r="0.5" transform="translate(664 239)"/></g><g transform="translate(-628 -155)"><circle cx="0.5" cy="0.5" r="0.5" transform="translate(664 239)"/></g><g transform="translate(-622 -155)"><circle cx="0.5" cy="0.5" r="0.5" transform="translate(664 239)"/></g><g transform="translate(-616 -155)"><circle cx="0.5" cy="0.5" r="0.5" transform="translate(664 239)"/></g><g transform="translate(-610 -155)"><circle cx="0.5" cy="0.5" r="0.5" transform="translate(664 239)"/></g><g transform="translate(-604 -155)"><circle cx="0.5" cy="0.5" r="0.5" transform="translate(664 239)"/></g><g transform="translate(-598 -155)"><circle cx="0.5" cy="0.5" r="0.5" transform="translate(664 239)"/></g><g transform="translate(-592 -155)"><circle cx="0.5" cy="0.5" r="0.5" transform="translate(664 239)"/></g><g transform="translate(-586 -155)"><circle cx="0.5" cy="0.5" r="0.5" transform="translate(664 239)"/></g><g transform="translate(-580 -155)"><circle cx="0.5" cy="0.5" r="0.5" transform="translate(664 239)"/></g><g transform="translate(-664 -149)"><circle cx="0.5" cy="0.5" r="0.5" transform="translate(664 239)"/></g><g transform="translate(-658 -149)"><circle cx="0.5" cy="0.5" r="0.5" transform="translate(664 239)"/></g><g transform="translate(-652 -149)"><circle cx="0.5" cy="0.5" r="0.5" transform="translate(664 239)"/></g><g transform="translate(-646 -149)"><circle cx="0.5" cy="0.5" r="0.5" transform="translate(664 239)"/></g><g transform="translate(-640 -149)"><circle cx="0.5" cy="0.5" r="0.5" transform="translate(664 239)"/></g><g transform="translate(-634 -149)"><circle cx="0.5" cy="0.5" r="0.5" transform="translate(664 239)"/></g><g transform="translate(-628 -149)"><circle cx="0.5" cy="0.5" r="0.5" transform="translate(664 239)"/></g><g transform="translate(-622 -149)"><circle cx="0.5" cy="0.5" r="0.5" transform="translate(664 239)"/></g><g transform="translate(-616 -149)"><circle cx="0.5" cy="0.5" r="0.5" transform="translate(664 239)"/></g><g transform="translate(-610 -149)"><circle cx="0.5" cy="0.5" r="0.5" transform="translate(664 239)"/></g><g transform="translate(-604 -149)"><circle cx="0.5" cy="0.5" r="0.5" transform="translate(664 239)"/></g><g transform="translate(-598 -149)"><circle cx="0.5" cy="0.5" r="0.5" transform="translate(664 239)"/></g><g transform="translate(-592 -149)"><circle cx="0.5" cy="0.5" r="0.5" transform="translate(664 239)"/></g><g transform="translate(-586 -149)"><circle cx="0.5" cy="0.5" r="0.5" transform="translate(664 239)"/></g><g transform="translate(-580 -149)"><circle cx="0.5" cy="0.5" r="0.5" transform="translate(664 239)"/></g><g transform="translate(-664 -143)"><circle cx="0.5" cy="0.5" r="0.5" transform="translate(664 239)"/></g><g transform="translate(-658 -143)"><circle cx="0.5" cy="0.5" r="0.5" transform="translate(664 239)"/></g><g transform="translate(-652 -143)"><circle cx="0.5" cy="0.5" r="0.5" transform="translate(664 239)"/></g><g transform="translate(-646 -143)"><circle cx="0.5" cy="0.5" r="0.5" transform="translate(664 239)"/></g><g transform="translate(-640 -143)"><circle cx="0.5" cy="0.5" r="0.5" transform="translate(664 239)"/></g><g transform="translate(-634 -143)"><circle cx="0.5" cy="0.5" r="0.5" transform="translate(664 239)"/></g><g transform="translate(-628 -143)"><circle cx="0.5" cy="0.5" r="0.5" transform="translate(664 239)"/></g><g transform="translate(-622 -143)"><circle cx="0.5" cy="0.5" r="0.5" transform="translate(664 239)"/></g><g transform="translate(-616 -143)"><circle cx="0.5" cy="0.5" r="0.5" transform="translate(664 239)"/></g><g transform="translate(-610 -143)"><circle cx="0.5" cy="0.5" r="0.5" transform="translate(664 239)"/></g><g transform="translate(-604 -143)"><circle cx="0.5" cy="0.5" r="0.5" transform="translate(664 239)"/></g><g transform="translate(-598 -143)"><circle cx="0.5" cy="0.5" r="0.5" transform="translate(664 239)"/></g><g transform="translate(-592 -143)"><circle cx="0.5" cy="0.5" r="0.5" transform="translate(664 239)"/></g><g transform="translate(-586 -143)"><circle cx="0.5" cy="0.5" r="0.5" transform="translate(664 239)"/></g><g transform="translate(-580 -143)"><circle cx="0.5" cy="0.5" r="0.5" transform="translate(664 239)"/></g><g transform="translate(-664 -137)"><circle cx="0.5" cy="0.5" r="0.5" transform="translate(664 239)"/></g><g transform="translate(-658 -137)"><circle cx="0.5" cy="0.5" r="0.5" transform="translate(664 239)"/></g><g transform="translate(-652 -137)"><circle cx="0.5" cy="0.5" r="0.5" transform="translate(664 239)"/></g><g transform="translate(-646 -137)"><circle cx="0.5" cy="0.5" r="0.5" transform="translate(664 239)"/></g><g transform="translate(-640 -137)"><circle cx="0.5" cy="0.5" r="0.5" transform="translate(664 239)"/></g><g transform="translate(-634 -137)"><circle cx="0.5" cy="0.5" r="0.5" transform="translate(664 239)"/></g><g transform="translate(-628 -137)"><circle cx="0.5" cy="0.5" r="0.5" transform="translate(664 239)"/></g><g transform="translate(-622 -137)"><circle cx="0.5" cy="0.5" r="0.5" transform="translate(664 239)"/></g><g transform="translate(-616 -137)"><circle cx="0.5" cy="0.5" r="0.5" transform="translate(664 239)"/></g><g transform="translate(-610 -137)"><circle cx="0.5" cy="0.5" r="0.5" transform="translate(664 239)"/></g><g transform="translate(-604 -137)"><circle cx="0.5" cy="0.5" r="0.5" transform="translate(664 239)"/></g><g transform="translate(-598 -137)"><circle cx="0.5" cy="0.5" r="0.5" transform="translate(664 239)"/></g><g transform="translate(-592 -137)"><circle cx="0.5" cy="0.5" r="0.5" transform="translate(664 239)"/></g><g transform="translate(-586 -137)"><circle cx="0.5" cy="0.5" r="0.5" transform="translate(664 239)"/></g><g transform="translate(-580 -137)"><circle cx="0.5" cy="0.5" r="0.5" transform="translate(664 239)"/></g><g transform="translate(-664 -131)"><circle cx="0.5" cy="0.5" r="0.5" transform="translate(664 239)"/></g><g transform="translate(-658 -131)"><circle cx="0.5" cy="0.5" r="0.5" transform="translate(664 239)"/></g><g transform="translate(-652 -131)"><circle cx="0.5" cy="0.5" r="0.5" transform="translate(664 239)"/></g><g transform="translate(-646 -131)"><circle cx="0.5" cy="0.5" r="0.5" transform="translate(664 239)"/></g><g transform="translate(-640 -131)"><circle cx="0.5" cy="0.5" r="0.5" transform="translate(664 239)"/></g><g transform="translate(-634 -131)"><circle cx="0.5" cy="0.5" r="0.5" transform="translate(664 239)"/></g><g transform="translate(-628 -131)"><circle cx="0.5" cy="0.5" r="0.5" transform="translate(664 239)"/></g><g transform="translate(-622 -131)"><circle cx="0.5" cy="0.5" r="0.5" transform="translate(664 239)"/></g><g transform="translate(-616 -131)"><circle cx="0.5" cy="0.5" r="0.5" transform="translate(664 239)"/></g><g transform="translate(-610 -131)"><circle cx="0.5" cy="0.5" r="0.5" transform="translate(664 239)"/></g><g transform="translate(-604 -131)"><circle cx="0.5" cy="0.5" r="0.5" transform="translate(664 239)"/></g><g transform="translate(-598 -131)"><circle cx="0.5" cy="0.5" r="0.5" transform="translate(664 239)"/></g><g transform="translate(-592 -131)"><circle cx="0.5" cy="0.5" r="0.5" transform="translate(664 239)"/></g><g transform="translate(-586 -131)"><circle cx="0.5" cy="0.5" r="0.5" transform="translate(664 239)"/></g><g transform="translate(-580 -131)"><circle cx="0.5" cy="0.5" r="0.5" transform="translate(664 239)"/></g><g transform="translate(-664 -125)"><circle cx="0.5" cy="0.5" r="0.5" transform="translate(664 239)"/></g><g transform="translate(-658 -125)"><circle cx="0.5" cy="0.5" r="0.5" transform="translate(664 239)"/></g><g transform="translate(-652 -125)"><circle cx="0.5" cy="0.5" r="0.5" transform="translate(664 239)"/></g><g transform="translate(-646 -125)"><circle cx="0.5" cy="0.5" r="0.5" transform="translate(664 239)"/></g><g transform="translate(-640 -125)"><circle cx="0.5" cy="0.5" r="0.5" transform="translate(664 239)"/></g><g transform="translate(-634 -125)"><circle cx="0.5" cy="0.5" r="0.5" transform="translate(664 239)"/></g><g transform="translate(-628 -125)"><circle cx="0.5" cy="0.5" r="0.5" transform="translate(664 239)"/></g><g transform="translate(-622 -125)"><circle cx="0.5" cy="0.5" r="0.5" transform="translate(664 239)"/></g><g transform="translate(-616 -125)"><circle cx="0.5" cy="0.5" r="0.5" transform="translate(664 239)"/></g><g transform="translate(-610 -125)"><circle cx="0.5" cy="0.5" r="0.5" transform="translate(664 239)"/></g><g transform="translate(-604 -125)"><circle cx="0.5" cy="0.5" r="0.5" transform="translate(664 239)"/></g><g transform="translate(-598 -125)"><circle cx="0.5" cy="0.5" r="0.5" transform="translate(664 239)"/></g><g transform="translate(-592 -125)"><circle cx="0.5" cy="0.5" r="0.5" transform="translate(664 239)"/></g><g transform="translate(-586 -125)"><circle cx="0.5" cy="0.5" r="0.5" transform="translate(664 239)"/></g><g transform="translate(-580 -125)"><circle cx="0.5" cy="0.5" r="0.5" transform="translate(664 239)"/></g><g transform="translate(-664 -119)"><circle cx="0.5" cy="0.5" r="0.5" transform="translate(664 239)"/></g><g transform="translate(-658 -119)"><circle cx="0.5" cy="0.5" r="0.5" transform="translate(664 239)"/></g><g transform="translate(-652 -119)"><circle cx="0.5" cy="0.5" r="0.5" transform="translate(664 239)"/></g><g transform="translate(-646 -119)"><circle cx="0.5" cy="0.5" r="0.5" transform="translate(664 239)"/></g><g transform="translate(-640 -119)"><circle cx="0.5" cy="0.5" r="0.5" transform="translate(664 239)"/></g><g transform="translate(-634 -119)"><circle cx="0.5" cy="0.5" r="0.5" transform="translate(664 239)"/></g><g transform="translate(-628 -119)"><circle cx="0.5" cy="0.5" r="0.5" transform="translate(664 239)"/></g><g transform="translate(-622 -119)"><circle cx="0.5" cy="0.5" r="0.5" transform="translate(664 239)"/></g><g transform="translate(-616 -119)"><circle cx="0.5" cy="0.5" r="0.5" transform="translate(664 239)"/></g><g transform="translate(-610 -119)"><circle cx="0.5" cy="0.5" r="0.5" transform="translate(664 239)"/></g><g transform="translate(-604 -119)"><circle cx="0.5" cy="0.5" r="0.5" transform="translate(664 239)"/></g><g transform="translate(-598 -119)"><circle cx="0.5" cy="0.5" r="0.5" transform="translate(664 239)"/></g><g transform="translate(-592 -119)"><circle cx="0.5" cy="0.5" r="0.5" transform="translate(664 239)"/></g><g transform="translate(-586 -119)"><circle cx="0.5" cy="0.5" r="0.5" transform="translate(664 239)"/></g><g transform="translate(-580 -119)"><circle cx="0.5" cy="0.5" r="0.5" transform="translate(664 239)"/></g><g transform="translate(-664 -113)"><circle cx="0.5" cy="0.5" r="0.5" transform="translate(664 239)"/></g><g transform="translate(-658 -113)"><circle cx="0.5" cy="0.5" r="0.5" transform="translate(664 239)"/></g><g transform="translate(-652 -113)"><circle cx="0.5" cy="0.5" r="0.5" transform="translate(664 239)"/></g><g transform="translate(-646 -113)"><circle cx="0.5" cy="0.5" r="0.5" transform="translate(664 239)"/></g><g transform="translate(-640 -113)"><circle cx="0.5" cy="0.5" r="0.5" transform="translate(664 239)"/></g><g transform="translate(-634 -113)"><circle cx="0.5" cy="0.5" r="0.5" transform="translate(664 239)"/></g><g transform="translate(-628 -113)"><circle cx="0.5" cy="0.5" r="0.5" transform="translate(664 239)"/></g><g transform="translate(-622 -113)"><circle cx="0.5" cy="0.5" r="0.5" transform="translate(664 239)"/></g><g transform="translate(-616 -113)"><circle cx="0.5" cy="0.5" r="0.5" transform="translate(664 239)"/></g><g transform="translate(-610 -113)"><circle cx="0.5" cy="0.5" r="0.5" transform="translate(664 239)"/></g><g transform="translate(-604 -113)"><circle cx="0.5" cy="0.5" r="0.5" transform="translate(664 239)"/></g><g transform="translate(-598 -113)"><circle cx="0.5" cy="0.5" r="0.5" transform="translate(664 239)"/></g><g transform="translate(-592 -113)"><circle cx="0.5" cy="0.5" r="0.5" transform="translate(664 239)"/></g><g transform="translate(-586 -113)"><circle cx="0.5" cy="0.5" r="0.5" transform="translate(664 239)"/></g><g transform="translate(-580 -113)"><circle cx="0.5" cy="0.5" r="0.5" transform="translate(664 239)"/></g><g transform="translate(-664 -107)"><circle cx="0.5" cy="0.5" r="0.5" transform="translate(664 239)"/></g><g transform="translate(-658 -107)"><circle cx="0.5" cy="0.5" r="0.5" transform="translate(664 239)"/></g><g transform="translate(-652 -107)"><circle cx="0.5" cy="0.5" r="0.5" transform="translate(664 239)"/></g><g transform="translate(-646 -107)"><circle cx="0.5" cy="0.5" r="0.5" transform="translate(664 239)"/></g><g transform="translate(-640 -107)"><circle cx="0.5" cy="0.5" r="0.5" transform="translate(664 239)"/></g><g transform="translate(-634 -107)"><circle cx="0.5" cy="0.5" r="0.5" transform="translate(664 239)"/></g><g transform="translate(-628 -107)"><circle cx="0.5" cy="0.5" r="0.5" transform="translate(664 239)"/></g><g transform="translate(-622 -107)"><circle cx="0.5" cy="0.5" r="0.5" transform="translate(664 239)"/></g><g transform="translate(-616 -107)"><circle cx="0.5" cy="0.5" r="0.5" transform="translate(664 239)"/></g><g transform="translate(-610 -107)"><circle cx="0.5" cy="0.5" r="0.5" transform="translate(664 239)"/></g><g transform="translate(-604 -107)"><circle cx="0.5" cy="0.5" r="0.5" transform="translate(664 239)"/></g><g transform="translate(-598 -107)"><circle cx="0.5" cy="0.5" r="0.5" transform="translate(664 239)"/></g><g transform="translate(-592 -107)"><circle cx="0.5" cy="0.5" r="0.5" transform="translate(664 239)"/></g><g transform="translate(-586 -107)"><circle cx="0.5" cy="0.5" r="0.5" transform="translate(664 239)"/></g><g transform="translate(-580 -107)"><circle cx="0.5" cy="0.5" r="0.5" transform="translate(664 239)"/></g><g transform="translate(-664 -101)"><circle cx="0.5" cy="0.5" r="0.5" transform="translate(664 239)"/></g><g transform="translate(-658 -101)"><circle cx="0.5" cy="0.5" r="0.5" transform="translate(664 239)"/></g><g transform="translate(-652 -101)"><circle cx="0.5" cy="0.5" r="0.5" transform="translate(664 239)"/></g><g transform="translate(-646 -101)"><circle cx="0.5" cy="0.5" r="0.5" transform="translate(664 239)"/></g><g transform="translate(-640 -101)"><circle cx="0.5" cy="0.5" r="0.5" transform="translate(664 239)"/></g><g transform="translate(-634 -101)"><circle cx="0.5" cy="0.5" r="0.5" transform="translate(664 239)"/></g><g transform="translate(-628 -101)"><circle cx="0.5" cy="0.5" r="0.5" transform="translate(664 239)"/></g><g transform="translate(-622 -101)"><circle cx="0.5" cy="0.5" r="0.5" transform="translate(664 239)"/></g><g transform="translate(-616 -101)"><circle cx="0.5" cy="0.5" r="0.5" transform="translate(664 239)"/></g><g transform="translate(-610 -101)"><circle cx="0.5" cy="0.5" r="0.5" transform="translate(664 239)"/></g><g transform="translate(-604 -101)"><circle cx="0.5" cy="0.5" r="0.5" transform="translate(664 239)"/></g><g transform="translate(-598 -101)"><circle cx="0.5" cy="0.5" r="0.5" transform="translate(664 239)"/></g><g transform="translate(-592 -101)"><circle cx="0.5" cy="0.5" r="0.5" transform="translate(664 239)"/></g><g transform="translate(-586 -101)"><circle cx="0.5" cy="0.5" r="0.5" transform="translate(664 239)"/></g><g transform="translate(-580 -101)"><circle cx="0.5" cy="0.5" r="0.5" transform="translate(664 239)"/></g><g transform="translate(-664 -95)"><circle cx="0.5" cy="0.5" r="0.5" transform="translate(664 239)"/></g><g transform="translate(-658 -95)"><circle cx="0.5" cy="0.5" r="0.5" transform="translate(664 239)"/></g><g transform="translate(-652 -95)"><circle cx="0.5" cy="0.5" r="0.5" transform="translate(664 239)"/></g><g transform="translate(-646 -95)"><circle cx="0.5" cy="0.5" r="0.5" transform="translate(664 239)"/></g><g transform="translate(-640 -95)"><circle cx="0.5" cy="0.5" r="0.5" transform="translate(664 239)"/></g><g transform="translate(-634 -95)"><circle cx="0.5" cy="0.5" r="0.5" transform="translate(664 239)"/></g><g transform="translate(-628 -95)"><circle cx="0.5" cy="0.5" r="0.5" transform="translate(664 239)"/></g><g transform="translate(-622 -95)"><circle cx="0.5" cy="0.5" r="0.5" transform="translate(664 239)"/></g><g transform="translate(-616 -95)"><circle cx="0.5" cy="0.5" r="0.5" transform="translate(664 239)"/></g><g transform="translate(-610 -95)"><circle cx="0.5" cy="0.5" r="0.5" transform="translate(664 239)"/></g><g transform="translate(-604 -95)"><circle cx="0.5" cy="0.5" r="0.5" transform="translate(664 239)"/></g><g transform="translate(-598 -95)"><circle cx="0.5" cy="0.5" r="0.5" transform="translate(664 239)"/></g><g transform="translate(-592 -95)"><circle cx="0.5" cy="0.5" r="0.5" transform="translate(664 239)"/></g><g transform="translate(-586 -95)"><circle cx="0.5" cy="0.5" r="0.5" transform="translate(664 239)"/></g><g transform="translate(-580 -95)"><circle cx="0.5" cy="0.5" r="0.5" transform="translate(664 239)"/></g><g transform="translate(-664 -89)"><circle cx="0.5" cy="0.5" r="0.5" transform="translate(664 239)"/></g><g transform="translate(-658 -89)"><circle cx="0.5" cy="0.5" r="0.5" transform="translate(664 239)"/></g><g transform="translate(-652 -89)"><circle cx="0.5" cy="0.5" r="0.5" transform="translate(664 239)"/></g><g transform="translate(-646 -89)"><circle cx="0.5" cy="0.5" r="0.5" transform="translate(664 239)"/></g><g transform="translate(-640 -89)"><circle cx="0.5" cy="0.5" r="0.5" transform="translate(664 239)"/></g><g transform="translate(-634 -89)"><circle cx="0.5" cy="0.5" r="0.5" transform="translate(664 239)"/></g><g transform="translate(-628 -89)"><circle cx="0.5" cy="0.5" r="0.5" transform="translate(664 239)"/></g><g transform="translate(-622 -89)"><circle cx="0.5" cy="0.5" r="0.5" transform="translate(664 239)"/></g><g transform="translate(-616 -89)"><circle cx="0.5" cy="0.5" r="0.5" transform="translate(664 239)"/></g><g transform="translate(-610 -89)"><circle cx="0.5" cy="0.5" r="0.5" transform="translate(664 239)"/></g><g transform="translate(-604 -89)"><circle cx="0.5" cy="0.5" r="0.5" transform="translate(664 239)"/></g><g transform="translate(-598 -89)"><circle cx="0.5" cy="0.5" r="0.5" transform="translate(664 239)"/></g><g transform="translate(-592 -89)"><circle cx="0.5" cy="0.5" r="0.5" transform="translate(664 239)"/></g><g transform="translate(-586 -89)"><circle cx="0.5" cy="0.5" r="0.5" transform="translate(664 239)"/></g><g transform="translate(-580 -89)"><circle cx="0.5" cy="0.5" r="0.5" transform="translate(664 239)"/></g></g></g></g><g transform="translate(1057.999 563)"><path class="b" d="M14.968,218.9a14.045,14.045,0,0,1-2.8-.28,13.862,13.862,0,0,1-9.986-8.149,13.676,13.676,0,0,1-.808-2.591A13.827,13.827,0,0,1,1.1,205.1V73.245H.548A.547.547,0,0,1,0,72.7V60.4a.547.547,0,0,1,.548-.545H1.1V55.938H.548A.547.547,0,0,1,0,55.392v-12.3a.548.548,0,0,1,.548-.546H1.1V32.937H.548A.547.547,0,0,1,0,32.391V26.47a.547.547,0,0,1,.548-.546H1.1V13.8a13.83,13.83,0,0,1,.282-2.782A13.7,13.7,0,0,1,3.466,6.085,13.866,13.866,0,0,1,12.172.28a14.047,14.047,0,0,1,2.8-.28H95.533a14.048,14.048,0,0,1,2.8.28,13.864,13.864,0,0,1,9.986,8.149,13.676,13.676,0,0,1,.808,2.591A13.83,13.83,0,0,1,109.4,13.8V41.267h.41a.548.548,0,0,1,.548.546v12.3a.548.548,0,0,1-.548.546h-.41V205.1a13.827,13.827,0,0,1-.282,2.782,13.7,13.7,0,0,1-2.087,4.936,13.875,13.875,0,0,1-11.5,6.085Z" transform="translate(0 0)"/><path class="b" d="M1.144,0h94.8a1.142,1.142,0,0,1,1.144,1.139V170.007a1.142,1.142,0,0,1-1.144,1.139H1.144A1.142,1.142,0,0,1,0,170.007V1.139A1.142,1.142,0,0,1,1.144,0Z" transform="translate(6.728 24.007)"/><path class="b" d="M1.739,0A1.731,1.731,0,1,1,0,1.731,1.735,1.735,0,0,1,1.739,0Z" transform="translate(38.541 11.252)"/><path class="b" d="M7.515,0A7.515,7.515,0,1,1,0,7.515,7.515,7.515,0,0,1,7.515,0Z" transform="translate(47.748 199.241)"/><path class="b" d="M.8,0H13.847a.8.8,0,1,1,0,1.594H.8A.8.8,0,1,1,.8,0Z" transform="translate(47.926 12.123)"/><path class="b" d="M1.144,0A1.139,1.139,0,1,1,0,1.139,1.142,1.142,0,0,1,1.144,0Z" transform="translate(54.106 5.746)"/><g class="c" transform="translate(15.078 36.036)"><g class="d" transform="translate(-2 -2)"><g transform="translate(-664 -239)"><circle cx="0.5" cy="0.5" r="0.5" transform="translate(664 239)"/></g><g transform="translate(-658 -239)"><circle cx="0.5" cy="0.5" r="0.5" transform="translate(664 239)"/></g><g transform="translate(-652 -239)"><circle cx="0.5" cy="0.5" r="0.5" transform="translate(664 239)"/></g><g transform="translate(-646 -239)"><circle cx="0.5" cy="0.5" r="0.5" transform="translate(664 239)"/></g><g transform="translate(-640 -239)"><circle cx="0.5" cy="0.5" r="0.5" transform="translate(664 239)"/></g><g transform="translate(-634 -239)"><circle cx="0.5" cy="0.5" r="0.5" transform="translate(664 239)"/></g><g transform="translate(-628 -239)"><circle cx="0.5" cy="0.5" r="0.5" transform="translate(664 239)"/></g><g transform="translate(-622 -239)"><circle cx="0.5" cy="0.5" r="0.5" transform="translate(664 239)"/></g><g transform="translate(-616 -239)"><circle cx="0.5" cy="0.5" r="0.5" transform="translate(664 239)"/></g><g transform="translate(-610 -239)"><circle cx="0.5" cy="0.5" r="0.5" transform="translate(664 239)"/></g><g transform="translate(-604 -239)"><circle cx="0.5" cy="0.5" r="0.5" transform="translate(664 239)"/></g><g transform="translate(-598 -239)"><circle cx="0.5" cy="0.5" r="0.5" transform="translate(664 239)"/></g><g transform="translate(-592 -239)"><circle cx="0.5" cy="0.5" r="0.5" transform="translate(664 239)"/></g><g transform="translate(-586 -239)"><circle cx="0.5" cy="0.5" r="0.5" transform="translate(664 239)"/></g><g transform="translate(-580 -239)"><circle cx="0.5" cy="0.5" r="0.5" transform="translate(664 239)"/></g><g transform="translate(-664 -233)"><circle cx="0.5" cy="0.5" r="0.5" transform="translate(664 239)"/></g><g transform="translate(-658 -233)"><circle cx="0.5" cy="0.5" r="0.5" transform="translate(664 239)"/></g><g transform="translate(-652 -233)"><circle cx="0.5" cy="0.5" r="0.5" transform="translate(664 239)"/></g><g transform="translate(-646 -233)"><circle cx="0.5" cy="0.5" r="0.5" transform="translate(664 239)"/></g><g transform="translate(-640 -233)"><circle cx="0.5" cy="0.5" r="0.5" transform="translate(664 239)"/></g><g transform="translate(-634 -233)"><circle cx="0.5" cy="0.5" r="0.5" transform="translate(664 239)"/></g><g transform="translate(-628 -233)"><circle cx="0.5" cy="0.5" r="0.5" transform="translate(664 239)"/></g><g transform="translate(-622 -233)"><circle cx="0.5" cy="0.5" r="0.5" transform="translate(664 239)"/></g><g transform="translate(-616 -233)"><circle cx="0.5" cy="0.5" r="0.5" transform="translate(664 239)"/></g><g transform="translate(-610 -233)"><circle cx="0.5" cy="0.5" r="0.5" transform="translate(664 239)"/></g><g transform="translate(-604 -233)"><circle cx="0.5" cy="0.5" r="0.5" transform="translate(664 239)"/></g><g transform="translate(-598 -233)"><circle cx="0.5" cy="0.5" r="0.5" transform="translate(664 239)"/></g><g transform="translate(-592 -233)"><circle cx="0.5" cy="0.5" r="0.5" transform="translate(664 239)"/></g><g transform="translate(-586 -233)"><circle cx="0.5" cy="0.5" r="0.5" transform="translate(664 239)"/></g><g transform="translate(-580 -233)"><circle cx="0.5" cy="0.5" r="0.5" transform="translate(664 239)"/></g><g transform="translate(-664 -227)"><circle cx="0.5" cy="0.5" r="0.5" transform="translate(664 239)"/></g><g transform="translate(-658 -227)"><circle cx="0.5" cy="0.5" r="0.5" transform="translate(664 239)"/></g><g transform="translate(-652 -227)"><circle cx="0.5" cy="0.5" r="0.5" transform="translate(664 239)"/></g><g transform="translate(-646 -227)"><circle cx="0.5" cy="0.5" r="0.5" transform="translate(664 239)"/></g><g transform="translate(-640 -227)"><circle cx="0.5" cy="0.5" r="0.5" transform="translate(664 239)"/></g><g transform="translate(-634 -227)"><circle cx="0.5" cy="0.5" r="0.5" transform="translate(664 239)"/></g><g transform="translate(-628 -227)"><circle cx="0.5" cy="0.5" r="0.5" transform="translate(664 239)"/></g><g transform="translate(-622 -227)"><circle cx="0.5" cy="0.5" r="0.5" transform="translate(664 239)"/></g><g transform="translate(-616 -227)"><circle cx="0.5" cy="0.5" r="0.5" transform="translate(664 239)"/></g><g transform="translate(-610 -227)"><circle cx="0.5" cy="0.5" r="0.5" transform="translate(664 239)"/></g><g transform="translate(-604 -227)"><circle cx="0.5" cy="0.5" r="0.5" transform="translate(664 239)"/></g><g transform="translate(-598 -227)"><circle cx="0.5" cy="0.5" r="0.5" transform="translate(664 239)"/></g><g transform="translate(-592 -227)"><circle cx="0.5" cy="0.5" r="0.5" transform="translate(664 239)"/></g><g transform="translate(-586 -227)"><circle cx="0.5" cy="0.5" r="0.5" transform="translate(664 239)"/></g><g transform="translate(-580 -227)"><circle cx="0.5" cy="0.5" r="0.5" transform="translate(664 239)"/></g><g transform="translate(-664 -221)"><circle cx="0.5" cy="0.5" r="0.5" transform="translate(664 239)"/></g><g transform="translate(-658 -221)"><circle cx="0.5" cy="0.5" r="0.5" transform="translate(664 239)"/></g><g transform="translate(-652 -221)"><circle cx="0.5" cy="0.5" r="0.5" transform="translate(664 239)"/></g><g transform="translate(-646 -221)"><circle cx="0.5" cy="0.5" r="0.5" transform="translate(664 239)"/></g><g transform="translate(-640 -221)"><circle cx="0.5" cy="0.5" r="0.5" transform="translate(664 239)"/></g><g transform="translate(-634 -221)"><circle cx="0.5" cy="0.5" r="0.5" transform="translate(664 239)"/></g><g transform="translate(-628 -221)"><circle cx="0.5" cy="0.5" r="0.5" transform="translate(664 239)"/></g><g transform="translate(-622 -221)"><circle cx="0.5" cy="0.5" r="0.5" transform="translate(664 239)"/></g><g transform="translate(-616 -221)"><circle cx="0.5" cy="0.5" r="0.5" transform="translate(664 239)"/></g><g transform="translate(-610 -221)"><circle cx="0.5" cy="0.5" r="0.5" transform="translate(664 239)"/></g><g transform="translate(-604 -221)"><circle cx="0.5" cy="0.5" r="0.5" transform="translate(664 239)"/></g><g transform="translate(-598 -221)"><circle cx="0.5" cy="0.5" r="0.5" transform="translate(664 239)"/></g><g transform="translate(-592 -221)"><circle cx="0.5" cy="0.5" r="0.5" transform="translate(664 239)"/></g><g transform="translate(-586 -221)"><circle cx="0.5" cy="0.5" r="0.5" transform="translate(664 239)"/></g><g transform="translate(-580 -221)"><circle cx="0.5" cy="0.5" r="0.5" transform="translate(664 239)"/></g><g transform="translate(-664 -215)"><circle cx="0.5" cy="0.5" r="0.5" transform="translate(664 239)"/></g><g transform="translate(-658 -215)"><circle cx="0.5" cy="0.5" r="0.5" transform="translate(664 239)"/></g><g transform="translate(-652 -215)"><circle cx="0.5" cy="0.5" r="0.5" transform="translate(664 239)"/></g><g transform="translate(-646 -215)"><circle cx="0.5" cy="0.5" r="0.5" transform="translate(664 239)"/></g><g transform="translate(-640 -215)"><circle cx="0.5" cy="0.5" r="0.5" transform="translate(664 239)"/></g><g transform="translate(-634 -215)"><circle cx="0.5" cy="0.5" r="0.5" transform="translate(664 239)"/></g><g transform="translate(-628 -215)"><circle cx="0.5" cy="0.5" r="0.5" transform="translate(664 239)"/></g><g transform="translate(-622 -215)"><circle cx="0.5" cy="0.5" r="0.5" transform="translate(664 239)"/></g><g transform="translate(-616 -215)"><circle cx="0.5" cy="0.5" r="0.5" transform="translate(664 239)"/></g><g transform="translate(-610 -215)"><circle cx="0.5" cy="0.5" r="0.5" transform="translate(664 239)"/></g><g transform="translate(-604 -215)"><circle cx="0.5" cy="0.5" r="0.5" transform="translate(664 239)"/></g><g transform="translate(-598 -215)"><circle cx="0.5" cy="0.5" r="0.5" transform="translate(664 239)"/></g><g transform="translate(-592 -215)"><circle cx="0.5" cy="0.5" r="0.5" transform="translate(664 239)"/></g><g transform="translate(-586 -215)"><circle cx="0.5" cy="0.5" r="0.5" transform="translate(664 239)"/></g><g transform="translate(-580 -215)"><circle cx="0.5" cy="0.5" r="0.5" transform="translate(664 239)"/></g><g transform="translate(-664 -209)"><circle cx="0.5" cy="0.5" r="0.5" transform="translate(664 239)"/></g><g transform="translate(-658 -209)"><circle cx="0.5" cy="0.5" r="0.5" transform="translate(664 239)"/></g><g transform="translate(-652 -209)"><circle cx="0.5" cy="0.5" r="0.5" transform="translate(664 239)"/></g><g transform="translate(-646 -209)"><circle cx="0.5" cy="0.5" r="0.5" transform="translate(664 239)"/></g><g transform="translate(-640 -209)"><circle cx="0.5" cy="0.5" r="0.5" transform="translate(664 239)"/></g><g transform="translate(-634 -209)"><circle cx="0.5" cy="0.5" r="0.5" transform="translate(664 239)"/></g><g transform="translate(-628 -209)"><circle cx="0.5" cy="0.5" r="0.5" transform="translate(664 239)"/></g><g transform="translate(-622 -209)"><circle cx="0.5" cy="0.5" r="0.5" transform="translate(664 239)"/></g><g transform="translate(-616 -209)"><circle cx="0.5" cy="0.5" r="0.5" transform="translate(664 239)"/></g><g transform="translate(-610 -209)"><circle cx="0.5" cy="0.5" r="0.5" transform="translate(664 239)"/></g><g transform="translate(-604 -209)"><circle cx="0.5" cy="0.5" r="0.5" transform="translate(664 239)"/></g><g transform="translate(-598 -209)"><circle cx="0.5" cy="0.5" r="0.5" transform="translate(664 239)"/></g><g transform="translate(-592 -209)"><circle cx="0.5" cy="0.5" r="0.5" transform="translate(664 239)"/></g><g transform="translate(-586 -209)"><circle cx="0.5" cy="0.5" r="0.5" transform="translate(664 239)"/></g><g transform="translate(-580 -209)"><circle cx="0.5" cy="0.5" r="0.5" transform="translate(664 239)"/></g><g transform="translate(-664 -203)"><circle cx="0.5" cy="0.5" r="0.5" transform="translate(664 239)"/></g><g transform="translate(-658 -203)"><circle cx="0.5" cy="0.5" r="0.5" transform="translate(664 239)"/></g><g transform="translate(-652 -203)"><circle cx="0.5" cy="0.5" r="0.5" transform="translate(664 239)"/></g><g transform="translate(-646 -203)"><circle cx="0.5" cy="0.5" r="0.5" transform="translate(664 239)"/></g><g transform="translate(-640 -203)"><circle cx="0.5" cy="0.5" r="0.5" transform="translate(664 239)"/></g><g transform="translate(-634 -203)"><circle cx="0.5" cy="0.5" r="0.5" transform="translate(664 239)"/></g><g transform="translate(-628 -203)"><circle cx="0.5" cy="0.5" r="0.5" transform="translate(664 239)"/></g><g transform="translate(-622 -203)"><circle cx="0.5" cy="0.5" r="0.5" transform="translate(664 239)"/></g><g transform="translate(-616 -203)"><circle cx="0.5" cy="0.5" r="0.5" transform="translate(664 239)"/></g><g transform="translate(-610 -203)"><circle cx="0.5" cy="0.5" r="0.5" transform="translate(664 239)"/></g><g transform="translate(-604 -203)"><circle cx="0.5" cy="0.5" r="0.5" transform="translate(664 239)"/></g><g transform="translate(-598 -203)"><circle cx="0.5" cy="0.5" r="0.5" transform="translate(664 239)"/></g><g transform="translate(-592 -203)"><circle cx="0.5" cy="0.5" r="0.5" transform="translate(664 239)"/></g><g transform="translate(-586 -203)"><circle cx="0.5" cy="0.5" r="0.5" transform="translate(664 239)"/></g><g transform="translate(-580 -203)"><circle cx="0.5" cy="0.5" r="0.5" transform="translate(664 239)"/></g><g transform="translate(-664 -197)"><circle cx="0.5" cy="0.5" r="0.5" transform="translate(664 239)"/></g><g transform="translate(-658 -197)"><circle cx="0.5" cy="0.5" r="0.5" transform="translate(664 239)"/></g><g transform="translate(-652 -197)"><circle cx="0.5" cy="0.5" r="0.5" transform="translate(664 239)"/></g><g transform="translate(-646 -197)"><circle cx="0.5" cy="0.5" r="0.5" transform="translate(664 239)"/></g><g transform="translate(-640 -197)"><circle cx="0.5" cy="0.5" r="0.5" transform="translate(664 239)"/></g><g transform="translate(-634 -197)"><circle cx="0.5" cy="0.5" r="0.5" transform="translate(664 239)"/></g><g transform="translate(-628 -197)"><circle cx="0.5" cy="0.5" r="0.5" transform="translate(664 239)"/></g><g transform="translate(-622 -197)"><circle cx="0.5" cy="0.5" r="0.5" transform="translate(664 239)"/></g><g transform="translate(-616 -197)"><circle cx="0.5" cy="0.5" r="0.5" transform="translate(664 239)"/></g><g transform="translate(-610 -197)"><circle cx="0.5" cy="0.5" r="0.5" transform="translate(664 239)"/></g><g transform="translate(-604 -197)"><circle cx="0.5" cy="0.5" r="0.5" transform="translate(664 239)"/></g><g transform="translate(-598 -197)"><circle cx="0.5" cy="0.5" r="0.5" transform="translate(664 239)"/></g><g transform="translate(-592 -197)"><circle cx="0.5" cy="0.5" r="0.5" transform="translate(664 239)"/></g><g transform="translate(-586 -197)"><circle cx="0.5" cy="0.5" r="0.5" transform="translate(664 239)"/></g><g transform="translate(-580 -197)"><circle cx="0.5" cy="0.5" r="0.5" transform="translate(664 239)"/></g><g transform="translate(-664 -191)"><circle cx="0.5" cy="0.5" r="0.5" transform="translate(664 239)"/></g><g transform="translate(-658 -191)"><circle cx="0.5" cy="0.5" r="0.5" transform="translate(664 239)"/></g><g transform="translate(-652 -191)"><circle cx="0.5" cy="0.5" r="0.5" transform="translate(664 239)"/></g><g transform="translate(-646 -191)"><circle cx="0.5" cy="0.5" r="0.5" transform="translate(664 239)"/></g><g transform="translate(-640 -191)"><circle cx="0.5" cy="0.5" r="0.5" transform="translate(664 239)"/></g><g transform="translate(-634 -191)"><circle cx="0.5" cy="0.5" r="0.5" transform="translate(664 239)"/></g><g transform="translate(-628 -191)"><circle cx="0.5" cy="0.5" r="0.5" transform="translate(664 239)"/></g><g transform="translate(-622 -191)"><circle cx="0.5" cy="0.5" r="0.5" transform="translate(664 239)"/></g><g transform="translate(-616 -191)"><circle cx="0.5" cy="0.5" r="0.5" transform="translate(664 239)"/></g><g transform="translate(-610 -191)"><circle cx="0.5" cy="0.5" r="0.5" transform="translate(664 239)"/></g><g transform="translate(-604 -191)"><circle cx="0.5" cy="0.5" r="0.5" transform="translate(664 239)"/></g><g transform="translate(-598 -191)"><circle cx="0.5" cy="0.5" r="0.5" transform="translate(664 239)"/></g><g transform="translate(-592 -191)"><circle cx="0.5" cy="0.5" r="0.5" transform="translate(664 239)"/></g><g transform="translate(-586 -191)"><circle cx="0.5" cy="0.5" r="0.5" transform="translate(664 239)"/></g><g transform="translate(-580 -191)"><circle cx="0.5" cy="0.5" r="0.5" transform="translate(664 239)"/></g><g transform="translate(-664 -185)"><circle cx="0.5" cy="0.5" r="0.5" transform="translate(664 239)"/></g><g transform="translate(-658 -185)"><circle cx="0.5" cy="0.5" r="0.5" transform="translate(664 239)"/></g><g transform="translate(-652 -185)"><circle cx="0.5" cy="0.5" r="0.5" transform="translate(664 239)"/></g><g transform="translate(-646 -185)"><circle cx="0.5" cy="0.5" r="0.5" transform="translate(664 239)"/></g><g transform="translate(-640 -185)"><circle cx="0.5" cy="0.5" r="0.5" transform="translate(664 239)"/></g><g transform="translate(-634 -185)"><circle cx="0.5" cy="0.5" r="0.5" transform="translate(664 239)"/></g><g transform="translate(-628 -185)"><circle cx="0.5" cy="0.5" r="0.5" transform="translate(664 239)"/></g><g transform="translate(-622 -185)"><circle cx="0.5" cy="0.5" r="0.5" transform="translate(664 239)"/></g><g transform="translate(-616 -185)"><circle cx="0.5" cy="0.5" r="0.5" transform="translate(664 239)"/></g><g transform="translate(-610 -185)"><circle cx="0.5" cy="0.5" r="0.5" transform="translate(664 239)"/></g><g transform="translate(-604 -185)"><circle cx="0.5" cy="0.5" r="0.5" transform="translate(664 239)"/></g><g transform="translate(-598 -185)"><circle cx="0.5" cy="0.5" r="0.5" transform="translate(664 239)"/></g><g transform="translate(-592 -185)"><circle cx="0.5" cy="0.5" r="0.5" transform="translate(664 239)"/></g><g transform="translate(-586 -185)"><circle cx="0.5" cy="0.5" r="0.5" transform="translate(664 239)"/></g><g transform="translate(-580 -185)"><circle cx="0.5" cy="0.5" r="0.5" transform="translate(664 239)"/></g><g transform="translate(-664 -179)"><circle cx="0.5" cy="0.5" r="0.5" transform="translate(664 239)"/></g><g transform="translate(-658 -179)"><circle cx="0.5" cy="0.5" r="0.5" transform="translate(664 239)"/></g><g transform="translate(-652 -179)"><circle cx="0.5" cy="0.5" r="0.5" transform="translate(664 239)"/></g><g transform="translate(-646 -179)"><circle cx="0.5" cy="0.5" r="0.5" transform="translate(664 239)"/></g><g transform="translate(-640 -179)"><circle cx="0.5" cy="0.5" r="0.5" transform="translate(664 239)"/></g><g transform="translate(-634 -179)"><circle cx="0.5" cy="0.5" r="0.5" transform="translate(664 239)"/></g><g transform="translate(-628 -179)"><circle cx="0.5" cy="0.5" r="0.5" transform="translate(664 239)"/></g><g transform="translate(-622 -179)"><circle cx="0.5" cy="0.5" r="0.5" transform="translate(664 239)"/></g><g transform="translate(-616 -179)"><circle cx="0.5" cy="0.5" r="0.5" transform="translate(664 239)"/></g><g transform="translate(-610 -179)"><circle cx="0.5" cy="0.5" r="0.5" transform="translate(664 239)"/></g><g transform="translate(-604 -179)"><circle cx="0.5" cy="0.5" r="0.5" transform="translate(664 239)"/></g><g transform="translate(-598 -179)"><circle cx="0.5" cy="0.5" r="0.5" transform="translate(664 239)"/></g><g transform="translate(-592 -179)"><circle cx="0.5" cy="0.5" r="0.5" transform="translate(664 239)"/></g><g transform="translate(-586 -179)"><circle cx="0.5" cy="0.5" r="0.5" transform="translate(664 239)"/></g><g transform="translate(-580 -179)"><circle cx="0.5" cy="0.5" r="0.5" transform="translate(664 239)"/></g><g transform="translate(-664 -173)"><circle cx="0.5" cy="0.5" r="0.5" transform="translate(664 239)"/></g><g transform="translate(-658 -173)"><circle cx="0.5" cy="0.5" r="0.5" transform="translate(664 239)"/></g><g transform="translate(-652 -173)"><circle cx="0.5" cy="0.5" r="0.5" transform="translate(664 239)"/></g><g transform="translate(-646 -173)"><circle cx="0.5" cy="0.5" r="0.5" transform="translate(664 239)"/></g><g transform="translate(-640 -173)"><circle cx="0.5" cy="0.5" r="0.5" transform="translate(664 239)"/></g><g transform="translate(-634 -173)"><circle cx="0.5" cy="0.5" r="0.5" transform="translate(664 239)"/></g><g transform="translate(-628 -173)"><circle cx="0.5" cy="0.5" r="0.5" transform="translate(664 239)"/></g><g transform="translate(-622 -173)"><circle cx="0.5" cy="0.5" r="0.5" transform="translate(664 239)"/></g><g transform="translate(-616 -173)"><circle cx="0.5" cy="0.5" r="0.5" transform="translate(664 239)"/></g><g transform="translate(-610 -173)"><circle cx="0.5" cy="0.5" r="0.5" transform="translate(664 239)"/></g><g transform="translate(-604 -173)"><circle cx="0.5" cy="0.5" r="0.5" transform="translate(664 239)"/></g><g transform="translate(-598 -173)"><circle cx="0.5" cy="0.5" r="0.5" transform="translate(664 239)"/></g><g transform="translate(-592 -173)"><circle cx="0.5" cy="0.5" r="0.5" transform="translate(664 239)"/></g><g transform="translate(-586 -173)"><circle cx="0.5" cy="0.5" r="0.5" transform="translate(664 239)"/></g><g transform="translate(-580 -173)"><circle cx="0.5" cy="0.5" r="0.5" transform="translate(664 239)"/></g><g transform="translate(-664 -167)"><circle cx="0.5" cy="0.5" r="0.5" transform="translate(664 239)"/></g><g transform="translate(-658 -167)"><circle cx="0.5" cy="0.5" r="0.5" transform="translate(664 239)"/></g><g transform="translate(-652 -167)"><circle cx="0.5" cy="0.5" r="0.5" transform="translate(664 239)"/></g><g transform="translate(-646 -167)"><circle cx="0.5" cy="0.5" r="0.5" transform="translate(664 239)"/></g><g transform="translate(-640 -167)"><circle cx="0.5" cy="0.5" r="0.5" transform="translate(664 239)"/></g><g transform="translate(-634 -167)"><circle cx="0.5" cy="0.5" r="0.5" transform="translate(664 239)"/></g><g transform="translate(-628 -167)"><circle cx="0.5" cy="0.5" r="0.5" transform="translate(664 239)"/></g><g transform="translate(-622 -167)"><circle cx="0.5" cy="0.5" r="0.5" transform="translate(664 239)"/></g><g transform="translate(-616 -167)"><circle cx="0.5" cy="0.5" r="0.5" transform="translate(664 239)"/></g><g transform="translate(-610 -167)"><circle cx="0.5" cy="0.5" r="0.5" transform="translate(664 239)"/></g><g transform="translate(-604 -167)"><circle cx="0.5" cy="0.5" r="0.5" transform="translate(664 239)"/></g><g transform="translate(-598 -167)"><circle cx="0.5" cy="0.5" r="0.5" transform="translate(664 239)"/></g><g transform="translate(-592 -167)"><circle cx="0.5" cy="0.5" r="0.5" transform="translate(664 239)"/></g><g transform="translate(-586 -167)"><circle cx="0.5" cy="0.5" r="0.5" transform="translate(664 239)"/></g><g transform="translate(-580 -167)"><circle cx="0.5" cy="0.5" r="0.5" transform="translate(664 239)"/></g><g transform="translate(-664 -161)"><circle cx="0.5" cy="0.5" r="0.5" transform="translate(664 239)"/></g><g transform="translate(-658 -161)"><circle cx="0.5" cy="0.5" r="0.5" transform="translate(664 239)"/></g><g transform="translate(-652 -161)"><circle cx="0.5" cy="0.5" r="0.5" transform="translate(664 239)"/></g><g transform="translate(-646 -161)"><circle cx="0.5" cy="0.5" r="0.5" transform="translate(664 239)"/></g><g transform="translate(-640 -161)"><circle cx="0.5" cy="0.5" r="0.5" transform="translate(664 239)"/></g><g transform="translate(-634 -161)"><circle cx="0.5" cy="0.5" r="0.5" transform="translate(664 239)"/></g><g transform="translate(-628 -161)"><circle cx="0.5" cy="0.5" r="0.5" transform="translate(664 239)"/></g><g transform="translate(-622 -161)"><circle cx="0.5" cy="0.5" r="0.5" transform="translate(664 239)"/></g><g transform="translate(-616 -161)"><circle cx="0.5" cy="0.5" r="0.5" transform="translate(664 239)"/></g><g transform="translate(-610 -161)"><circle cx="0.5" cy="0.5" r="0.5" transform="translate(664 239)"/></g><g transform="translate(-604 -161)"><circle cx="0.5" cy="0.5" r="0.5" transform="translate(664 239)"/></g><g transform="translate(-598 -161)"><circle cx="0.5" cy="0.5" r="0.5" transform="translate(664 239)"/></g><g transform="translate(-592 -161)"><circle cx="0.5" cy="0.5" r="0.5" transform="translate(664 239)"/></g><g transform="translate(-586 -161)"><circle cx="0.5" cy="0.5" r="0.5" transform="translate(664 239)"/></g><g transform="translate(-580 -161)"><circle cx="0.5" cy="0.5" r="0.5" transform="translate(664 239)"/></g><g transform="translate(-664 -155)"><circle cx="0.5" cy="0.5" r="0.5" transform="translate(664 239)"/></g><g transform="translate(-658 -155)"><circle cx="0.5" cy="0.5" r="0.5" transform="translate(664 239)"/></g><g transform="translate(-652 -155)"><circle cx="0.5" cy="0.5" r="0.5" transform="translate(664 239)"/></g><g transform="translate(-646 -155)"><circle cx="0.5" cy="0.5" r="0.5" transform="translate(664 239)"/></g><g transform="translate(-640 -155)"><circle cx="0.5" cy="0.5" r="0.5" transform="translate(664 239)"/></g><g transform="translate(-634 -155)"><circle cx="0.5" cy="0.5" r="0.5" transform="translate(664 239)"/></g><g transform="translate(-628 -155)"><circle cx="0.5" cy="0.5" r="0.5" transform="translate(664 239)"/></g><g transform="translate(-622 -155)"><circle cx="0.5" cy="0.5" r="0.5" transform="translate(664 239)"/></g><g transform="translate(-616 -155)"><circle cx="0.5" cy="0.5" r="0.5" transform="translate(664 239)"/></g><g transform="translate(-610 -155)"><circle cx="0.5" cy="0.5" r="0.5" transform="translate(664 239)"/></g><g transform="translate(-604 -155)"><circle cx="0.5" cy="0.5" r="0.5" transform="translate(664 239)"/></g><g transform="translate(-598 -155)"><circle cx="0.5" cy="0.5" r="0.5" transform="translate(664 239)"/></g><g transform="translate(-592 -155)"><circle cx="0.5" cy="0.5" r="0.5" transform="translate(664 239)"/></g><g transform="translate(-586 -155)"><circle cx="0.5" cy="0.5" r="0.5" transform="translate(664 239)"/></g><g transform="translate(-580 -155)"><circle cx="0.5" cy="0.5" r="0.5" transform="translate(664 239)"/></g><g transform="translate(-664 -149)"><circle cx="0.5" cy="0.5" r="0.5" transform="translate(664 239)"/></g><g transform="translate(-658 -149)"><circle cx="0.5" cy="0.5" r="0.5" transform="translate(664 239)"/></g><g transform="translate(-652 -149)"><circle cx="0.5" cy="0.5" r="0.5" transform="translate(664 239)"/></g><g transform="translate(-646 -149)"><circle cx="0.5" cy="0.5" r="0.5" transform="translate(664 239)"/></g><g transform="translate(-640 -149)"><circle cx="0.5" cy="0.5" r="0.5" transform="translate(664 239)"/></g><g transform="translate(-634 -149)"><circle cx="0.5" cy="0.5" r="0.5" transform="translate(664 239)"/></g><g transform="translate(-628 -149)"><circle cx="0.5" cy="0.5" r="0.5" transform="translate(664 239)"/></g><g transform="translate(-622 -149)"><circle cx="0.5" cy="0.5" r="0.5" transform="translate(664 239)"/></g><g transform="translate(-616 -149)"><circle cx="0.5" cy="0.5" r="0.5" transform="translate(664 239)"/></g><g transform="translate(-610 -149)"><circle cx="0.5" cy="0.5" r="0.5" transform="translate(664 239)"/></g><g transform="translate(-604 -149)"><circle cx="0.5" cy="0.5" r="0.5" transform="translate(664 239)"/></g><g transform="translate(-598 -149)"><circle cx="0.5" cy="0.5" r="0.5" transform="translate(664 239)"/></g><g transform="translate(-592 -149)"><circle cx="0.5" cy="0.5" r="0.5" transform="translate(664 239)"/></g><g transform="translate(-586 -149)"><circle cx="0.5" cy="0.5" r="0.5" transform="translate(664 239)"/></g><g transform="translate(-580 -149)"><circle cx="0.5" cy="0.5" r="0.5" transform="translate(664 239)"/></g><g transform="translate(-664 -143)"><circle cx="0.5" cy="0.5" r="0.5" transform="translate(664 239)"/></g><g transform="translate(-658 -143)"><circle cx="0.5" cy="0.5" r="0.5" transform="translate(664 239)"/></g><g transform="translate(-652 -143)"><circle cx="0.5" cy="0.5" r="0.5" transform="translate(664 239)"/></g><g transform="translate(-646 -143)"><circle cx="0.5" cy="0.5" r="0.5" transform="translate(664 239)"/></g><g transform="translate(-640 -143)"><circle cx="0.5" cy="0.5" r="0.5" transform="translate(664 239)"/></g><g transform="translate(-634 -143)"><circle cx="0.5" cy="0.5" r="0.5" transform="translate(664 239)"/></g><g transform="translate(-628 -143)"><circle cx="0.5" cy="0.5" r="0.5" transform="translate(664 239)"/></g><g transform="translate(-622 -143)"><circle cx="0.5" cy="0.5" r="0.5" transform="translate(664 239)"/></g><g transform="translate(-616 -143)"><circle cx="0.5" cy="0.5" r="0.5" transform="translate(664 239)"/></g><g transform="translate(-610 -143)"><circle cx="0.5" cy="0.5" r="0.5" transform="translate(664 239)"/></g><g transform="translate(-604 -143)"><circle cx="0.5" cy="0.5" r="0.5" transform="translate(664 239)"/></g><g transform="translate(-598 -143)"><circle cx="0.5" cy="0.5" r="0.5" transform="translate(664 239)"/></g><g transform="translate(-592 -143)"><circle cx="0.5" cy="0.5" r="0.5" transform="translate(664 239)"/></g><g transform="translate(-586 -143)"><circle cx="0.5" cy="0.5" r="0.5" transform="translate(664 239)"/></g><g transform="translate(-580 -143)"><circle cx="0.5" cy="0.5" r="0.5" transform="translate(664 239)"/></g><g transform="translate(-664 -137)"><circle cx="0.5" cy="0.5" r="0.5" transform="translate(664 239)"/></g><g transform="translate(-658 -137)"><circle cx="0.5" cy="0.5" r="0.5" transform="translate(664 239)"/></g><g transform="translate(-652 -137)"><circle cx="0.5" cy="0.5" r="0.5" transform="translate(664 239)"/></g><g transform="translate(-646 -137)"><circle cx="0.5" cy="0.5" r="0.5" transform="translate(664 239)"/></g><g transform="translate(-640 -137)"><circle cx="0.5" cy="0.5" r="0.5" transform="translate(664 239)"/></g><g transform="translate(-634 -137)"><circle cx="0.5" cy="0.5" r="0.5" transform="translate(664 239)"/></g><g transform="translate(-628 -137)"><circle cx="0.5" cy="0.5" r="0.5" transform="translate(664 239)"/></g><g transform="translate(-622 -137)"><circle cx="0.5" cy="0.5" r="0.5" transform="translate(664 239)"/></g><g transform="translate(-616 -137)"><circle cx="0.5" cy="0.5" r="0.5" transform="translate(664 239)"/></g><g transform="translate(-610 -137)"><circle cx="0.5" cy="0.5" r="0.5" transform="translate(664 239)"/></g><g transform="translate(-604 -137)"><circle cx="0.5" cy="0.5" r="0.5" transform="translate(664 239)"/></g><g transform="translate(-598 -137)"><circle cx="0.5" cy="0.5" r="0.5" transform="translate(664 239)"/></g><g transform="translate(-592 -137)"><circle cx="0.5" cy="0.5" r="0.5" transform="translate(664 239)"/></g><g transform="translate(-586 -137)"><circle cx="0.5" cy="0.5" r="0.5" transform="translate(664 239)"/></g><g transform="translate(-580 -137)"><circle cx="0.5" cy="0.5" r="0.5" transform="translate(664 239)"/></g><g transform="translate(-664 -131)"><circle cx="0.5" cy="0.5" r="0.5" transform="translate(664 239)"/></g><g transform="translate(-658 -131)"><circle cx="0.5" cy="0.5" r="0.5" transform="translate(664 239)"/></g><g transform="translate(-652 -131)"><circle cx="0.5" cy="0.5" r="0.5" transform="translate(664 239)"/></g><g transform="translate(-646 -131)"><circle cx="0.5" cy="0.5" r="0.5" transform="translate(664 239)"/></g><g transform="translate(-640 -131)"><circle cx="0.5" cy="0.5" r="0.5" transform="translate(664 239)"/></g><g transform="translate(-634 -131)"><circle cx="0.5" cy="0.5" r="0.5" transform="translate(664 239)"/></g><g transform="translate(-628 -131)"><circle cx="0.5" cy="0.5" r="0.5" transform="translate(664 239)"/></g><g transform="translate(-622 -131)"><circle cx="0.5" cy="0.5" r="0.5" transform="translate(664 239)"/></g><g transform="translate(-616 -131)"><circle cx="0.5" cy="0.5" r="0.5" transform="translate(664 239)"/></g><g transform="translate(-610 -131)"><circle cx="0.5" cy="0.5" r="0.5" transform="translate(664 239)"/></g><g transform="translate(-604 -131)"><circle cx="0.5" cy="0.5" r="0.5" transform="translate(664 239)"/></g><g transform="translate(-598 -131)"><circle cx="0.5" cy="0.5" r="0.5" transform="translate(664 239)"/></g><g transform="translate(-592 -131)"><circle cx="0.5" cy="0.5" r="0.5" transform="translate(664 239)"/></g><g transform="translate(-586 -131)"><circle cx="0.5" cy="0.5" r="0.5" transform="translate(664 239)"/></g><g transform="translate(-580 -131)"><circle cx="0.5" cy="0.5" r="0.5" transform="translate(664 239)"/></g><g transform="translate(-664 -125)"><circle cx="0.5" cy="0.5" r="0.5" transform="translate(664 239)"/></g><g transform="translate(-658 -125)"><circle cx="0.5" cy="0.5" r="0.5" transform="translate(664 239)"/></g><g transform="translate(-652 -125)"><circle cx="0.5" cy="0.5" r="0.5" transform="translate(664 239)"/></g><g transform="translate(-646 -125)"><circle cx="0.5" cy="0.5" r="0.5" transform="translate(664 239)"/></g><g transform="translate(-640 -125)"><circle cx="0.5" cy="0.5" r="0.5" transform="translate(664 239)"/></g><g transform="translate(-634 -125)"><circle cx="0.5" cy="0.5" r="0.5" transform="translate(664 239)"/></g><g transform="translate(-628 -125)"><circle cx="0.5" cy="0.5" r="0.5" transform="translate(664 239)"/></g><g transform="translate(-622 -125)"><circle cx="0.5" cy="0.5" r="0.5" transform="translate(664 239)"/></g><g transform="translate(-616 -125)"><circle cx="0.5" cy="0.5" r="0.5" transform="translate(664 239)"/></g><g transform="translate(-610 -125)"><circle cx="0.5" cy="0.5" r="0.5" transform="translate(664 239)"/></g><g transform="translate(-604 -125)"><circle cx="0.5" cy="0.5" r="0.5" transform="translate(664 239)"/></g><g transform="translate(-598 -125)"><circle cx="0.5" cy="0.5" r="0.5" transform="translate(664 239)"/></g><g transform="translate(-592 -125)"><circle cx="0.5" cy="0.5" r="0.5" transform="translate(664 239)"/></g><g transform="translate(-586 -125)"><circle cx="0.5" cy="0.5" r="0.5" transform="translate(664 239)"/></g><g transform="translate(-580 -125)"><circle cx="0.5" cy="0.5" r="0.5" transform="translate(664 239)"/></g><g transform="translate(-664 -119)"><circle cx="0.5" cy="0.5" r="0.5" transform="translate(664 239)"/></g><g transform="translate(-658 -119)"><circle cx="0.5" cy="0.5" r="0.5" transform="translate(664 239)"/></g><g transform="translate(-652 -119)"><circle cx="0.5" cy="0.5" r="0.5" transform="translate(664 239)"/></g><g transform="translate(-646 -119)"><circle cx="0.5" cy="0.5" r="0.5" transform="translate(664 239)"/></g><g transform="translate(-640 -119)"><circle cx="0.5" cy="0.5" r="0.5" transform="translate(664 239)"/></g><g transform="translate(-634 -119)"><circle cx="0.5" cy="0.5" r="0.5" transform="translate(664 239)"/></g><g transform="translate(-628 -119)"><circle cx="0.5" cy="0.5" r="0.5" transform="translate(664 239)"/></g><g transform="translate(-622 -119)"><circle cx="0.5" cy="0.5" r="0.5" transform="translate(664 239)"/></g><g transform="translate(-616 -119)"><circle cx="0.5" cy="0.5" r="0.5" transform="translate(664 239)"/></g><g transform="translate(-610 -119)"><circle cx="0.5" cy="0.5" r="0.5" transform="translate(664 239)"/></g><g transform="translate(-604 -119)"><circle cx="0.5" cy="0.5" r="0.5" transform="translate(664 239)"/></g><g transform="translate(-598 -119)"><circle cx="0.5" cy="0.5" r="0.5" transform="translate(664 239)"/></g><g transform="translate(-592 -119)"><circle cx="0.5" cy="0.5" r="0.5" transform="translate(664 239)"/></g><g transform="translate(-586 -119)"><circle cx="0.5" cy="0.5" r="0.5" transform="translate(664 239)"/></g><g transform="translate(-580 -119)"><circle cx="0.5" cy="0.5" r="0.5" transform="translate(664 239)"/></g><g transform="translate(-664 -113)"><circle cx="0.5" cy="0.5" r="0.5" transform="translate(664 239)"/></g><g transform="translate(-658 -113)"><circle cx="0.5" cy="0.5" r="0.5" transform="translate(664 239)"/></g><g transform="translate(-652 -113)"><circle cx="0.5" cy="0.5" r="0.5" transform="translate(664 239)"/></g><g transform="translate(-646 -113)"><circle cx="0.5" cy="0.5" r="0.5" transform="translate(664 239)"/></g><g transform="translate(-640 -113)"><circle cx="0.5" cy="0.5" r="0.5" transform="translate(664 239)"/></g><g transform="translate(-634 -113)"><circle cx="0.5" cy="0.5" r="0.5" transform="translate(664 239)"/></g><g transform="translate(-628 -113)"><circle cx="0.5" cy="0.5" r="0.5" transform="translate(664 239)"/></g><g transform="translate(-622 -113)"><circle cx="0.5" cy="0.5" r="0.5" transform="translate(664 239)"/></g><g transform="translate(-616 -113)"><circle cx="0.5" cy="0.5" r="0.5" transform="translate(664 239)"/></g><g transform="translate(-610 -113)"><circle cx="0.5" cy="0.5" r="0.5" transform="translate(664 239)"/></g><g transform="translate(-604 -113)"><circle cx="0.5" cy="0.5" r="0.5" transform="translate(664 239)"/></g><g transform="translate(-598 -113)"><circle cx="0.5" cy="0.5" r="0.5" transform="translate(664 239)"/></g><g transform="translate(-592 -113)"><circle cx="0.5" cy="0.5" r="0.5" transform="translate(664 239)"/></g><g transform="translate(-586 -113)"><circle cx="0.5" cy="0.5" r="0.5" transform="translate(664 239)"/></g><g transform="translate(-580 -113)"><circle cx="0.5" cy="0.5" r="0.5" transform="translate(664 239)"/></g><g transform="translate(-664 -107)"><circle cx="0.5" cy="0.5" r="0.5" transform="translate(664 239)"/></g><g transform="translate(-658 -107)"><circle cx="0.5" cy="0.5" r="0.5" transform="translate(664 239)"/></g><g transform="translate(-652 -107)"><circle cx="0.5" cy="0.5" r="0.5" transform="translate(664 239)"/></g><g transform="translate(-646 -107)"><circle cx="0.5" cy="0.5" r="0.5" transform="translate(664 239)"/></g><g transform="translate(-640 -107)"><circle cx="0.5" cy="0.5" r="0.5" transform="translate(664 239)"/></g><g transform="translate(-634 -107)"><circle cx="0.5" cy="0.5" r="0.5" transform="translate(664 239)"/></g><g transform="translate(-628 -107)"><circle cx="0.5" cy="0.5" r="0.5" transform="translate(664 239)"/></g><g transform="translate(-622 -107)"><circle cx="0.5" cy="0.5" r="0.5" transform="translate(664 239)"/></g><g transform="translate(-616 -107)"><circle cx="0.5" cy="0.5" r="0.5" transform="translate(664 239)"/></g><g transform="translate(-610 -107)"><circle cx="0.5" cy="0.5" r="0.5" transform="translate(664 239)"/></g><g transform="translate(-604 -107)"><circle cx="0.5" cy="0.5" r="0.5" transform="translate(664 239)"/></g><g transform="translate(-598 -107)"><circle cx="0.5" cy="0.5" r="0.5" transform="translate(664 239)"/></g><g transform="translate(-592 -107)"><circle cx="0.5" cy="0.5" r="0.5" transform="translate(664 239)"/></g><g transform="translate(-586 -107)"><circle cx="0.5" cy="0.5" r="0.5" transform="translate(664 239)"/></g><g transform="translate(-580 -107)"><circle cx="0.5" cy="0.5" r="0.5" transform="translate(664 239)"/></g><g transform="translate(-664 -101)"><circle cx="0.5" cy="0.5" r="0.5" transform="translate(664 239)"/></g><g transform="translate(-658 -101)"><circle cx="0.5" cy="0.5" r="0.5" transform="translate(664 239)"/></g><g transform="translate(-652 -101)"><circle cx="0.5" cy="0.5" r="0.5" transform="translate(664 239)"/></g><g transform="translate(-646 -101)"><circle cx="0.5" cy="0.5" r="0.5" transform="translate(664 239)"/></g><g transform="translate(-640 -101)"><circle cx="0.5" cy="0.5" r="0.5" transform="translate(664 239)"/></g><g transform="translate(-634 -101)"><circle cx="0.5" cy="0.5" r="0.5" transform="translate(664 239)"/></g><g transform="translate(-628 -101)"><circle cx="0.5" cy="0.5" r="0.5" transform="translate(664 239)"/></g><g transform="translate(-622 -101)"><circle cx="0.5" cy="0.5" r="0.5" transform="translate(664 239)"/></g><g transform="translate(-616 -101)"><circle cx="0.5" cy="0.5" r="0.5" transform="translate(664 239)"/></g><g transform="translate(-610 -101)"><circle cx="0.5" cy="0.5" r="0.5" transform="translate(664 239)"/></g><g transform="translate(-604 -101)"><circle cx="0.5" cy="0.5" r="0.5" transform="translate(664 239)"/></g><g transform="translate(-598 -101)"><circle cx="0.5" cy="0.5" r="0.5" transform="translate(664 239)"/></g><g transform="translate(-592 -101)"><circle cx="0.5" cy="0.5" r="0.5" transform="translate(664 239)"/></g><g transform="translate(-586 -101)"><circle cx="0.5" cy="0.5" r="0.5" transform="translate(664 239)"/></g><g transform="translate(-580 -101)"><circle cx="0.5" cy="0.5" r="0.5" transform="translate(664 239)"/></g><g transform="translate(-664 -95)"><circle cx="0.5" cy="0.5" r="0.5" transform="translate(664 239)"/></g><g transform="translate(-658 -95)"><circle cx="0.5" cy="0.5" r="0.5" transform="translate(664 239)"/></g><g transform="translate(-652 -95)"><circle cx="0.5" cy="0.5" r="0.5" transform="translate(664 239)"/></g><g transform="translate(-646 -95)"><circle cx="0.5" cy="0.5" r="0.5" transform="translate(664 239)"/></g><g transform="translate(-640 -95)"><circle cx="0.5" cy="0.5" r="0.5" transform="translate(664 239)"/></g><g transform="translate(-634 -95)"><circle cx="0.5" cy="0.5" r="0.5" transform="translate(664 239)"/></g><g transform="translate(-628 -95)"><circle cx="0.5" cy="0.5" r="0.5" transform="translate(664 239)"/></g><g transform="translate(-622 -95)"><circle cx="0.5" cy="0.5" r="0.5" transform="translate(664 239)"/></g><g transform="translate(-616 -95)"><circle cx="0.5" cy="0.5" r="0.5" transform="translate(664 239)"/></g><g transform="translate(-610 -95)"><circle cx="0.5" cy="0.5" r="0.5" transform="translate(664 239)"/></g><g transform="translate(-604 -95)"><circle cx="0.5" cy="0.5" r="0.5" transform="translate(664 239)"/></g><g transform="translate(-598 -95)"><circle cx="0.5" cy="0.5" r="0.5" transform="translate(664 239)"/></g><g transform="translate(-592 -95)"><circle cx="0.5" cy="0.5" r="0.5" transform="translate(664 239)"/></g><g transform="translate(-586 -95)"><circle cx="0.5" cy="0.5" r="0.5" transform="translate(664 239)"/></g><g transform="translate(-580 -95)"><circle cx="0.5" cy="0.5" r="0.5" transform="translate(664 239)"/></g><g transform="translate(-664 -89)"><circle cx="0.5" cy="0.5" r="0.5" transform="translate(664 239)"/></g><g transform="translate(-658 -89)"><circle cx="0.5" cy="0.5" r="0.5" transform="translate(664 239)"/></g><g transform="translate(-652 -89)"><circle cx="0.5" cy="0.5" r="0.5" transform="translate(664 239)"/></g><g transform="translate(-646 -89)"><circle cx="0.5" cy="0.5" r="0.5" transform="translate(664 239)"/></g><g transform="translate(-640 -89)"><circle cx="0.5" cy="0.5" r="0.5" transform="translate(664 239)"/></g><g transform="translate(-634 -89)"><circle cx="0.5" cy="0.5" r="0.5" transform="translate(664 239)"/></g><g transform="translate(-628 -89)"><circle cx="0.5" cy="0.5" r="0.5" transform="translate(664 239)"/></g><g transform="translate(-622 -89)"><circle cx="0.5" cy="0.5" r="0.5" transform="translate(664 239)"/></g><g transform="translate(-616 -89)"><circle cx="0.5" cy="0.5" r="0.5" transform="translate(664 239)"/></g><g transform="translate(-610 -89)"><circle cx="0.5" cy="0.5" r="0.5" transform="translate(664 239)"/></g><g transform="translate(-604 -89)"><circle cx="0.5" cy="0.5" r="0.5" transform="translate(664 239)"/></g><g transform="translate(-598 -89)"><circle cx="0.5" cy="0.5" r="0.5" transform="translate(664 239)"/></g><g transform="translate(-592 -89)"><circle cx="0.5" cy="0.5" r="0.5" transform="translate(664 239)"/></g><g transform="translate(-586 -89)"><circle cx="0.5" cy="0.5" r="0.5" transform="translate(664 239)"/></g><g transform="translate(-580 -89)"><circle cx="0.5" cy="0.5" r="0.5" transform="translate(664 239)"/></g></g></g></g></g></svg>