<svg xmlns="http://www.w3.org/2000/svg" viewBox="483.499 -3133.5 373.362 219.9"><defs><style>.a{fill:none;stroke:#000;}</style></defs><g transform="translate(-584 -3696)"><g transform="translate(1067.999 563)"><path class="a" d="M14.968,218.9a14.045,14.045,0,0,1-2.8-.28,13.862,13.862,0,0,1-9.986-8.149,13.676,13.676,0,0,1-.808-2.591A13.827,13.827,0,0,1,1.1,205.1V73.245H.548A.547.547,0,0,1,0,72.7V60.4a.547.547,0,0,1,.548-.545H1.1V55.938H.548A.547.547,0,0,1,0,55.392v-12.3a.548.548,0,0,1,.548-.546H1.1V32.937H.548A.547.547,0,0,1,0,32.391V26.47a.547.547,0,0,1,.548-.546H1.1V13.8a13.83,13.83,0,0,1,.282-2.782A13.7,13.7,0,0,1,3.466,6.085,13.866,13.866,0,0,1,12.172.28a14.047,14.047,0,0,1,2.8-.28H95.533a14.048,14.048,0,0,1,2.8.28,13.864,13.864,0,0,1,9.986,8.149,13.676,13.676,0,0,1,.808,2.591A13.83,13.83,0,0,1,109.4,13.8V41.267h.41a.548.548,0,0,1,.548.546v12.3a.548.548,0,0,1-.548.546h-.41V205.1a13.827,13.827,0,0,1-.282,2.782,13.7,13.7,0,0,1-2.087,4.936,13.875,13.875,0,0,1-11.5,6.085Z" transform="translate(0 0)"/><path class="a" d="M1.144,0h94.8a1.142,1.142,0,0,1,1.144,1.139V170.007a1.142,1.142,0,0,1-1.144,1.139H1.144A1.142,1.142,0,0,1,0,170.007V1.139A1.142,1.142,0,0,1,1.144,0Z" transform="translate(6.728 24.007)"/><path class="a" d="M1.739,0A1.731,1.731,0,1,1,0,1.731,1.735,1.735,0,0,1,1.739,0Z" transform="translate(38.541 11.252)"/><path class="a" d="M7.515,0A7.515,7.515,0,1,1,0,7.515,7.515,7.515,0,0,1,7.515,0Z" transform="translate(47.748 199.241)"/><path class="a" d="M.8,0H13.847a.8.8,0,1,1,0,1.594H.8A.8.8,0,1,1,.8,0Z" transform="translate(47.926 12.123)"/><path class="a" d="M1.144,0A1.139,1.139,0,1,1,0,1.139,1.142,1.142,0,0,1,1.144,0Z" transform="translate(54.106 5.746)"/></g><g transform="translate(1198.999 563)"><path class="a" d="M14.968,218.9a14.045,14.045,0,0,1-2.8-.28,13.862,13.862,0,0,1-9.986-8.149,13.676,13.676,0,0,1-.808-2.591A13.827,13.827,0,0,1,1.1,205.1V73.245H.548A.547.547,0,0,1,0,72.7V60.4a.547.547,0,0,1,.548-.545H1.1V55.938H.548A.547.547,0,0,1,0,55.392v-12.3a.548.548,0,0,1,.548-.546H1.1V32.937H.548A.547.547,0,0,1,0,32.391V26.47a.547.547,0,0,1,.548-.546H1.1V13.8a13.83,13.83,0,0,1,.282-2.782A13.7,13.7,0,0,1,3.466,6.085,13.866,13.866,0,0,1,12.172.28a14.047,14.047,0,0,1,2.8-.28H95.533a14.048,14.048,0,0,1,2.8.28,13.864,13.864,0,0,1,9.986,8.149,13.676,13.676,0,0,1,.808,2.591A13.83,13.83,0,0,1,109.4,13.8V41.267h.41a.548.548,0,0,1,.548.546v12.3a.548.548,0,0,1-.548.546h-.41V205.1a13.827,13.827,0,0,1-.282,2.782,13.7,13.7,0,0,1-2.087,4.936,13.875,13.875,0,0,1-11.5,6.085Z" transform="translate(0 0)"/><path class="a" d="M1.144,0h94.8a1.142,1.142,0,0,1,1.144,1.139V170.007a1.142,1.142,0,0,1-1.144,1.139H1.144A1.142,1.142,0,0,1,0,170.007V1.139A1.142,1.142,0,0,1,1.144,0Z" transform="translate(6.728 24.007)"/><path class="a" d="M1.739,0A1.731,1.731,0,1,1,0,1.731,1.735,1.735,0,0,1,1.739,0Z" transform="translate(38.541 11.252)"/><path class="a" d="M7.515,0A7.515,7.515,0,1,1,0,7.515,7.515,7.515,0,0,1,7.515,0Z" transform="translate(47.748 199.241)"/><path class="a" d="M.8,0H13.847a.8.8,0,1,1,0,1.594H.8A.8.8,0,1,1,.8,0Z" transform="translate(47.926 12.123)"/><path class="a" d="M1.144,0A1.139,1.139,0,1,1,0,1.139,1.142,1.142,0,0,1,1.144,0Z" transform="translate(54.106 5.746)"/></g><g transform="translate(1329.999 563)"><path class="a" d="M14.968,218.9a14.045,14.045,0,0,1-2.8-.28,13.862,13.862,0,0,1-9.986-8.149,13.676,13.676,0,0,1-.808-2.591A13.827,13.827,0,0,1,1.1,205.1V73.245H.548A.547.547,0,0,1,0,72.7V60.4a.547.547,0,0,1,.548-.545H1.1V55.938H.548A.547.547,0,0,1,0,55.392v-12.3a.548.548,0,0,1,.548-.546H1.1V32.937H.548A.547.547,0,0,1,0,32.391V26.47a.547.547,0,0,1,.548-.546H1.1V13.8a13.83,13.83,0,0,1,.282-2.782A13.7,13.7,0,0,1,3.466,6.085,13.866,13.866,0,0,1,12.172.28a14.047,14.047,0,0,1,2.8-.28H95.533a14.048,14.048,0,0,1,2.8.28,13.864,13.864,0,0,1,9.986,8.149,13.676,13.676,0,0,1,.808,2.591A13.83,13.83,0,0,1,109.4,13.8V41.267h.41a.548.548,0,0,1,.548.546v12.3a.548.548,0,0,1-.548.546h-.41V205.1a13.827,13.827,0,0,1-.282,2.782,13.7,13.7,0,0,1-2.087,4.936,13.875,13.875,0,0,1-11.5,6.085Z" transform="translate(0 0)"/><path class="a" d="M1.144,0h94.8a1.142,1.142,0,0,1,1.144,1.139V170.007a1.142,1.142,0,0,1-1.144,1.139H1.144A1.142,1.142,0,0,1,0,170.007V1.139A1.142,1.142,0,0,1,1.144,0Z" transform="translate(6.728 24.007)"/><path class="a" d="M1.739,0A1.731,1.731,0,1,1,0,1.731,1.735,1.735,0,0,1,1.739,0Z" transform="translate(38.541 11.252)"/><path class="a" d="M7.515,0A7.515,7.515,0,1,1,0,7.515,7.515,7.515,0,0,1,7.515,0Z" transform="translate(47.748 199.241)"/><path class="a" d="M.8,0H13.847a.8.8,0,1,1,0,1.594H.8A.8.8,0,1,1,.8,0Z" transform="translate(47.926 12.123)"/><path class="a" d="M1.144,0A1.139,1.139,0,1,1,0,1.139,1.142,1.142,0,0,1,1.144,0Z" transform="translate(54.106 5.746)"/></g></g></svg>