<svg xmlns="http://www.w3.org/2000/svg" viewBox="-2313 -8118.2 1920 224.2">
  <path fill="#fff" d="M-393-7894h-1920v-50.4c1-.4 4.2-2 9.7-4 5.7-2.3 15.1-5.6 27-9a351.1 351.1 0 0 1 41.4-9 346.7 346.7 0 0 1 52.5-4c10.6 0 21.2.5 31.6 1.5a187.4 187.4 0 0 1 28.2 4.9 183 183 0 0 1 24 7.8c14.8 6 27.8 13.4 40.3 20.4 26.2 14.8 50.9 28.8 89 28.8a180.5 180.5 0 0 0 25.5-2 108 108 0 0 0 22.4-5.8 194 194 0 0 0 23.1-10.6 664.7 664.7 0 0 0 48.8-29.7c15.6-10.1 31.6-20.5 48.5-30a360 360 0 0 1 25.9-13.4 264.3 264.3 0 0 1 27-11c9.7-3.2 21.2-4.7 35.4-4.7a455 455 0 0 1 47.6 3.5c16 1.7 32.5 3.5 47.5 3.5a127.4 127.4 0 0 0 25.6-2.2c27.5-5.6 53.4-23.7 78.5-41a537 537 0 0 1 30.5-20.3 173 173 0 0 1 14.9-8 104.5 104.5 0 0 1 14.6-5.9 124.7 124.7 0 0 1 36.8-5.2c19 0 37.7 3.6 55.8 7 8.4 1.7 17.2 3.4 25.6 4.6a175.1 175.1 0 0 0 25.2 2 72.2 72.2 0 0 0 15-1.7 151.6 151.6 0 0 0 16.9-4.8c11.6-4 24.1-9.3 36.3-14.4a552.5 552.5 0 0 1 36.5-14.5 152.7 152.7 0 0 1 16.9-4.8 73 73 0 0 1 15.3-1.8h2a95.4 95.4 0 0 1 16.8 2.4 164.6 164.6 0 0 1 17.5 5c11.8 4 24 9.3 35.7 14.4a537 537 0 0 0 31.7 12.9 169 169 0 0 0 15.2 4.7 97.4 97.4 0 0 0 14.4 2.7c4.7.4 10 .7 15.4.7 18.5 0 39-2.6 58.7-5.2h.4c19.6-2.5 39.8-5.1 57.5-5.1a133.2 133.2 0 0 1 18.7 1.1c23.4 3.4 48.9 26.5 73.5 49 11.4 10.3 22.1 20 32.7 28a122.9 122.9 0 0 0 15.4 10 53.9 53.9 0 0 0 14.6 5.7 149.7 149.7 0 0 0 15.3 2.3c4.8.5 9.6.7 14.5.7a166.8 166.8 0 0 0 35.4-4c11.4-2.4 22-5.7 32-8.8l2.5-.8 1.3-.4c19-6 37.1-11.6 55.5-11.6a84.8 84.8 0 0 1 11.5.7c31.9 4.4 51.2 16 69.8 27.2 9.8 6 19.1 11.5 30 16 10 4.2 21.1 8.2 33 11.8a504.6 504.6 0 0 0 59.2 14.4v50.4z"/>
</svg>
