<svg xmlns="http://www.w3.org/2000/svg" viewBox="-2313 -8720 1920 250">
  <defs>
    <style>
      .a{fill:#fff}
    </style>
    <clipPath id="a">
      <path d="M0 0h1920v250H0z" class="a" transform="translate(0 422)"/>
    </clipPath>
  </defs>
  <g clip-path="url(#a)" transform="translate(-2313 -9142)">
    <path d="M0-413.7h1920v992.9s-48.2-6.1-92.1-20.2c-32-10.2-51.5-28.2-99.8-33.3-51.2-5.4-96.6 28.2-168 16.8-39.7-6.3-91.7-66.6-136.2-71.5-42.3-4.6-105.4 10-150.7 6.5-39.5-3-89.8-31-131.4-32.4-37.8-1.2-71.5 49.7-157.1 57.9s-134.4-37.4-185.4-25.5c-43 10.1-91.2 121.8-188.3 125.2s-145.4-47.2-248.7-60.2-86 53.5-227.7 91S.1 672.1.1 672.1z" class="a"/>
  </g>
</svg>
